<?xml version="1.0" encoding="UTF-8"?>
<!DOCTYPE svg PUBLIC "-//W3C//DTD SVG 1.1//EN" "http://www.w3.org/Graphics/SVG/1.1/DTD/svg11.dtd">
<!-- Creator: CorelDRAW 2021 (64-Bit) -->
<svg xmlns="http://www.w3.org/2000/svg" xml:space="preserve" width="191px" height="191px" version="1.1" style="shape-rendering:geometricPrecision; text-rendering:geometricPrecision; image-rendering:optimizeQuality; fill-rule:evenodd; clip-rule:evenodd"
viewBox="0 0 49.985 49.985"
 xmlns:xlink="http://www.w3.org/1999/xlink"
 xmlns:xodm="http://www.corel.com/coreldraw/odm/2003">
 <defs>
  <style type="text/css">
   <![CDATA[
    .fil0 {fill:#A9ABAE;fill-rule:nonzero}
    .fil1 {fill:white;fill-rule:nonzero}
   ]]>
  </style>
 </defs>
 <g id="Layer_x0020_1">
  <metadata id="CorelCorpID_0Corel-Layer"/>
  <g id="_2391703220272">
   <path class="fil0" d="M49.985 24.992c0,13.803 -11.19,24.993 -24.993,24.993 -13.802,0 -24.992,-11.19 -24.992,-24.993 0,-13.802 11.19,-24.992 24.992,-24.992 13.803,0 24.993,11.19 24.993,24.992z"/>
   <path class="fil1" d="M34.715 20.899c0,6.941 -4.353,12.568 -9.723,12.568 -5.369,0 -9.722,-5.627 -9.722,-12.568 0,-6.941 4.353,-12.568 9.722,-12.568 5.37,0 9.723,5.627 9.723,12.568z"/>
   <path class="fil1" d="M24.992 34.4c-8.132,0 -15.29,2.486 -19.471,6.253 4.581,5.689 11.599,9.332 19.471,9.332 7.873,0 14.891,-3.643 19.472,-9.332 -4.181,-3.767 -11.339,-6.253 -19.472,-6.253z"/>
   <path class="fil1" d="M26.078 40.864l-2.171 0c-2.043,0 -3.714,-1.672 -3.714,-3.714l0 -8.443c0,-2.043 1.671,-3.715 3.714,-3.715l2.171 0c2.043,0 3.714,1.672 3.714,3.715l0 8.443c0,2.042 -1.671,3.714 -3.714,3.714z"/>
   <path class="fil1" d="M16.612 21.482c0.567,1.63 0.342,3.188 -0.501,3.481 -0.843,0.293 -1.985,-0.791 -2.551,-2.421 -0.566,-1.63 -0.342,-3.189 0.501,-3.481 0.843,-0.293 1.986,0.791 2.551,2.421z"/>
   <path class="fil1" d="M33.372 21.482c-0.566,1.63 -0.341,3.188 0.502,3.481 0.843,0.293 1.985,-0.791 2.551,-2.421 0.566,-1.63 0.342,-3.189 -0.502,-3.481 -0.843,-0.293 -1.985,0.791 -2.551,2.421z"/>
   <path class="fil1" d="M16.484 21.429c-1.264,-2.298 -2.563,-4.736 -2.499,-7.358 0.065,-2.621 2.061,-5.388 4.682,-5.293 0.457,0.017 0.915,0.117 1.368,0.053 0.907,-0.13 1.578,-0.87 2.313,-1.416 1.659,-1.23 3.968,-1.522 5.88,-0.743 1.181,0.481 2.182,1.323 3.334,1.871 2.147,1.02 4.793,0.913 6.851,-0.277 -0.429,0.807 -1.156,1.452 -2.008,1.783 0.786,0.25 1.657,0.226 2.428,-0.068 -0.465,0.842 -1.234,1.512 -2.131,1.857 0.665,0.046 1.331,0.092 1.996,0.137 -0.568,0.804 -1.379,1.434 -2.298,1.785 0.521,0.017 1.042,0.033 1.564,0.05 -0.389,1.151 -1.395,2.071 -2.576,2.356 0.336,0.004 0.672,0.009 1.009,0.013 -1.102,1.59 -2.204,3.179 -3.305,4.769 -0.315,0.454 -0.642,0.92 -1.107,1.218 -0.387,0.248 -0.842,0.362 -1.289,0.462 -3.264,0.732 -6.641,0.952 -9.971,0.65 -1.14,-0.104 -2.331,-0.291 -3.236,-0.991 -0.906,-0.699 -1.391,-2.066 -0.768,-3.026l-0.237 2.168z"/>
   <path class="fil1" d="M18.725 36.775c0.072,-1.319 0.236,-2.633 0.491,-3.929 0.652,0.746 1.759,0.839 2.748,0.88 1.498,0.061 2.996,0.122 4.494,0.182 0.175,1.022 0.296,2.224 -0.442,2.952 -0.342,0.337 -0.815,0.505 -1.278,0.633 -1.01,0.281 -2.057,0.427 -3.105,0.434 -1.243,0.008 -2.725,-0.364 -3.123,-1.542 0.135,-0.111 0.27,-0.222 0.405,-0.333l-0.19 0.723z"/>
   <path class="fil1" d="M31.26 36.775c-0.072,-1.319 -0.236,-2.633 -0.492,-3.929 -0.652,0.746 -1.758,0.839 -2.748,0.88 -1.498,0.061 -2.996,0.122 -4.494,0.182 -0.174,1.022 -0.296,2.224 0.443,2.952 0.342,0.337 0.815,0.505 1.278,0.633 1.009,0.281 2.056,0.427 3.104,0.434 1.244,0.008 2.726,-0.364 3.123,-1.542 -0.135,-0.111 -0.269,-0.222 -0.404,-0.333l0.19 0.723z"/>
  </g>
 </g>
</svg>
