<?xml version="1.0" encoding="UTF-8"?>
<!DOCTYPE svg PUBLIC "-//W3C//DTD SVG 1.1//EN" "http://www.w3.org/Graphics/SVG/1.1/DTD/svg11.dtd">
<!-- Creator: CorelDRAW 2021 (64-Bit) -->
<svg xmlns="http://www.w3.org/2000/svg" xml:space="preserve" width="93px" height="52px" version="1.1" style="shape-rendering:geometricPrecision; text-rendering:geometricPrecision; image-rendering:optimizeQuality; fill-rule:evenodd; clip-rule:evenodd"
viewBox="0 0 1.861 1.039"
 xmlns:xlink="http://www.w3.org/1999/xlink"
 xmlns:xodm="http://www.corel.com/coreldraw/odm/2003">
 <defs>
  <style type="text/css">
   <![CDATA[
    .fil0 {fill:#FEFEFE}
    .fil1 {fill:#00DBA1}
    .fil2 {fill:#FEFEFE;fill-rule:nonzero}
    .fil3 {fill:#00DBA1;fill-rule:nonzero}
   ]]>
  </style>
 </defs>
 <g id="Layer_x0020_1">
  <metadata id="CorelCorpID_0Corel-Layer"/>
  <g id="_2853698054496">
   <g>
    <path class="fil0" d="M0.674 0.018l-0.293 0.182c-0.002,0.001 -0.003,0.004 -0.003,0.006 0,0.048 0,0.096 0,0.143 0,0.003 0.001,0.005 0.003,0.006l0.293 0.182c0.002,0.002 0.005,0.002 0.007,0 0.002,-0.001 0.004,-0.003 0.004,-0.006l0 -0.132c0,-0.002 -0.002,-0.004 -0.004,-0.005l-0.146 -0.091c-0.002,-0.002 -0.005,-0.003 -0.007,-0.003l-0.065 0.001c-0.002,0 -0.003,0.003 -0.003,0.005 0,0.003 0.001,0.005 0.003,0.006l0.173 0.107c0.002,0.001 0.003,0.003 0.003,0.006l0 0.024c0,0.002 -0.001,0.005 -0.004,0.006 -0.002,0.001 -0.005,0.001 -0.007,0l-0.197 -0.124c-0.002,-0.002 -0.003,-0.004 -0.003,-0.006 0,-0.03 0,-0.063 0,-0.094 0,-0.003 0.001,-0.005 0.003,-0.006l0.197 -0.124c0.002,-0.002 0.005,-0.002 0.007,-0.001 0.003,0.002 0.004,0.004 0.004,0.006l0 0.024c0,0.003 -0.001,0.005 -0.003,0.006l-0.173 0.107c-0.002,0.001 -0.003,0.003 -0.003,0.006 0,0.002 0.001,0.006 0.003,0.006l0.064 0c0.003,0 0.006,-0.001 0.008,-0.002l0.146 -0.091c0.002,-0.002 0.004,-0.004 0.004,-0.006l0 -0.132c0,-0.003 -0.002,-0.005 -0.004,-0.006 -0.002,-0.001 -0.005,-0.001 -0.007,0z"/>
    <path class="fil1" d="M0.728 0.432l0.057 0.119c0.001,0.003 0.003,0.004 0.006,0.004 0.002,0 0.004,-0.001 0.006,-0.003l0.189 -0.292c0.003,-0.003 0.002,-0.007 -0.002,-0.009l-0.027 -0.018c-0.001,-0.001 -0.003,-0.001 -0.005,-0.001 -0.002,0.001 -0.003,0.002 -0.004,0.003l-0.145 0.223c-0.001,0.002 -0.003,0.003 -0.006,0.003 -0.002,0 -0.004,-0.001 -0.005,-0.004l-0.011 -0.022c-0.001,-0.002 -0.001,-0.004 0.001,-0.006l0.215 -0.332c0.002,-0.002 0.004,-0.003 0.007,-0.003 0.002,0 0.004,0.002 0.005,0.004l0.011 0.022c0.001,0.002 0,0.004 -0.001,0.006l-0.038 0.059c-0.002,0.004 -0.001,0.008 0.002,0.01l0.027 0.018c0.003,0.002 0.008,0.001 0.01,-0.002l0.052 -0.081c0.001,-0.002 0.002,-0.004 0,-0.006l-0.056 -0.12c-0.001,-0.002 -0.003,-0.004 -0.006,-0.004 -0.002,0 -0.005,0.001 -0.006,0.003l-0.275 0.422c-0.002,0.002 -0.002,0.005 -0.001,0.007z"/>
    <path class="fil0" d="M1.127 0.018l0.292 0.182c0.002,0.001 0.004,0.004 0.004,0.006 0,0.048 0,0.096 0,0.143 0,0.003 -0.002,0.005 -0.004,0.006l-0.292 0.182c-0.002,0.002 -0.005,0.002 -0.007,0 -0.002,-0.001 -0.004,-0.003 -0.004,-0.006l0 -0.132c0,-0.002 0.001,-0.004 0.003,-0.005l0.147 -0.091c0.002,-0.002 0.005,-0.003 0.007,-0.003l0.064 0.001c0.003,0 0.004,0.003 0.004,0.005 0,0.003 -0.001,0.005 -0.004,0.006l-0.172 0.107c-0.002,0.001 -0.003,0.003 -0.003,0.006l0 0.024c0,0.002 0.001,0.005 0.004,0.006 0.002,0.001 0.004,0.001 0.007,0l0.197 -0.124c0.002,-0.002 0.003,-0.004 0.003,-0.006 0,-0.03 0,-0.063 0,-0.094 0,-0.003 -0.001,-0.005 -0.003,-0.006l-0.197 -0.124c-0.003,-0.002 -0.005,-0.002 -0.007,-0.001 -0.003,0.002 -0.004,0.004 -0.004,0.006l0 0.024c0,0.003 0.001,0.005 0.003,0.006l0.173 0.107c0.002,0.001 0.003,0.003 0.003,0.006 0,0.002 -0.001,0.006 -0.003,0.006l-0.064 0c-0.003,0 -0.006,-0.001 -0.008,-0.002l-0.147 -0.091c-0.002,-0.002 -0.003,-0.004 -0.003,-0.006l0 -0.132c0,-0.003 0.002,-0.005 0.004,-0.006 0.002,-0.001 0.005,-0.001 0.007,0z"/>
   </g>
   <g>
    <path class="fil2" d="M0.149 0.962c-0.023,0 -0.044,-0.004 -0.062,-0.011 -0.019,-0.007 -0.034,-0.017 -0.047,-0.031 -0.013,-0.014 -0.023,-0.031 -0.03,-0.051 -0.007,-0.02 -0.01,-0.043 -0.01,-0.069 0,-0.026 0.004,-0.049 0.012,-0.069 0.008,-0.019 0.019,-0.036 0.032,-0.05 0.014,-0.014 0.03,-0.025 0.048,-0.032 0.019,-0.007 0.039,-0.01 0.06,-0.01 0.013,0 0.024,0.001 0.035,0.002 0.01,0.002 0.019,0.005 0.027,0.007 0.008,0.002 0.014,0.005 0.019,0.008 0.005,0.002 0.009,0.004 0.011,0.005l-0.017 0.046c-0.007,-0.004 -0.017,-0.008 -0.03,-0.012 -0.014,-0.004 -0.028,-0.006 -0.043,-0.006 -0.014,0 -0.026,0.002 -0.038,0.007 -0.011,0.004 -0.022,0.011 -0.03,0.02 -0.009,0.01 -0.015,0.021 -0.02,0.035 -0.005,0.014 -0.007,0.03 -0.007,0.049 0,0.016 0.002,0.031 0.006,0.045 0.003,0.014 0.009,0.025 0.017,0.035 0.007,0.01 0.017,0.018 0.029,0.024 0.012,0.005 0.026,0.008 0.043,0.008 0.02,0 0.036,-0.002 0.049,-0.006 0.012,-0.004 0.022,-0.008 0.029,-0.011l0.015 0.046c-0.004,0.002 -0.008,0.004 -0.015,0.007 -0.006,0.002 -0.013,0.004 -0.021,0.007 -0.009,0.002 -0.018,0.004 -0.028,0.005 -0.011,0.001 -0.022,0.002 -0.034,0.002zm0.35 -0.124c0,0.019 -0.002,0.036 -0.008,0.051 -0.005,0.015 -0.013,0.028 -0.022,0.039 -0.01,0.01 -0.022,0.019 -0.036,0.025 -0.014,0.006 -0.029,0.008 -0.046,0.008 -0.016,0 -0.032,-0.002 -0.045,-0.008 -0.014,-0.006 -0.026,-0.015 -0.036,-0.025 -0.009,-0.011 -0.017,-0.024 -0.023,-0.039 -0.005,-0.015 -0.008,-0.032 -0.008,-0.051 0,-0.018 0.003,-0.035 0.008,-0.05 0.006,-0.015 0.014,-0.028 0.024,-0.039 0.01,-0.01 0.021,-0.019 0.035,-0.024 0.014,-0.006 0.029,-0.009 0.045,-0.009 0.017,0 0.032,0.003 0.046,0.009 0.013,0.005 0.025,0.014 0.035,0.024 0.01,0.011 0.018,0.024 0.023,0.039 0.006,0.015 0.008,0.032 0.008,0.05zm-0.055 0c0,-0.023 -0.005,-0.041 -0.015,-0.055 -0.01,-0.013 -0.024,-0.02 -0.042,-0.02 -0.018,0 -0.032,0.007 -0.042,0.02 -0.01,0.014 -0.014,0.032 -0.014,0.055 0,0.024 0.004,0.042 0.014,0.056 0.01,0.014 0.024,0.021 0.042,0.021 0.018,0 0.032,-0.007 0.042,-0.021 0.01,-0.014 0.015,-0.032 0.015,-0.056zm0.154 0c0,0.024 0.005,0.042 0.017,0.056 0.011,0.013 0.026,0.02 0.046,0.02 0.009,0 0.016,0 0.023,-0.001 0.006,-0.001 0.011,-0.002 0.015,-0.002l0 -0.134c-0.005,-0.004 -0.012,-0.007 -0.019,-0.01 -0.008,-0.002 -0.017,-0.004 -0.026,-0.004 -0.019,0 -0.034,0.007 -0.043,0.02 -0.009,0.014 -0.013,0.032 -0.013,0.055zm0.155 0.11c-0.011,0.003 -0.025,0.006 -0.041,0.009 -0.016,0.003 -0.033,0.004 -0.051,0.004 -0.018,0 -0.035,-0.003 -0.05,-0.008 -0.014,-0.006 -0.027,-0.014 -0.037,-0.025 -0.01,-0.01 -0.018,-0.023 -0.024,-0.038 -0.005,-0.015 -0.008,-0.032 -0.008,-0.051 0,-0.018 0.003,-0.035 0.007,-0.05 0.005,-0.015 0.012,-0.028 0.02,-0.039 0.009,-0.01 0.02,-0.019 0.033,-0.025 0.013,-0.005 0.028,-0.008 0.044,-0.008 0.012,0 0.022,0.001 0.03,0.004 0.009,0.002 0.016,0.005 0.023,0.009l0 -0.112 0.054 -0.009 0 0.339zm0.123 0.007l-0.054 0 0 -0.233 0.054 0 0 0.233zm0.006 -0.302c0,0.01 -0.004,0.018 -0.01,0.024 -0.007,0.006 -0.014,0.009 -0.023,0.009 -0.01,0 -0.018,-0.003 -0.024,-0.009 -0.007,-0.006 -0.01,-0.014 -0.01,-0.024 0,-0.01 0.003,-0.018 0.01,-0.024 0.006,-0.006 0.014,-0.009 0.024,-0.009 0.009,0 0.016,0.003 0.023,0.009 0.006,0.006 0.01,0.014 0.01,0.024zm0.063 0.076c0.01,-0.003 0.024,-0.006 0.04,-0.008 0.017,-0.003 0.035,-0.004 0.056,-0.004 0.019,0 0.035,0.002 0.047,0.008 0.013,0.005 0.023,0.012 0.031,0.021 0.008,0.01 0.013,0.021 0.016,0.034 0.003,0.014 0.005,0.028 0.005,0.044l0 0.131 -0.054 0 0 -0.123c0,-0.012 -0.001,-0.023 -0.003,-0.032 -0.001,-0.008 -0.004,-0.015 -0.008,-0.021 -0.003,-0.005 -0.009,-0.009 -0.015,-0.012 -0.006,-0.003 -0.014,-0.004 -0.023,-0.004 -0.007,0 -0.014,0.001 -0.022,0.002 -0.007,0 -0.013,0.001 -0.016,0.002l0 0.188 -0.054 0 0 -0.226zm0.303 0.103c0,0.023 0.005,0.04 0.015,0.051 0.01,0.01 0.023,0.016 0.039,0.016 0.009,0 0.017,-0.002 0.024,-0.004 0.008,-0.002 0.014,-0.005 0.019,-0.009l0 -0.121c-0.004,0 -0.009,-0.001 -0.015,-0.002 -0.005,-0.001 -0.012,-0.001 -0.021,-0.001 -0.02,0 -0.035,0.006 -0.045,0.019 -0.01,0.013 -0.016,0.03 -0.016,0.051zm0.151 0.1c0,0.037 -0.01,0.064 -0.029,0.081 -0.018,0.018 -0.047,0.026 -0.086,0.026 -0.015,0 -0.029,-0.001 -0.042,-0.003 -0.014,-0.003 -0.026,-0.006 -0.037,-0.01l0.01 -0.046c0.009,0.004 0.02,0.007 0.031,0.01 0.012,0.002 0.025,0.003 0.038,0.003 0.022,0 0.038,-0.004 0.047,-0.013 0.009,-0.009 0.014,-0.022 0.014,-0.04l0 -0.009c-0.006,0.003 -0.013,0.005 -0.021,0.008 -0.009,0.003 -0.019,0.004 -0.031,0.004 -0.014,0 -0.028,-0.002 -0.04,-0.007 -0.013,-0.005 -0.023,-0.012 -0.032,-0.021 -0.009,-0.009 -0.016,-0.021 -0.021,-0.035 -0.005,-0.013 -0.007,-0.029 -0.007,-0.048 0,-0.017 0.003,-0.032 0.008,-0.046 0.005,-0.015 0.013,-0.027 0.023,-0.037 0.009,-0.01 0.022,-0.018 0.036,-0.024 0.014,-0.005 0.03,-0.008 0.049,-0.008 0.017,0 0.034,0.001 0.05,0.004 0.015,0.002 0.029,0.005 0.04,0.008l0 0.203zm0.19 -0.286l0.056 0 0 0.309 -0.056 0 0 -0.309zm0.125 0.014l0.054 -0.009 0 0.071 0.083 0 0 0.045 -0.083 0 0 0.095c0,0.019 0.003,0.032 0.009,0.04 0.006,0.008 0.016,0.012 0.03,0.012 0.01,0 0.019,-0.001 0.027,-0.003 0.007,-0.002 0.013,-0.004 0.018,-0.006l0.009 0.043c-0.007,0.003 -0.015,0.006 -0.025,0.008 -0.01,0.003 -0.022,0.005 -0.036,0.005 -0.016,0 -0.03,-0.003 -0.041,-0.007 -0.012,-0.005 -0.02,-0.011 -0.027,-0.02 -0.007,-0.008 -0.011,-0.018 -0.014,-0.03 -0.003,-0.012 -0.004,-0.026 -0.004,-0.042l0 -0.202z"/>
    <path class="fil3" d="M1.528 0.926c0,0.01 -0.003,0.019 -0.01,0.025 -0.007,0.007 -0.016,0.01 -0.025,0.01 -0.011,0 -0.019,-0.003 -0.026,-0.01 -0.007,-0.006 -0.01,-0.015 -0.01,-0.025 0,-0.011 0.003,-0.019 0.01,-0.026 0.007,-0.007 0.015,-0.01 0.026,-0.01 0.009,0 0.018,0.003 0.025,0.01 0.007,0.007 0.01,0.015 0.01,0.026z"/>
   </g>
  </g>
 </g>
</svg>
