<?xml version="1.0" encoding="UTF-8"?>
<!DOCTYPE svg PUBLIC "-//W3C//DTD SVG 1.1//EN" "http://www.w3.org/Graphics/SVG/1.1/DTD/svg11.dtd">
<!-- Creator: CorelDRAW 2021 (64-Bit) -->
<svg xmlns="http://www.w3.org/2000/svg" xml:space="preserve" width="796px" height="211px" version="1.1" style="shape-rendering:geometricPrecision; text-rendering:geometricPrecision; image-rendering:optimizeQuality; fill-rule:evenodd; clip-rule:evenodd"
viewBox="0 0 368.645 97.717"
 xmlns:xlink="http://www.w3.org/1999/xlink"
 xmlns:xodm="http://www.corel.com/coreldraw/odm/2003">
 <defs>
  <style type="text/css">
   <![CDATA[
    .fil1 {fill:#2E4562;fill-rule:nonzero}
    .fil2 {fill:#2E4562;fill-rule:nonzero}
    .fil0 {fill:url(#id0)}
   ]]>
  </style>
  <linearGradient id="id0" gradientUnits="userSpaceOnUse" x1="119.741" y1="53.822" x2="333.565" y2="53.822">
   <stop offset="0" style="stop-opacity:1; stop-color:#F58634"/>
   <stop offset="1" style="stop-opacity:1; stop-color:#FEBF2C"/>
  </linearGradient>
 </defs>
 <g id="Layer_x0020_1">
  <metadata id="CorelCorpID_0Corel-Layer"/>
  <g id="_2853539854272">
   <path class="fil0" d="M333.589 61.248c0.027,0.6 -0.41,1.158 -1.283,1.587 -0.191,-0.195 -0.465,-0.362 -0.492,-0.658 -1.04,0.064 -1.45,-0.2 -2.267,-0.233 -1.828,0.696 -3.907,0.165 -6.012,0.462l0.192 -0.194c-1.77,-0.103 -3.028,0.232 -3.85,-0.035 -0.354,0.1 -0.544,0.267 -0.956,0.329 -0.574,0.035 -0.545,-0.265 -0.876,-0.365 -0.622,0.365 -3.523,-0.197 -3.139,0.629 -0.626,-0.229 -0.9,-0.097 -1.829,-0.03 0.274,-0.563 1.009,-0.334 1.719,-0.663 1.97,-0.929 0.626,-2.083 -1.035,-2.979 -0.902,0.035 -1.53,-0.094 -2.267,-0.194 -0.386,0.1 -0.546,0.326 -0.495,0.626 1.775,-0.793 3.06,0.561 2.214,1.289 -0.494,0.065 -0.463,-0.132 -1.012,-0.032 -0.273,0.032 -0.3,0.167 -0.598,0.229 0.543,0.232 0.378,0.335 0.735,0.764 -0.41,-0.035 -0.517,0.097 -0.791,0.135 2.183,0.529 -0.439,1.158 -0.766,1.716 -0.299,-0.133 -1.065,-0.03 -0.953,0.267 0.324,0.265 0.764,-0.167 1.392,-0.067l-0.139 0.396c-0.327,-0.132 -1.035,-0.035 -1.61,-0.035 0,0.3 0.657,0.264 0.49,0.696 -0.162,0.067 -0.434,0.135 -0.79,0.135 0.3,0.294 0.218,0.365 -0.112,0.596 0.192,0.262 0.876,0.23 1.256,0.362 0.112,0.828 -0.163,0.993 0.247,1.689 -0.215,0.1 -0.71,0.129 -0.955,0.229 0.053,0.168 0.381,0.2 0.82,0.168 0.109,0.263 -0.767,0.1 -0.517,0.428 -0.55,-0.065 -0.96,-0.096 -1.205,0.129 0.711,-0.294 1.312,1.196 -0.245,1.032 -0.082,-0.397 0.575,-0.597 -0.162,-0.993 -0.601,0.396 -1.094,0.528 -1.285,0.961 1.093,0.096 1.447,0.825 -0.056,0.892 0.165,0.294 0.657,0.397 0.902,0.658l-0.573 0.136c-0.082,0.231 0.298,0.167 0.628,0.167 0.083,0.294 -0.574,0.264 -0.547,0.529 0.601,0.264 0.492,-0.265 1.173,-0.235 -0.817,0.467 -0.654,1.393 -1.091,2.021 -0.492,0.032 -0.575,0.197 -1.2,0.168 -0.056,0.325 0.298,0.393 0.681,0.461 -0.628,0.364 0.056,0.825 -0.844,1.157 -0.577,-0.1 0,-0.429 -0.084,-0.599 -0.655,-0.029 -0.821,0.17 -0.956,0.335 -0.63,-0.364 0.764,-0.664 1.062,-0.961 -0.953,-0.132 -1.416,-1.028 -1.033,-1.551 -0.519,-0.171 -1.394,-0.135 -2.051,-0.203l0.41 0.068c0,0.397 -0.682,0.461 -0.682,0.825 -0.33,0.068 -0.356,-0.065 -0.599,-0.065 -0.548,0.133 0.051,0.533 0.08,0.691 -0.191,-0.129 -0.982,-0.523 -0.793,0.036 -1.639,0.267 -2.648,-0.462 -3.635,0.067 0.359,-0.397 -0.08,-0.761 -0.873,-0.465 0.383,-0.329 0.248,-0.329 -0.109,-0.628 0.795,-0.132 1.448,0.264 1.613,-0.132 -0.165,-0.297 -1.613,0.202 -1.286,-0.365 -0.79,0.036 -1.011,0.3 -1.75,0.365 0.112,0.329 0.55,0.496 0.904,0.661 -0.135,0.197 -1.338,-0.265 -1.828,0.099 0.242,0.333 0.409,0.036 1.036,0.036 0.327,0.168 -0.081,0.397 0.494,0.593 -0.41,0.367 -0.548,-0.325 -0.875,-0.361 -0.546,-0.064 0.22,0.461 -0.33,0.397 0.55,0.364 0.737,0.264 1.287,0.558 -0.55,0.1 -0.71,0.763 -1.149,0.364 -0.654,0.1 -0.082,0.167 -0.138,0.499 0.33,0 0.684,-0.035 1.011,-0.035 -0.546,0.632 -1.336,-0.259 -2.238,-0.126 -0.054,0.329 0.216,0.458 0.846,0.361 -0.33,0.197 0.298,0.294 -0.109,0.526 -0.352,-0.026 0.136,-0.329 -0.463,-0.393 -0.766,-0.065 -0.274,0.393 -0.958,0.367 -0.162,-0.238 -0.626,-0.338 -0.298,-0.5 -1.288,0.133 -1.121,-0.599 -2.459,-0.396 0.3,0.364 0.873,0.629 1.338,0.922 0.272,-0.026 0.134,-0.232 0.134,-0.393 0.332,0.029 0.55,0.129 0.849,0.161l-0.767 0.332c0.492,-0.1 0.357,0.532 1.092,0.567 -0.299,0.361 -0.27,0.396 -0.051,0.893 -0.301,-0.203 -0.903,-0.203 -1.257,-0.332 0,-0.267 0.708,-0.2 0.708,-0.429 -0.462,-0.132 -0.875,-0.202 -0.242,-0.396 -0.22,-0.203 -1.588,0.029 -0.851,-0.367 -0.708,0.064 -1.147,0 -1.637,-0.036 0.136,-0.526 0.085,-1.284 -1.035,-1.551 0.817,-0.067 1.61,-0.132 1.525,-0.561l-0.601 -0.103 0.111 -0.499c0.766,0.135 0.984,-0.062 1.637,0.038l-0.354 0.393c0.822,0.5 2.104,-0.196 2.757,-0.393 -0.653,-0.1 -1.091,-0.365 -2.262,-0.4 -0.141,-0.428 0.271,0 0.79,-0.129 0.027,-0.367 -0.657,-0.299 -0.873,-0.467 -0.684,0.1 0,0.203 -0.357,0.397 -0.899,-0.194 -1.5,-0.558 -1.774,-1.125 -0.629,0.167 -0.875,0.07 -1.61,0.07 0.572,-0.299 -0.138,-0.599 -0.165,-1.09 -0.546,0.062 -0.435,0.426 -1.15,0.426 0.277,0.396 -0.545,0.825 0.325,0.893 -0.107,0.164 -0.405,0.2 -0.759,0.232 0,-0.364 -0.3,-0.531 -0.521,-0.76 -0.628,0.167 -1.472,0.331 -2.212,0.167 -0.191,0.426 0.519,0.293 1.065,0.267 -0.325,0.094 -0.519,0.391 -0.136,0.491 -0.71,-0.033 -1.777,0.364 -2.24,-0.1 -0.219,-0.029 0.052,0.561 0.303,0.599 -0.413,0.232 -1.15,0.329 -1.751,0.491l0.436 0.367c-0.79,-0.103 -1.011,0.103 -1.61,-0.032 -0.873,0.361 0.708,0.496 0.764,0.992 0.49,-0.102 0.599,-0.067 1.174,-0.267 0.766,0.2 -0.9,0.332 -0.136,0.499 -0.301,0.135 -0.463,0.329 -0.956,0.329 0.357,0.1 0.381,0.368 1.038,0.268 0.165,0.365 0.03,0.558 -0.492,0.626 1.147,0.431 0.628,-0.3 1.533,-0.461 0,-0.036 0.758,0.692 -0.138,0.728 0.873,0 1.993,0.068 2.647,-0.235 0,0.467 0.466,0.399 1.092,0.667 -0.735,0 -0.793,-0.1 -1.419,0.061l-0.027 -0.296c-1.147,0.035 -0.899,0.296 -1.804,0.065 0.436,0.364 1.612,0.396 2.869,0.264l0.245 0.202 0.024 0.194c-0.323,0.068 -0.378,-0.058 -0.623,-0.058l0.654 0.361c-0.079,0.162 -0.274,0.262 -0.545,0.329 -0.684,-0.229 -1.147,0.035 -1.858,-0.229 -0.162,-0.303 0.9,-0.1 0.956,-0.335 -0.519,-0.197 -1.421,0.199 -2.211,0.199l0.082 0.5c0.162,0.065 1.227,0.329 0.274,0.396 0.298,0.362 0.407,-0.067 1.009,-0.067 0.271,0.132 0.135,0.396 -0.138,0.532 0.739,0.458 1.971,-0.236 1.692,-0.796 0.521,0.296 0.33,0.229 1.067,0.264 0.247,0.326 -0.602,0.194 -0.982,0.229 0.218,0.167 0.082,0.567 0.681,0.496 -0.546,0.5 -0.546,1.061 0.029,1.59 -0.386,-0.162 -0.686,-0.4 -1.094,-0.558 -0.928,0.129 -0.273,0.326 -0.109,0.625 -0.681,0.033 -0.981,-0.164 -1.447,-0.264 -0.245,-0.332 0.844,-0.135 0.953,-0.332l-0.436 -0.264c-0.517,0.099 -0.6,0.429 -0.927,0.631 -0.602,-0.135 0.219,-0.467 -0.112,-0.796 -0.625,-0.067 -0.356,0.264 -0.979,0.233 0.218,-0.5 -1.07,-0.829 -1.969,-1.029 0.058,-0.196 0.766,-0.1 0.546,-0.429 -0.163,-0.396 -0.983,-0.428 -1.529,-0.632 0,-0.393 0.791,0.1 0.983,-0.229 0,0.165 0.359,0.433 1.256,0.329 -1.115,-0.293 -1.937,-0.825 -2.81,-1.286 0.05,-0.467 1.011,-0.567 2.155,-0.567 0.192,-0.032 0.08,-0.229 0.381,-0.229l-1.011 0.129c-0.325,-0.364 -0.924,-0.429 -1.475,-0.429 0.056,-0.129 0.221,-0.2 0.575,-0.229 -0.162,-0.068 -0.381,-0.135 -0.625,-0.168 -0.575,0.133 0.327,0.268 -0.136,0.397 -1.069,-0.397 -2.023,-0.064 -3.226,0.136 0.384,-0.2 0,-0.533 -0.489,-0.568 -1.149,-0.026 -2.025,0.861 -2.406,0.1 0.464,-0.428 3.577,-0.229 2.895,-0.828 0.328,-0.162 1.502,0.1 1.776,-0.361 -0.112,-0.197 -0.793,-0.068 -0.682,-0.397 -0.766,0.064 -0.851,0.397 -1.751,0.397 0.628,-0.265 0.189,-0.726 -0.899,-0.558l0.575 -0.236c-0.386,-0.167 -0.604,-0.432 -1.097,-0.564 -0.817,0.3 -1.609,0.632 -1.852,1.196 -0.357,0 -0.17,-0.338 -0.439,-0.396 -1.693,-0.036 -1.392,0.792 -2.704,0.919l0.599 0.071c-0.654,0.393 -1.256,0.992 -0.792,1.325 -0.983,0.064 -0.328,-0.827 -1.337,-0.729 0.053,-0.136 0.492,-0.098 0.793,-0.136 0.053,-0.361 -0.25,-0.493 -0.683,-0.56 0.028,-0.165 0.489,-0.133 0.79,-0.133 -0.79,-0.532 -0.601,-0.1 -0.328,-0.793 -0.545,-0.132 -1.256,-0.17 -1.091,-0.661 -1.093,-0.235 -1.777,-0.038 -3.063,-0.07 -0.108,0.267 0.328,0.234 0.279,0.463 -0.989,-0.129 -0.329,-0.558 -1.152,-0.86 -0.354,0.035 -0.052,0.364 -0.327,0.429 -0.3,-0.065 -0.463,-0.226 -0.492,-0.461 -0.408,0.032 0.029,0.429 -0.33,0.499 -0.759,-0.038 -0.681,0.029 -1.198,-0.038 -1.258,0.399 -1.665,1.392 -1.913,2.088 -0.49,-0.034 -0.984,-0.232 -0.79,0.233 -0.492,0 -1.562,0.129 -1.011,-0.168 -0.682,0.1 0,0.229 -0.354,0.397 -0.413,-0.1 -0.467,-0.432 -1.067,-0.432 -0.493,0.035 -0.054,0.299 0.189,0.299 -0.354,0.1 -0.762,0.1 -1.584,0.033 0.822,0.235 -0.138,0.267 -0.381,0.032 -0.22,0.132 -0.327,0.303 -0.984,0.235 0.408,0.294 0.79,0.068 1.639,0.033 -0.463,0.261 0.272,0.3 0.658,0.364l-0.575 0.329c-0.437,-0.464 -0.463,0.135 -1.038,-0.226 -0.165,0.429 -0.41,0.094 -0.711,0.623l0.219 0.17c0.955,-0.468 2.019,-0.364 2.975,-0.5l-0.189 0.197c1.282,0.035 1.557,-0.329 2.759,-0.526 0.053,0.329 0.626,0.361 1.254,0.361 0.305,0.298 -0.628,0.104 -0.328,0.4 -0.654,0.1 -0.654,-0.167 -1.011,0.068 0.279,0.226 1.038,-0.068 1.395,-0.068 0,0.129 0.026,0.262 0.273,0.294 -0.984,-0.062 -1.202,0.631 -1.035,1.325 -0.574,0.135 -0.875,0.331 -0.495,0.625 -0.792,0.135 -1.038,0.171 -1.639,-0.029 -0.245,0.397 -2.321,0.264 -1.445,1.06 -0.22,0.136 -0.711,0.136 -1.203,0.165 0.027,-0.132 0.354,-0.1 0.602,-0.132 0,-0.235 -0.221,-0.297 -0.66,-0.264 0.085,-0.3 1.014,-0.2 0.931,-0.565 -0.574,-0.164 -2.184,-0.364 -2.456,-0.1 -0.245,-0.264 -0.572,-0.329 -1.232,-0.135 0,-0.161 -0.162,-0.264 -0.434,-0.294 0.272,-0.36 0.325,0.236 0.817,0.069 0.245,-0.1 -0.574,-0.532 -1.285,-0.429l0.138 -0.436c-1.146,0.236 -1.857,-0.393 -3.281,-0.329 -0.681,0.068 0.575,0.365 -0.354,0.298 -0.463,-0.065 0.056,-0.465 -1.474,-0.33 0.082,-0.364 -0.489,-0.364 -0.489,-0.693 -0.573,0.029 -0.954,0.162 -0.735,0.526 -0.549,0.167 -1.181,0.068 -1.288,-0.332 0.545,-0.032 0.301,0.4 1.069,0.264 0.049,-0.326 -1.205,-0.458 -1.45,-0.264 -0.056,-0.1 0.027,-0.265 0.546,-0.326 -1.067,-0.599 -3.223,0.1 -3.768,-0.829 -0.464,0.397 -0.548,0.136 -1.174,0.262 0.107,0.067 0.216,0.167 0.434,0.167 -0.49,0.136 -1.501,0 -2.595,0.197l0.056 0.397c0.437,0.032 0.383,-0.162 0.356,-0.294 0.517,-0.068 0.789,0.496 1.227,0.161 -0.055,0.165 -0.082,0.796 0.137,0.764 0.657,0.297 2.785,-0.429 3.576,-0.332 -0.9,0.332 -2.648,0.793 -4.122,0.764 -0.248,0.1 0.276,0.329 0.244,0.394 0.083,0.135 -1.146,0.167 -0.354,0.3 -0.109,0.325 -0.627,-0.036 -0.982,0.061 0.519,0.335 1.8,0.303 1.72,0.732 0.822,-0.13 0.984,0.132 1.639,0.132 0.356,-0.465 -2.158,-0.394 -1.967,-0.925 0.575,-0.036 0.519,0.267 1.065,0.267 0.409,-0.167 -0.519,-0.432 -0.519,-0.699 0.928,0.132 1.338,0.532 1.749,0.928 0.465,-0.132 0.382,0 1.011,-0.132 -0.301,0.167 -0.165,0.461 0.438,0.393 -0.327,0.068 0.11,0.464 -0.327,0.5 0.573,-0.132 0.378,0.66 0.955,0.86 0.924,-0.399 1.555,-0.264 2.592,-0.2 0.44,-0.267 -0.327,-0.164 -0.268,-0.496 0.38,0.129 0.897,0.2 0.897,0.561 -0.711,0.268 -1.749,0.664 -2.566,0.632 0.082,0.194 0.546,0.164 1.038,0.132 -0.466,0.297 -1.504,0.032 -1.45,-0.335 -0.9,0.303 -1.336,0.1 -2.185,0.303 0.221,0.264 0.301,0.094 0.82,0.064l-0.544 0.432c-0.303,-0.135 -0.494,-0.496 -0.303,-0.596l-0.41 0c-0.601,0 0.573,0.261 -0.135,0.297 -0.109,0.231 -0.085,-0.197 -0.466,-0.367 -0.46,0.202 -1.094,0.598 -1.802,0.07 0.573,-0.032 1.313,0 1.584,-0.168 -1.065,0.065 -2.32,-0.529 -3.303,-0.464 0.245,0.235 0.844,0.235 1.06,0.464 -0.461,0.497 -2.292,0.3 -3.521,0.665l0.247 0.393c-0.928,0.071 -0.957,0.1 -1.801,0.071 0.189,0.232 0.979,0.132 1.091,0.461 -0.628,-0.033 -1.777,-0.461 -2.02,-0.033 0.16,0.297 0.41,-0.099 0.793,-0.032 -0.575,0.465 -0.766,0.429 -1.559,0.465 0.846,-0.236 0.271,-0.368 -0.11,-0.7 -0.63,-0.029 -0.327,0.3 -0.955,0.235 -0.519,-0.3 -1.692,-0.235 -2.132,-0.599 1.478,0.364 4.016,0.335 5.626,-0.23 -0.436,0.068 -1.721,-0.099 -2.783,0.198 0.027,-0.265 -0.794,-0.033 -0.658,-0.362 -1.937,0.164 -3.169,-0.035 -4.207,0.362l-0.242 -0.297c-0.907,0.329 -1.695,-0.065 -2.35,0.399 -0.249,0.397 0.873,0 0.655,0.397 -0.493,0.293 -0.628,-0.103 -1.232,-0.07 -0.572,0.135 0.303,0.267 0.085,0.498 -0.817,0.169 -1.149,0.033 -1.637,-0.231 -2.352,0.331 -3.06,0.596 -1.862,1.292 0.683,-0.067 0.851,-0.334 1.15,-0.564 -0.219,-0.261 -0.629,0.1 -1.012,0.065 0.274,-0.326 0.601,-0.197 0.955,-0.368 0.085,0.171 0.245,0.204 0.849,0.268 -0.029,0.165 -0.492,0.1 -0.792,0.135l-0.163 0.229c0.351,0.265 1.282,0.203 1.391,-0.164 0.192,0.264 1.502,0.232 1.392,-0.165 0.41,0.497 1.203,0.564 2.076,0.329 -0.106,-0.199 -0.79,-0.067 -0.681,-0.393 1.091,-0.239 2.017,-0.068 2.869,0.1 -0.277,1.357 4.888,0.89 6.826,1.019 -0.272,0.205 -0.817,0.267 -0.956,0.532 0.849,-0.365 1.365,-0.427 2.57,-0.497l0.051 0.397c-0.761,-0.327 -1.828,-0.065 -1.966,0.364 0.793,0.135 1.176,-0.064 0.657,0.499 0.928,0.097 0.519,-0.364 0.548,-0.628 0.71,0.165 1.062,0.129 1.586,-0.168 0.623,0.068 0.298,0.667 0.735,0.861 -0.085,0.329 -0.437,0.564 -1.339,0.564l0.08 0.593c-0.546,0.1 -0.519,-0.093 -1.009,-0.067 0.846,0.367 0.11,0.828 -0.875,0.963l0.356 -0.431c-3.741,0.461 -7.076,-0.165 -9.588,-0.497 -0.465,0.164 -0.819,0.397 -1.775,0.368 0,-0.168 -0.165,-0.268 -0.436,-0.268l0.573 -0.135c-1.121,-0.629 -1.694,-0.458 -3.878,-0.364 -0.112,0.364 0.844,0.102 0.683,0.499 -0.521,-0.135 -0.411,-0.2 -1.037,-0.068l0.16 -0.299c-0.929,0.335 -1.28,-0.426 -2.209,0 -0.793,-0.061 0.599,-0.397 -0.056,-0.397 0.056,-0.229 0.985,-0.097 1.366,-0.164 -0.081,-0.594 -1.366,-0.065 -1.832,-0.227 1.011,-0.302 -0.654,-0.302 -0.111,-0.598 -1.254,0.029 -1.254,0.393 -2.02,-0.036 -0.49,0.036 -0.602,0.2 -0.762,0.37 -0.055,0.129 0.655,0.226 0.93,0.129 -0.6,0.462 -2.023,-0.499 -3.611,-0.528 0.851,-0.732 2.759,0.094 4.403,-0.5 0.953,0.465 1.171,-0.326 2.182,-0.1 -0.084,0.265 -0.71,0.265 -1.144,0.365 0.708,0.399 1.744,-0.062 2.839,0.067 -0.768,-0.332 -1.639,-0.628 -2.568,-0.893 -0.627,-0.032 -0.327,0.294 -0.982,0.265l-0.026 -0.297c-0.822,-0.068 -0.657,0.326 -1.586,0.267 0.793,-0.267 -0.138,-0.303 -0.107,-0.734 -1.181,0 -0.356,0.302 -0.742,0.531 -1.501,0.162 -2.568,-0.1 -3.821,-0.032 -0.275,0.068 -0.141,0.265 -0.141,0.429 0.521,-0.194 1.506,-0.397 1.996,-0.1 -0.245,-0.094 -2.323,0.364 -1.118,0.564 -0.658,0.133 -0.766,0.133 -1.559,0.567l0.141 -0.399c-0.302,-0.035 -0.33,0.094 -0.575,0.094l0.077 0.335c-1.525,-0.697 -3.302,-1.39 -5.378,-1.951 -5.817,-1.622 -12.867,-0.828 -16.251,-0.264 -1.667,-0.071 -3.417,0.226 -5.081,-0.4 -0.249,0.061 0.327,0.4 -0.327,0.494 0.053,-0.558 -1.695,-0.329 -2.403,0 0.953,-0.694 -2.052,-0.362 -2.925,-0.558l0.354 -0.236c-0.598,-0.129 -1.205,-0.032 -1.557,0.267 -0.465,0.033 -0.135,-0.331 -0.297,-0.498 -1.86,0.199 -3.252,-0.529 -5.274,-0.162 0.067,-0.186 -0.095,-0.243 -0.203,-0.338 -0.309,0.001 -0.651,-0.006 -1.047,-0.024 -0.159,-0.006 -0.328,-0.004 -0.501,0.001 -0.02,0.006 -0.043,0.007 -0.066,0.003 -0.847,0.037 -1.779,0.177 -2.248,0.126 -0.514,-0.054 -0.778,-0.268 -1.144,-0.373 -0.049,0.028 -0.088,0.064 -0.117,0.108 -0.025,-0.057 -0.055,-0.108 -0.088,-0.153l-0.125 -0.011c-1.037,-0.1 -2.893,0.396 -3.25,-0.068 -1.91,0.297 -3.852,0.199 -6.445,0.264 -0.111,0.432 -2.321,0.103 -2.815,0 -0.572,0.133 -0.187,0.164 -0.138,0.432 -0.628,-0.097 -0.953,-0.329 -1.853,-0.232 -0.63,0.097 -0.221,0.267 -0.111,0.496 -0.439,0.065 -0.439,-0.134 -0.466,-0.264 -2.022,-0.299 -3.96,0.728 -5.846,0.13 -0.682,0.367 -2.84,-0.227 -3.359,0.528 -0.3,-0.1 -0.899,-0.03 -0.848,-0.361 -0.573,0 -0.464,0.296 -0.762,0.431 -0.082,-0.693 -2.241,0.033 -3.225,0.033 -0.819,0.032 -1.773,-0.497 -2.403,0.1 -1.011,-0.664 -2.374,-0.035 -4.04,0.065 -0.22,0.029 -0.141,0.2 -0.141,0.331 -2.374,-0.302 -3.848,0.198 -5.404,0.432 -0.711,0 -1.038,-0.202 -1.284,-0.467 -1.013,-0.065 -1.037,0.297 -1.75,0.367 0.053,-0.463 -1.695,0.133 -1.695,-0.332 -0.655,0.365 -1.799,0.262 -2.648,0.23 0,-0.065 -1.2,-0.265 -1.584,-0.23 -0.625,0 -0.981,0.198 -1.588,0.262 -0.65,0.035 -1.392,-0.297 -2.073,-0.329 -1.011,-0.033 -2.978,-0.133 -4.615,0.1 -0.327,-0.233 -0.465,-0.164 -0.276,-0.497 -1.446,0.796 -2.51,0 -4.013,0.162 0.138,0.267 0.873,0.235 0.873,0.564 -0.735,-0.758 -3.633,-0.064 -5.269,-0.162 0.133,0.429 1.803,0 1.692,0.629 0.738,-0.629 2.022,-0.103 3.196,-0.335 -3.036,0.731 -7.537,0.831 -9.942,1.092 1.062,0.862 4.915,-0.396 5.927,0.565 1.284,-0.297 1.503,-0.232 2.373,-0.496 -0.189,0.264 -0.08,0.464 0.493,0.596 1.122,-0.826 3.962,0 4.537,-0.794 0.514,0.494 1.474,0 2.022,0.098l-0.575 0.235c0.189,0.529 2.867,0.032 2.595,-0.204 1.038,0.498 2.405,0 3.824,-0.261 0.9,0.33 4.588,0.559 5.434,-0.135 0.354,0.035 0.466,0.167 0.439,0.396 2.158,-0.161 3.414,-0.361 5.681,-0.031 -1.857,0.329 -3.467,-0.068 -4.561,0.564l0.437 0.296c0.763,-0.096 0.817,-0.132 1.42,0.033 0.658,-0.262 1.882,-0.529 2.595,-0.197 0.517,-0.5 1.611,-0.332 2.348,-0.729 -0.491,0.332 0.628,0.229 1.231,0.268 -3.225,0.79 -6.806,0.658 -9.342,1.09 -0.437,-0.071 -1.315,-0.532 -1.613,-0.036 -0.573,-0.064 -0.737,-0.362 -1.285,-0.429 0.274,0.165 -0.216,0.165 -0.762,0.429 -0.356,0 -0.167,-0.329 -0.63,-0.297 -0.849,-0.032 -0.327,0.529 -1.15,0.468 0.029,-0.171 -0.189,-0.171 -0.434,-0.171 -1.639,0.761 -5.327,0.1 -6.801,0.464 -1.669,-0.428 -3.413,0.332 -5.847,0.033 -0.926,0.299 -2.456,0.531 -2.842,0.135 -0.378,0.064 -0.599,0.231 -0.955,0.329l0.468 0.3c-0.384,-0.365 -0.902,-0.036 -1.45,-0.036 -2.348,0 -5.735,0.068 -8.465,0.036 -0.027,-0.365 0.242,-0.265 0.761,-0.233l0.191 -0.202 -0.407 0c-0.572,-0.065 0.245,-0.262 -0.274,-0.362 -1.147,0.964 -3.414,0.135 -5.218,0.2l0.33 0.097c-1.996,0.564 -4.835,0.796 -5.93,0.332 -0.6,0 -0.084,0.432 -0.627,0.464l-0.107 -0.032c0.572,-0.335 -0.793,-0.168 -0.686,-0.564 -0.461,0.202 -1.036,0.202 -1.448,-0.033 0.628,-0.232 -0.408,-0.396 -0.684,-0.493 -0.461,0.391 -1.171,0.428 -1.937,0.493 0.026,-0.232 0.519,-0.264 0.793,-0.132 0.109,-0.299 0.329,-0.399 -0.11,-0.796 -0.411,0.435 -0.657,-0.162 -1.392,0.171l-0.246 -0.206c0.409,-0.426 0.436,-0.858 1.09,-0.955l-0.268 -0.367c-0.357,0 -0.413,0.135 -0.794,0.135 0.027,-0.265 -0.3,-0.332 -0.851,-0.265 0.575,-0.264 0.301,-0.598 -0.106,-0.792 0.3,0.064 0.518,0.064 0.819,-0.071 -0.519,-0.229 -0.138,-0.658 0.466,-0.79 -0.221,-0.303 -0.497,0.132 -1.011,0.035l-0.085 -0.699c0.819,0.1 0.768,-0.265 1.806,-0.067 0.216,-0.227 0.437,-0.459 0.708,-0.659 0.408,0.165 0.49,0 1.009,-0.035 0.088,0.296 1.397,0.235 1.639,0.132 -0.218,-0.132 -0.354,-0.296 -0.87,-0.264 0.546,-0.493 -0.138,-0.626 -1.121,-0.761 -0.249,0.135 -0.354,0.3 -0.521,0.429 -0.436,-0.726 -2.102,-0.197 -2.733,-0.694 -0.516,0.233 -1.309,0.929 -0.271,0.929 -0.056,0.329 -1.203,0.129 -1.611,0.065 -0.22,-0.33 0.629,-0.168 0.762,-0.33 -0.051,-0.264 -1.116,-0.335 -0.271,-0.496 -0.381,-0.068 -0.6,-0.235 -1.065,-0.268 0.136,-0.099 0.22,-0.164 -0.029,-0.196 0.249,-0.135 1.365,-0.396 0.933,-0.529 0.871,-0.265 1.72,0 2.811,-0.235 -0.19,-0.297 -0.79,-0.099 -1.227,-0.03 0.136,-0.402 -0.631,-0.267 -0.493,-0.696 0.134,-0.102 1.773,-0.031 1.143,-0.331 0.686,0.096 1.069,0.167 2.243,0.096 0.356,-0.792 1.939,-0.561 2.895,-1.022 -0.846,-0.232 -0.956,0.267 -2.02,0.1 -0.106,-0.364 0.735,0 0.735,-0.399 0.194,0.229 0.468,0.097 0.167,-0.365 0.383,0.068 0.819,0.2 0.463,0.4 0.793,-0.068 1.065,-0.135 1.337,-0.564 0.987,0.264 1.532,-0.297 2.352,-0.397 -0.519,-0.329 -2.488,-0.931 -2.896,-0.593 -0.655,-0.171 0.436,-0.435 0.272,-0.699 -0.383,-0.262 -0.546,-0.691 -1.309,-0.758l0.026 0.1c-0.136,0.294 -0.548,-0.1 -1.011,0.065 -0.437,-0.033 0.082,0.264 0.245,0.264l-1.666 -0.233c-1.12,0.462 -4.346,0.529 -4.7,1.029 -0.218,0.196 -0.817,-0.264 -1.062,-0.367l-0.385 0.103c-0.299,0.293 0.931,0.158 0.249,0.293 -0.164,0.071 -0.3,0.132 -0.574,0.132 -0.194,-0.825 -3.606,-0.032 -4.646,0.165 -0.655,-0.265 -1.911,-0.461 -2.432,0 -0.762,0.068 -0.081,-0.061 -0.243,-0.265 -0.55,0.233 -0.492,0.171 -1.368,0.265 0.987,0.235 0.711,0.531 1.368,0.928 0.383,-0.232 0.573,0.032 1.2,-0.032 -0.79,0.297 -2.019,0.397 -3.387,0.429 -0.16,-0.23 -0.681,-0.461 -0.3,-0.694 -0.573,0 -0.684,0.529 -0.137,0.497 -0.109,0.364 -1.801,-0.2 -0.817,-0.129 -0.22,-0.303 -0.601,0.129 -1.205,0.029 -0.325,-0.561 -0.979,-0.96 -2.403,-1.089 0.354,-0.43 3.036,0.129 3.443,0.029 -0.627,-0.194 -1.04,-0.529 -2.078,-0.497 0.059,-0.364 0.983,-0.393 1.559,-0.364 -0.22,-0.426 -1.146,-0.129 -1.889,-0.426 0.33,-0.232 1.916,-0.267 1.834,0.132 1.04,-0.103 0.519,-0.728 1.748,-0.499 -0.522,-0.197 -0.926,-0.432 -1.693,-0.529 0.112,-0.097 0.216,-0.197 -0.026,-0.197l0.761 -0.335c-0.189,-0.361 -0.843,-0.429 -1.118,-0.754 -1.556,0.229 -3.14,0 -5.053,0.125 0.407,-0.229 -0.301,-0.364 -0.681,-0.493 0.627,0.368 -0.03,0.162 0.106,0.731 -0.218,-0.434 -0.928,-0.334 -1.45,-0.363 -0.298,-0.239 0.522,-0.433 -0.078,-0.5l0.576 -0.235c0.271,-0.394 -0.876,0.035 -0.852,-0.259 -0.051,-0.3 0.793,-0.17 0.987,-0.135 0.764,-0.097 -0.221,-0.957 0.876,-0.925l0.053 0.396c1.064,-0.099 -0.139,-0.561 0.708,-0.728 -0.221,-0.302 -0.269,0.229 -0.793,0.132 -0.163,-0.496 1.365,-0.229 1.312,-0.661 -0.301,-0.2 -0.74,-0.3 -1.256,-0.364 0.055,-0.429 -0.543,-1.754 -2.403,-1.096 0.33,0.1 0.548,0.264 1.066,0.264 -0.382,0.235 -1.506,0 -2.022,-0.029 0.684,-0.267 -0.22,-0.793 0.248,-1.125 0.407,0.097 0.819,0.2 1.224,0.264 0.633,-0.032 1.011,-0.132 1.176,-0.335 -0.71,-0.161 -1.554,-0.094 -2.238,-0.029 0.601,-0.561 1.501,-0.1 2.624,-0.197l-0.248 -0.197c-0.221,-0.238 1.041,0.365 1.472,0.458 0.74,-0.261 0.194,-0.76 1.123,-0.76 -0.413,-0.194 -0.846,-0.397 -1.666,-0.326 0.242,-0.335 0.873,0.029 1.392,-0.071 0.33,-0.162 0.301,-0.499 0.71,-0.625l-0.215 -0.203c-0.548,0.168 -2.462,0.596 -2.786,0.666l0.051 -0.031 -0.246 -0.306c-0.683,0.07 -0.846,0.337 -1.803,0.267 -0.163,-0.297 0.303,-0.297 0.138,-0.596 -0.41,-0.032 -0.464,0.203 -0.243,0.203 -0.521,0.096 -1.971,-0.168 -2.352,0.096 0.244,0.133 0.244,0.465 0.876,0.367 0.487,-0.031 -0.33,-0.135 -0.056,-0.402 0.926,-0.061 0.383,0.371 0.273,0.596 -0.273,0 -0.571,0 -0.603,0.136 -0.354,0 -0.163,-0.33 -0.626,-0.267 -0.242,0.17 -0.274,0.331 -0.301,0.693 -0.271,0 -0.22,-0.229 -0.271,-0.362 -0.327,0 -0.66,0 -1.014,0.035 -0.519,0.098 -0.436,0.797 -1.338,0.459l0.574 -0.229c-0.516,-0.065 -0.71,-0.294 -1.256,-0.365 0.791,-0.164 0.245,-0.132 1.363,-0.364 0.138,-0.461 -0.434,-0.528 -1.28,-0.428 0.463,0.396 -0.219,0.296 -0.412,0 -0.9,0.067 -1.011,0.467 -2.156,0.396 -0.109,-0.197 0.245,-0.197 0.572,-0.235l-0.439 -0.261c-1.336,0.463 -3.223,0.299 -4.149,0.76 -0.329,-0.135 -0.439,-0.364 -1.229,-0.232 0.027,-0.267 0.599,-0.493 0.958,-0.332 0.08,-0.264 -0.141,-0.364 -0.657,-0.296 -0.655,-0.068 0.516,-0.129 0.792,-0.129 -0.848,-0.732 -3.659,0.1 -2.296,0.796l-0.628 0.031c0.167,0.098 0.383,0.13 0.657,0.162 -0.218,0.564 -1.367,0.365 -2.16,0.497 0.518,-0.329 -0.544,-0.397 -1.094,-0.465 -0.516,0.039 -0.272,0.4 -0.516,0.532 -0.631,-0.199 -0.873,-0.132 -1.421,0.068 -0.272,-0.464 -0.219,-0.731 -1.092,-0.664 0.138,-0.265 0,-0.628 0.682,-0.628 -1.504,-0.033 -3.058,-0.533 -3.415,-1.455 -0.543,-0.264 -1.144,-0.135 -1.612,0.065 0.492,-0.693 2.296,-0.2 1.642,-1.26 -0.548,-0.03 -0.112,0.367 -0.769,0.331 0.303,-0.725 -1.198,0.265 0.439,0.168 -0.381,0.532 -1.831,-0.429 -0.929,-0.661 -0.165,-0.3 -0.546,-0.103 -1.009,-0.068 0.133,-0.232 0.927,-0.429 1.365,-0.267 -0.164,-0.064 -0.138,-0.262 -0.438,-0.262 0.63,-0.299 0.928,0.168 2.049,0.1l-0.657 -0.267c0.33,-0.329 1.532,0.1 1.04,0.267 0.271,-0.1 0.739,-0.135 0.982,-0.231l-0.272 -0.397c0.573,0.164 0.49,0.229 1.067,0.268 -0.138,0.393 -0.084,0.592 0.9,0.557l-0.383 0.3c0.082,0.132 0.545,0.062 0.848,0.062 0.519,0 -0.271,-0.526 0.519,-0.429 -0.33,0.299 0.136,0.299 -0.08,0.629 -0.793,-0.03 -0.989,-0.1 -1.423,0.164 0.465,0.267 1.203,-0.264 1.445,0.135 0.548,-0.032 1.341,-0.461 0.522,-0.532 1.309,0.033 2.567,-0.232 4.617,-0.194 0.3,-0.1 -0.054,-0.135 0.162,-0.399 0.628,-0.033 1.339,0.165 1.804,-0.068 -0.849,-0.225 0.357,-0.825 -0.681,-0.593 -0.33,-0.232 0.681,-0.099 1.173,-0.232 -0.165,-0.332 -1.013,-0.132 -1.423,-0.067 0.031,-0.168 -0.051,-0.265 -0.301,-0.265 0.493,-0.064 1.014,-0.2 1.176,-0.562l-0.218 -0.198c-0.602,0.167 -1.12,0.363 -1.746,0.492 -0.303,-0.492 -2.653,-0.922 -2.653,-0.096 -0.679,-0.165 -1.091,-0.461 -1.53,-0.761 -0.516,0.494 -1.584,0.132 -2.456,0.332 0.71,-0.461 -0.684,-1.161 0.872,-1.455 -0.463,-0.364 0.056,-0.598 -0.162,-1.089 1.038,-0.136 1.61,0.029 2.049,0.226 0.245,-0.033 0.165,-0.197 0.165,-0.332 1.038,0.035 2.049,0.135 2.51,0.499 0.33,-0.235 0.495,-0.529 1.533,-0.464 0.218,-0.267 -0.657,-0.399 -0.059,-0.496 -0.492,-0.167 -0.844,-0.265 -1.884,-0.297 1.014,-0.303 -0.106,-0.397 0.056,-1.028 -0.902,0.429 -1.365,0.168 -2.786,0.235 0.654,-0.429 2.129,0.094 2.349,-0.5 0.355,0.136 1.174,0 1.829,0 2.158,-1.189 -2.486,-1.154 -3.33,-1.95 -0.167,0.064 -0.438,0.133 -0.792,0.133l-0.219 -0.2c-0.298,-0.3 0.628,-0.1 0.325,-0.429 -0.574,0.035 -0.407,-0.136 -0.655,-0.465 -1.583,0.297 -3.028,0.329 -3.71,-0.325 -0.169,0.058 -0.439,0.129 -0.793,0.129 0,-0.435 -0.851,-0.365 -1.095,-0.661 -0.136,-1.096 1.532,-1.425 1.888,-2.285 -1.888,-0.3 -2.461,0.363 -4.592,0.393 0.327,0.399 0.82,0.596 1.12,0.731 -0.354,0.13 -0.71,-0.264 -0.819,0.065 -0.546,-0.397 -1.392,-0.662 -2.896,-0.493 -0.407,-0.233 0.053,-0.303 -0.274,-0.597 -2.868,0.197 -5.325,-0.168 -7.428,-0.896 -2.652,0.035 -4.289,-1.189 -4.289,-2.379 -0.027,-0.6 0.41,-1.158 1.283,-1.587 0.192,0.194 0.465,0.362 0.492,0.658 1.04,-0.064 1.45,0.2 2.268,0.232 1.827,-0.696 3.906,-0.164 6.011,-0.461l-0.192 0.194c1.77,0.103 3.028,-0.232 3.851,0.035 0.353,-0.1 0.543,-0.267 0.955,-0.329 0.575,-0.035 0.546,0.265 0.876,0.365 0.622,-0.365 3.523,0.196 3.14,-0.629 0.625,0.229 0.899,0.097 1.828,0.029 -0.274,0.564 -1.008,0.335 -1.719,0.664 -1.969,0.928 -0.626,2.083 1.035,2.979 0.903,-0.035 1.53,0.094 2.268,0.194 0.385,-0.1 0.545,-0.326 0.494,-0.626 -1.775,0.793 -3.06,-0.561 -2.213,-1.29 0.494,-0.064 0.462,0.133 1.011,0.033 0.273,-0.033 0.3,-0.168 0.598,-0.229 -0.543,-0.232 -0.378,-0.335 -0.734,-0.765 0.409,0.036 0.516,-0.096 0.79,-0.134 -2.182,-0.529 0.439,-1.158 0.766,-1.716 0.299,0.133 1.065,0.029 0.953,-0.267 -0.324,-0.265 -0.763,0.167 -1.392,0.067l0.139 -0.396c0.327,0.132 1.035,0.035 1.61,0.035 0,-0.3 -0.657,-0.264 -0.49,-0.696 0.163,-0.068 0.434,-0.135 0.79,-0.135 -0.3,-0.294 -0.218,-0.365 0.112,-0.596 -0.191,-0.262 -0.875,-0.23 -1.256,-0.362 -0.111,-0.828 0.163,-0.993 -0.247,-1.689 0.215,-0.1 0.71,-0.129 0.955,-0.229 -0.053,-0.168 -0.38,-0.2 -0.819,-0.168 -0.11,-0.264 0.766,-0.1 0.516,-0.428 0.55,0.064 0.96,0.096 1.205,-0.13 -0.71,0.294 -1.312,-1.195 0.245,-1.031 0.083,0.397 -0.575,0.597 0.162,0.993 0.602,-0.396 1.094,-0.529 1.286,-0.961 -1.094,-0.096 -1.448,-0.825 0.055,-0.892 -0.165,-0.294 -0.657,-0.397 -0.902,-0.658l0.573 -0.136c0.082,-0.232 -0.298,-0.168 -0.628,-0.168 -0.083,-0.294 0.574,-0.263 0.548,-0.528 -0.602,-0.264 -0.493,0.265 -1.174,0.234 0.818,-0.466 0.655,-1.392 1.091,-2.021 0.492,-0.031 0.575,-0.196 1.2,-0.167 0.057,-0.325 -0.297,-0.393 -0.681,-0.461 0.628,-0.364 -0.056,-0.825 0.844,-1.158 0.577,0.1 0,0.43 0.085,0.6 0.655,0.029 0.82,-0.17 0.955,-0.335 0.631,0.364 -0.763,0.664 -1.062,0.961 0.953,0.132 1.416,1.028 1.033,1.551 0.519,0.17 1.394,0.135 2.051,0.203l-0.409 -0.068c0,-0.397 0.681,-0.461 0.681,-0.826 0.33,-0.067 0.357,0.065 0.599,0.065 0.548,-0.132 -0.051,-0.532 -0.08,-0.69 0.192,0.129 0.982,0.523 0.793,-0.036 1.639,-0.267 2.648,0.461 3.635,-0.067 -0.359,0.397 0.08,0.761 0.873,0.464 -0.383,0.329 -0.248,0.329 0.109,0.629 -0.795,0.132 -1.447,-0.265 -1.612,0.132 0.165,0.297 1.612,-0.203 1.285,0.364 0.79,-0.035 1.011,-0.299 1.751,-0.364 -0.112,-0.329 -0.551,-0.497 -0.905,-0.661 0.136,-0.197 1.338,0.264 1.829,-0.1 -0.243,-0.332 -0.41,-0.036 -1.036,-0.036 -0.328,-0.167 0.08,-0.396 -0.495,-0.592 0.41,-0.368 0.548,0.325 0.876,0.361 0.545,0.064 -0.221,-0.461 0.329,-0.397 -0.55,-0.364 -0.737,-0.264 -1.287,-0.558 0.55,-0.1 0.71,-0.764 1.149,-0.364 0.655,-0.1 0.083,-0.167 0.138,-0.5 -0.329,0 -0.683,0.035 -1.011,0.035 0.546,-0.631 1.337,0.259 2.238,0.127 0.054,-0.329 -0.215,-0.458 -0.846,-0.361 0.33,-0.197 -0.298,-0.294 0.109,-0.526 0.352,0.026 -0.136,0.329 0.463,0.393 0.767,0.065 0.274,-0.393 0.958,-0.367 0.163,0.238 0.626,0.338 0.299,0.5 1.287,-0.133 1.12,0.599 2.458,0.396 -0.3,-0.364 -0.873,-0.629 -1.338,-0.922 -0.272,0.026 -0.133,0.232 -0.133,0.393 -0.333,-0.029 -0.551,-0.129 -0.849,-0.161l0.766 -0.332c-0.492,0.1 -0.357,-0.532 -1.091,-0.567 0.298,-0.361 0.269,-0.396 0.051,-0.893 0.301,0.203 0.902,0.203 1.256,0.332 0,0.267 -0.708,0.2 -0.708,0.429 0.463,0.132 0.875,0.202 0.242,0.396 0.221,0.203 1.588,-0.029 0.852,0.367 0.708,-0.064 1.146,0 1.636,0.036 -0.136,0.526 -0.085,1.283 1.035,1.551 -0.817,0.067 -1.609,0.132 -1.525,0.561l0.602 0.103 -0.112 0.499c-0.766,-0.135 -0.984,0.061 -1.636,-0.038l0.354 -0.393c-0.822,-0.5 -2.105,0.196 -2.757,0.393 0.652,0.099 1.09,0.364 2.262,0.399 0.141,0.429 -0.272,0 -0.791,0.129 -0.027,0.368 0.657,0.3 0.873,0.468 0.684,-0.1 0,-0.203 0.357,-0.397 0.899,0.194 1.501,0.558 1.775,1.125 0.628,-0.167 0.875,-0.07 1.609,-0.07 -0.571,0.299 0.139,0.599 0.166,1.089 0.545,-0.061 0.434,-0.425 1.149,-0.425 -0.277,-0.396 0.546,-0.825 -0.325,-0.894 0.107,-0.164 0.405,-0.199 0.759,-0.231 0,0.364 0.3,0.531 0.521,0.76 0.628,-0.167 1.473,-0.331 2.212,-0.167 0.191,-0.426 -0.519,-0.293 -1.065,-0.267 0.326,-0.095 0.519,-0.391 0.136,-0.491 0.711,0.033 1.777,-0.364 2.241,0.1 0.218,0.029 -0.053,-0.561 -0.304,-0.6 0.413,-0.231 1.15,-0.329 1.751,-0.49l-0.436 -0.367c0.79,0.103 1.011,-0.103 1.61,0.032 0.873,-0.361 -0.708,-0.496 -0.764,-0.992 -0.49,0.102 -0.599,0.067 -1.173,0.267 -0.767,-0.2 0.899,-0.332 0.136,-0.5 0.3,-0.135 0.462,-0.329 0.955,-0.329 -0.357,-0.1 -0.381,-0.367 -1.038,-0.267 -0.165,-0.365 -0.029,-0.558 0.492,-0.626 -1.147,-0.431 -0.628,0.3 -1.533,0.461 0,0.036 -0.758,-0.693 0.139,-0.728 -0.873,0 -1.994,-0.068 -2.648,0.235 0,-0.467 -0.465,-0.399 -1.092,-0.667 0.735,0 0.794,0.1 1.419,-0.061l0.027 0.296c1.147,-0.035 0.9,-0.296 1.804,-0.065 -0.436,-0.364 -1.612,-0.396 -2.869,-0.264l-0.244 -0.202 -0.024 -0.194c0.322,-0.068 0.378,0.058 0.622,0.058l-0.654 -0.361c0.079,-0.162 0.274,-0.262 0.546,-0.329 0.683,0.229 1.146,-0.035 1.857,0.229 0.162,0.303 -0.9,0.1 -0.956,0.335 0.519,0.197 1.421,-0.2 2.212,-0.2l-0.083 -0.499c-0.162,-0.065 -1.227,-0.329 -0.273,-0.397 -0.299,-0.361 -0.408,0.068 -1.009,0.068 -0.272,-0.132 -0.136,-0.397 0.138,-0.532 -0.74,-0.458 -1.972,0.235 -1.693,0.796 -0.521,-0.297 -0.329,-0.229 -1.066,-0.264 -0.248,-0.326 0.601,-0.194 0.981,-0.229 -0.218,-0.168 -0.082,-0.567 -0.681,-0.496 0.546,-0.5 0.546,-1.061 -0.029,-1.59 0.386,0.161 0.686,0.4 1.094,0.558 0.928,-0.129 0.273,-0.326 0.109,-0.626 0.681,-0.032 0.982,0.165 1.448,0.265 0.244,0.332 -0.844,0.135 -0.954,0.332l0.437 0.264c0.517,-0.099 0.599,-0.429 0.926,-0.632 0.602,0.135 -0.218,0.468 0.112,0.797 0.625,0.067 0.356,-0.264 0.979,-0.233 -0.218,0.5 1.07,0.829 1.969,1.029 -0.058,0.196 -0.766,0.1 -0.545,0.429 0.162,0.396 0.982,0.428 1.528,0.632 0,0.393 -0.791,-0.1 -0.983,0.229 0,-0.165 -0.358,-0.433 -1.256,-0.329 1.116,0.293 1.938,0.825 2.811,1.286 -0.051,0.467 -1.011,0.567 -2.156,0.567 -0.192,0.032 -0.08,0.229 -0.381,0.229l1.011 -0.129c0.325,0.364 0.924,0.429 1.475,0.429 -0.056,0.129 -0.221,0.2 -0.575,0.229 0.162,0.067 0.381,0.135 0.626,0.167 0.574,-0.132 -0.328,-0.267 0.136,-0.396 1.069,0.396 2.022,0.064 3.225,-0.136 -0.384,0.2 0,0.532 0.489,0.567 1.15,0.027 2.025,-0.86 2.406,-0.1 -0.463,0.429 -3.577,0.229 -2.895,0.829 -0.328,0.162 -1.501,-0.1 -1.776,0.361 0.112,0.197 0.794,0.068 0.682,0.397 0.766,-0.064 0.851,-0.397 1.751,-0.397 -0.628,0.265 -0.189,0.726 0.899,0.558l-0.575 0.236c0.386,0.167 0.605,0.431 1.097,0.564 0.817,-0.3 1.61,-0.632 1.852,-1.196 0.357,0 0.17,0.338 0.439,0.396 1.693,0.036 1.392,-0.792 2.704,-0.919l-0.599 -0.071c0.655,-0.393 1.256,-0.992 0.793,-1.325 0.982,-0.064 0.328,0.826 1.336,0.729 -0.053,0.136 -0.492,0.097 -0.793,0.136 -0.053,0.361 0.25,0.493 0.684,0.56 -0.029,0.165 -0.49,0.133 -0.791,0.133 0.791,0.532 0.602,0.1 0.328,0.793 0.545,0.132 1.256,0.17 1.091,0.66 1.094,0.236 1.777,0.039 3.063,0.071 0.108,-0.267 -0.328,-0.235 -0.279,-0.464 0.989,0.129 0.33,0.558 1.152,0.861 0.354,-0.035 0.053,-0.364 0.327,-0.429 0.3,0.065 0.463,0.226 0.492,0.461 0.408,-0.032 -0.029,-0.429 0.33,-0.5 0.759,0.039 0.681,-0.029 1.198,0.039 1.259,-0.399 1.666,-1.392 1.913,-2.089 0.49,0.035 0.984,0.233 0.791,-0.232 0.492,0 1.561,-0.129 1.011,0.167 0.681,-0.1 0,-0.229 0.354,-0.396 0.412,0.1 0.466,0.432 1.067,0.432 0.492,-0.036 0.053,-0.3 -0.19,-0.3 0.354,-0.1 0.762,-0.1 1.584,-0.032 -0.822,-0.235 0.138,-0.267 0.381,-0.033 0.221,-0.131 0.327,-0.302 0.984,-0.234 -0.407,-0.294 -0.79,-0.068 -1.639,-0.033 0.463,-0.261 -0.272,-0.3 -0.657,-0.364l0.574 -0.329c0.437,0.464 0.464,-0.135 1.038,0.226 0.165,-0.429 0.41,-0.094 0.711,-0.623l-0.218 -0.17c-0.956,0.467 -2.02,0.364 -2.976,0.5l0.19 -0.197c-1.283,-0.035 -1.557,0.328 -2.76,0.526 -0.053,-0.329 -0.626,-0.362 -1.254,-0.362 -0.305,-0.297 0.628,-0.103 0.328,-0.399 0.654,-0.1 0.654,0.167 1.011,-0.068 -0.279,-0.226 -1.038,0.068 -1.395,0.068 0,-0.129 -0.026,-0.262 -0.273,-0.294 0.984,0.061 1.202,-0.631 1.035,-1.325 0.575,-0.135 0.876,-0.332 0.495,-0.626 0.792,-0.134 1.038,-0.17 1.639,0.03 0.245,-0.397 2.321,-0.264 1.445,-1.06 0.221,-0.136 0.711,-0.136 1.203,-0.165 -0.027,0.132 -0.354,0.1 -0.601,0.132 0,0.235 0.22,0.297 0.659,0.264 -0.085,0.3 -1.013,0.2 -0.931,0.565 0.575,0.164 2.185,0.364 2.456,0.1 0.245,0.264 0.573,0.328 1.232,0.134 0,0.162 0.163,0.265 0.434,0.294 -0.271,0.361 -0.325,-0.235 -0.817,-0.068 -0.245,0.1 0.575,0.532 1.285,0.429l-0.138 0.436c1.147,-0.236 1.857,0.393 3.281,0.328 0.681,-0.067 -0.575,-0.364 0.354,-0.297 0.463,0.065 -0.056,0.465 1.474,0.33 -0.082,0.364 0.49,0.364 0.49,0.693 0.572,-0.029 0.953,-0.162 0.734,-0.526 0.549,-0.167 1.181,-0.068 1.289,0.332 -0.546,0.032 -0.301,-0.4 -1.07,-0.264 -0.049,0.325 1.205,0.458 1.45,0.264 0.056,0.1 -0.026,0.264 -0.545,0.326 1.066,0.599 3.222,-0.1 3.768,0.829 0.463,-0.397 0.548,-0.136 1.173,-0.262 -0.106,-0.067 -0.216,-0.167 -0.434,-0.167 0.49,-0.136 1.502,0 2.595,-0.197l-0.056 -0.397c-0.437,-0.032 -0.383,0.162 -0.356,0.294 -0.517,0.068 -0.789,-0.496 -1.227,-0.162 0.055,-0.164 0.082,-0.796 -0.136,-0.763 -0.657,-0.297 -2.786,0.429 -3.577,0.331 0.9,-0.331 2.648,-0.792 4.123,-0.763 0.247,-0.1 -0.277,-0.329 -0.245,-0.394 -0.083,-0.135 1.146,-0.167 0.354,-0.3 0.109,-0.326 0.627,0.036 0.982,-0.061 -0.519,-0.335 -1.8,-0.303 -1.72,-0.732 -0.822,0.129 -0.984,-0.132 -1.639,-0.132 -0.356,0.465 2.158,0.394 1.967,0.925 -0.575,0.036 -0.519,-0.267 -1.065,-0.267 -0.409,0.167 0.519,0.432 0.519,0.699 -0.928,-0.132 -1.338,-0.532 -1.748,-0.928 -0.466,0.132 -0.383,0 -1.011,0.132 0.301,-0.167 0.165,-0.461 -0.439,-0.394 0.327,-0.067 -0.109,-0.463 0.327,-0.499 -0.572,0.132 -0.378,-0.661 -0.955,-0.861 -0.924,0.4 -1.554,0.265 -2.592,0.2 -0.439,0.268 0.327,0.164 0.268,0.497 -0.38,-0.129 -0.897,-0.2 -0.897,-0.562 0.711,-0.267 1.749,-0.663 2.566,-0.631 -0.082,-0.194 -0.545,-0.165 -1.038,-0.132 0.466,-0.297 1.504,-0.033 1.45,0.335 0.9,-0.303 1.336,-0.1 2.185,-0.303 -0.22,-0.265 -0.301,-0.094 -0.82,-0.065l0.544 -0.431c0.303,0.135 0.494,0.496 0.303,0.596l0.41 0c0.601,0 -0.573,-0.261 0.135,-0.297 0.109,-0.232 0.085,0.197 0.466,0.367 0.461,-0.202 1.094,-0.599 1.802,-0.07 -0.573,0.032 -1.312,0 -1.584,0.167 1.065,-0.064 2.321,0.529 3.303,0.464 -0.245,-0.234 -0.844,-0.234 -1.06,-0.464 0.461,-0.496 2.292,-0.299 3.521,-0.664l-0.247 -0.393c0.929,-0.071 0.957,-0.1 1.802,-0.071 -0.19,-0.232 -0.98,-0.132 -1.092,-0.461 0.628,0.032 1.778,0.461 2.02,0.032 -0.16,-0.296 -0.41,0.1 -0.792,0.033 0.574,-0.465 0.765,-0.429 1.559,-0.465 -0.847,0.236 -0.272,0.367 0.109,0.7 0.63,0.029 0.327,-0.3 0.955,-0.235 0.519,0.3 1.693,0.235 2.132,0.599 -1.477,-0.364 -4.016,-0.335 -5.626,0.229 0.436,-0.067 1.722,0.1 2.784,-0.197 -0.027,0.265 0.793,0.033 0.657,0.361 1.937,-0.164 3.169,0.036 4.207,-0.361l0.242 0.297c0.907,-0.329 1.695,0.064 2.35,-0.399 0.25,-0.397 -0.873,0 -0.655,-0.397 0.493,-0.294 0.628,0.103 1.232,0.07 0.572,-0.135 -0.303,-0.267 -0.085,-0.499 0.818,-0.168 1.15,-0.032 1.637,0.232 2.352,-0.332 3.06,-0.596 1.863,-1.292 -0.684,0.067 -0.852,0.334 -1.15,0.563 0.218,0.262 0.628,-0.1 1.012,-0.064 -0.275,0.326 -0.602,0.197 -0.956,0.367 -0.085,-0.17 -0.245,-0.203 -0.849,-0.267 0.029,-0.165 0.492,-0.1 0.793,-0.136l0.163 -0.229c-0.352,-0.264 -1.283,-0.202 -1.392,0.165 -0.192,-0.265 -1.502,-0.232 -1.392,0.164 -0.41,-0.496 -1.203,-0.563 -2.076,-0.329 0.107,0.2 0.79,0.068 0.681,0.394 -1.091,0.238 -2.017,0.068 -2.868,-0.1 0.276,-1.357 -4.889,-0.89 -6.827,-1.019 0.272,-0.206 0.818,-0.267 0.956,-0.532 -0.848,0.365 -1.365,0.426 -2.57,0.497l-0.051 -0.397c0.762,0.326 1.828,0.065 1.966,-0.364 -0.793,-0.135 -1.176,0.064 -0.657,-0.5 -0.928,-0.096 -0.519,0.365 -0.547,0.629 -0.711,-0.165 -1.063,-0.129 -1.587,0.167 -0.623,-0.067 -0.298,-0.667 -0.735,-0.861 0.085,-0.329 0.437,-0.563 1.339,-0.563l-0.08 -0.593c0.546,-0.1 0.519,0.093 1.009,0.067 -0.846,-0.367 -0.109,-0.828 0.875,-0.963l-0.356 0.431c3.741,-0.461 7.076,0.165 9.588,0.496 0.465,-0.164 0.819,-0.396 1.775,-0.367 0,0.168 0.165,0.267 0.436,0.267l-0.572 0.136c1.12,0.629 1.693,0.458 3.877,0.364 0.112,-0.364 -0.843,-0.102 -0.683,-0.5 0.521,0.136 0.412,0.2 1.037,0.069l-0.159 0.299c0.928,-0.335 1.28,0.426 2.208,0 0.793,0.061 -0.599,0.397 0.057,0.397 -0.057,0.229 -0.985,0.097 -1.366,0.164 0.08,0.594 1.366,0.065 1.831,0.227 -1.011,0.302 0.654,0.302 0.111,0.598 1.254,-0.029 1.254,-0.393 2.02,0.036 0.49,-0.036 0.602,-0.2 0.762,-0.371 0.056,-0.129 -0.655,-0.225 -0.929,-0.129 0.599,-0.461 2.023,0.5 3.61,0.529 -0.851,0.732 -2.759,-0.094 -4.403,0.5 -0.953,-0.465 -1.171,0.325 -2.182,0.1 0.084,-0.265 0.71,-0.265 1.144,-0.365 -0.708,-0.399 -1.744,0.062 -2.839,-0.068 0.768,0.333 1.639,0.629 2.568,0.894 0.627,0.032 0.327,-0.294 0.982,-0.265l0.026 0.297c0.822,0.068 0.657,-0.326 1.587,-0.268 -0.794,0.268 0.138,0.304 0.106,0.735 1.181,0 0.356,-0.302 0.742,-0.531 1.501,-0.162 2.568,0.1 3.822,0.032 0.274,-0.068 0.14,-0.265 0.14,-0.429 -0.521,0.193 -1.506,0.397 -1.996,0.1 0.246,0.093 2.324,-0.365 1.119,-0.565 0.657,-0.132 0.765,-0.132 1.559,-0.567l-0.141 0.4c0.301,0.035 0.33,-0.094 0.574,-0.094l-0.077 -0.335c1.525,0.696 3.302,1.39 5.378,1.95 5.818,1.623 12.867,0.829 16.252,0.265 1.666,0.071 3.417,-0.226 5.08,0.4 0.25,-0.062 -0.327,-0.4 0.327,-0.494 -0.053,0.558 1.695,0.329 2.403,0 -0.952,0.694 2.052,0.362 2.925,0.558l-0.354 0.236c0.599,0.129 1.205,0.031 1.557,-0.268 0.465,-0.032 0.135,0.332 0.298,0.499 1.86,-0.2 3.252,0.529 5.274,0.162 -0.068,0.185 0.095,0.243 0.202,0.338 0.309,-0.001 0.651,0.006 1.047,0.024 0.159,0.006 0.328,0.004 0.501,-0.002 0.02,-0.005 0.043,-0.006 0.066,-0.002 0.847,-0.037 1.779,-0.177 2.248,-0.126 0.514,0.053 0.778,0.268 1.145,0.373 0.048,-0.028 0.088,-0.064 0.116,-0.108 0.025,0.057 0.055,0.107 0.088,0.152l0.125 0.012c1.038,0.1 2.893,-0.396 3.25,0.068 1.911,-0.297 3.852,-0.199 6.445,-0.264 0.112,-0.432 2.321,-0.103 2.815,0 0.572,-0.133 0.187,-0.165 0.138,-0.432 0.628,0.097 0.953,0.329 1.853,0.232 0.631,-0.097 0.221,-0.268 0.112,-0.497 0.438,-0.065 0.438,0.135 0.465,0.265 2.022,0.299 3.96,-0.729 5.847,-0.13 0.681,-0.367 2.839,0.227 3.358,-0.529 0.301,0.1 0.899,0.03 0.848,0.362 0.573,0 0.464,-0.297 0.762,-0.432 0.082,0.693 2.241,-0.032 3.225,-0.032 0.819,-0.032 1.773,0.496 2.403,-0.1 1.011,0.664 2.374,0.035 4.04,-0.065 0.22,-0.029 0.141,-0.2 0.141,-0.331 2.374,0.302 3.848,-0.198 5.405,-0.432 0.71,0 1.037,0.202 1.283,0.467 1.013,0.065 1.037,-0.297 1.751,-0.367 -0.054,0.463 1.695,-0.133 1.695,0.332 0.654,-0.365 1.798,-0.262 2.647,-0.23 0,0.065 1.2,0.265 1.584,0.23 0.625,0 0.982,-0.198 1.588,-0.262 0.65,-0.036 1.392,0.297 2.073,0.329 1.012,0.033 2.978,0.133 4.615,-0.1 0.327,0.233 0.465,0.164 0.276,0.497 1.446,-0.796 2.51,0 4.013,-0.162 -0.138,-0.267 -0.873,-0.235 -0.873,-0.564 0.735,0.758 3.633,0.064 5.27,0.162 -0.134,-0.429 -1.804,0 -1.693,-0.629 -0.737,0.629 -2.022,0.103 -3.196,0.335 3.036,-0.731 7.537,-0.831 9.942,-1.093 -1.062,-0.861 -4.915,0.397 -5.926,-0.564 -1.285,0.297 -1.504,0.232 -2.374,0.496 0.189,-0.264 0.08,-0.464 -0.493,-0.596 -1.122,0.826 -3.962,0 -4.536,0.793 -0.514,-0.493 -1.475,0 -2.023,-0.097l0.575 -0.235c-0.189,-0.529 -2.866,-0.032 -2.595,0.203 -1.038,-0.497 -2.405,0 -3.824,0.262 -0.899,-0.33 -4.588,-0.559 -5.434,0.135 -0.354,-0.035 -0.465,-0.168 -0.438,-0.397 -2.159,0.162 -3.415,0.362 -5.682,0.032 1.857,-0.329 3.467,0.068 4.561,-0.564l-0.436 -0.296c-0.764,0.096 -0.818,0.131 -1.421,-0.033 -0.658,0.262 -1.882,0.529 -2.595,0.197 -0.517,0.499 -1.61,0.332 -2.347,0.728 0.49,-0.331 -0.629,-0.229 -1.232,-0.267 3.225,-0.79 6.806,-0.658 9.343,-1.09 0.436,0.071 1.314,0.532 1.612,0.036 0.573,0.064 0.738,0.361 1.286,0.429 -0.275,-0.165 0.215,-0.165 0.761,-0.429 0.356,0 0.167,0.329 0.631,0.296 0.848,0.033 0.327,-0.528 1.149,-0.467 -0.029,0.171 0.189,0.171 0.434,0.171 1.639,-0.761 5.327,-0.1 6.802,-0.465 1.668,0.429 3.412,-0.331 5.846,-0.032 0.926,-0.299 2.456,-0.531 2.842,-0.135 0.378,-0.064 0.599,-0.232 0.955,-0.329l-0.468 -0.3c0.384,0.365 0.902,0.036 1.451,0.036 2.347,0 5.734,-0.068 8.465,-0.036 0.026,0.365 -0.243,0.265 -0.762,0.233l-0.191 0.202 0.407 0c0.572,0.065 -0.245,0.261 0.274,0.361 1.147,-0.963 3.414,-0.135 5.219,-0.2l-0.33 -0.096c1.995,-0.564 4.835,-0.796 5.929,-0.332 0.601,0 0.084,-0.432 0.627,-0.464l0.107 0.032c-0.572,0.335 0.793,0.168 0.687,0.564 0.46,-0.202 1.035,-0.202 1.447,0.032 -0.628,0.233 0.408,0.397 0.684,0.494 0.461,-0.391 1.172,-0.429 1.937,-0.494 -0.026,0.233 -0.519,0.264 -0.792,0.133 -0.11,0.299 -0.33,0.399 0.109,0.796 0.412,-0.435 0.657,0.162 1.392,-0.171l0.247 0.206c-0.41,0.426 -0.437,0.858 -1.091,0.955l0.269 0.367c0.356,0 0.412,-0.136 0.793,-0.136 -0.027,0.265 0.3,0.333 0.851,0.265 -0.575,0.264 -0.301,0.599 0.106,0.793 -0.3,-0.064 -0.518,-0.064 -0.819,0.071 0.519,0.229 0.138,0.658 -0.465,0.79 0.22,0.302 0.497,-0.132 1.011,-0.035l0.084 0.699c-0.819,-0.1 -0.768,0.265 -1.806,0.067 -0.216,0.227 -0.437,0.459 -0.708,0.659 -0.408,-0.165 -0.49,0 -1.009,0.035 -0.087,-0.297 -1.397,-0.235 -1.639,-0.132 0.218,0.132 0.354,0.296 0.87,0.264 -0.545,0.493 0.138,0.626 1.121,0.761 0.249,-0.135 0.354,-0.3 0.521,-0.429 0.436,0.726 2.103,0.197 2.733,0.693 0.517,-0.232 1.309,-0.928 0.271,-0.928 0.057,-0.329 1.203,-0.129 1.611,-0.065 0.22,0.33 -0.629,0.167 -0.762,0.33 0.051,0.264 1.116,0.334 0.272,0.496 0.38,0.067 0.599,0.235 1.064,0.267 -0.136,0.1 -0.22,0.164 0.029,0.197 -0.249,0.135 -1.365,0.396 -0.933,0.529 -0.87,0.264 -1.719,0 -2.811,0.234 0.19,0.298 0.791,0.1 1.227,0.03 -0.135,0.403 0.631,0.268 0.493,0.696 -0.133,0.103 -1.773,0.032 -1.142,0.332 -0.686,-0.097 -1.07,-0.167 -2.243,-0.097 -0.357,0.793 -1.94,0.562 -2.896,1.023 0.847,0.231 0.956,-0.267 2.02,-0.1 0.107,0.364 -0.735,0 -0.735,0.399 -0.194,-0.229 -0.468,-0.097 -0.167,0.365 -0.383,-0.068 -0.819,-0.2 -0.463,-0.4 -0.793,0.067 -1.065,0.135 -1.336,0.564 -0.987,-0.264 -1.532,0.297 -2.353,0.397 0.519,0.329 2.489,0.931 2.896,0.593 0.655,0.17 -0.436,0.434 -0.272,0.699 0.384,0.262 0.546,0.69 1.31,0.758l-0.027 -0.1c0.136,-0.294 0.548,0.1 1.012,-0.065 0.436,0.033 -0.083,-0.264 -0.246,-0.264l1.666 0.232c1.121,-0.461 4.346,-0.528 4.7,-1.028 0.218,-0.196 0.817,0.264 1.062,0.367l0.386 -0.103c0.298,-0.293 -0.932,-0.158 -0.25,-0.293 0.164,-0.071 0.3,-0.132 0.575,-0.132 0.193,0.825 3.605,0.032 4.646,-0.165 0.654,0.264 1.91,0.461 2.431,0 0.762,-0.068 0.081,0.061 0.243,0.264 0.551,-0.232 0.492,-0.17 1.368,-0.264 -0.987,-0.235 -0.711,-0.532 -1.368,-0.928 -0.383,0.232 -0.573,-0.033 -1.2,0.032 0.79,-0.297 2.019,-0.397 3.387,-0.429 0.16,0.23 0.681,0.461 0.301,0.693 0.572,0 0.684,-0.528 0.136,-0.496 0.109,-0.365 1.801,0.2 0.817,0.129 0.221,0.303 0.602,-0.129 1.205,-0.029 0.325,0.561 0.979,0.96 2.403,1.089 -0.354,0.43 -3.036,-0.129 -3.443,-0.029 0.628,0.194 1.04,0.529 2.078,0.496 -0.059,0.365 -0.982,0.394 -1.559,0.365 0.221,0.426 1.146,0.129 1.889,0.426 -0.33,0.232 -1.916,0.267 -1.833,-0.132 -1.041,0.103 -0.519,0.728 -1.749,0.499 0.522,0.197 0.926,0.432 1.693,0.529 -0.112,0.097 -0.216,0.197 0.027,0.197l-0.762 0.335c0.189,0.361 0.844,0.429 1.118,0.754 1.557,-0.229 3.14,0 5.053,-0.126 -0.407,0.229 0.301,0.364 0.681,0.494 -0.627,-0.368 0.03,-0.162 -0.106,-0.732 0.219,0.435 0.929,0.335 1.45,0.364 0.299,0.238 -0.521,0.432 0.078,0.5l-0.575 0.235c-0.272,0.394 0.875,-0.035 0.851,0.259 0.051,0.299 -0.793,0.169 -0.987,0.135 -0.763,0.097 0.221,0.957 -0.875,0.925l-0.053 -0.397c-1.065,0.1 0.138,0.562 -0.708,0.729 0.22,0.302 0.268,-0.229 0.792,-0.132 0.163,0.496 -1.365,0.229 -1.311,0.661 0.3,0.2 0.739,0.299 1.256,0.364 -0.056,0.429 0.543,1.754 2.403,1.096 -0.33,-0.1 -0.548,-0.265 -1.067,-0.265 0.383,-0.234 1.506,0 2.022,0.03 -0.684,0.267 0.221,0.793 -0.247,1.125 -0.407,-0.097 -0.82,-0.2 -1.225,-0.264 -0.633,0.032 -1.011,0.132 -1.176,0.334 0.71,0.162 1.554,0.095 2.238,0.03 -0.601,0.561 -1.501,0.099 -2.623,0.197l0.247 0.196c0.221,0.239 -1.041,-0.364 -1.472,-0.458 -0.74,0.262 -0.194,0.761 -1.123,0.761 0.413,0.194 0.846,0.397 1.666,0.326 -0.242,0.335 -0.873,-0.029 -1.391,0.071 -0.33,0.161 -0.301,0.499 -0.711,0.625l0.216 0.203c0.547,-0.168 2.461,-0.597 2.786,-0.667l-0.051 0.032 0.245 0.306c0.683,-0.07 0.846,-0.338 1.804,-0.268 0.163,0.298 -0.303,0.298 -0.138,0.597 0.409,0.032 0.463,-0.203 0.242,-0.203 0.521,-0.096 1.972,0.168 2.352,-0.096 -0.244,-0.133 -0.244,-0.465 -0.875,-0.368 -0.488,0.032 0.33,0.135 0.055,0.403 -0.926,0.061 -0.383,-0.371 -0.273,-0.597 0.273,0 0.572,0 0.603,-0.135 0.354,0 0.163,0.329 0.626,0.267 0.242,-0.17 0.274,-0.331 0.301,-0.693 0.271,0 0.221,0.229 0.271,0.362 0.328,0 0.66,0 1.014,-0.035 0.519,-0.098 0.437,-0.797 1.339,-0.459l-0.575 0.229c0.516,0.065 0.71,0.294 1.256,0.365 -0.791,0.164 -0.245,0.132 -1.363,0.363 -0.138,0.462 0.434,0.529 1.28,0.429 -0.463,-0.396 0.219,-0.296 0.413,0 0.899,-0.067 1.011,-0.467 2.155,-0.396 0.11,0.196 -0.244,0.196 -0.572,0.235l0.439 0.261c1.336,-0.464 3.223,-0.3 4.149,-0.76 0.33,0.135 0.439,0.364 1.23,0.231 -0.027,0.268 -0.6,0.494 -0.959,0.333 -0.079,0.264 0.141,0.363 0.657,0.296 0.656,0.067 -0.516,0.129 -0.792,0.129 0.848,0.732 3.659,-0.1 2.296,-0.796l0.628 -0.032c-0.167,-0.097 -0.383,-0.129 -0.657,-0.161 0.218,-0.565 1.368,-0.365 2.16,-0.497 -0.518,0.329 0.544,0.397 1.094,0.464 0.517,-0.038 0.272,-0.399 0.517,-0.532 0.63,0.2 0.873,0.133 1.421,-0.067 0.271,0.464 0.218,0.731 1.091,0.664 -0.138,0.264 0,0.628 -0.682,0.628 1.504,0.033 3.058,0.532 3.415,1.455 0.543,0.264 1.145,0.135 1.612,-0.065 -0.492,0.693 -2.296,0.2 -1.642,1.26 0.548,0.03 0.112,-0.367 0.769,-0.331 -0.302,0.725 1.198,-0.265 -0.439,-0.168 0.381,-0.532 1.831,0.429 0.929,0.66 0.165,0.3 0.546,0.104 1.009,0.069 -0.133,0.231 -0.926,0.429 -1.365,0.267 0.164,0.064 0.138,0.262 0.439,0.262 -0.631,0.299 -0.929,-0.169 -2.049,-0.1l0.657 0.267c-0.33,0.329 -1.533,-0.1 -1.04,-0.267 -0.272,0.1 -0.74,0.135 -0.983,0.231l0.272 0.397c-0.573,-0.164 -0.49,-0.229 -1.067,-0.268 0.138,-0.393 0.085,-0.593 -0.9,-0.558l0.383 -0.3c-0.082,-0.131 -0.545,-0.061 -0.848,-0.061 -0.519,0 0.272,0.526 -0.519,0.429 0.33,-0.299 -0.136,-0.299 0.08,-0.629 0.793,0.03 0.989,0.1 1.423,-0.164 -0.465,-0.267 -1.203,0.264 -1.445,-0.135 -0.548,0.032 -1.341,0.461 -0.521,0.531 -1.31,-0.032 -2.568,0.233 -4.617,0.194 -0.301,0.1 0.053,0.135 -0.163,0.4 -0.628,0.033 -1.339,-0.165 -1.804,0.068 0.849,0.225 -0.357,0.825 0.681,0.592 0.33,0.233 -0.681,0.1 -1.173,0.233 0.165,0.332 1.013,0.132 1.424,0.067 -0.032,0.168 0.05,0.265 0.3,0.265 -0.492,0.064 -1.013,0.2 -1.176,0.561l0.218 0.199c0.602,-0.167 1.12,-0.364 1.746,-0.493 0.303,0.493 2.653,0.923 2.653,0.097 0.679,0.165 1.091,0.461 1.53,0.761 0.516,-0.494 1.584,-0.132 2.457,-0.332 -0.711,0.461 0.684,1.161 -0.873,1.454 0.463,0.364 -0.056,0.599 0.162,1.09 -1.038,0.136 -1.61,-0.029 -2.049,-0.226 -0.245,0.033 -0.165,0.197 -0.165,0.331 -1.038,-0.034 -2.049,-0.134 -2.51,-0.498 -0.33,0.235 -0.495,0.529 -1.533,0.464 -0.217,0.267 0.658,0.399 0.059,0.496 0.492,0.167 0.844,0.265 1.884,0.297 -1.013,0.302 0.106,0.396 -0.056,1.028 0.902,-0.429 1.365,-0.168 2.786,-0.235 -0.654,0.429 -2.129,-0.094 -2.349,0.499 -0.354,-0.135 -1.174,0 -1.829,0 -2.158,1.19 2.486,1.155 3.33,1.951 0.167,-0.064 0.439,-0.133 0.792,-0.133l0.219 0.2c0.298,0.3 -0.628,0.1 -0.325,0.429 0.575,-0.035 0.408,0.136 0.655,0.465 1.583,-0.298 3.029,-0.329 3.71,0.325 0.17,-0.058 0.439,-0.129 0.793,-0.129 0,0.435 0.851,0.365 1.096,0.661 0.136,1.096 -1.532,1.425 -1.889,2.285 1.889,0.3 2.461,-0.364 4.593,-0.393 -0.328,-0.4 -0.82,-0.596 -1.121,-0.732 0.354,-0.129 0.71,0.265 0.82,-0.064 0.546,0.396 1.392,0.661 2.895,0.493 0.407,0.232 -0.053,0.303 0.274,0.597 2.869,-0.197 5.325,0.168 7.428,0.896 2.652,-0.036 4.289,1.189 4.289,2.379z"/>
   <path class="fil1" d="M64.266 22.243c-1.279,3.588 -2.856,7.033 -4.707,10.306l0.723 0.408c1.871,-3.313 3.469,-6.803 4.762,-10.437l-0.778 -0.277zm3.821 -22.243l0.829 0c0,3.895 -0.332,7.711 -0.97,11.424l-0.813 -0.138c0.628,-3.669 0.954,-7.438 0.954,-11.286zm-14.917 41.902c-2.394,2.932 -5.032,5.652 -7.884,8.134l0.543 0.626c2.887,-2.514 5.558,-5.27 7.981,-8.237l-0.64 -0.523zm-17.033 14.815c-3.21,1.95 -6.603,3.636 -10.143,5.026l0.302 0.77c3.584,-1.408 7.018,-3.115 10.273,-5.088l-0.432 -0.708zm-21.003 8.24c-3.649,0.746 -7.409,1.192 -11.248,1.309l0.026 0.829c3.886,-0.12 7.694,-0.573 11.389,-1.327l-0.167 -0.811z"/>
   <polygon class="fil1" points="368.072,87.322 368.301,86.978 358.813,80.623 365.393,70.792 358.131,65.935 351.551,75.768 341.722,69.181 336.86,76.441 346.695,83.027 340.109,92.856 347.374,97.717 353.954,87.885 363.78,94.466 368.645,87.207 368.301,86.978 368.072,87.322 367.729,87.089 363.554,93.32 353.725,86.74 347.144,96.569 341.258,92.63 347.84,82.798 338.009,76.214 341.948,70.33 351.78,76.916 358.36,67.081 364.245,71.02 357.664,80.85 367.843,87.665 368.072,87.322 367.729,87.089 "/>
   <polygon class="fil1" points="276.562,21.105 281.87,21.105 281.87,20.297 276.562,20.297 "/>
   <polygon class="fil1" points="278.812,23.487 279.619,23.487 279.619,17.907 278.812,17.907 "/>
   <polygon class="fil1" points="292.944,21.105 298.25,21.105 298.25,20.297 292.944,20.297 "/>
   <polygon class="fil1" points="295.192,23.487 296,23.487 296,17.907 295.192,17.907 "/>
   <polygon class="fil1" points="309.322,21.105 314.633,21.105 314.633,20.297 309.322,20.297 "/>
   <polygon class="fil1" points="311.572,23.487 312.38,23.487 312.38,17.907 311.572,17.907 "/>
   <polygon class="fil1" points="325.702,21.105 331.014,21.105 331.014,20.297 325.702,20.297 "/>
   <polygon class="fil1" points="327.953,23.487 328.76,23.487 328.76,17.907 327.953,17.907 "/>
   <polygon class="fil1" points="276.562,6.77 281.87,6.77 281.87,5.962 276.562,5.962 "/>
   <polygon class="fil1" points="278.812,9.152 279.619,9.152 279.619,3.571 278.812,3.571 "/>
   <polygon class="fil1" points="292.944,6.77 298.25,6.77 298.25,5.962 292.944,5.962 "/>
   <polygon class="fil1" points="295.192,9.152 296,9.152 296,3.571 295.192,3.571 "/>
   <polygon class="fil1" points="309.322,6.77 314.633,6.77 314.633,5.962 309.322,5.962 "/>
   <polygon class="fil2" points="311.572,9.152 312.38,9.152 312.38,3.571 311.572,3.571 "/>
   <polygon class="fil1" points="325.702,6.77 331.014,6.77 331.014,5.962 325.702,5.962 "/>
   <polygon class="fil1" points="327.953,9.152 328.76,9.152 328.76,3.571 327.953,3.571 "/>
   <g>
    <path class="fil2" d="M41.203 36.718c0.579,-0.369 1.198,-0.848 1.857,-1.418 0.649,-0.579 1.308,-1.228 1.957,-1.967 0.659,-0.729 1.288,-1.517 1.888,-2.366 0.609,-0.849 1.138,-1.708 1.597,-2.577 0.46,-0.868 0.819,-1.737 1.099,-2.596 0.269,-0.869 0.409,-1.707 0.409,-2.506 0,-0.609 -0.05,-1.089 -0.15,-1.458 -0.1,-0.38 -0.229,-0.659 -0.399,-0.869 -0.16,-0.199 -0.35,-0.349 -0.569,-0.419 -0.21,-0.08 -0.44,-0.12 -0.669,-0.12 -0.939,0 -1.997,0.389 -3.186,1.188 -1.198,0.789 -2.446,1.858 -3.764,3.216 -1.318,1.358 -2.666,2.935 -4.034,4.753 -1.378,1.817 -2.706,3.754 -3.995,5.831 -1.288,2.077 -2.506,4.224 -3.644,6.421 -1.139,2.207 -2.137,4.384 -2.986,6.531 -0.849,2.146 -1.518,4.194 -2.017,6.161 -0.499,1.957 -0.749,3.714 -0.749,5.272 0,0.589 0.05,1.069 0.14,1.448 0.08,0.379 0.209,0.689 0.379,0.909 0.16,0.229 0.37,0.379 0.629,0.459 0.25,0.07 0.54,0.11 0.879,0.11 0.559,0 1.228,-0.24 1.997,-0.709 0.769,-0.479 1.588,-1.099 2.457,-1.868 0.868,-0.758 1.747,-1.607 2.636,-2.536 0.889,-0.938 1.717,-1.857 2.506,-2.766 0.779,-0.909 1.478,-1.747 2.107,-2.516 0.619,-0.769 1.098,-1.378 1.428,-1.828 0,0.02 0.24,0.22 0.719,0.61 0.479,0.389 1.038,0.858 1.678,1.408 0.649,0.549 1.288,1.098 1.937,1.647 0.639,0.559 1.128,1.009 1.458,1.368 -0.47,0.519 -1.059,1.198 -1.788,2.017 -0.719,0.819 -1.528,1.678 -2.436,2.586 -0.909,0.909 -1.878,1.818 -2.916,2.737 -1.028,0.918 -2.097,1.737 -3.185,2.466 -1.089,0.739 -2.197,1.328 -3.306,1.787 -1.108,0.46 -2.196,0.689 -3.245,0.689 -0.769,0 -1.578,-0.229 -2.436,-0.689 -0.849,-0.459 -1.698,-1.048 -2.537,-1.787 -0.838,-0.729 -1.617,-1.538 -2.346,-2.427 -0.719,-0.888 -1.329,-1.767 -1.808,-2.646 -0.589,-1.088 -0.928,-2.097 -1.028,-3.015 -0.1,-0.909 -0.15,-1.648 -0.15,-2.187 0,-1.508 0.22,-3.206 0.649,-5.093 0.429,-1.897 1.039,-3.864 1.837,-5.921 0.809,-2.057 1.768,-4.154 2.906,-6.281 1.129,-2.127 2.377,-4.184 3.755,-6.171 1.378,-1.987 2.866,-3.865 4.473,-5.612 1.608,-1.758 3.296,-3.295 5.063,-4.593 1.767,-1.308 3.585,-2.337 5.472,-3.086 1.877,-0.759 3.785,-1.128 5.722,-1.128 0.539,0 1.118,0.14 1.717,0.419 0.609,0.29 1.208,0.659 1.788,1.118 0.589,0.45 1.148,0.989 1.697,1.588 0.549,0.609 1.029,1.228 1.438,1.857 0.41,0.639 0.729,1.269 0.979,1.908 0.239,0.629 0.359,1.208 0.359,1.737 0,1.168 -0.229,2.467 -0.699,3.875 -0.469,1.417 -1.098,2.835 -1.897,4.273 -0.799,1.428 -1.757,2.836 -2.856,4.194 -1.098,1.368 -2.277,2.586 -3.525,3.665l-5.292 -5.093zm11.933 23.137c0,0.589 0.209,0.879 0.639,0.879 0.449,0 1.048,-0.36 1.787,-1.069 0.739,-0.709 1.508,-1.607 2.307,-2.706 -0.03,-0.21 -0.06,-0.399 -0.07,-0.569 -0.01,-0.17 -0.01,-0.32 -0.01,-0.449 0,-0.39 0.04,-0.859 0.13,-1.398 0.09,-0.53 0.309,-1.139 0.659,-1.828 0.229,-0.519 0.509,-1.038 0.848,-1.548 0.27,-0.449 0.6,-0.928 0.989,-1.447 0.39,-0.52 0.819,-0.999 1.288,-1.448l0.18 -0.18c0.19,0.24 0.449,0.559 0.769,0.958 0.329,0.4 0.649,0.809 0.968,1.229 0.32,0.419 0.61,0.799 0.849,1.148 0.25,0.36 0.4,0.599 0.449,0.739 0,0.839 -0.149,1.678 -0.449,2.516 -0.299,0.839 -0.709,1.668 -1.218,2.487 1.178,-0.08 2.267,-0.38 3.265,-0.899 1.009,-0.519 2.057,-1.358 3.146,-2.526 0.179,0.169 0.409,0.409 0.689,0.719 0.279,0.299 0.509,0.559 0.689,0.769 -0.819,0.858 -1.628,1.567 -2.417,2.136 -0.789,0.57 -1.578,1.019 -2.366,1.349 -0.789,0.329 -1.598,0.569 -2.417,0.719 -0.819,0.139 -1.658,0.219 -2.516,0.219 -0.659,0.699 -1.378,1.338 -2.137,1.927 -0.759,0.59 -1.538,1.089 -2.327,1.518 -0.789,0.43 -1.568,0.769 -2.356,0.999 -0.779,0.229 -1.518,0.349 -2.217,0.349 -0.589,0 -1.189,-0.169 -1.818,-0.529 -0.619,-0.35 -1.188,-0.779 -1.697,-1.298 -0.499,-0.519 -0.919,-1.069 -1.258,-1.658 -0.33,-0.579 -0.5,-1.098 -0.5,-1.547 0,-1.478 0.21,-2.956 0.61,-4.414 0.399,-1.468 1.018,-2.836 1.867,-4.114 0.849,-1.278 1.927,-2.407 3.245,-3.375 1.318,-0.979 2.886,-1.718 4.693,-2.227 0.06,-0.04 0.17,-0.07 0.31,-0.09 0.15,-0.02 0.27,-0.03 0.369,-0.03 0.27,0 0.56,0.11 0.859,0.31 0.31,0.209 0.589,0.439 0.849,0.689 0.27,0.249 0.489,0.499 0.659,0.749 0.18,0.239 0.27,0.399 0.27,0.479 -0.04,0.1 -0.19,0.22 -0.44,0.369 -0.259,0.14 -0.599,0.39 -1.028,0.739 -0.43,0.36 -0.939,0.859 -1.518,1.508 -0.589,0.659 -1.228,1.518 -1.937,2.596 -1.049,1.578 -1.758,3.006 -2.137,4.284 -0.37,1.278 -0.549,2.267 -0.549,2.966zm24.015 -11.144c-0.23,0.599 -0.469,1.228 -0.699,1.867 -0.23,0.649 -0.46,1.298 -0.669,1.968 1.228,-1.468 2.247,-2.637 3.056,-3.515 0.808,-0.879 1.477,-1.558 2.017,-2.047 0.539,-0.49 0.978,-0.829 1.328,-1.019 0.349,-0.2 0.679,-0.35 0.968,-0.439 0.17,0 0.47,0.089 0.889,0.289 0.419,0.19 0.869,0.43 1.348,0.719 0.479,0.28 0.929,0.569 1.358,0.879 0.429,0.299 0.739,0.549 0.909,0.739 0.16,0.16 0.179,0.379 0.06,0.679 -0.23,0.619 -0.46,1.248 -0.689,1.887 -0.22,0.629 -0.44,1.278 -0.659,1.937 1.308,-1.498 2.396,-2.706 3.275,-3.605 0.878,-0.908 1.598,-1.607 2.157,-2.096 0.549,-0.49 0.988,-0.809 1.298,-0.969 0.309,-0.15 0.559,-0.23 0.729,-0.23 0.259,0 0.639,0.13 1.148,0.38 0.499,0.249 1.019,0.569 1.528,0.938 0.519,0.37 0.968,0.749 1.348,1.139 0.379,0.389 0.569,0.729 0.569,1.028 0,0.06 -0.01,0.13 -0.03,0.22 -0.02,0.08 -0.05,0.2 -0.08,0.33 -0.16,0.489 -0.359,1.068 -0.609,1.727 -0.239,0.669 -0.499,1.348 -0.769,2.067 -0.279,0.709 -0.549,1.418 -0.818,2.137 -0.28,0.709 -0.52,1.378 -0.73,1.997 -0.219,0.629 -0.399,1.168 -0.529,1.638 -0.14,0.469 -0.209,0.808 -0.209,1.028 0,0.12 0.059,0.17 0.179,0.17 0.21,0 0.54,-0.12 0.969,-0.38 0.429,-0.249 0.919,-0.579 1.478,-0.988 0.549,-0.41 1.128,-0.859 1.737,-1.348 0.599,-0.49 1.179,-0.969 1.738,-1.448 0.559,-0.479 1.058,-0.909 1.507,-1.298 0.45,-0.39 0.789,-0.689 1.029,-0.879 0.17,0.17 0.38,0.399 0.629,0.669 0.24,0.27 0.469,0.529 0.679,0.759 -0.429,0.429 -0.958,0.959 -1.607,1.568 -0.64,0.619 -1.339,1.248 -2.087,1.887 -0.749,0.639 -1.538,1.288 -2.347,1.927 -0.809,0.649 -1.588,1.218 -2.347,1.728 -0.769,0.509 -1.478,0.918 -2.137,1.228 -0.669,0.32 -1.228,0.469 -1.697,0.469 -0.3,0 -0.669,-0.1 -1.118,-0.309 -0.44,-0.2 -0.869,-0.46 -1.279,-0.759 -0.409,-0.3 -0.769,-0.639 -1.058,-1.009 -0.29,-0.369 -0.439,-0.729 -0.439,-1.078 0.179,-0.799 0.409,-1.708 0.698,-2.726 0.3,-1.009 0.62,-2.047 0.969,-3.116 0.35,-1.058 0.719,-2.107 1.099,-3.145 0.379,-1.029 0.748,-1.987 1.098,-2.866 -0.39,0.469 -0.909,1.038 -1.548,1.697 -0.649,0.66 -1.378,1.538 -2.197,2.617 -0.818,1.088 -1.697,2.426 -2.636,4.024 -0.938,1.598 -1.867,3.555 -2.806,5.852 -0.12,0.389 -0.399,0.589 -0.849,0.589 -0.229,0 -0.519,-0.05 -0.858,-0.14 -0.35,-0.08 -0.709,-0.22 -1.089,-0.41 -0.379,-0.179 -0.769,-0.409 -1.168,-0.679 -0.4,-0.279 -0.779,-0.609 -1.128,-0.998 0,-0.14 0.079,-0.549 0.219,-1.238 0.15,-0.699 0.36,-1.578 0.649,-2.656 0.28,-1.069 0.619,-2.267 1.009,-3.595 0.389,-1.328 0.829,-2.687 1.318,-4.094 -0.469,0.509 -1.059,1.158 -1.757,1.947 -0.71,0.789 -1.458,1.737 -2.257,2.866 -0.799,1.118 -1.618,2.416 -2.457,3.904 -0.838,1.478 -1.627,3.155 -2.366,5.033 -0.12,0.409 -0.39,0.609 -0.819,0.609 -0.34,0 -0.709,-0.09 -1.129,-0.27 -0.419,-0.19 -0.848,-0.429 -1.288,-0.739 -0.439,-0.299 -0.878,-0.639 -1.318,-1.008 -0.439,-0.37 -0.829,-0.739 -1.188,-1.109 0,-0.119 0.06,-0.449 0.17,-0.998 0.1,-0.539 0.25,-1.228 0.449,-2.057 0.2,-0.829 0.43,-1.778 0.719,-2.836 0.28,-1.069 0.609,-2.187 0.979,-3.355 0.369,-1.169 0.779,-2.367 1.228,-3.585 0.449,-1.218 0.929,-2.397 1.438,-3.525 0.819,0.389 1.727,0.869 2.726,1.438 1.008,0.559 1.927,1.228 2.766,1.987zm29.607 11.144c0,0.589 0.21,0.879 0.639,0.879 0.45,0 1.049,-0.36 1.788,-1.069 0.738,-0.709 1.507,-1.607 2.306,-2.706 -0.03,-0.21 -0.06,-0.399 -0.07,-0.569 -0.01,-0.17 -0.01,-0.32 -0.01,-0.449 0,-0.39 0.04,-0.859 0.13,-1.398 0.09,-0.53 0.31,-1.139 0.659,-1.828 0.23,-0.519 0.509,-1.038 0.849,-1.548 0.27,-0.449 0.599,-0.928 0.989,-1.447 0.389,-0.52 0.818,-0.999 1.288,-1.448l0.179 -0.18c0.19,0.24 0.45,0.559 0.769,0.958 0.33,0.4 0.649,0.809 0.969,1.229 0.319,0.419 0.609,0.799 0.849,1.148 0.249,0.36 0.399,0.599 0.449,0.739 0,0.839 -0.15,1.678 -0.449,2.516 -0.3,0.839 -0.709,1.668 -1.219,2.487 1.179,-0.08 2.267,-0.38 3.266,-0.899 1.008,-0.519 2.057,-1.358 3.145,-2.526 0.18,0.169 0.41,0.409 0.689,0.719 0.28,0.299 0.509,0.559 0.689,0.769 -0.819,0.858 -1.627,1.567 -2.416,2.136 -0.789,0.57 -1.578,1.019 -2.367,1.349 -0.789,0.329 -1.598,0.569 -2.416,0.719 -0.819,0.139 -1.658,0.219 -2.517,0.219 -0.659,0.699 -1.378,1.338 -2.137,1.927 -0.759,0.59 -1.537,1.089 -2.326,1.518 -0.789,0.43 -1.568,0.769 -2.357,0.999 -0.779,0.229 -1.518,0.349 -2.217,0.349 -0.589,0 -1.188,-0.169 -1.817,-0.529 -0.619,-0.35 -1.188,-0.779 -1.698,-1.298 -0.499,-0.519 -0.918,-1.069 -1.258,-1.658 -0.329,-0.579 -0.499,-1.098 -0.499,-1.547 0,-1.478 0.21,-2.956 0.609,-4.414 0.399,-1.468 1.018,-2.836 1.867,-4.114 0.849,-1.278 1.927,-2.407 3.246,-3.375 1.318,-0.979 2.885,-1.718 4.693,-2.227 0.06,-0.04 0.17,-0.07 0.309,-0.09 0.15,-0.02 0.27,-0.03 0.37,-0.03 0.269,0 0.559,0.11 0.859,0.31 0.309,0.209 0.589,0.439 0.848,0.689 0.27,0.249 0.49,0.499 0.659,0.749 0.18,0.239 0.27,0.399 0.27,0.479 -0.04,0.1 -0.19,0.22 -0.439,0.369 -0.26,0.14 -0.6,0.39 -1.029,0.739 -0.429,0.36 -0.938,0.859 -1.518,1.508 -0.589,0.659 -1.228,1.518 -1.937,2.596 -1.048,1.578 -1.757,3.006 -2.137,4.284 -0.369,1.278 -0.549,2.267 -0.549,2.966zm36.048 -7.809c1.049,-1.308 2.017,-2.386 2.896,-3.235 0.879,-0.849 1.647,-1.518 2.326,-2.017 0.669,-0.5 1.239,-0.839 1.708,-1.039 0.469,-0.199 0.819,-0.289 1.058,-0.289 0.31,0 0.649,0.11 1.019,0.349 0.369,0.23 0.739,0.52 1.098,0.849 0.36,0.33 0.699,0.669 1.009,1.019 0.309,0.359 0.579,0.639 0.789,0.848 0.22,0.22 0.349,0.45 0.399,0.689 0.05,0.25 0.07,0.5 0.07,0.749 0,0.919 -0.16,1.918 -0.469,2.996 -0.31,1.088 -0.719,2.157 -1.228,3.215 -0.51,1.069 -1.079,2.077 -1.728,3.036 -0.639,0.948 -1.298,1.757 -1.957,2.426 0.569,-0.239 1.148,-0.519 1.737,-0.868 0.6,-0.34 1.189,-0.699 1.778,-1.089 0.579,-0.389 1.158,-0.799 1.717,-1.218 0.57,-0.42 1.109,-0.839 1.618,-1.248 1.188,-0.929 2.337,-1.937 3.445,-3.006l1.318 1.428c-0.639,0.609 -1.358,1.248 -2.147,1.937 -0.789,0.679 -1.618,1.348 -2.476,2.017 -0.859,0.659 -1.728,1.298 -2.616,1.898 -0.889,0.609 -1.738,1.138 -2.557,1.607 -0.819,0.469 -1.587,0.839 -2.286,1.119 -0.699,0.269 -1.309,0.409 -1.808,0.409 -0.359,0 -0.799,-0.11 -1.318,-0.31 -0.529,-0.209 -1.038,-0.449 -1.538,-0.749 -0.499,-0.289 -0.928,-0.609 -1.288,-0.948 -0.359,-0.34 -0.539,-0.649 -0.539,-0.919 0,-0.16 0.1,-0.299 0.309,-0.429 0.2,-0.12 0.5,-0.35 0.889,-0.689 0.39,-0.33 0.859,-0.829 1.408,-1.488 0.539,-0.659 1.159,-1.628 1.838,-2.896 0.369,-0.699 0.718,-1.428 1.058,-2.177 0.329,-0.759 0.619,-1.458 0.869,-2.107 0.259,-0.659 0.459,-1.218 0.599,-1.697 0.15,-0.479 0.22,-0.809 0.22,-0.979 0,-0.18 -0.02,-0.299 -0.07,-0.369 -0.05,-0.07 -0.09,-0.12 -0.13,-0.16 -0.08,-0.02 -0.15,-0.02 -0.2,0 -0.279,0.08 -0.829,0.509 -1.657,1.298 -0.829,0.789 -1.798,1.927 -2.916,3.395 -1.109,1.478 -2.287,3.266 -3.535,5.382 -1.248,2.117 -2.427,4.534 -3.545,7.24 -0.909,2.616 -1.827,5.262 -2.746,7.928 -0.919,2.677 -1.817,5.333 -2.686,7.989l-7.439 1.757c1.138,-3.215 2.306,-6.41 3.524,-9.586 1.229,-3.165 2.437,-6.331 3.635,-9.506 1.199,-3.165 2.377,-6.341 3.535,-9.516 1.158,-3.186 2.267,-6.371 3.325,-9.566 0.06,-0.22 0.11,-0.37 0.16,-0.46 0.05,-0.09 0.15,-0.13 0.31,-0.13 0.309,0.1 0.689,0.28 1.138,0.54 0.449,0.269 0.889,0.569 1.328,0.908 0.439,0.34 0.839,0.689 1.188,1.039 0.35,0.349 0.59,0.649 0.729,0.909 0.04,0.059 0.03,0.159 -0.01,0.309 -0.05,0.14 -0.109,0.3 -0.169,0.48l-0.989 2.925zm33.701 8.218c0,0.12 0.06,0.18 0.17,0.18 0.18,0 0.469,-0.13 0.879,-0.379 0.409,-0.26 0.879,-0.58 1.408,-0.969 0.529,-0.389 1.088,-0.829 1.677,-1.318 0.599,-0.489 1.169,-0.969 1.718,-1.428 0.539,-0.469 1.038,-0.899 1.478,-1.288 0.439,-0.39 0.769,-0.699 1.008,-0.909 0.17,0.17 0.39,0.41 0.659,0.699 0.26,0.29 0.5,0.559 0.709,0.789 -0.459,0.429 -1.028,0.959 -1.677,1.568 -0.659,0.619 -1.358,1.258 -2.107,1.917 -0.749,0.659 -1.528,1.318 -2.327,1.977 -0.799,0.649 -1.578,1.228 -2.336,1.738 -0.759,0.509 -1.488,0.918 -2.167,1.238 -0.679,0.329 -1.278,0.489 -1.788,0.489 -0.349,0 -0.729,-0.07 -1.148,-0.21 -0.42,-0.13 -0.809,-0.319 -1.158,-0.569 -0.35,-0.24 -0.649,-0.529 -0.879,-0.859 -0.24,-0.329 -0.35,-0.709 -0.35,-1.118 0,-0.15 -0.01,-0.339 -0.02,-0.569 -0.01,-0.22 0.01,-0.509 0.05,-0.879 0.04,-0.359 0.11,-0.799 0.23,-1.308 0.12,-0.519 0.289,-1.158 0.529,-1.917 -0.649,0.679 -1.398,1.388 -2.267,2.137 -0.868,0.739 -1.777,1.438 -2.736,2.107 -0.958,0.659 -1.917,1.258 -2.885,1.797 -0.959,0.529 -1.858,0.939 -2.677,1.208 -0.099,0.04 -0.169,0.06 -0.229,0.06 -0.06,0 -0.12,0 -0.18,0 -0.19,0 -0.449,-0.1 -0.769,-0.289 -0.329,-0.2 -0.639,-0.46 -0.958,-0.779 -0.31,-0.32 -0.58,-0.689 -0.799,-1.099 -0.23,-0.409 -0.34,-0.818 -0.34,-1.228 0,-0.11 0.06,-0.509 0.18,-1.168 0.11,-0.659 0.389,-1.508 0.829,-2.527 0.439,-1.028 1.088,-2.176 1.947,-3.455 0.859,-1.278 2.027,-2.586 3.515,-3.934 0.759,-0.679 1.578,-1.328 2.456,-1.927 0.739,-0.509 1.588,-1.028 2.547,-1.558 0.948,-0.519 1.957,-0.938 3.005,-1.258 0.04,0 0.08,-0.01 0.11,-0.03 0.02,-0.02 0.07,-0.01 0.13,0.03 0.23,0.08 0.509,0.2 0.829,0.369 0.319,0.17 0.649,0.34 0.968,0.53 0.32,0.179 0.599,0.369 0.849,0.549 0.24,0.19 0.4,0.34 0.479,0.459 0.02,0.04 0.02,0.07 0,0.08l-0.06 0.06c-0.878,0.469 -1.707,0.999 -2.486,1.568 -0.779,0.579 -1.468,1.118 -2.077,1.627 -0.699,0.6 -1.348,1.199 -1.957,1.778 -1.428,1.408 -2.407,2.626 -2.956,3.645 -0.549,1.028 -0.819,1.757 -0.819,2.207 0,0.339 0.14,0.499 0.41,0.499 0.269,0 0.619,-0.11 1.038,-0.33 0.42,-0.23 0.889,-0.529 1.418,-0.909 0.53,-0.379 1.109,-0.828 1.748,-1.348 0.629,-0.519 1.288,-1.058 1.967,-1.627 0.609,-0.489 1.188,-1.009 1.757,-1.578 0.49,-0.469 0.999,-0.999 1.518,-1.608 0.529,-0.609 0.979,-1.218 1.348,-1.847 0,-0.02 0.01,-0.04 0.03,-0.05 0.02,-0.02 0.05,-0.02 0.09,0 0.21,0.15 0.459,0.409 0.729,0.769 0.27,0.36 0.529,0.759 0.759,1.188 0.24,0.43 0.439,0.839 0.599,1.239 0.17,0.399 0.25,0.709 0.25,0.928 -0.45,0.909 -0.789,1.748 -1.039,2.497 -0.239,0.749 -0.429,1.408 -0.549,1.977 -0.13,0.569 -0.21,1.048 -0.24,1.448 -0.03,0.399 -0.04,0.709 -0.04,0.918zm21.539 -9.536c-0.259,0.759 -0.579,1.628 -0.959,2.606 -0.379,0.969 -0.738,1.927 -1.098,2.866 -0.349,0.939 -0.649,1.788 -0.889,2.547 -0.239,0.758 -0.369,1.308 -0.369,1.637 0,0.12 0.06,0.17 0.18,0.17 0.219,0 0.539,-0.12 0.968,-0.38 0.43,-0.249 0.919,-0.579 1.478,-0.988 0.549,-0.41 1.129,-0.859 1.738,-1.348 0.599,-0.49 1.188,-0.969 1.737,-1.448 0.559,-0.479 1.059,-0.909 1.508,-1.298 0.449,-0.39 0.789,-0.689 1.028,-0.879 0.17,0.17 0.38,0.399 0.63,0.669 0.239,0.27 0.469,0.529 0.679,0.759 -0.42,0.429 -0.959,0.959 -1.608,1.568 -0.639,0.619 -1.338,1.248 -2.087,1.887 -0.749,0.639 -1.528,1.288 -2.337,1.927 -0.819,0.649 -1.607,1.218 -2.376,1.728 -0.769,0.509 -1.488,0.918 -2.147,1.228 -0.659,0.32 -1.218,0.469 -1.668,0.469 -0.289,0 -0.669,-0.1 -1.108,-0.309 -0.45,-0.2 -0.879,-0.46 -1.288,-0.759 -0.41,-0.3 -0.769,-0.639 -1.059,-1.009 -0.289,-0.369 -0.439,-0.729 -0.439,-1.078 0.299,-1.308 0.589,-2.447 0.879,-3.425 0.289,-0.979 0.569,-1.808 0.818,-2.507 0.26,-0.689 0.48,-1.248 0.679,-1.677 0.19,-0.43 0.34,-0.749 0.44,-0.969 -0.24,-0.09 -0.46,-0.199 -0.679,-0.319 -0.21,-0.12 -0.43,-0.23 -0.639,-0.35 -0.32,0.33 -0.659,0.679 -1.039,1.049 -0.379,0.369 -0.769,0.749 -1.158,1.118 -0.39,0.369 -0.779,0.729 -1.168,1.079 -0.39,0.349 -0.739,0.679 -1.059,0.968l-1.398 -1.438c0.499,-0.489 1.108,-1.078 1.828,-1.767 0.708,-0.689 1.407,-1.388 2.086,-2.097 -0.489,-0.29 -0.928,-0.569 -1.318,-0.829 -0.389,-0.26 -0.719,-0.499 -0.988,-0.719 -0.33,-0.23 -0.629,-0.449 -0.879,-0.639 -0.12,-0.06 -0.18,-0.19 -0.18,-0.38 0,-0.219 0.09,-0.529 0.25,-0.928 0.17,-0.4 0.379,-0.829 0.629,-1.278 0.26,-0.46 0.529,-0.929 0.819,-1.408 0.299,-0.48 0.579,-0.909 0.849,-1.308 0.279,-0.39 0.519,-0.699 0.719,-0.949 0.209,-0.24 0.339,-0.36 0.399,-0.36 0.03,0 0.17,0.05 0.39,0.14 0.229,0.1 0.459,0.21 0.718,0.34 0.25,0.13 0.49,0.269 0.699,0.429 0.22,0.15 0.35,0.29 0.41,0.4 0.02,0.1 0.04,0.309 0.06,0.619 0.02,0.309 0.04,0.689 0.06,1.138 0.758,0.389 1.537,0.839 2.336,1.338 0.799,0.489 1.538,0.969 2.197,1.418 0.779,0.499 1.518,1.019 2.227,1.548 0.25,0.16 0.409,0.349 0.479,0.589 0.07,0.23 0.07,0.429 0.02,0.609zm8.118 13.72c-0.329,0 -0.759,-0.149 -1.298,-0.449 -0.539,-0.31 -1.058,-0.679 -1.567,-1.119 -0.5,-0.439 -0.939,-0.888 -1.319,-1.357 -0.369,-0.47 -0.549,-0.869 -0.549,-1.199 0,-0.589 0.16,-1.508 0.48,-2.776 0.319,-1.268 0.748,-2.716 1.278,-4.343 0.519,-1.628 1.118,-3.376 1.797,-5.223 0.669,-1.857 1.348,-3.675 2.027,-5.442l-4.124 0 -0.03 0c-0.02,0 -0.03,-0.02 -0.03,-0.06 0,-0.12 0.05,-0.29 0.14,-0.509 0.08,-0.23 0.19,-0.46 0.32,-0.709 0.129,-0.24 0.269,-0.469 0.439,-0.669 0.16,-0.21 0.329,-0.34 0.479,-0.4l3.805 -0.169c0.549,-1.328 1.068,-2.557 1.567,-3.675 0.5,-1.118 0.939,-2.077 1.328,-2.876 0.1,-0.22 0.2,-0.449 0.31,-0.689 0.11,-0.25 0.26,-0.489 0.469,-0.729 0.2,-0.249 0.48,-0.499 0.819,-0.769 0.34,-0.259 0.799,-0.529 1.388,-0.799 0.43,-0.219 0.949,-0.449 1.568,-0.709 0.609,-0.249 1.218,-0.479 1.807,-0.699 0.6,-0.209 1.139,-0.389 1.628,-0.539 0.489,-0.15 0.839,-0.22 1.048,-0.22 0.2,0 0.3,0.04 0.3,0.12l0 0.05c0,0.02 -0.02,0.07 -0.06,0.15 -0.12,0.2 -0.329,0.619 -0.649,1.278 -0.31,0.649 -0.699,1.468 -1.148,2.457 -0.46,0.978 -0.969,2.107 -1.528,3.365 -0.549,1.258 -1.128,2.586 -1.708,3.984l7.02 -0.26c0.2,0 0.25,0.12 0.18,0.35 -0.08,0.24 -0.23,0.509 -0.439,0.819 -0.22,0.319 -0.47,0.639 -0.749,0.968 -0.28,0.33 -0.52,0.589 -0.719,0.759 -0.04,0.04 -0.12,0.08 -0.23,0.12 -0.12,0.04 -0.27,0.06 -0.439,0.06l-5.792 0c-0.709,1.698 -1.378,3.415 -2.017,5.143 -0.649,1.737 -1.228,3.385 -1.728,4.952 -0.509,1.558 -0.918,2.986 -1.218,4.294 -0.299,1.308 -0.449,2.377 -0.449,3.215 0,0.12 0.06,0.18 0.17,0.18 0.219,0 0.539,-0.12 0.968,-0.369 0.43,-0.24 0.909,-0.559 1.448,-0.949 0.539,-0.389 1.109,-0.819 1.708,-1.288 0.609,-0.469 1.188,-0.929 1.727,-1.388 0.549,-0.459 1.039,-0.879 1.478,-1.258 0.439,-0.38 0.779,-0.669 1.009,-0.859 0.179,0.17 0.389,0.399 0.629,0.669 0.249,0.27 0.479,0.529 0.689,0.759 -0.43,0.429 -0.969,0.959 -1.608,1.568 -0.649,0.619 -1.338,1.248 -2.097,1.887 -0.749,0.639 -1.528,1.288 -2.337,1.927 -0.808,0.649 -1.597,1.218 -2.366,1.728 -0.769,0.509 -1.488,0.918 -2.157,1.228 -0.659,0.32 -1.218,0.469 -1.668,0.469z"/>
    <path class="fil2" d="M218.926 64.448c-0.3,0 -0.669,-0.1 -1.119,-0.309 -0.449,-0.2 -0.868,-0.46 -1.278,-0.759 -0.409,-0.3 -0.769,-0.639 -1.058,-1.009 -0.29,-0.369 -0.44,-0.729 -0.44,-1.078 0.2,-0.859 0.46,-1.848 0.789,-2.956 0.33,-1.118 0.689,-2.247 1.069,-3.395 0.379,-1.148 0.779,-2.277 1.198,-3.375 0.419,-1.108 0.799,-2.087 1.148,-2.946 0.34,-0.859 0.64,-1.548 0.889,-2.077 0.25,-0.529 0.42,-0.789 0.499,-0.789 0.11,0 0.41,0.13 0.879,0.38 0.46,0.249 0.959,0.559 1.478,0.918 0.509,0.37 0.979,0.749 1.388,1.149 0.409,0.399 0.609,0.739 0.609,1.038 0,0.06 -0.01,0.13 -0.03,0.22 -0.02,0.08 -0.05,0.2 -0.09,0.33 -0.15,0.489 -0.349,1.068 -0.599,1.727 -0.24,0.669 -0.499,1.348 -0.769,2.067 -0.279,0.709 -0.549,1.418 -0.819,2.137 -0.279,0.709 -0.519,1.378 -0.729,1.997 -0.219,0.629 -0.399,1.168 -0.529,1.638 -0.14,0.469 -0.209,0.808 -0.209,1.028 0,0.12 0.059,0.17 0.179,0.17 0.21,0 0.539,-0.12 0.959,-0.38 0.429,-0.249 0.929,-0.579 1.478,-0.988 0.559,-0.41 1.138,-0.859 1.747,-1.348 0.599,-0.49 1.179,-0.969 1.738,-1.448 0.559,-0.479 1.058,-0.909 1.508,-1.298 0.449,-0.39 0.788,-0.689 1.028,-0.879 0.17,0.17 0.379,0.399 0.619,0.669 0.25,0.27 0.48,0.529 0.689,0.759 -0.429,0.429 -0.958,0.959 -1.608,1.568 -0.639,0.619 -1.338,1.248 -2.087,1.887 -0.748,0.639 -1.537,1.288 -2.346,1.927 -0.809,0.649 -1.588,1.218 -2.347,1.728 -0.769,0.509 -1.478,0.918 -2.137,1.228 -0.669,0.32 -1.228,0.469 -1.697,0.469zm11.583 -27.61c-0.02,0.07 -0.09,0.26 -0.22,0.569 -0.129,0.3 -0.279,0.649 -0.449,1.049 -0.18,0.399 -0.379,0.819 -0.609,1.258 -0.22,0.439 -0.439,0.849 -0.649,1.218 -0.22,0.37 -0.419,0.669 -0.619,0.919 -0.2,0.24 -0.35,0.369 -0.47,0.369 -0.349,-0.02 -0.778,-0.129 -1.268,-0.329 -0.499,-0.19 -0.978,-0.409 -1.438,-0.659 -0.459,-0.24 -0.848,-0.48 -1.168,-0.709 -0.319,-0.24 -0.479,-0.4 -0.479,-0.499 0,-0.41 0.11,-0.939 0.349,-1.598 0.23,-0.649 0.509,-1.288 0.819,-1.897 0.31,-0.619 0.629,-1.149 0.949,-1.598 0.319,-0.449 0.569,-0.669 0.749,-0.669 0.349,0 0.778,0.11 1.288,0.33 0.499,0.229 0.998,0.489 1.478,0.778 0.469,0.29 0.878,0.579 1.228,0.859 0.339,0.29 0.509,0.489 0.509,0.609zm1.548 28.169c-0.349,0 -0.749,-0.109 -1.198,-0.339 -0.45,-0.22 -0.909,-0.529 -1.378,-0.909 -0.46,-0.379 -0.919,-0.829 -1.358,-1.338 -0.44,-0.519 -0.799,-1.058 -1.099,-1.628 -0.11,-0.219 -0.189,-0.459 -0.229,-0.728 -0.04,-0.28 -0.06,-0.629 -0.06,-1.059 0,-1.108 0.169,-2.227 0.509,-3.345 0.349,-1.128 0.819,-2.197 1.418,-3.205 0.609,-1.019 1.338,-1.968 2.187,-2.856 0.849,-0.889 1.767,-1.648 2.766,-2.297 0.988,-0.639 2.057,-1.148 3.185,-1.518 1.128,-0.369 2.277,-0.559 3.455,-0.559 0.17,0 0.41,0.1 0.709,0.28 0.31,0.189 0.629,0.439 0.989,0.749 0.349,0.309 0.699,0.659 1.058,1.048 0.369,0.39 0.689,0.789 0.989,1.188 0.289,0.4 0.529,0.789 0.709,1.169 0.189,0.379 0.279,0.719 0.279,1.008 -0.1,0.37 -0.399,0.779 -0.908,1.219 -0.5,0.439 -1.099,0.848 -1.798,1.228 -0.689,0.379 -1.418,0.699 -2.177,0.948 -0.759,0.25 -1.428,0.38 -1.987,0.38 -0.329,0 -0.499,-0.1 -0.499,-0.29 0,-0.22 0.15,-0.529 0.439,-0.948 0.29,-0.42 0.619,-0.879 0.979,-1.379 0.359,-0.499 0.689,-0.998 0.978,-1.487 0.29,-0.5 0.44,-0.929 0.44,-1.279 0,-0.169 -0.04,-0.319 -0.13,-0.439 -0.09,-0.12 -0.21,-0.17 -0.37,-0.17 -0.429,0 -0.878,0.19 -1.338,0.58 -0.469,0.389 -0.938,0.908 -1.408,1.547 -0.469,0.649 -0.918,1.388 -1.348,2.217 -0.429,0.829 -0.798,1.678 -1.128,2.556 -0.32,0.879 -0.579,1.758 -0.769,2.637 -0.2,0.878 -0.299,1.677 -0.299,2.396 0,0.429 0.129,0.729 0.389,0.889 0.25,0.17 0.639,0.25 1.168,0.25 1.308,0 2.567,-0.22 3.785,-0.659 1.218,-0.44 2.386,-0.999 3.515,-1.698 1.118,-0.689 2.187,-1.468 3.195,-2.327 1.019,-0.858 1.977,-1.707 2.876,-2.566 0.21,0.25 0.469,0.499 0.789,0.739 0.309,0.249 0.539,0.459 0.699,0.629 -1.208,1.268 -2.497,2.476 -3.845,3.615 -1.358,1.138 -2.785,2.137 -4.283,2.985 -1.508,0.849 -3.086,1.518 -4.734,2.018 -1.647,0.499 -3.365,0.748 -5.162,0.748zm18.493 -0.559c-0.299,0 -0.669,-0.1 -1.118,-0.309 -0.449,-0.2 -0.869,-0.46 -1.278,-0.759 -0.41,-0.3 -0.769,-0.639 -1.059,-1.009 -0.289,-0.369 -0.439,-0.729 -0.439,-1.078 0.2,-0.859 0.459,-1.848 0.789,-2.956 0.329,-1.118 0.689,-2.247 1.068,-3.395 0.38,-1.148 0.779,-2.277 1.198,-3.375 0.42,-1.108 0.799,-2.087 1.149,-2.946 0.339,-0.859 0.639,-1.548 0.889,-2.077 0.249,-0.529 0.419,-0.789 0.499,-0.789 0.11,0 0.409,0.13 0.878,0.38 0.46,0.249 0.959,0.559 1.478,0.918 0.51,0.37 0.979,0.749 1.388,1.149 0.41,0.399 0.609,0.739 0.609,1.038 0,0.06 -0.01,0.13 -0.03,0.22 -0.02,0.08 -0.049,0.2 -0.089,0.33 -0.15,0.489 -0.35,1.068 -0.6,1.727 -0.239,0.669 -0.499,1.348 -0.768,2.067 -0.28,0.709 -0.55,1.418 -0.819,2.137 -0.28,0.709 -0.519,1.378 -0.729,1.997 -0.22,0.629 -0.4,1.168 -0.529,1.638 -0.14,0.469 -0.21,0.808 -0.21,1.028 0,0.12 0.06,0.17 0.18,0.17 0.209,0 0.539,-0.12 0.958,-0.38 0.43,-0.249 0.929,-0.579 1.478,-0.988 0.559,-0.41 1.138,-0.859 1.748,-1.348 0.599,-0.49 1.178,-0.969 1.737,-1.448 0.559,-0.479 1.059,-0.909 1.508,-1.298 0.449,-0.39 0.789,-0.689 1.028,-0.879 0.17,0.17 0.38,0.399 0.62,0.669 0.249,0.27 0.479,0.529 0.688,0.759 -0.429,0.429 -0.958,0.959 -1.607,1.568 -0.639,0.619 -1.338,1.248 -2.087,1.887 -0.749,0.639 -1.538,1.288 -2.347,1.927 -0.809,0.649 -1.587,1.218 -2.346,1.728 -0.769,0.509 -1.478,0.918 -2.137,1.228 -0.669,0.32 -1.229,0.469 -1.698,0.469zm11.583 -27.61c-0.02,0.07 -0.089,0.26 -0.219,0.569 -0.13,0.3 -0.28,0.649 -0.45,1.049 -0.179,0.399 -0.379,0.819 -0.609,1.258 -0.219,0.439 -0.439,0.849 -0.649,1.218 -0.219,0.37 -0.419,0.669 -0.619,0.919 -0.2,0.24 -0.349,0.369 -0.469,0.369 -0.35,-0.02 -0.779,-0.129 -1.268,-0.329 -0.5,-0.19 -0.979,-0.409 -1.438,-0.659 -0.46,-0.24 -0.849,-0.48 -1.169,-0.709 -0.319,-0.24 -0.479,-0.4 -0.479,-0.499 0,-0.41 0.11,-0.939 0.35,-1.598 0.229,-0.649 0.509,-1.288 0.818,-1.897 0.31,-0.619 0.629,-1.149 0.949,-1.598 0.32,-0.449 0.569,-0.669 0.749,-0.669 0.349,0 0.779,0.11 1.288,0.33 0.499,0.229 0.999,0.489 1.478,0.778 0.469,0.29 0.879,0.579 1.228,0.859 0.34,0.29 0.509,0.489 0.509,0.609zm5.473 15.208c1.048,-1.308 2.017,-2.386 2.895,-3.235 0.879,-0.849 1.648,-1.518 2.327,-2.017 0.669,-0.5 1.238,-0.839 1.708,-1.039 0.469,-0.199 0.818,-0.289 1.058,-0.289 0.31,0 0.649,0.11 1.019,0.349 0.369,0.23 0.739,0.52 1.098,0.849 0.359,0.33 0.699,0.669 1.008,1.019 0.31,0.359 0.58,0.639 0.789,0.848 0.22,0.22 0.35,0.45 0.4,0.689 0.05,0.25 0.07,0.5 0.07,0.749 0,0.919 -0.16,1.918 -0.47,2.996 -0.309,1.088 -0.719,2.157 -1.228,3.215 -0.509,1.069 -1.078,2.077 -1.727,3.036 -0.639,0.948 -1.298,1.757 -1.958,2.426 0.57,-0.239 1.149,-0.519 1.738,-0.868 0.599,-0.34 1.188,-0.699 1.777,-1.089 0.58,-0.389 1.159,-0.799 1.718,-1.218 0.569,-0.42 1.108,-0.839 1.618,-1.248 1.188,-0.929 2.336,-1.937 3.445,-3.006l1.318 1.428c-0.639,0.609 -1.358,1.248 -2.147,1.937 -0.789,0.679 -1.618,1.348 -2.477,2.017 -0.858,0.659 -1.727,1.298 -2.616,1.898 -0.889,0.609 -1.737,1.138 -2.556,1.607 -0.819,0.469 -1.588,0.839 -2.287,1.119 -0.699,0.269 -1.308,0.409 -1.807,0.409 -0.36,0 -0.799,-0.11 -1.318,-0.31 -0.529,-0.209 -1.039,-0.449 -1.538,-0.749 -0.499,-0.289 -0.929,-0.609 -1.288,-0.948 -0.36,-0.34 -0.54,-0.649 -0.54,-0.919 0,-0.16 0.1,-0.299 0.31,-0.429 0.2,-0.12 0.499,-0.35 0.889,-0.689 0.389,-0.33 0.859,-0.829 1.408,-1.488 0.539,-0.659 1.158,-1.628 1.837,-2.896 0.37,-0.699 0.719,-1.428 1.059,-2.177 0.329,-0.759 0.619,-1.458 0.868,-2.107 0.26,-0.659 0.46,-1.218 0.599,-1.697 0.15,-0.479 0.22,-0.809 0.22,-0.979 0,-0.18 -0.02,-0.299 -0.07,-0.369 -0.05,-0.07 -0.09,-0.12 -0.13,-0.16 -0.079,-0.02 -0.149,-0.02 -0.199,0 -0.28,0.08 -0.829,0.509 -1.658,1.298 -0.829,0.789 -1.797,1.927 -2.916,3.395 -1.108,1.478 -2.286,3.266 -3.535,5.382 -1.248,2.117 -2.426,4.534 -3.544,7.24 -0.909,2.616 -1.828,5.262 -2.746,7.928 -0.919,2.677 -1.818,5.333 -2.687,7.989l-7.439 1.757c1.139,-3.215 2.307,-6.41 3.525,-9.586 1.228,-3.165 2.437,-6.331 3.635,-9.506 1.198,-3.165 2.376,-6.341 3.535,-9.516 1.158,-3.186 2.266,-6.371 3.325,-9.566 0.06,-0.22 0.11,-0.37 0.16,-0.46 0.05,-0.09 0.149,-0.13 0.309,-0.13 0.31,0.1 0.689,0.28 1.139,0.54 0.449,0.269 0.888,0.569 1.328,0.908 0.439,0.34 0.839,0.689 1.188,1.039 0.349,0.349 0.589,0.649 0.729,0.909 0.04,0.059 0.03,0.159 -0.01,0.309 -0.05,0.14 -0.11,0.3 -0.17,0.48l-0.988 2.925zm33.701 8.218c0,0.12 0.06,0.18 0.17,0.18 0.179,0 0.469,-0.13 0.878,-0.379 0.41,-0.26 0.879,-0.58 1.408,-0.969 0.53,-0.389 1.089,-0.829 1.678,-1.318 0.599,-0.489 1.168,-0.969 1.717,-1.428 0.54,-0.469 1.039,-0.899 1.478,-1.288 0.44,-0.39 0.769,-0.699 1.009,-0.909 0.17,0.17 0.389,0.41 0.659,0.699 0.26,0.29 0.499,0.559 0.709,0.789 -0.459,0.429 -1.029,0.959 -1.678,1.568 -0.659,0.619 -1.358,1.258 -2.107,1.917 -0.749,0.659 -1.527,1.318 -2.326,1.977 -0.799,0.649 -1.578,1.228 -2.337,1.738 -0.759,0.509 -1.488,0.918 -2.167,1.238 -0.679,0.329 -1.278,0.489 -1.787,0.489 -0.35,0 -0.729,-0.07 -1.149,-0.21 -0.419,-0.13 -0.808,-0.319 -1.158,-0.569 -0.349,-0.24 -0.649,-0.529 -0.879,-0.859 -0.239,-0.329 -0.349,-0.709 -0.349,-1.118 0,-0.15 -0.01,-0.339 -0.02,-0.569 -0.01,-0.22 0.01,-0.509 0.05,-0.879 0.04,-0.359 0.11,-0.799 0.23,-1.308 0.119,-0.519 0.289,-1.158 0.529,-1.917 -0.649,0.679 -1.398,1.388 -2.267,2.137 -0.869,0.739 -1.777,1.438 -2.736,2.107 -0.959,0.659 -1.917,1.258 -2.886,1.797 -0.958,0.529 -1.857,0.939 -2.676,1.208 -0.1,0.04 -0.17,0.06 -0.23,0.06 -0.06,0 -0.119,0 -0.179,0 -0.19,0 -0.45,-0.1 -0.769,-0.289 -0.33,-0.2 -0.639,-0.46 -0.959,-0.779 -0.309,-0.32 -0.579,-0.689 -0.799,-1.099 -0.229,-0.409 -0.339,-0.818 -0.339,-1.228 0,-0.11 0.06,-0.509 0.18,-1.168 0.109,-0.659 0.389,-1.508 0.828,-2.527 0.44,-1.028 1.089,-2.176 1.948,-3.455 0.858,-1.278 2.027,-2.586 3.514,-3.934 0.759,-0.679 1.578,-1.328 2.457,-1.927 0.739,-0.509 1.588,-1.028 2.546,-1.558 0.949,-0.519 1.957,-0.938 3.006,-1.258 0.04,0 0.08,-0.01 0.11,-0.03 0.02,-0.02 0.07,-0.01 0.129,0.03 0.23,0.08 0.51,0.2 0.829,0.369 0.32,0.17 0.649,0.34 0.969,0.53 0.319,0.179 0.599,0.369 0.849,0.549 0.239,0.19 0.399,0.34 0.479,0.459 0.02,0.04 0.02,0.07 0,0.08l-0.06 0.06c-0.879,0.469 -1.707,0.999 -2.486,1.568 -0.779,0.579 -1.468,1.118 -2.077,1.627 -0.699,0.6 -1.348,1.199 -1.957,1.778 -1.428,1.408 -2.407,2.626 -2.956,3.645 -0.549,1.028 -0.819,1.757 -0.819,2.207 0,0.339 0.14,0.499 0.409,0.499 0.27,0 0.619,-0.11 1.039,-0.33 0.419,-0.23 0.889,-0.529 1.418,-0.909 0.529,-0.379 1.108,-0.828 1.747,-1.348 0.629,-0.519 1.288,-1.058 1.967,-1.627 0.61,-0.489 1.189,-1.009 1.758,-1.578 0.489,-0.469 0.998,-0.999 1.518,-1.608 0.529,-0.609 0.978,-1.218 1.348,-1.847 0,-0.02 0.01,-0.04 0.03,-0.05 0.02,-0.02 0.05,-0.02 0.09,0 0.209,0.15 0.459,0.409 0.729,0.769 0.269,0.36 0.529,0.759 0.758,1.188 0.24,0.43 0.44,0.839 0.6,1.239 0.169,0.399 0.249,0.709 0.249,0.928 -0.449,0.909 -0.789,1.748 -1.038,2.497 -0.24,0.749 -0.43,1.408 -0.549,1.977 -0.13,0.569 -0.21,1.048 -0.24,1.448 -0.03,0.399 -0.04,0.709 -0.04,0.918zm21.539 -9.536c-0.26,0.759 -0.579,1.628 -0.959,2.606 -0.379,0.969 -0.739,1.927 -1.098,2.866 -0.35,0.939 -0.649,1.788 -0.889,2.547 -0.24,0.758 -0.369,1.308 -0.369,1.637 0,0.12 0.059,0.17 0.179,0.17 0.22,0 0.539,-0.12 0.969,-0.38 0.429,-0.249 0.918,-0.579 1.478,-0.988 0.549,-0.41 1.128,-0.859 1.737,-1.348 0.599,-0.49 1.189,-0.969 1.738,-1.448 0.559,-0.479 1.058,-0.909 1.507,-1.298 0.45,-0.39 0.789,-0.689 1.029,-0.879 0.17,0.17 0.379,0.399 0.629,0.669 0.24,0.27 0.469,0.529 0.679,0.759 -0.419,0.429 -0.958,0.959 -1.607,1.568 -0.64,0.619 -1.339,1.248 -2.088,1.887 -0.748,0.639 -1.527,1.288 -2.336,1.927 -0.819,0.649 -1.608,1.218 -2.377,1.728 -0.769,0.509 -1.488,0.918 -2.147,1.228 -0.659,0.32 -1.218,0.469 -1.667,0.469 -0.29,0 -0.669,-0.1 -1.109,-0.309 -0.449,-0.2 -0.878,-0.46 -1.288,-0.759 -0.409,-0.3 -0.769,-0.639 -1.058,-1.009 -0.29,-0.369 -0.44,-0.729 -0.44,-1.078 0.3,-1.308 0.59,-2.447 0.879,-3.425 0.29,-0.979 0.569,-1.808 0.819,-2.507 0.26,-0.689 0.479,-1.248 0.679,-1.677 0.19,-0.43 0.34,-0.749 0.439,-0.969 -0.239,-0.09 -0.459,-0.199 -0.679,-0.319 -0.209,-0.12 -0.429,-0.23 -0.639,-0.35 -0.319,0.33 -0.659,0.679 -1.038,1.049 -0.38,0.369 -0.769,0.749 -1.159,1.118 -0.389,0.369 -0.778,0.729 -1.168,1.079 -0.389,0.349 -0.739,0.679 -1.058,0.968l-1.398 -1.438c0.499,-0.489 1.108,-1.078 1.827,-1.767 0.709,-0.689 1.408,-1.388 2.087,-2.097 -0.489,-0.29 -0.929,-0.569 -1.318,-0.829 -0.389,-0.26 -0.719,-0.499 -0.989,-0.719 -0.329,-0.23 -0.629,-0.449 -0.878,-0.639 -0.12,-0.06 -0.18,-0.19 -0.18,-0.38 0,-0.219 0.09,-0.529 0.249,-0.928 0.17,-0.4 0.38,-0.829 0.63,-1.278 0.259,-0.46 0.529,-0.929 0.818,-1.408 0.3,-0.48 0.58,-0.909 0.849,-1.308 0.28,-0.39 0.519,-0.699 0.719,-0.949 0.21,-0.24 0.34,-0.36 0.4,-0.36 0.03,0 0.169,0.05 0.389,0.14 0.23,0.1 0.459,0.21 0.719,0.34 0.25,0.13 0.489,0.269 0.699,0.429 0.22,0.15 0.349,0.29 0.409,0.4 0.02,0.1 0.04,0.309 0.06,0.619 0.02,0.309 0.04,0.689 0.06,1.138 0.759,0.389 1.538,0.839 2.337,1.338 0.799,0.489 1.538,0.969 2.197,1.418 0.779,0.499 1.518,1.019 2.226,1.548 0.25,0.16 0.41,0.349 0.48,0.589 0.07,0.23 0.07,0.429 0.02,0.609z"/>
   </g>
  </g>
 </g>
</svg>
