<?xml version="1.0" encoding="UTF-8"?>
<!DOCTYPE svg PUBLIC "-//W3C//DTD SVG 1.1//EN" "http://www.w3.org/Graphics/SVG/1.1/DTD/svg11.dtd">
<!-- Creator: CorelDRAW 2021 (64-Bit) -->
<svg xmlns="http://www.w3.org/2000/svg" xml:space="preserve" width="803px" height="46px" version="1.1" style="shape-rendering:geometricPrecision; text-rendering:geometricPrecision; image-rendering:optimizeQuality; fill-rule:evenodd; clip-rule:evenodd"
viewBox="0 0 245.449 13.995"
 xmlns:xlink="http://www.w3.org/1999/xlink"
 xmlns:xodm="http://www.corel.com/coreldraw/odm/2003">
 <defs>
  <style type="text/css">
   <![CDATA[
    .fil0 {fill:#2E4562;fill-rule:nonzero}
   ]]>
  </style>
 </defs>
 <g id="Layer_x0020_1">
  <metadata id="CorelCorpID_0Corel-Layer"/>
  <g id="_1792607962464">
   <g>
    <polygon class="fil0" points="0,12.321 3.73,12.321 3.73,11.754 0,11.754 "/>
    <polygon class="fil0" points="1.581,13.995 2.149,13.995 2.149,10.074 1.581,10.074 "/>
    <polygon class="fil0" points="11.512,12.321 15.24,12.321 15.24,11.754 11.512,11.754 "/>
    <polygon class="fil0" points="13.092,13.995 13.659,13.995 13.659,10.074 13.092,10.074 "/>
    <polygon class="fil0" points="0,2.248 3.73,2.248 3.73,1.681 0,1.681 "/>
    <polygon class="fil0" points="1.581,3.922 2.149,3.922 2.149,0 1.581,0 "/>
    <polygon class="fil0" points="11.512,2.248 15.24,2.248 15.24,1.681 11.512,1.681 "/>
    <polygon class="fil0" points="13.092,3.922 13.659,3.922 13.659,0 13.092,0 "/>
   </g>
   <g>
    <polygon class="fil0" points="23.021,12.321 26.751,12.321 26.751,11.754 23.021,11.754 "/>
    <polygon class="fil0" points="24.602,13.995 25.17,13.995 25.17,10.074 24.602,10.074 "/>
    <polygon class="fil0" points="34.533,12.321 38.261,12.321 38.261,11.754 34.533,11.754 "/>
    <polygon class="fil0" points="36.112,13.995 36.68,13.995 36.68,10.074 36.112,10.074 "/>
    <polygon class="fil0" points="23.021,2.248 26.751,2.248 26.751,1.681 23.021,1.681 "/>
    <polygon class="fil0" points="24.602,3.922 25.17,3.922 25.17,0 24.602,0 "/>
    <polygon class="fil0" points="34.533,2.248 38.261,2.248 38.261,1.681 34.533,1.681 "/>
    <polygon class="fil0" points="36.112,3.922 36.68,3.922 36.68,0 36.112,0 "/>
   </g>
   <g>
    <polygon class="fil0" points="46.042,12.321 49.772,12.321 49.772,11.754 46.042,11.754 "/>
    <polygon class="fil0" points="47.623,13.995 48.19,13.995 48.19,10.074 47.623,10.074 "/>
    <polygon class="fil0" points="57.554,12.321 61.282,12.321 61.282,11.754 57.554,11.754 "/>
    <polygon class="fil0" points="59.133,13.995 59.701,13.995 59.701,10.074 59.133,10.074 "/>
    <polygon class="fil0" points="46.042,2.248 49.772,2.248 49.772,1.681 46.042,1.681 "/>
    <polygon class="fil0" points="47.623,3.922 48.19,3.922 48.19,0 47.623,0 "/>
    <polygon class="fil0" points="57.554,2.248 61.282,2.248 61.282,1.681 57.554,1.681 "/>
    <polygon class="fil0" points="59.133,3.922 59.701,3.922 59.701,0 59.133,0 "/>
   </g>
   <g>
    <polygon class="fil0" points="69.063,12.321 72.793,12.321 72.793,11.754 69.063,11.754 "/>
    <polygon class="fil0" points="70.644,13.995 71.211,13.995 71.211,10.074 70.644,10.074 "/>
    <polygon class="fil0" points="80.575,12.321 84.303,12.321 84.303,11.754 80.575,11.754 "/>
    <polygon class="fil0" points="82.154,13.995 82.722,13.995 82.722,10.074 82.154,10.074 "/>
    <polygon class="fil0" points="69.063,2.248 72.793,2.248 72.793,1.681 69.063,1.681 "/>
    <polygon class="fil0" points="70.644,3.922 71.211,3.922 71.211,0 70.644,0 "/>
    <polygon class="fil0" points="80.575,2.248 84.303,2.248 84.303,1.681 80.575,1.681 "/>
    <polygon class="fil0" points="82.154,3.922 82.722,3.922 82.722,0 82.154,0 "/>
   </g>
   <g>
    <polygon class="fil0" points="92.084,12.321 95.814,12.321 95.814,11.754 92.084,11.754 "/>
    <polygon class="fil0" points="93.665,13.995 94.232,13.995 94.232,10.074 93.665,10.074 "/>
    <polygon class="fil0" points="103.596,12.321 107.324,12.321 107.324,11.754 103.596,11.754 "/>
    <polygon class="fil0" points="105.175,13.995 105.743,13.995 105.743,10.074 105.175,10.074 "/>
    <polygon class="fil0" points="92.084,2.248 95.814,2.248 95.814,1.681 92.084,1.681 "/>
    <polygon class="fil0" points="93.665,3.922 94.232,3.922 94.232,0 93.665,0 "/>
    <polygon class="fil0" points="103.596,2.248 107.324,2.248 107.324,1.681 103.596,1.681 "/>
    <polygon class="fil0" points="105.175,3.922 105.743,3.922 105.743,0 105.175,0 "/>
   </g>
   <g>
    <polygon class="fil0" points="115.105,12.321 118.835,12.321 118.835,11.754 115.105,11.754 "/>
    <polygon class="fil0" points="116.686,13.995 117.253,13.995 117.253,10.074 116.686,10.074 "/>
    <polygon class="fil0" points="126.617,12.321 130.345,12.321 130.345,11.754 126.617,11.754 "/>
    <polygon class="fil0" points="128.196,13.995 128.764,13.995 128.764,10.074 128.196,10.074 "/>
    <polygon class="fil0" points="115.105,2.248 118.835,2.248 118.835,1.681 115.105,1.681 "/>
    <polygon class="fil0" points="116.686,3.922 117.253,3.922 117.253,0 116.686,0 "/>
    <polygon class="fil0" points="126.617,2.248 130.345,2.248 130.345,1.681 126.617,1.681 "/>
    <polygon class="fil0" points="128.196,3.922 128.764,3.922 128.764,0 128.196,0 "/>
   </g>
   <g>
    <polygon class="fil0" points="138.125,12.321 141.856,12.321 141.856,11.754 138.125,11.754 "/>
    <polygon class="fil0" points="139.707,13.995 140.274,13.995 140.274,10.074 139.707,10.074 "/>
    <polygon class="fil0" points="149.638,12.321 153.366,12.321 153.366,11.754 149.638,11.754 "/>
    <polygon class="fil0" points="151.217,13.995 151.785,13.995 151.785,10.074 151.217,10.074 "/>
    <polygon class="fil0" points="138.125,2.248 141.856,2.248 141.856,1.681 138.125,1.681 "/>
    <polygon class="fil0" points="139.707,3.922 140.274,3.922 140.274,0 139.707,0 "/>
    <polygon class="fil0" points="149.638,2.248 153.366,2.248 153.366,1.681 149.638,1.681 "/>
    <polygon class="fil0" points="151.217,3.922 151.785,3.922 151.785,0 151.217,0 "/>
   </g>
   <g>
    <polygon class="fil0" points="161.146,12.321 164.877,12.321 164.877,11.754 161.146,11.754 "/>
    <polygon class="fil0" points="162.727,13.995 163.295,13.995 163.295,10.074 162.727,10.074 "/>
    <polygon class="fil0" points="172.659,12.321 176.387,12.321 176.387,11.754 172.659,11.754 "/>
    <polygon class="fil0" points="174.238,13.995 174.805,13.995 174.805,10.074 174.238,10.074 "/>
    <polygon class="fil0" points="161.146,2.248 164.877,2.248 164.877,1.681 161.146,1.681 "/>
    <polygon class="fil0" points="162.727,3.922 163.295,3.922 163.295,0 162.727,0 "/>
    <polygon class="fil0" points="172.659,2.248 176.387,2.248 176.387,1.681 172.659,1.681 "/>
    <polygon class="fil0" points="174.238,3.922 174.805,3.922 174.805,0 174.238,0 "/>
   </g>
   <g>
    <polygon class="fil0" points="184.167,12.321 187.897,12.321 187.897,11.754 184.167,11.754 "/>
    <polygon class="fil0" points="185.748,13.995 186.316,13.995 186.316,10.074 185.748,10.074 "/>
    <polygon class="fil0" points="195.679,12.321 199.407,12.321 199.407,11.754 195.679,11.754 "/>
    <polygon class="fil0" points="197.259,13.995 197.826,13.995 197.826,10.074 197.259,10.074 "/>
    <polygon class="fil0" points="184.167,2.248 187.897,2.248 187.897,1.681 184.167,1.681 "/>
    <polygon class="fil0" points="185.748,3.922 186.316,3.922 186.316,0 185.748,0 "/>
    <polygon class="fil0" points="195.679,2.248 199.407,2.248 199.407,1.681 195.679,1.681 "/>
    <polygon class="fil0" points="197.259,3.922 197.826,3.922 197.826,0 197.259,0 "/>
   </g>
   <g>
    <polygon class="fil0" points="207.188,12.321 210.918,12.321 210.918,11.754 207.188,11.754 "/>
    <polygon class="fil0" points="208.769,13.995 209.337,13.995 209.337,10.074 208.769,10.074 "/>
    <polygon class="fil0" points="218.7,12.321 222.428,12.321 222.428,11.754 218.7,11.754 "/>
    <polygon class="fil0" points="220.28,13.995 220.847,13.995 220.847,10.074 220.28,10.074 "/>
    <polygon class="fil0" points="207.188,2.248 210.918,2.248 210.918,1.681 207.188,1.681 "/>
    <polygon class="fil0" points="208.769,3.922 209.337,3.922 209.337,0 208.769,0 "/>
    <polygon class="fil0" points="218.7,2.248 222.428,2.248 222.428,1.681 218.7,1.681 "/>
    <polygon class="fil0" points="220.28,3.922 220.847,3.922 220.847,0 220.28,0 "/>
   </g>
   <g>
    <polygon class="fil0" points="230.209,12.321 233.939,12.321 233.939,11.754 230.209,11.754 "/>
    <polygon class="fil0" points="231.79,13.995 232.358,13.995 232.358,10.074 231.79,10.074 "/>
    <polygon class="fil0" points="241.721,12.321 245.449,12.321 245.449,11.754 241.721,11.754 "/>
    <polygon class="fil0" points="243.3,13.995 243.868,13.995 243.868,10.074 243.3,10.074 "/>
    <polygon class="fil0" points="230.209,2.248 233.939,2.248 233.939,1.681 230.209,1.681 "/>
    <polygon class="fil0" points="231.79,3.922 232.358,3.922 232.358,0 231.79,0 "/>
    <polygon class="fil0" points="241.721,2.248 245.449,2.248 245.449,1.681 241.721,1.681 "/>
    <polygon class="fil0" points="243.3,3.922 243.868,3.922 243.868,0 243.3,0 "/>
   </g>
  </g>
 </g>
</svg>
