<?xml version="1.0" encoding="UTF-8"?>
<!DOCTYPE svg PUBLIC "-//W3C//DTD SVG 1.1//EN" "http://www.w3.org/Graphics/SVG/1.1/DTD/svg11.dtd">
<!-- Creator: CorelDRAW 2021 (64-Bit) -->
<svg xmlns="http://www.w3.org/2000/svg" xml:space="preserve" width="796px" height="211px" version="1.1" style="shape-rendering:geometricPrecision; text-rendering:geometricPrecision; image-rendering:optimizeQuality; fill-rule:evenodd; clip-rule:evenodd"
viewBox="0 0 192.223 50.953"
 xmlns:xlink="http://www.w3.org/1999/xlink"
 xmlns:xodm="http://www.corel.com/coreldraw/odm/2003">
 <defs>
  <style type="text/css">
   <![CDATA[
    .fil1 {fill:#2E4562;fill-rule:nonzero}
    .fil2 {fill:#143759;fill-rule:nonzero}
    .fil0 {fill:url(#id0)}
   ]]>
  </style>
  <linearGradient id="id0" gradientUnits="userSpaceOnUse" x1="80.715" y1="28.064" x2="192.21" y2="28.064">
   <stop offset="0" style="stop-opacity:1; stop-color:#F58634"/>
   <stop offset="1" style="stop-opacity:1; stop-color:#FEBF2C"/>
  </linearGradient>
 </defs>
 <g id="Layer_x0020_1">
  <metadata id="CorelCorpID_0Corel-Layer"/>
  <path class="fil0" d="M18.279 31.937c-0.014,0.312 0.214,0.603 0.669,0.827 0.1,-0.101 0.243,-0.189 0.257,-0.343 0.542,0.033 0.756,-0.104 1.182,-0.121 0.953,0.363 2.037,0.086 3.134,0.24l-0.1 -0.101c0.923,-0.053 1.58,0.121 2.008,-0.018 0.185,0.052 0.284,0.139 0.498,0.171 0.3,0.019 0.285,-0.138 0.457,-0.19 0.325,0.19 1.837,-0.102 1.637,0.328 0.326,-0.119 0.469,-0.05 0.954,-0.015 -0.143,-0.294 -0.526,-0.175 -0.897,-0.346 -1.027,-0.484 -0.326,-1.086 0.54,-1.553 0.471,0.018 0.798,-0.049 1.182,-0.102 0.202,0.053 0.285,0.17 0.259,0.327 -0.926,-0.414 -1.596,0.292 -1.155,0.672 0.258,0.034 0.241,-0.069 0.527,-0.017 0.143,0.017 0.157,0.087 0.312,0.12 -0.283,0.121 -0.197,0.174 -0.383,0.398 0.214,-0.019 0.27,0.051 0.413,0.07 -1.138,0.276 0.229,0.604 0.399,0.895 0.156,-0.069 0.555,-0.015 0.497,0.139 -0.169,0.138 -0.398,-0.087 -0.726,-0.035l0.073 0.207c0.17,-0.069 0.539,-0.018 0.839,-0.018 0,0.156 -0.343,0.137 -0.256,0.363 0.085,0.035 0.227,0.07 0.413,0.07 -0.157,0.153 -0.114,0.19 0.058,0.311 -0.1,0.136 -0.457,0.12 -0.655,0.188 -0.058,0.432 0.085,0.518 -0.129,0.881 0.112,0.052 0.37,0.068 0.498,0.12 -0.028,0.087 -0.198,0.104 -0.427,0.087 -0.057,0.138 0.399,0.052 0.269,0.224 0.287,-0.034 0.501,-0.051 0.629,0.067 -0.371,-0.153 -0.685,0.623 0.127,0.538 0.043,-0.207 -0.299,-0.311 0.085,-0.518 0.313,0.207 0.57,0.276 0.67,0.501 -0.57,0.05 -0.755,0.43 0.029,0.465 -0.086,0.154 -0.343,0.207 -0.47,0.343l0.298 0.071c0.043,0.121 -0.155,0.087 -0.327,0.087 -0.043,0.154 0.299,0.138 0.285,0.276 -0.313,0.138 -0.256,-0.138 -0.611,-0.122 0.426,0.243 0.341,0.726 0.568,1.053 0.257,0.017 0.3,0.103 0.626,0.088 0.03,0.17 -0.155,0.205 -0.355,0.24 0.328,0.19 -0.029,0.431 0.44,0.604 0.301,-0.052 0,-0.224 0.044,-0.313 0.342,-0.015 0.428,0.089 0.498,0.175 0.329,-0.19 -0.398,-0.346 -0.553,-0.501 0.496,-0.069 0.738,-0.536 0.538,-0.809 0.271,-0.089 0.727,-0.07 1.07,-0.106l-0.214 0.036c0,0.207 0.355,0.24 0.355,0.43 0.172,0.035 0.186,-0.034 0.313,-0.034 0.286,0.069 -0.027,0.278 -0.042,0.36 0.1,-0.067 0.512,-0.272 0.414,0.019 0.855,0.139 1.38,-0.241 1.895,0.035 -0.187,-0.207 0.042,-0.397 0.455,-0.242 -0.199,-0.172 -0.129,-0.172 0.057,-0.328 -0.415,-0.069 -0.755,0.138 -0.841,-0.069 0.086,-0.155 0.841,0.106 0.671,-0.19 0.412,0.019 0.527,0.157 0.912,0.19 -0.058,0.172 -0.287,0.259 -0.471,0.345 0.07,0.103 0.698,-0.138 0.953,0.052 -0.126,0.173 -0.213,0.018 -0.54,0.018 -0.171,0.088 0.042,0.207 -0.258,0.31 0.214,0.191 0.286,-0.17 0.457,-0.189 0.284,-0.033 -0.116,0.241 0.172,0.207 -0.288,0.19 -0.385,0.138 -0.672,0.291 0.287,0.052 0.371,0.398 0.599,0.19 0.342,0.052 0.043,0.087 0.073,0.261 -0.172,0 -0.357,-0.019 -0.528,-0.019 0.285,0.329 0.697,-0.135 1.167,-0.066 0.028,0.172 -0.112,0.239 -0.441,0.189 0.172,0.102 -0.155,0.153 0.057,0.274 0.183,-0.014 -0.071,-0.172 0.241,-0.205 0.4,-0.034 0.143,0.205 0.5,0.191 0.085,-0.124 0.326,-0.176 0.155,-0.26 0.672,0.069 0.585,-0.313 1.283,-0.207 -0.157,0.19 -0.456,0.328 -0.698,0.481 -0.142,-0.014 -0.07,-0.121 -0.07,-0.205 -0.173,0.015 -0.287,0.067 -0.442,0.084l0.399 0.173c-0.256,-0.052 -0.186,0.277 -0.569,0.296 0.156,0.188 0.14,0.206 0.027,0.465 0.156,-0.105 0.47,-0.105 0.655,-0.173 0,-0.139 -0.369,-0.104 -0.369,-0.223 0.241,-0.069 0.456,-0.106 0.126,-0.207 0.115,-0.106 0.828,0.015 0.444,-0.192 0.369,0.034 0.598,0 0.853,-0.018 -0.071,-0.274 -0.044,-0.669 0.54,-0.809 -0.426,-0.035 -0.839,-0.069 -0.795,-0.292l0.313 -0.054 -0.058 -0.26c-0.399,0.07 -0.513,-0.033 -0.853,0.02l0.184 0.205c-0.428,0.26 -1.097,-0.103 -1.437,-0.205 0.34,-0.053 0.569,-0.191 1.179,-0.209 0.074,-0.223 -0.141,0 -0.412,-0.067 -0.014,-0.192 0.343,-0.156 0.455,-0.244 0.357,0.052 0,0.106 0.186,0.207 0.469,-0.101 0.783,-0.291 0.926,-0.587 0.327,0.088 0.456,0.037 0.839,0.037 -0.298,-0.156 0.072,-0.312 0.086,-0.568 0.285,0.032 0.227,0.222 0.599,0.222 -0.144,0.206 0.285,0.43 -0.169,0.466 0.056,0.085 0.211,0.104 0.396,0.12 0,-0.189 0.157,-0.277 0.272,-0.396 0.327,0.087 0.767,0.173 1.153,0.087 0.1,0.222 -0.271,0.153 -0.555,0.14 0.169,0.049 0.27,0.203 0.071,0.255 0.37,-0.017 0.926,0.19 1.168,-0.052 0.114,-0.015 -0.028,0.293 -0.158,0.313 0.215,0.121 0.599,0.171 0.913,0.256l-0.228 0.191c0.412,-0.054 0.527,0.054 0.84,-0.017 0.455,0.189 -0.369,0.259 -0.399,0.518 -0.255,-0.054 -0.312,-0.035 -0.612,-0.14 -0.399,0.105 0.47,0.174 0.072,0.261 0.156,0.07 0.241,0.171 0.498,0.171 -0.186,0.053 -0.199,0.192 -0.541,0.14 -0.087,0.19 -0.016,0.291 0.256,0.326 -0.598,0.225 -0.328,-0.156 -0.799,-0.24 0,-0.019 -0.396,0.361 0.072,0.38 -0.455,0 -1.04,0.035 -1.381,-0.123 0,0.243 -0.242,0.208 -0.569,0.348 0.383,0 0.414,-0.052 0.74,0.032l0.014 -0.155c0.598,0.018 0.469,0.155 0.941,0.034 -0.228,0.19 -0.841,0.207 -1.496,0.138l-0.128 0.105 -0.012 0.101c0.168,0.036 0.197,-0.03 0.324,-0.03l-0.341 0.188c0.042,0.085 0.143,0.137 0.285,0.172 0.356,-0.119 0.597,0.018 0.968,-0.119 0.085,-0.158 -0.469,-0.053 -0.498,-0.175 0.27,-0.103 0.741,0.104 1.153,0.104l-0.043 0.26c-0.085,0.034 -0.64,0.172 -0.143,0.207 -0.155,0.188 -0.212,-0.035 -0.526,-0.035 -0.142,0.069 -0.071,0.206 0.072,0.277 -0.386,0.239 -1.028,-0.123 -0.882,-0.415 -0.272,0.155 -0.172,0.12 -0.557,0.138 -0.129,0.17 0.314,0.101 0.512,0.119 -0.113,0.087 -0.043,0.296 -0.355,0.259 0.285,0.261 0.285,0.553 -0.015,0.829 0.201,-0.084 0.358,-0.209 0.57,-0.291 0.484,0.067 0.143,0.17 0.057,0.326 0.355,0.017 0.512,-0.085 0.755,-0.138 0.128,-0.173 -0.44,-0.07 -0.497,-0.173l0.227 -0.137c0.27,0.051 0.313,0.223 0.484,0.329 0.313,-0.071 -0.114,-0.244 0.058,-0.415 0.326,-0.036 0.186,0.137 0.51,0.121 -0.113,-0.261 0.558,-0.432 1.027,-0.537 -0.03,-0.102 -0.399,-0.052 -0.284,-0.223 0.084,-0.207 0.512,-0.224 0.797,-0.33 0,-0.205 -0.413,0.052 -0.513,-0.119 0,0.086 -0.187,0.225 -0.655,0.171 0.582,-0.152 1.011,-0.43 1.466,-0.67 -0.027,-0.244 -0.528,-0.296 -1.124,-0.296 -0.1,-0.017 -0.042,-0.12 -0.199,-0.12l0.527 0.068c0.17,-0.19 0.482,-0.224 0.769,-0.224 -0.029,-0.067 -0.115,-0.104 -0.299,-0.119 0.084,-0.035 0.198,-0.071 0.326,-0.088 0.299,0.069 -0.171,0.14 0.071,0.207 0.557,-0.207 1.054,-0.033 1.681,0.071 -0.2,-0.104 0,-0.278 0.256,-0.296 0.599,-0.014 1.055,0.449 1.254,0.052 -0.242,-0.223 -1.865,-0.119 -1.51,-0.432 -0.171,-0.084 -0.782,0.052 -0.925,-0.188 0.058,-0.103 0.413,-0.035 0.355,-0.207 0.399,0.034 0.444,0.207 0.913,0.207 -0.328,-0.138 -0.099,-0.378 0.469,-0.291l-0.3 -0.123c0.201,-0.087 0.315,-0.225 0.572,-0.294 0.426,0.156 0.839,0.33 0.966,0.624 0.186,0 0.088,-0.177 0.229,-0.207 0.882,-0.019 0.726,0.413 1.409,0.479l-0.312 0.037c0.341,0.205 0.655,0.518 0.413,0.691 0.513,0.033 0.171,-0.431 0.697,-0.38 -0.027,-0.071 -0.256,-0.051 -0.413,-0.071 -0.028,-0.188 0.13,-0.257 0.356,-0.292 -0.015,-0.086 -0.255,-0.069 -0.412,-0.069 0.412,-0.277 0.314,-0.052 0.171,-0.414 0.284,-0.068 0.655,-0.088 0.569,-0.344 0.57,-0.123 0.927,-0.02 1.597,-0.037 0.057,0.139 -0.171,0.122 -0.146,0.242 0.516,-0.067 0.172,-0.291 0.601,-0.449 0.185,0.019 0.028,0.19 0.171,0.224 0.156,-0.034 0.241,-0.118 0.256,-0.241 0.213,0.017 -0.015,0.224 0.172,0.261 0.396,-0.02 0.356,0.015 0.625,-0.02 0.656,0.208 0.869,0.726 0.998,1.089 0.255,-0.018 0.513,-0.121 0.412,0.121 0.256,0 0.814,0.067 0.527,-0.087 0.355,0.052 0,0.119 0.185,0.206 0.215,-0.052 0.243,-0.225 0.556,-0.225 0.257,0.019 0.028,0.156 -0.099,0.156 0.185,0.053 0.397,0.053 0.826,0.017 -0.429,0.123 0.072,0.14 0.199,0.017 0.115,0.069 0.17,0.158 0.513,0.123 -0.213,0.153 -0.412,0.035 -0.855,0.017 0.242,0.136 -0.142,0.156 -0.343,0.189l0.3 0.172c0.228,-0.242 0.242,0.071 0.541,-0.118 0.086,0.224 0.214,0.049 0.371,0.325l-0.114 0.089c-0.498,-0.244 -1.053,-0.19 -1.551,-0.261l0.098 0.103c-0.669,0.018 -0.812,-0.172 -1.439,-0.274 -0.027,0.171 -0.326,0.188 -0.654,0.188 -0.159,0.155 0.328,0.054 0.171,0.208 0.342,0.053 0.342,-0.087 0.528,0.036 -0.146,0.118 -0.542,-0.036 -0.728,-0.036 0,0.068 -0.013,0.137 -0.142,0.154 0.513,-0.032 0.627,0.329 0.54,0.691 0.299,0.07 0.456,0.172 0.258,0.326 0.413,0.07 0.541,0.089 0.854,-0.016 0.128,0.207 1.21,0.138 0.754,0.553 0.115,0.071 0.37,0.071 0.627,0.086 -0.014,-0.069 -0.185,-0.052 -0.314,-0.069 0,-0.122 0.116,-0.154 0.344,-0.137 -0.044,-0.157 -0.528,-0.105 -0.485,-0.295 0.3,-0.085 1.139,-0.19 1.28,-0.052 0.128,-0.138 0.299,-0.172 0.643,-0.07 0,-0.085 0.085,-0.138 0.226,-0.154 -0.141,-0.188 -0.169,0.123 -0.426,0.036 -0.127,-0.052 0.3,-0.277 0.67,-0.224l-0.072 -0.227c0.598,0.123 0.969,-0.205 1.711,-0.171 0.355,0.035 -0.3,0.19 0.185,0.155 0.241,-0.034 -0.029,-0.242 0.768,-0.172 -0.043,-0.19 0.256,-0.19 0.256,-0.361 0.298,0.015 0.497,0.084 0.383,0.274 0.286,0.087 0.615,0.035 0.671,-0.173 -0.284,-0.017 -0.157,0.208 -0.557,0.137 -0.026,-0.169 0.628,-0.238 0.756,-0.137 0.029,-0.052 -0.014,-0.138 -0.285,-0.17 0.557,-0.313 1.681,0.052 1.965,-0.432 0.242,0.207 0.286,0.07 0.612,0.136 -0.056,0.035 -0.113,0.087 -0.226,0.087 0.255,0.071 0.783,0 1.353,0.103l-0.03 0.207c-0.227,0.017 -0.199,-0.085 -0.185,-0.154 -0.27,-0.035 -0.411,0.259 -0.64,0.085 0.029,0.086 0.043,0.415 -0.071,0.398 -0.343,0.155 -1.453,-0.224 -1.865,-0.173 0.469,0.173 1.381,0.413 2.15,0.398 0.129,0.052 -0.144,0.172 -0.128,0.206 -0.043,0.07 0.598,0.087 0.185,0.156 0.057,0.17 0.327,-0.019 0.512,0.032 -0.271,0.175 -0.938,0.158 -0.897,0.381 -0.429,-0.067 -0.513,0.069 -0.854,0.069 -0.186,-0.242 1.125,-0.205 1.025,-0.482 -0.3,-0.019 -0.271,0.139 -0.555,0.139 -0.214,-0.087 0.27,-0.225 0.27,-0.364 -0.484,0.069 -0.697,0.277 -0.911,0.484 -0.243,-0.069 -0.2,0 -0.528,-0.069 0.157,0.087 0.086,0.24 -0.228,0.205 0.17,0.035 -0.057,0.242 0.17,0.261 -0.298,-0.069 -0.197,0.344 -0.498,0.448 -0.482,-0.208 -0.81,-0.138 -1.351,-0.104 -0.229,-0.14 0.17,-0.086 0.14,-0.259 -0.198,0.067 -0.468,0.104 -0.468,0.293 0.371,0.139 0.912,0.346 1.338,0.329 -0.043,0.101 -0.285,0.086 -0.541,0.069 0.242,0.154 0.784,0.017 0.756,-0.175 0.469,0.158 0.696,0.052 1.139,0.158 -0.115,0.138 -0.157,0.049 -0.428,0.034l0.284 0.225c0.158,-0.071 0.258,-0.259 0.158,-0.311l0.214 0c0.313,0 -0.299,0.136 0.07,0.155 0.057,0.12 0.045,-0.103 0.243,-0.192 0.24,0.106 0.57,0.312 0.94,0.037 -0.299,-0.017 -0.685,0 -0.826,-0.087 0.555,0.033 1.21,-0.276 1.722,-0.242 -0.128,0.122 -0.44,0.122 -0.553,0.242 0.241,0.258 1.195,0.156 1.837,0.346l-0.129 0.205c0.484,0.037 0.499,0.052 0.939,0.037 -0.099,0.121 -0.511,0.069 -0.569,0.24 0.327,-0.017 0.927,-0.24 1.053,-0.017 -0.083,0.155 -0.214,-0.052 -0.413,-0.016 0.3,0.242 0.399,0.223 0.813,0.242 -0.441,-0.123 -0.142,-0.192 0.057,-0.365 0.328,-0.015 0.17,0.156 0.498,0.123 0.271,-0.157 0.882,-0.123 1.111,-0.313 -0.77,0.19 -2.093,0.175 -2.933,-0.12 0.227,0.036 0.898,-0.052 1.451,0.103 -0.014,-0.138 0.414,-0.017 0.343,-0.188 1.01,0.085 1.653,-0.019 2.194,0.188l0.126 -0.155c0.473,0.172 0.884,-0.033 1.225,0.209 0.131,0.207 -0.455,0 -0.341,0.207 0.257,0.153 0.327,-0.054 0.642,-0.037 0.299,0.07 -0.158,0.139 -0.044,0.26 0.426,0.088 0.599,0.017 0.853,-0.121 1.227,0.173 1.596,0.311 0.972,0.674 -0.357,-0.035 -0.444,-0.174 -0.6,-0.294 0.114,-0.136 0.328,0.052 0.528,0.034 -0.143,-0.17 -0.314,-0.103 -0.499,-0.192 -0.044,0.089 -0.127,0.106 -0.442,0.14 0.015,0.086 0.257,0.052 0.413,0.07l0.085 0.12c-0.183,0.138 -0.669,0.105 -0.726,-0.086 -0.1,0.138 -0.782,0.121 -0.726,-0.086 -0.213,0.259 -0.627,0.294 -1.082,0.172 0.056,-0.104 0.412,-0.035 0.355,-0.206 -0.569,-0.124 -1.052,-0.035 -1.495,0.053 0.144,0.707 -2.55,0.464 -3.56,0.531 0.142,0.107 0.426,0.139 0.498,0.277 -0.442,-0.19 -0.711,-0.222 -1.34,-0.259l-0.026 0.207c0.397,-0.17 0.953,-0.033 1.025,0.19 -0.413,0.071 -0.613,-0.033 -0.342,0.261 -0.485,0.05 -0.271,-0.19 -0.286,-0.328 -0.371,0.086 -0.554,0.067 -0.827,-0.087 -0.325,0.035 -0.156,0.347 -0.384,0.449 0.045,0.171 0.228,0.294 0.699,0.294l-0.042 0.309c0.284,0.052 0.27,-0.049 0.526,-0.035 -0.441,0.191 -0.057,0.432 0.456,0.502l-0.185 -0.225c1.95,0.241 3.689,-0.086 4.999,-0.259 0.243,0.086 0.427,0.207 0.925,0.192 0,-0.088 0.086,-0.14 0.228,-0.14l-0.299 -0.07c0.585,-0.328 0.883,-0.239 2.022,-0.19 0.059,0.19 -0.439,0.053 -0.356,0.26 0.272,-0.07 0.215,-0.104 0.541,-0.035l-0.083 -0.156c0.484,0.174 0.667,-0.223 1.151,0 0.414,-0.032 -0.312,-0.207 0.03,-0.207 -0.03,-0.12 -0.514,-0.051 -0.712,-0.086 0.042,-0.309 0.712,-0.034 0.954,-0.118 -0.527,-0.158 0.342,-0.158 0.058,-0.312 0.654,0.015 0.654,0.205 1.054,-0.019 0.255,0.019 0.313,0.104 0.397,0.193 0.029,0.068 -0.342,0.118 -0.485,0.068 0.313,0.24 1.055,-0.261 1.883,-0.276 -0.444,-0.382 -1.439,0.049 -2.296,-0.261 -0.497,0.243 -0.611,-0.169 -1.138,-0.052 0.044,0.138 0.37,0.138 0.597,0.19 -0.369,0.209 -0.909,-0.032 -1.481,0.036 0.401,-0.174 0.855,-0.328 1.339,-0.466 0.328,-0.017 0.171,0.153 0.513,0.138l0.013 -0.155c0.429,-0.035 0.343,0.17 0.827,0.14 -0.413,-0.14 0.072,-0.158 0.056,-0.383 0.616,0 0.186,0.157 0.387,0.277 0.782,0.084 1.339,-0.052 1.992,-0.017 0.143,0.035 0.074,0.138 0.074,0.223 -0.272,-0.1 -0.785,-0.206 -1.041,-0.052 0.128,-0.048 1.211,0.19 0.583,0.295 0.343,0.069 0.399,0.069 0.813,0.295l-0.073 -0.208c0.157,-0.018 0.172,0.049 0.299,0.049l-0.04 0.175c0.795,-0.363 1.722,-0.725 2.804,-1.017 3.034,-0.846 6.709,-0.432 8.474,-0.138 0.869,-0.037 1.782,0.118 2.649,-0.209 0.13,0.032 -0.17,0.209 0.171,0.258 -0.028,-0.291 0.884,-0.172 1.253,0 -0.497,-0.362 1.07,-0.189 1.525,-0.291l-0.185 -0.123c0.313,-0.067 0.629,-0.017 0.812,0.139 0.243,0.017 0.071,-0.173 0.155,-0.26 0.97,0.104 1.696,-0.276 2.751,-0.084 -0.036,-0.097 0.049,-0.127 0.105,-0.176 0.161,0 0.34,-0.003 0.546,-0.013 0.083,-0.003 0.171,-0.002 0.261,0.001 0.011,0.003 0.023,0.003 0.035,0.001 0.441,0.019 0.927,0.093 1.172,0.066 0.268,-0.028 0.406,-0.14 0.597,-0.195 0.025,0.015 0.045,0.034 0.06,0.057 0.013,-0.03 0.029,-0.056 0.046,-0.08l0.065 -0.006c0.541,-0.052 1.509,0.207 1.695,-0.035 0.996,0.155 2.009,0.104 3.361,0.138 0.058,0.225 1.21,0.053 1.467,0 0.299,0.069 0.098,0.085 0.073,0.225 0.327,-0.051 0.497,-0.172 0.966,-0.121 0.328,0.05 0.115,0.139 0.058,0.259 0.229,0.033 0.229,-0.071 0.243,-0.138 1.054,-0.156 2.064,0.379 3.048,0.067 0.355,0.192 1.481,-0.118 1.751,0.276 0.157,-0.052 0.469,-0.016 0.443,-0.188 0.298,0 0.241,0.154 0.397,0.224 0.043,-0.361 1.168,0.017 1.681,0.017 0.428,0.017 0.925,-0.258 1.253,0.053 0.528,-0.347 1.238,-0.019 2.107,0.033 0.115,0.016 0.073,0.105 0.073,0.173 1.238,-0.157 2.007,0.103 2.819,0.226 0.37,0 0.541,-0.106 0.669,-0.244 0.528,-0.034 0.541,0.155 0.913,0.191 -0.028,-0.241 0.883,0.069 0.883,-0.173 0.342,0.19 0.938,0.137 1.381,0.12 0,-0.034 0.626,-0.138 0.826,-0.12 0.326,0 0.512,0.103 0.828,0.137 0.339,0.018 0.726,-0.155 1.081,-0.172 0.527,-0.017 1.553,-0.069 2.406,0.052 0.171,-0.121 0.243,-0.085 0.144,-0.259 0.754,0.415 1.309,0 2.093,0.085 -0.072,0.139 -0.455,0.122 -0.455,0.294 0.383,-0.396 1.894,-0.034 2.747,-0.085 -0.069,0.224 -0.94,0 -0.882,0.328 -0.385,-0.328 -1.055,-0.053 -1.667,-0.174 1.583,0.381 3.93,0.433 5.184,0.569 -0.554,0.449 -2.563,-0.206 -3.09,0.295 -0.67,-0.155 -0.784,-0.121 -1.238,-0.259 0.099,0.138 0.042,0.242 -0.257,0.311 -0.585,-0.431 -2.066,0 -2.365,-0.414 -0.268,0.257 -0.769,0 -1.055,0.051l0.3 0.122c-0.099,0.276 -1.495,0.017 -1.353,-0.106 -0.541,0.259 -1.254,0 -1.994,-0.136 -0.469,0.172 -2.392,0.291 -2.834,-0.07 -0.184,0.018 -0.242,0.087 -0.228,0.206 -1.126,-0.084 -1.78,-0.188 -2.963,-0.016 0.969,0.171 1.808,-0.036 2.379,0.294l-0.228 0.154c-0.398,-0.05 -0.426,-0.068 -0.741,0.017 -0.343,-0.136 -0.981,-0.275 -1.353,-0.102 -0.269,-0.261 -0.84,-0.173 -1.224,-0.38 0.256,0.173 -0.327,0.119 -0.642,0.139 1.682,0.412 3.549,0.343 4.871,0.569 0.228,-0.037 0.686,-0.278 0.841,-0.019 0.299,-0.034 0.385,-0.189 0.67,-0.224 -0.142,0.086 0.113,0.086 0.398,0.224 0.185,0 0.087,-0.172 0.328,-0.155 0.443,-0.017 0.171,0.276 0.6,0.244 -0.016,-0.089 0.098,-0.089 0.226,-0.089 0.855,0.397 2.778,0.052 3.547,0.242 0.869,-0.223 1.779,0.173 3.048,0.017 0.483,0.156 1.281,0.277 1.482,0.07 0.197,0.034 0.312,0.121 0.498,0.172l-0.244 0.156c0.2,-0.19 0.47,-0.018 0.756,-0.018 1.224,0 2.991,0.035 4.414,0.018 0.014,-0.19 -0.126,-0.138 -0.397,-0.121l-0.1 -0.105 0.213 0c0.298,-0.034 -0.128,-0.137 0.143,-0.189 0.598,0.503 1.78,0.071 2.721,0.104l-0.172 0.051c1.04,0.294 2.521,0.415 3.091,0.173 0.314,0 0.044,0.225 0.328,0.242l0.055 -0.017c-0.298,-0.175 0.414,-0.087 0.358,-0.294 0.24,0.106 0.54,0.106 0.755,-0.017 -0.328,-0.121 0.213,-0.207 0.357,-0.257 0.24,0.204 0.61,0.223 1.01,0.257 -0.014,-0.121 -0.271,-0.138 -0.414,-0.069 -0.057,-0.156 -0.172,-0.208 0.057,-0.415 0.215,0.227 0.343,-0.084 0.726,0.089l0.129 -0.107c-0.214,-0.223 -0.228,-0.448 -0.569,-0.498l0.14 -0.192c0.186,0 0.215,0.071 0.414,0.071 -0.014,-0.138 0.156,-0.173 0.443,-0.138 -0.299,-0.138 -0.156,-0.312 0.056,-0.414 -0.157,0.034 -0.27,0.034 -0.427,-0.036 0.27,-0.12 0.072,-0.343 -0.243,-0.412 0.115,-0.158 0.259,0.069 0.527,0.018l0.044 -0.365c-0.427,0.053 -0.4,-0.138 -0.941,-0.035 -0.113,-0.118 -0.228,-0.239 -0.37,-0.343 -0.212,0.086 -0.255,0 -0.526,-0.018 -0.045,0.154 -0.728,0.122 -0.854,0.069 0.113,-0.069 0.184,-0.155 0.454,-0.138 -0.285,-0.257 0.072,-0.327 0.584,-0.397 0.13,0.07 0.184,0.156 0.271,0.224 0.228,-0.379 1.097,-0.103 1.425,-0.362 0.27,0.121 0.683,0.484 0.142,0.484 0.029,0.172 0.627,0.067 0.84,0.034 0.115,-0.172 -0.328,-0.087 -0.397,-0.172 0.026,-0.138 0.581,-0.174 0.141,-0.259 0.199,-0.035 0.313,-0.122 0.555,-0.139 -0.07,-0.052 -0.115,-0.086 0.016,-0.103 -0.131,-0.07 -0.712,-0.206 -0.487,-0.275 -0.454,-0.138 -0.897,0 -1.466,-0.123 0.099,-0.155 0.412,-0.052 0.64,-0.015 -0.071,-0.21 0.329,-0.14 0.257,-0.363 -0.07,-0.054 -0.924,-0.017 -0.596,-0.173 -0.357,0.05 -0.557,0.087 -1.169,0.05 -0.186,-0.413 -1.012,-0.292 -1.51,-0.533 0.441,-0.121 0.498,0.139 1.053,0.052 0.056,-0.19 -0.383,0 -0.383,-0.208 -0.101,0.12 -0.244,0.051 -0.087,-0.19 -0.2,0.035 -0.427,0.104 -0.242,0.208 -0.413,-0.035 -0.555,-0.07 -0.696,-0.294 -0.515,0.138 -0.799,-0.155 -1.227,-0.207 0.271,-0.171 1.298,-0.485 1.51,-0.309 0.341,-0.089 -0.228,-0.226 -0.142,-0.365 0.2,-0.136 0.285,-0.359 0.683,-0.395l-0.014 0.052c0.071,0.154 0.286,-0.052 0.528,0.034 0.227,-0.017 -0.043,0.138 -0.128,0.138l0.868 -0.121c0.585,0.24 2.266,0.276 2.451,0.536 0.114,0.103 0.426,-0.138 0.554,-0.191l0.201 0.053c0.155,0.153 -0.486,0.083 -0.13,0.153 0.085,0.037 0.156,0.069 0.299,0.069 0.101,-0.43 1.88,-0.017 2.423,0.086 0.341,-0.138 0.996,-0.24 1.268,0 0.397,0.035 0.042,-0.032 0.126,-0.138 0.287,0.121 0.257,0.089 0.714,0.138 -0.515,0.123 -0.371,0.277 -0.714,0.484 -0.199,-0.121 -0.298,0.017 -0.625,-0.017 0.412,0.155 1.053,0.207 1.766,0.224 0.083,-0.12 0.355,-0.24 0.156,-0.362 0.299,0 0.357,0.276 0.071,0.259 0.057,0.19 0.94,-0.104 0.427,-0.067 0.115,-0.158 0.313,0.067 0.628,0.015 0.169,-0.292 0.511,-0.501 1.253,-0.568 -0.185,-0.224 -1.583,0.067 -1.795,0.015 0.327,-0.101 0.542,-0.275 1.083,-0.258 -0.03,-0.191 -0.512,-0.206 -0.813,-0.191 0.115,-0.222 0.598,-0.067 0.985,-0.222 -0.172,-0.121 -0.999,-0.139 -0.956,0.069 -0.542,-0.053 -0.27,-0.379 -0.912,-0.26 0.273,-0.103 0.484,-0.225 0.883,-0.276 -0.058,-0.051 -0.112,-0.103 0.014,-0.103l-0.397 -0.174c0.099,-0.189 0.44,-0.224 0.583,-0.394 0.812,0.12 1.637,0 2.635,0.066 -0.213,-0.119 0.157,-0.19 0.355,-0.257 -0.327,0.191 0.015,0.084 -0.055,0.381 0.114,-0.227 0.484,-0.174 0.756,-0.19 0.155,-0.124 -0.272,-0.225 0.04,-0.26l-0.3 -0.123c-0.141,-0.205 0.457,0.019 0.444,-0.135 0.027,-0.156 -0.413,-0.088 -0.514,-0.07 -0.399,-0.051 0.115,-0.499 -0.457,-0.482l-0.028 0.206c-0.555,-0.052 0.072,-0.292 -0.369,-0.38 0.115,-0.157 0.14,0.12 0.414,0.069 0.084,-0.258 -0.712,-0.119 -0.684,-0.344 0.156,-0.104 0.385,-0.157 0.655,-0.19 -0.03,-0.224 0.283,-0.915 1.253,-0.571 -0.172,0.052 -0.286,0.137 -0.557,0.137 0.2,0.123 0.786,0 1.055,-0.015 -0.357,-0.139 0.115,-0.414 -0.129,-0.587 -0.213,0.051 -0.428,0.105 -0.639,0.138 -0.33,-0.017 -0.527,-0.069 -0.613,-0.174 0.37,-0.085 0.811,-0.05 1.167,-0.016 -0.313,-0.292 -0.783,-0.052 -1.368,-0.103l0.129 -0.102c0.115,-0.124 -0.543,0.19 -0.768,0.239 -0.385,-0.137 -0.101,-0.397 -0.585,-0.397 0.215,-0.101 0.441,-0.207 0.869,-0.17 -0.127,-0.174 -0.455,0.015 -0.726,-0.037 -0.172,-0.084 -0.157,-0.26 -0.371,-0.326l0.113 -0.105c0.286,0.087 1.283,0.31 1.453,0.347l-0.027 -0.017 0.128 -0.159c0.356,0.037 0.441,0.176 0.941,0.139 0.084,-0.154 -0.158,-0.154 -0.072,-0.31 0.213,-0.017 0.241,0.105 0.126,0.105 0.272,0.051 1.028,-0.087 1.227,0.051 -0.128,0.069 -0.128,0.242 -0.457,0.191 -0.254,-0.017 0.172,-0.07 0.029,-0.21 -0.483,-0.032 -0.2,0.193 -0.143,0.311 0.143,0 0.298,0 0.315,0.071 0.185,0 0.085,-0.172 0.326,-0.139 0.127,0.088 0.143,0.172 0.157,0.361 0.142,0 0.115,-0.12 0.142,-0.189 0.17,0 0.344,0 0.528,0.019 0.271,0.05 0.228,0.415 0.698,0.239l-0.299 -0.12c0.269,-0.033 0.37,-0.153 0.654,-0.19 -0.412,-0.085 -0.127,-0.069 -0.71,-0.19 -0.072,-0.24 0.226,-0.275 0.667,-0.223 -0.241,0.207 0.114,0.154 0.215,0 0.47,0.035 0.528,0.243 1.124,0.207 0.057,-0.103 -0.127,-0.103 -0.298,-0.123l0.229 -0.136c0.697,0.242 1.681,0.156 2.163,0.396 0.172,-0.07 0.229,-0.19 0.641,-0.121 -0.013,-0.139 -0.312,-0.257 -0.499,-0.173 -0.042,-0.137 0.073,-0.19 0.343,-0.154 0.341,-0.036 -0.27,-0.068 -0.414,-0.068 0.443,-0.381 1.908,0.052 1.198,0.415l0.327 0.017c-0.087,0.051 -0.2,0.068 -0.343,0.084 0.114,0.295 0.714,0.19 1.127,0.259 -0.27,-0.171 0.283,-0.207 0.57,-0.242 0.27,0.02 0.142,0.209 0.27,0.278 0.328,-0.105 0.455,-0.069 0.74,0.035 0.142,-0.242 0.114,-0.381 0.57,-0.346 -0.072,-0.138 0,-0.328 -0.356,-0.328 0.784,-0.017 1.595,-0.278 1.781,-0.759 0.283,-0.137 0.596,-0.07 0.84,0.034 -0.257,-0.361 -1.197,-0.104 -0.856,-0.657 0.286,-0.015 0.058,0.192 0.401,0.173 -0.158,-0.378 0.625,0.138 -0.229,0.087 0.199,0.278 0.955,-0.223 0.484,-0.344 0.086,-0.156 0.285,-0.054 0.527,-0.036 -0.07,-0.12 -0.484,-0.223 -0.712,-0.139 0.085,-0.033 0.072,-0.136 0.228,-0.136 -0.328,-0.156 -0.484,0.087 -1.068,0.052l0.343 -0.14c-0.172,-0.171 -0.799,0.052 -0.543,0.14 -0.141,-0.052 -0.385,-0.071 -0.512,-0.121l0.142 -0.207c-0.299,0.086 -0.256,0.12 -0.556,0.14 0.072,0.205 0.044,0.309 -0.47,0.291l0.2 0.156c-0.043,0.069 -0.284,0.032 -0.442,0.032 -0.271,0 0.141,-0.274 -0.271,-0.224 0.172,0.156 -0.071,0.156 0.042,0.328 0.413,-0.015 0.515,-0.052 0.742,0.086 -0.243,0.139 -0.627,-0.138 -0.754,0.07 -0.285,-0.016 -0.699,-0.24 -0.271,-0.277 -0.683,0.017 -1.339,-0.121 -2.408,-0.101 -0.157,-0.052 0.028,-0.07 -0.085,-0.208 -0.327,-0.017 -0.698,0.086 -0.94,-0.036 0.442,-0.117 -0.186,-0.43 0.355,-0.309 0.172,-0.121 -0.355,-0.052 -0.612,-0.121 0.086,-0.173 0.528,-0.069 0.742,-0.035 -0.016,-0.087 0.027,-0.138 0.157,-0.138 -0.257,-0.034 -0.528,-0.104 -0.613,-0.293l0.114 -0.104c0.313,0.088 0.584,0.19 0.91,0.257 0.158,-0.257 1.383,-0.481 1.383,-0.05 0.354,-0.086 0.569,-0.24 0.798,-0.397 0.269,0.258 0.826,0.069 1.281,0.174 -0.371,-0.241 0.357,-0.606 -0.455,-0.759 0.241,-0.19 -0.029,-0.312 0.084,-0.568 -0.541,-0.071 -0.839,0.015 -1.068,0.118 -0.128,-0.017 -0.086,-0.103 -0.086,-0.173 -0.541,0.018 -1.068,0.07 -1.309,0.26 -0.172,-0.122 -0.258,-0.276 -0.799,-0.242 -0.114,-0.139 0.343,-0.208 0.031,-0.259 0.256,-0.087 0.44,-0.138 0.982,-0.155 -0.528,-0.157 0.056,-0.206 -0.029,-0.535 0.47,0.223 0.712,0.087 1.453,0.122 -0.342,-0.224 -1.11,0.049 -1.225,-0.261 -0.185,0.071 -0.612,0 -0.954,0 -1.125,-0.62 1.296,-0.601 1.736,-1.016 0.087,0.033 0.229,0.069 0.414,0.069l0.114 -0.105c0.155,-0.156 -0.328,-0.052 -0.17,-0.223 0.3,0.018 0.213,-0.071 0.342,-0.243 0.825,0.155 1.579,0.172 1.934,-0.169 0.088,0.03 0.229,0.067 0.414,0.067 0,-0.227 0.443,-0.19 0.571,-0.345 0.071,-0.571 -0.799,-0.743 -0.985,-1.191 0.985,-0.156 1.283,0.19 2.395,0.205 -0.171,0.208 -0.428,0.311 -0.584,0.381 0.184,0.068 0.37,-0.138 0.427,0.034 0.284,-0.207 0.726,-0.345 1.51,-0.257 0.212,-0.121 -0.028,-0.158 0.143,-0.312 1.495,0.103 2.776,-0.087 3.873,-0.467 1.383,0.019 2.236,-0.62 2.236,-1.24 0.014,-0.313 -0.214,-0.604 -0.669,-0.827 -0.1,0.101 -0.242,0.188 -0.256,0.343 -0.543,-0.034 -0.757,0.104 -1.183,0.121 -0.953,-0.363 -2.037,-0.086 -3.134,-0.241l0.1 0.101c-0.923,0.054 -1.579,-0.121 -2.008,0.019 -0.184,-0.052 -0.283,-0.14 -0.498,-0.172 -0.3,-0.018 -0.285,0.138 -0.457,0.19 -0.324,-0.19 -1.837,0.103 -1.637,-0.328 -0.326,0.12 -0.469,0.051 -0.953,0.016 0.142,0.294 0.525,0.174 0.896,0.346 1.027,0.484 0.326,1.086 -0.54,1.553 -0.47,-0.018 -0.798,0.049 -1.182,0.101 -0.201,-0.052 -0.285,-0.17 -0.258,-0.326 0.926,0.413 1.596,-0.293 1.154,-0.673 -0.257,-0.033 -0.241,0.069 -0.527,0.017 -0.143,-0.017 -0.157,-0.087 -0.312,-0.119 0.283,-0.121 0.197,-0.175 0.383,-0.399 -0.214,0.019 -0.27,-0.05 -0.412,-0.07 1.138,-0.276 -0.229,-0.604 -0.4,-0.895 -0.155,0.07 -0.555,0.016 -0.497,-0.139 0.17,-0.138 0.399,0.087 0.726,0.035l-0.072 -0.206c-0.171,0.069 -0.54,0.018 -0.84,0.018 0,-0.156 0.343,-0.138 0.256,-0.363 -0.085,-0.035 -0.227,-0.071 -0.412,-0.071 0.156,-0.153 0.113,-0.19 -0.059,-0.31 0.1,-0.137 0.457,-0.12 0.655,-0.189 0.059,-0.432 -0.084,-0.518 0.129,-0.881 -0.112,-0.052 -0.37,-0.067 -0.498,-0.119 0.028,-0.087 0.199,-0.104 0.428,-0.087 0.057,-0.138 -0.4,-0.053 -0.27,-0.224 -0.287,0.034 -0.5,0.05 -0.628,-0.067 0.37,0.153 0.684,-0.624 -0.128,-0.538 -0.043,0.207 0.3,0.311 -0.084,0.518 -0.314,-0.207 -0.571,-0.276 -0.671,-0.501 0.571,-0.051 0.755,-0.431 -0.029,-0.466 0.086,-0.153 0.343,-0.207 0.471,-0.343l-0.299 -0.071c-0.043,-0.12 0.156,-0.087 0.328,-0.087 0.043,-0.153 -0.3,-0.138 -0.286,-0.276 0.313,-0.137 0.257,0.138 0.612,0.123 -0.426,-0.243 -0.342,-0.726 -0.569,-1.054 -0.257,-0.017 -0.3,-0.103 -0.626,-0.087 -0.029,-0.17 0.155,-0.205 0.355,-0.241 -0.327,-0.19 0.029,-0.43 -0.44,-0.603 -0.301,0.052 0,0.224 -0.044,0.312 -0.341,0.015 -0.427,-0.088 -0.498,-0.174 -0.329,0.189 0.398,0.346 0.554,0.501 -0.497,0.068 -0.739,0.536 -0.539,0.808 -0.271,0.089 -0.727,0.071 -1.07,0.106l0.214 -0.035c0,-0.207 -0.355,-0.241 -0.355,-0.431 -0.172,-0.035 -0.186,0.034 -0.313,0.034 -0.285,-0.069 0.027,-0.277 0.042,-0.36 -0.1,0.067 -0.512,0.273 -0.413,-0.019 -0.855,-0.139 -1.381,0.241 -1.896,-0.035 0.187,0.207 -0.042,0.397 -0.455,0.243 0.2,0.171 0.129,0.171 -0.057,0.327 0.415,0.069 0.755,-0.138 0.841,0.069 -0.086,0.155 -0.841,-0.105 -0.67,0.19 -0.412,-0.018 -0.527,-0.156 -0.913,-0.19 0.058,-0.171 0.287,-0.259 0.472,-0.344 -0.071,-0.103 -0.698,0.137 -0.954,-0.052 0.127,-0.174 0.214,-0.019 0.54,-0.019 0.171,-0.087 -0.042,-0.207 0.258,-0.309 -0.214,-0.192 -0.286,0.17 -0.456,0.188 -0.285,0.034 0.115,-0.24 -0.172,-0.207 0.287,-0.19 0.384,-0.138 0.671,-0.291 -0.287,-0.052 -0.37,-0.398 -0.599,-0.19 -0.341,-0.052 -0.043,-0.087 -0.072,-0.26 0.172,0 0.356,0.018 0.527,0.018 -0.285,-0.329 -0.697,0.135 -1.167,0.066 -0.028,-0.171 0.113,-0.239 0.441,-0.188 -0.172,-0.103 0.156,-0.154 -0.057,-0.274 -0.183,0.013 0.071,0.171 -0.241,0.205 -0.4,0.033 -0.143,-0.205 -0.5,-0.192 -0.084,0.124 -0.326,0.176 -0.155,0.261 -0.672,-0.069 -0.584,0.312 -1.282,0.206 0.156,-0.189 0.455,-0.327 0.698,-0.48 0.141,0.013 0.069,0.12 0.069,0.205 0.174,-0.016 0.287,-0.068 0.443,-0.085l-0.4 -0.172c0.257,0.052 0.186,-0.278 0.569,-0.296 -0.155,-0.189 -0.14,-0.207 -0.026,-0.466 -0.157,0.106 -0.471,0.106 -0.655,0.173 0,0.14 0.369,0.104 0.369,0.224 -0.242,0.069 -0.457,0.105 -0.126,0.207 -0.116,0.106 -0.829,-0.016 -0.444,0.191 -0.37,-0.033 -0.598,0 -0.854,0.019 0.071,0.274 0.045,0.669 -0.54,0.808 0.426,0.035 0.84,0.069 0.796,0.293l-0.314 0.054 0.058 0.26c0.4,-0.071 0.513,0.032 0.854,-0.02l-0.185 -0.205c0.429,-0.261 1.097,0.102 1.437,0.205 -0.34,0.052 -0.568,0.19 -1.179,0.208 -0.073,0.224 0.142,0 0.412,0.068 0.014,0.191 -0.342,0.156 -0.455,0.243 -0.357,-0.052 0,-0.105 -0.186,-0.207 -0.469,0.102 -0.783,0.291 -0.925,0.587 -0.328,-0.087 -0.457,-0.036 -0.84,-0.036 0.298,0.155 -0.072,0.312 -0.086,0.568 -0.285,-0.033 -0.226,-0.222 -0.599,-0.222 0.144,-0.207 -0.285,-0.431 0.169,-0.466 -0.056,-0.086 -0.211,-0.104 -0.396,-0.121 0,0.19 -0.156,0.277 -0.271,0.396 -0.328,-0.087 -0.768,-0.172 -1.154,-0.087 -0.099,-0.222 0.271,-0.153 0.555,-0.139 -0.169,-0.049 -0.27,-0.204 -0.07,-0.256 -0.371,0.017 -0.927,-0.19 -1.169,0.052 -0.114,0.015 0.028,-0.292 0.159,-0.312 -0.216,-0.121 -0.6,-0.172 -0.913,-0.256l0.227 -0.192c-0.412,0.054 -0.527,-0.053 -0.84,0.017 -0.455,-0.188 0.37,-0.259 0.399,-0.517 0.255,0.053 0.312,0.035 0.612,0.139 0.399,-0.104 -0.469,-0.173 -0.071,-0.261 -0.157,-0.07 -0.241,-0.171 -0.498,-0.171 0.186,-0.052 0.198,-0.192 0.541,-0.139 0.086,-0.191 0.015,-0.291 -0.257,-0.327 0.598,-0.225 0.328,0.156 0.8,0.241 0,0.018 0.395,-0.362 -0.073,-0.38 0.456,0 1.04,-0.035 1.381,0.123 0,-0.244 0.243,-0.209 0.569,-0.348 -0.383,0 -0.413,0.052 -0.74,-0.032l-0.014 0.154c-0.598,-0.018 -0.469,-0.154 -0.94,-0.034 0.227,-0.189 0.84,-0.206 1.496,-0.137l0.127 -0.106 0.013 -0.101c-0.168,-0.035 -0.197,0.03 -0.325,0.03l0.341 -0.188c-0.041,-0.084 -0.143,-0.136 -0.284,-0.171 -0.357,0.119 -0.598,-0.019 -0.969,0.119 -0.084,0.158 0.469,0.052 0.498,0.175 -0.27,0.102 -0.74,-0.104 -1.153,-0.104l0.043 -0.261c0.085,-0.034 0.64,-0.171 0.143,-0.206 0.156,-0.189 0.213,0.035 0.526,0.035 0.142,-0.069 0.071,-0.207 -0.072,-0.278 0.386,-0.239 1.028,0.123 0.883,0.415 0.272,-0.154 0.172,-0.119 0.556,-0.137 0.129,-0.171 -0.314,-0.101 -0.512,-0.12 0.114,-0.087 0.043,-0.295 0.355,-0.258 -0.284,-0.261 -0.284,-0.554 0.015,-0.829 -0.201,0.084 -0.357,0.208 -0.57,0.291 -0.484,-0.068 -0.143,-0.17 -0.057,-0.327 -0.355,-0.016 -0.512,0.086 -0.755,0.138 -0.127,0.173 0.44,0.071 0.497,0.173l-0.227 0.138c-0.27,-0.052 -0.313,-0.224 -0.483,-0.329 -0.314,0.07 0.114,0.243 -0.058,0.415 -0.327,0.035 -0.186,-0.138 -0.511,-0.121 0.113,0.26 -0.558,0.432 -1.027,0.536 0.03,0.102 0.4,0.052 0.285,0.224 -0.085,0.206 -0.513,0.223 -0.797,0.329 0,0.205 0.412,-0.052 0.512,0.12 0,-0.086 0.187,-0.226 0.655,-0.172 -0.582,0.153 -1.01,0.43 -1.465,0.671 0.026,0.244 0.527,0.296 1.124,0.296 0.1,0.016 0.041,0.119 0.198,0.119l-0.527 -0.067c-0.17,0.189 -0.482,0.223 -0.769,0.223 0.029,0.068 0.115,0.105 0.3,0.12 -0.085,0.035 -0.199,0.07 -0.326,0.087 -0.3,-0.069 0.17,-0.139 -0.071,-0.207 -0.558,0.207 -1.055,0.034 -1.682,-0.07 0.2,0.104 0,0.277 -0.255,0.295 -0.6,0.014 -1.056,-0.448 -1.255,-0.052 0.242,0.224 1.865,0.12 1.51,0.432 0.171,0.084 0.783,-0.052 0.926,0.189 -0.059,0.102 -0.414,0.035 -0.356,0.206 -0.399,-0.033 -0.443,-0.206 -0.913,-0.206 0.328,0.138 0.099,0.378 -0.468,0.291l0.299 0.122c-0.201,0.088 -0.315,0.225 -0.572,0.294 -0.426,-0.156 -0.839,-0.329 -0.965,-0.623 -0.186,0 -0.089,0.176 -0.229,0.207 -0.883,0.018 -0.726,-0.414 -1.41,-0.48l0.312 -0.037c-0.341,-0.205 -0.655,-0.517 -0.413,-0.691 -0.512,-0.033 -0.171,0.431 -0.697,0.38 0.028,0.071 0.257,0.051 0.413,0.071 0.028,0.189 -0.13,0.257 -0.356,0.292 0.015,0.086 0.255,0.069 0.412,0.069 -0.412,0.278 -0.313,0.053 -0.171,0.414 -0.284,0.069 -0.655,0.089 -0.569,0.345 -0.57,0.122 -0.926,0.02 -1.597,0.036 -0.056,-0.139 0.171,-0.122 0.146,-0.241 -0.516,0.067 -0.172,0.291 -0.601,0.448 -0.184,-0.018 -0.027,-0.19 -0.17,-0.223 -0.157,0.033 -0.242,0.118 -0.257,0.24 -0.213,-0.017 0.015,-0.224 -0.172,-0.26 -0.396,0.02 -0.355,-0.016 -0.625,0.02 -0.656,-0.209 -0.868,-0.726 -0.997,-1.09 -0.256,0.019 -0.514,0.122 -0.412,-0.121 -0.257,0 -0.815,-0.067 -0.528,0.088 -0.355,-0.052 0,-0.12 -0.184,-0.207 -0.215,0.052 -0.243,0.225 -0.557,0.225 -0.256,-0.018 -0.028,-0.156 0.099,-0.156 -0.185,-0.052 -0.397,-0.052 -0.826,-0.017 0.429,-0.122 -0.072,-0.139 -0.198,-0.017 -0.115,-0.068 -0.171,-0.158 -0.514,-0.122 0.213,-0.154 0.413,-0.036 0.855,-0.017 -0.241,-0.137 0.142,-0.157 0.343,-0.19l-0.3 -0.171c-0.227,0.241 -0.241,-0.071 -0.541,0.117 -0.086,-0.223 -0.214,-0.049 -0.371,-0.325l0.114 -0.088c0.499,0.243 1.053,0.19 1.552,0.26l-0.099 -0.103c0.669,-0.018 0.812,0.172 1.439,0.275 0.028,-0.172 0.326,-0.189 0.654,-0.189 0.159,-0.155 -0.328,-0.053 -0.171,-0.208 -0.341,-0.052 -0.341,0.087 -0.527,-0.035 0.145,-0.118 0.541,0.035 0.727,0.035 0,-0.067 0.013,-0.136 0.143,-0.153 -0.514,0.032 -0.627,-0.329 -0.54,-0.691 -0.3,-0.07 -0.457,-0.173 -0.258,-0.326 -0.414,-0.07 -0.541,-0.089 -0.855,0.015 -0.128,-0.207 -1.21,-0.138 -0.754,-0.553 -0.115,-0.07 -0.37,-0.07 -0.627,-0.086 0.014,0.069 0.185,0.052 0.314,0.069 0,0.123 -0.115,0.155 -0.344,0.138 0.044,0.156 0.528,0.104 0.485,0.294 -0.299,0.086 -1.139,0.19 -1.28,0.053 -0.128,0.137 -0.299,0.171 -0.643,0.07 0,0.084 -0.084,0.137 -0.226,0.153 0.142,0.188 0.17,-0.123 0.426,-0.036 0.128,0.053 -0.299,0.278 -0.67,0.224l0.072 0.227c-0.598,-0.123 -0.968,0.205 -1.711,0.172 -0.355,-0.035 0.3,-0.19 -0.184,-0.155 -0.242,0.034 0.029,0.242 -0.769,0.172 0.043,0.189 -0.255,0.189 -0.255,0.361 -0.299,-0.015 -0.497,-0.084 -0.383,-0.274 -0.286,-0.087 -0.616,-0.036 -0.672,0.173 0.285,0.017 0.157,-0.209 0.558,-0.138 0.025,0.17 -0.629,0.239 -0.757,0.138 -0.029,0.052 0.014,0.138 0.285,0.17 -0.556,0.312 -1.68,-0.052 -1.965,0.432 -0.241,-0.207 -0.286,-0.071 -0.612,-0.136 0.056,-0.036 0.113,-0.088 0.226,-0.088 -0.255,-0.07 -0.782,0 -1.353,-0.103l0.03 -0.206c0.227,-0.017 0.199,0.084 0.185,0.153 0.27,0.035 0.412,-0.259 0.64,-0.084 -0.029,-0.086 -0.043,-0.415 0.071,-0.398 0.343,-0.155 1.453,0.223 1.865,0.172 -0.469,-0.172 -1.381,-0.413 -2.149,-0.398 -0.129,-0.052 0.144,-0.171 0.127,-0.205 0.043,-0.07 -0.598,-0.087 -0.184,-0.156 -0.057,-0.17 -0.328,0.018 -0.512,-0.033 0.27,-0.174 0.938,-0.157 0.896,-0.381 0.429,0.068 0.513,-0.069 0.855,-0.069 0.186,0.243 -1.125,0.206 -1.026,0.483 0.3,0.018 0.271,-0.14 0.555,-0.14 0.214,0.087 -0.27,0.226 -0.27,0.365 0.484,-0.069 0.698,-0.278 0.912,-0.484 0.242,0.069 0.199,0 0.527,0.069 -0.157,-0.087 -0.086,-0.241 0.229,-0.205 -0.171,-0.036 0.057,-0.242 -0.171,-0.261 0.298,0.069 0.197,-0.344 0.498,-0.449 0.482,0.209 0.811,0.138 1.352,0.105 0.229,0.139 -0.171,0.085 -0.14,0.258 0.198,-0.067 0.467,-0.104 0.467,-0.292 -0.37,-0.14 -0.912,-0.346 -1.338,-0.329 0.043,-0.102 0.285,-0.086 0.542,-0.069 -0.243,-0.155 -0.784,-0.017 -0.756,0.174 -0.47,-0.157 -0.697,-0.052 -1.14,-0.157 0.115,-0.139 0.157,-0.05 0.428,-0.034l-0.284 -0.225c-0.158,0.07 -0.257,0.259 -0.158,0.311l-0.213 0c-0.314,0 0.298,-0.137 -0.071,-0.155 -0.057,-0.121 -0.044,0.103 -0.243,0.191 -0.24,-0.105 -0.57,-0.312 -0.939,-0.036 0.298,0.016 0.684,0 0.825,0.087 -0.555,-0.034 -1.21,0.276 -1.722,0.242 0.128,-0.123 0.44,-0.123 0.553,-0.242 -0.241,-0.259 -1.195,-0.156 -1.836,-0.347l0.129 -0.205c-0.484,-0.036 -0.499,-0.052 -0.94,-0.036 0.099,-0.122 0.511,-0.069 0.57,-0.241 -0.328,0.017 -0.927,0.241 -1.054,0.017 0.084,-0.155 0.214,0.052 0.413,0.017 -0.299,-0.242 -0.399,-0.224 -0.812,-0.242 0.441,0.122 0.141,0.191 -0.057,0.364 -0.329,0.016 -0.171,-0.156 -0.499,-0.122 -0.27,0.156 -0.882,0.122 -1.111,0.312 0.77,-0.19 2.094,-0.174 2.934,0.12 -0.228,-0.035 -0.898,0.052 -1.452,-0.103 0.014,0.138 -0.414,0.017 -0.343,0.188 -1.01,-0.085 -1.652,0.019 -2.194,-0.188l-0.126 0.155c-0.473,-0.172 -0.884,0.033 -1.225,-0.208 -0.13,-0.207 0.455,0 0.341,-0.207 -0.257,-0.153 -0.327,0.053 -0.642,0.036 -0.298,-0.07 0.158,-0.139 0.044,-0.26 -0.426,-0.087 -0.599,-0.017 -0.853,0.121 -1.227,-0.173 -1.596,-0.311 -0.971,-0.674 0.356,0.035 0.444,0.175 0.599,0.294 -0.114,0.136 -0.327,-0.052 -0.527,-0.033 0.143,0.169 0.313,0.102 0.498,0.191 0.044,-0.089 0.128,-0.106 0.442,-0.139 -0.015,-0.086 -0.256,-0.052 -0.413,-0.071l-0.085 -0.119c0.184,-0.138 0.669,-0.106 0.726,0.086 0.1,-0.139 0.783,-0.122 0.726,0.085 0.213,-0.259 0.627,-0.294 1.082,-0.171 -0.055,0.104 -0.412,0.035 -0.355,0.205 0.569,0.124 1.052,0.035 1.496,-0.052 -0.144,-0.708 2.549,-0.464 3.559,-0.532 -0.141,-0.107 -0.426,-0.139 -0.498,-0.277 0.442,0.19 0.712,0.222 1.34,0.259l0.027 -0.207c-0.398,0.17 -0.954,0.034 -1.026,-0.19 0.414,-0.07 0.613,0.034 0.343,-0.26 0.484,-0.051 0.27,0.19 0.285,0.328 0.371,-0.086 0.555,-0.068 0.828,0.087 0.324,-0.035 0.155,-0.348 0.383,-0.449 -0.045,-0.172 -0.228,-0.294 -0.698,-0.294l0.042 -0.309c-0.285,-0.052 -0.271,0.048 -0.527,0.035 0.442,-0.192 0.057,-0.432 -0.456,-0.502l0.186 0.224c-1.951,-0.24 -3.69,0.086 -5,0.259 -0.242,-0.085 -0.427,-0.206 -0.925,-0.191 0,0.087 -0.086,0.139 -0.228,0.139l0.299 0.071c-0.584,0.328 -0.883,0.239 -2.022,0.19 -0.058,-0.19 0.44,-0.054 0.356,-0.261 -0.271,0.071 -0.214,0.104 -0.541,0.036l0.084 0.156c-0.485,-0.175 -0.668,0.222 -1.152,0 -0.414,0.032 0.312,0.207 -0.029,0.207 0.029,0.119 0.513,0.05 0.712,0.085 -0.042,0.31 -0.712,0.034 -0.955,0.118 0.527,0.158 -0.341,0.158 -0.058,0.313 -0.654,-0.016 -0.654,-0.205 -1.054,0.018 -0.255,-0.018 -0.313,-0.104 -0.397,-0.193 -0.029,-0.067 0.342,-0.118 0.485,-0.067 -0.313,-0.241 -1.055,0.26 -1.883,0.275 0.444,0.382 1.439,-0.049 2.296,0.261 0.497,-0.242 0.611,0.17 1.138,0.052 -0.044,-0.138 -0.37,-0.138 -0.597,-0.19 0.37,-0.208 0.91,0.032 1.481,-0.035 -0.401,0.173 -0.855,0.328 -1.339,0.466 -0.327,0.016 -0.171,-0.154 -0.512,-0.138l-0.014 0.154c-0.428,0.036 -0.342,-0.17 -0.827,-0.139 0.414,0.139 -0.072,0.158 -0.056,0.383 -0.615,0 -0.185,-0.158 -0.386,-0.277 -0.783,-0.085 -1.339,0.052 -1.993,0.017 -0.143,-0.036 -0.074,-0.138 -0.074,-0.224 0.272,0.101 0.786,0.207 1.041,0.052 -0.128,0.049 -1.211,-0.19 -0.583,-0.294 -0.343,-0.069 -0.399,-0.069 -0.813,-0.296l0.074 0.208c-0.157,0.019 -0.172,-0.049 -0.3,-0.049l0.04 -0.174c-0.795,0.363 -1.722,0.725 -2.804,1.017 -3.033,0.846 -6.709,0.432 -8.474,0.138 -0.869,0.037 -1.782,-0.118 -2.649,0.208 -0.13,-0.032 0.171,-0.208 -0.171,-0.257 0.028,0.291 -0.883,0.171 -1.253,0 0.497,0.361 -1.07,0.188 -1.525,0.291l0.185 0.123c-0.312,0.067 -0.628,0.016 -0.812,-0.14 -0.243,-0.017 -0.071,0.173 -0.155,0.26 -0.97,-0.104 -1.696,0.276 -2.75,0.085 0.035,0.096 -0.05,0.126 -0.106,0.176 -0.161,-0.001 -0.339,0.003 -0.545,0.012 -0.084,0.003 -0.172,0.003 -0.262,0 -0.011,-0.003 -0.022,-0.004 -0.035,-0.002 -0.441,-0.019 -0.927,-0.092 -1.172,-0.065 -0.268,0.027 -0.405,0.139 -0.596,0.194 -0.026,-0.015 -0.046,-0.033 -0.061,-0.056 -0.013,0.029 -0.029,0.056 -0.046,0.079l-0.065 0.006c-0.541,0.052 -1.509,-0.206 -1.695,0.036 -0.996,-0.155 -2.008,-0.104 -3.36,-0.138 -0.059,-0.225 -1.21,-0.054 -1.468,0 -0.299,-0.069 -0.098,-0.086 -0.072,-0.225 -0.328,0.05 -0.497,0.171 -0.966,0.121 -0.329,-0.051 -0.116,-0.14 -0.058,-0.259 -0.229,-0.034 -0.229,0.07 -0.243,0.138 -1.055,0.156 -2.065,-0.38 -3.049,-0.068 -0.355,-0.191 -1.48,0.118 -1.751,-0.276 -0.157,0.053 -0.469,0.016 -0.442,0.189 -0.299,0 -0.242,-0.155 -0.397,-0.225 -0.043,0.361 -1.169,-0.017 -1.682,-0.017 -0.427,-0.017 -0.924,0.259 -1.253,-0.052 -0.527,0.346 -1.238,0.018 -2.107,-0.034 -0.115,-0.015 -0.073,-0.104 -0.073,-0.173 -1.238,0.158 -2.007,-0.103 -2.818,-0.225 -0.371,0 -0.541,0.105 -0.669,0.243 -0.529,0.034 -0.541,-0.154 -0.913,-0.191 0.028,0.242 -0.884,-0.069 -0.884,0.173 -0.341,-0.19 -0.938,-0.136 -1.381,-0.12 0,0.034 -0.626,0.138 -0.826,0.12 -0.326,0 -0.511,-0.103 -0.828,-0.136 -0.338,-0.019 -0.725,0.154 -1.08,0.171 -0.528,0.017 -1.553,0.069 -2.407,-0.052 -0.17,0.121 -0.242,0.086 -0.144,0.259 -0.754,-0.415 -1.308,0 -2.092,-0.084 0.072,-0.14 0.455,-0.123 0.455,-0.294 -0.383,0.395 -1.894,0.033 -2.748,0.084 0.07,-0.224 0.941,0 0.883,-0.328 0.384,0.328 1.054,0.054 1.666,0.175 -1.583,-0.381 -3.93,-0.433 -5.184,-0.57 0.554,-0.449 2.563,0.207 3.09,-0.294 0.67,0.155 0.784,0.121 1.238,0.259 -0.099,-0.138 -0.042,-0.242 0.257,-0.311 0.585,0.43 2.066,0 2.366,0.413 0.268,-0.257 0.768,0 1.054,-0.05l-0.3 -0.123c0.099,-0.275 1.495,-0.017 1.353,0.106 0.542,-0.259 1.255,0 1.994,0.137 0.469,-0.172 2.393,-0.292 2.834,0.07 0.184,-0.018 0.242,-0.087 0.228,-0.207 1.126,0.084 1.781,0.189 2.963,0.017 -0.968,-0.172 -1.808,0.035 -2.378,-0.294l0.227 -0.155c0.399,0.051 0.426,0.069 0.741,-0.017 0.343,0.137 0.981,0.276 1.353,0.103 0.27,0.26 0.84,0.173 1.224,0.38 -0.255,-0.173 0.328,-0.12 0.642,-0.14 -1.681,-0.412 -3.549,-0.343 -4.871,-0.568 -0.228,0.037 -0.685,0.277 -0.841,0.019 -0.298,0.033 -0.385,0.188 -0.67,0.223 0.143,-0.086 -0.113,-0.086 -0.397,-0.223 -0.186,0 -0.087,0.171 -0.329,0.154 -0.443,0.017 -0.171,-0.276 -0.599,-0.243 0.015,0.089 -0.099,0.089 -0.227,0.089 -0.854,-0.397 -2.777,-0.053 -3.546,-0.243 -0.87,0.224 -1.779,-0.173 -3.049,-0.017 -0.483,-0.156 -1.281,-0.277 -1.482,-0.07 -0.197,-0.033 -0.312,-0.121 -0.498,-0.172l0.244 -0.156c-0.2,0.19 -0.47,0.019 -0.756,0.019 -1.224,0 -2.99,-0.036 -4.414,-0.019 -0.014,0.19 0.127,0.138 0.397,0.121l0.1 0.106 -0.212 0c-0.299,0.034 0.127,0.136 -0.143,0.188 -0.599,-0.502 -1.781,-0.07 -2.721,-0.104l0.172 -0.05c-1.041,-0.294 -2.521,-0.415 -3.092,-0.174 -0.313,0 -0.044,-0.224 -0.327,-0.241l-0.056 0.017c0.298,0.174 -0.413,0.087 -0.358,0.293 -0.24,-0.105 -0.54,-0.105 -0.755,0.017 0.328,0.122 -0.212,0.207 -0.356,0.258 -0.24,-0.204 -0.611,-0.224 -1.01,-0.258 0.013,0.122 0.27,0.138 0.413,0.069 0.057,0.156 0.172,0.208 -0.057,0.416 -0.215,-0.227 -0.343,0.084 -0.726,-0.089l-0.129 0.107c0.214,0.222 0.228,0.447 0.569,0.498l-0.14 0.191c-0.186,0 -0.215,-0.071 -0.413,-0.071 0.014,0.139 -0.157,0.174 -0.444,0.139 0.299,0.137 0.156,0.312 -0.056,0.413 0.157,-0.034 0.27,-0.034 0.428,0.037 -0.271,0.119 -0.073,0.343 0.242,0.412 -0.115,0.158 -0.259,-0.069 -0.527,-0.018l-0.044 0.364c0.427,-0.052 0.401,0.138 0.942,0.035 0.112,0.118 0.227,0.239 0.369,0.344 0.212,-0.086 0.255,0 0.526,0.018 0.046,-0.155 0.728,-0.123 0.855,-0.069 -0.114,0.069 -0.185,0.154 -0.454,0.138 0.284,0.257 -0.072,0.326 -0.584,0.396 -0.131,-0.07 -0.185,-0.156 -0.272,-0.223 -0.228,0.378 -1.097,0.103 -1.425,0.361 -0.27,-0.121 -0.683,-0.484 -0.142,-0.484 -0.029,-0.171 -0.627,-0.067 -0.84,-0.034 -0.115,0.172 0.328,0.088 0.398,0.172 -0.027,0.138 -0.582,0.175 -0.142,0.259 -0.199,0.035 -0.313,0.123 -0.555,0.139 0.071,0.053 0.115,0.086 -0.015,0.103 0.13,0.07 0.712,0.207 0.487,0.276 0.453,0.138 0.896,0 1.465,0.122 -0.099,0.155 -0.412,0.052 -0.64,0.016 0.071,0.21 -0.329,0.139 -0.257,0.363 0.07,0.053 0.925,0.016 0.596,0.173 0.358,-0.051 0.558,-0.088 1.169,-0.051 0.187,0.414 1.012,0.293 1.51,0.533 -0.441,0.121 -0.498,-0.139 -1.053,-0.052 -0.055,0.19 0.383,0 0.383,0.208 0.101,-0.119 0.244,-0.05 0.087,0.19 0.2,-0.035 0.428,-0.104 0.242,-0.208 0.413,0.035 0.555,0.07 0.697,0.294 0.514,-0.138 0.799,0.155 1.226,0.207 -0.27,0.172 -1.297,0.486 -1.51,0.309 -0.341,0.089 0.228,0.227 0.142,0.365 -0.2,0.136 -0.284,0.36 -0.683,0.395l0.014 -0.052c-0.071,-0.153 -0.286,0.052 -0.527,-0.034 -0.228,0.017 0.043,-0.138 0.128,-0.138l-0.869 0.122c-0.584,-0.241 -2.266,-0.276 -2.451,-0.537 -0.113,-0.102 -0.426,0.138 -0.553,0.192l-0.201 -0.054c-0.156,-0.153 0.485,-0.082 0.13,-0.153 -0.086,-0.037 -0.157,-0.069 -0.3,-0.069 -0.101,0.43 -1.88,0.017 -2.422,-0.086 -0.342,0.138 -0.997,0.241 -1.269,0 -0.397,-0.035 -0.041,0.032 -0.126,0.138 -0.287,-0.121 -0.257,-0.089 -0.713,-0.138 0.514,-0.122 0.37,-0.277 0.713,-0.483 0.2,0.12 0.299,-0.017 0.626,0.016 -0.412,-0.155 -1.053,-0.207 -1.767,-0.224 -0.083,0.12 -0.355,0.241 -0.156,0.362 -0.299,0 -0.357,-0.276 -0.071,-0.259 -0.057,-0.19 -0.939,0.105 -0.426,0.068 -0.115,0.157 -0.314,-0.068 -0.629,-0.016 -0.169,0.293 -0.51,0.501 -1.253,0.568 0.185,0.224 1.584,-0.067 1.796,-0.015 -0.328,0.101 -0.543,0.276 -1.084,0.259 0.031,0.19 0.512,0.205 0.813,0.19 -0.115,0.222 -0.598,0.067 -0.985,0.222 0.172,0.121 0.999,0.139 0.956,-0.069 0.543,0.054 0.271,0.38 0.912,0.26 -0.272,0.103 -0.483,0.226 -0.883,0.276 0.059,0.051 0.113,0.103 -0.014,0.103l0.397 0.175c-0.098,0.188 -0.44,0.223 -0.583,0.393 -0.811,-0.119 -1.637,0 -2.635,-0.066 0.213,0.12 -0.156,0.19 -0.355,0.258 0.327,-0.192 -0.015,-0.085 0.056,-0.382 -0.114,0.227 -0.484,0.175 -0.756,0.19 -0.156,0.124 0.272,0.225 -0.041,0.261l0.3 0.122c0.142,0.205 -0.457,-0.018 -0.444,0.135 -0.027,0.156 0.414,0.089 0.515,0.07 0.398,0.051 -0.115,0.5 0.456,0.483l0.028 -0.207c0.555,0.052 -0.072,0.293 0.369,0.38 -0.115,0.158 -0.14,-0.119 -0.413,-0.069 -0.085,0.259 0.712,0.119 0.684,0.345 -0.157,0.104 -0.386,0.156 -0.655,0.19 0.029,0.224 -0.283,0.914 -1.253,0.571 0.172,-0.052 0.285,-0.138 0.556,-0.138 -0.2,-0.122 -0.785,0 -1.054,0.015 0.356,0.14 -0.116,0.414 0.129,0.587 0.212,-0.05 0.427,-0.104 0.638,-0.138 0.33,0.017 0.527,0.069 0.613,0.175 -0.37,0.084 -0.81,0.049 -1.167,0.015 0.314,0.293 0.783,0.052 1.368,0.103l-0.129 0.103c-0.115,0.124 0.543,-0.191 0.768,-0.239 0.386,0.136 0.101,0.396 0.585,0.396 -0.215,0.101 -0.441,0.207 -0.869,0.17 0.127,0.175 0.456,-0.015 0.726,0.037 0.172,0.085 0.157,0.26 0.371,0.326l-0.113 0.106c-0.285,-0.087 -1.283,-0.311 -1.452,-0.347l0.026 0.016 -0.128 0.159c-0.356,-0.036 -0.441,-0.175 -0.94,-0.139 -0.085,0.155 0.158,0.155 0.072,0.311 -0.214,0.017 -0.242,-0.106 -0.127,-0.106 -0.271,-0.05 -1.028,0.088 -1.226,-0.05 0.127,-0.069 0.127,-0.242 0.456,-0.191 0.254,0.016 -0.172,0.07 -0.029,0.209 0.483,0.032 0.2,-0.193 0.143,-0.311 -0.143,0 -0.298,0 -0.315,-0.07 -0.184,0 -0.085,0.172 -0.326,0.139 -0.126,-0.089 -0.143,-0.173 -0.157,-0.361 -0.141,0 -0.115,0.119 -0.141,0.188 -0.171,0 -0.344,0 -0.529,-0.018 -0.271,-0.051 -0.228,-0.416 -0.698,-0.239l0.3 0.119c-0.269,0.034 -0.371,0.153 -0.655,0.19 0.412,0.086 0.127,0.069 0.71,0.19 0.072,0.24 -0.226,0.276 -0.667,0.224 0.241,-0.207 -0.114,-0.155 -0.215,0 -0.469,-0.036 -0.527,-0.244 -1.124,-0.207 -0.057,0.102 0.127,0.102 0.298,0.122l-0.229 0.137c-0.696,-0.242 -1.68,-0.157 -2.163,-0.397 -0.172,0.071 -0.229,0.19 -0.641,0.121 0.014,0.139 0.312,0.257 0.499,0.173 0.042,0.138 -0.073,0.19 -0.342,0.155 -0.342,0.035 0.269,0.067 0.413,0.067 -0.442,0.382 -1.908,-0.052 -1.197,-0.415l-0.328 -0.016c0.087,-0.051 0.2,-0.068 0.343,-0.085 -0.114,-0.294 -0.713,-0.19 -1.126,-0.259 0.27,0.172 -0.284,0.207 -0.571,0.242 -0.269,-0.02 -0.142,-0.208 -0.269,-0.277 -0.329,0.104 -0.455,0.069 -0.741,-0.035 -0.142,0.242 -0.114,0.381 -0.569,0.346 0.072,0.138 0,0.328 0.355,0.328 -0.784,0.016 -1.594,0.277 -1.78,0.758 -0.284,0.138 -0.597,0.07 -0.841,-0.034 0.257,0.362 1.197,0.104 0.856,0.657 -0.286,0.016 -0.058,-0.191 -0.401,-0.173 0.158,0.379 -0.624,-0.138 0.229,-0.087 -0.199,-0.277 -0.954,0.224 -0.484,0.344 -0.086,0.157 -0.285,0.054 -0.526,0.036 0.069,0.121 0.483,0.224 0.711,0.139 -0.085,0.034 -0.072,0.137 -0.228,0.137 0.328,0.156 0.484,-0.088 1.068,-0.052l-0.342 0.139c0.172,0.172 0.799,-0.052 0.542,-0.139 0.141,0.052 0.386,0.07 0.512,0.12l-0.142 0.207c0.299,-0.085 0.256,-0.119 0.557,-0.139 -0.072,-0.205 -0.044,-0.309 0.469,-0.291l-0.2 -0.157c0.043,-0.068 0.285,-0.032 0.443,-0.032 0.27,0 -0.142,0.275 0.27,0.224 -0.172,-0.156 0.071,-0.156 -0.041,-0.328 -0.414,0.016 -0.516,0.052 -0.743,-0.085 0.243,-0.14 0.628,0.137 0.754,-0.071 0.286,0.017 0.699,0.24 0.272,0.277 0.683,-0.017 1.339,0.121 2.407,0.101 0.157,0.053 -0.028,0.071 0.085,0.209 0.327,0.017 0.698,-0.086 0.941,0.035 -0.443,0.118 0.186,0.43 -0.356,0.309 -0.172,0.121 0.356,0.052 0.612,0.121 -0.086,0.174 -0.528,0.069 -0.742,0.035 0.016,0.088 -0.027,0.139 -0.157,0.139 0.257,0.033 0.529,0.104 0.614,0.292l-0.114 0.104c-0.314,-0.087 -0.584,-0.19 -0.911,-0.257 -0.158,0.257 -1.383,0.481 -1.383,0.05 -0.354,0.086 -0.569,0.241 -0.798,0.397 -0.269,-0.257 -0.825,-0.069 -1.281,-0.173 0.371,0.24 -0.356,0.605 0.456,0.758 -0.242,0.19 0.029,0.313 -0.085,0.568 0.541,0.071 0.839,-0.015 1.068,-0.117 0.128,0.017 0.086,0.102 0.086,0.173 0.542,-0.019 1.069,-0.071 1.309,-0.261 0.172,0.123 0.258,0.276 0.799,0.242 0.114,0.14 -0.342,0.209 -0.03,0.259 -0.257,0.087 -0.44,0.138 -0.983,0.155 0.529,0.158 -0.055,0.207 0.029,0.536 -0.47,-0.224 -0.711,-0.087 -1.452,-0.123 0.341,0.224 1.11,-0.049 1.225,0.261 0.184,-0.071 0.612,0 0.953,0 1.126,0.62 -1.296,0.602 -1.736,1.017 -0.087,-0.034 -0.229,-0.069 -0.413,-0.069l-0.114 0.104c-0.156,0.156 0.327,0.052 0.169,0.224 -0.299,-0.019 -0.212,0.07 -0.341,0.242 -0.826,-0.155 -1.579,-0.172 -1.935,0.17 -0.088,-0.031 -0.229,-0.068 -0.413,-0.068 0,0.227 -0.444,0.191 -0.572,0.345 -0.071,0.572 0.799,0.743 0.985,1.192 -0.985,0.156 -1.283,-0.19 -2.395,-0.205 0.171,-0.209 0.428,-0.311 0.585,-0.382 -0.185,-0.067 -0.371,0.138 -0.428,-0.033 -0.284,0.206 -0.725,0.344 -1.509,0.257 -0.213,0.121 0.027,0.158 -0.143,0.311 -1.496,-0.103 -2.777,0.087 -3.873,0.467 -1.383,-0.018 -2.237,0.62 -2.237,1.241z"/>
  <path class="fil1" d="M158.713 11.598c0.666,1.871 1.489,3.668 2.454,5.374l-0.377 0.213c-0.976,-1.728 -1.809,-3.548 -2.483,-5.442l0.406 -0.145zm-1.993 -11.598l-0.432 0c0,2.031 0.173,4.021 0.505,5.957l0.425 -0.072c-0.328,-1.913 -0.498,-3.879 -0.498,-5.885zm7.778 21.849c1.249,1.529 2.624,2.947 4.111,4.241l-0.283 0.327c-1.505,-1.311 -2.898,-2.748 -4.161,-4.295l0.333 -0.273zm8.882 7.725c1.673,1.017 3.443,1.896 5.289,2.621l-0.158 0.401c-1.869,-0.734 -3.659,-1.624 -5.357,-2.653l0.226 -0.369zm10.952 4.296c1.902,0.389 3.863,0.622 5.865,0.683l-0.014 0.432c-2.027,-0.062 -4.012,-0.298 -5.939,-0.692l0.088 -0.423z"/>
  <polygon class="fil1" points="0.299,45.532 0.179,45.353 5.127,42.039 1.696,36.913 5.482,34.381 8.913,39.508 14.039,36.073 16.574,39.858 11.445,43.293 14.88,48.418 11.091,50.953 7.66,45.826 2.537,49.257 0,45.472 0.179,45.353 0.299,45.532 0.478,45.411 2.654,48.66 7.78,45.229 11.211,50.354 14.28,48.3 10.848,43.173 15.975,39.74 13.92,36.672 8.794,40.106 5.363,34.978 2.294,37.032 5.726,42.158 0.418,45.711 0.299,45.532 0.478,45.411 "/>
  <polygon class="fil1" points="48.015,11.005 45.247,11.005 45.247,10.584 48.015,10.584 "/>
  <polygon class="fil1" points="46.842,12.247 46.421,12.247 46.421,9.337 46.842,9.337 "/>
  <polygon class="fil1" points="39.473,11.005 36.706,11.005 36.706,10.584 39.473,10.584 "/>
  <polygon class="fil1" points="38.301,12.247 37.879,12.247 37.879,9.337 38.301,9.337 "/>
  <polygon class="fil1" points="30.933,11.005 28.164,11.005 28.164,10.584 30.933,10.584 "/>
  <polygon class="fil1" points="29.759,12.247 29.338,12.247 29.338,9.337 29.759,9.337 "/>
  <polygon class="fil1" points="22.392,11.005 19.622,11.005 19.622,10.584 22.392,10.584 "/>
  <polygon class="fil1" points="21.218,12.247 20.797,12.247 20.797,9.337 21.218,9.337 "/>
  <polygon class="fil1" points="48.015,3.53 45.247,3.53 45.247,3.109 48.015,3.109 "/>
  <polygon class="fil1" points="46.842,4.772 46.421,4.772 46.421,1.862 46.842,1.862 "/>
  <polygon class="fil1" points="39.473,3.53 36.706,3.53 36.706,3.109 39.473,3.109 "/>
  <polygon class="fil1" points="38.301,4.772 37.879,4.772 37.879,1.862 38.301,1.862 "/>
  <polygon class="fil1" points="30.933,3.53 28.164,3.53 28.164,3.109 30.933,3.109 "/>
  <polygon class="fil1" points="29.759,4.772 29.338,4.772 29.338,1.862 29.759,1.862 "/>
  <polygon class="fil1" points="22.392,3.53 19.622,3.53 19.622,3.109 22.392,3.109 "/>
  <polygon class="fil1" points="21.218,4.772 20.797,4.772 20.797,1.862 21.218,1.862 "/>
  <g id="_2853647349552">
   <path class="fil2" d="M60.447 23.051c0.015,0 0.026,0.031 0.026,0.089 0,0.104 -0.052,0.291 -0.167,0.557 -0.109,0.271 -0.276,0.583 -0.489,0.937 -0.214,0.359 -0.474,0.734 -0.781,1.13 -0.313,0.396 -0.667,0.776 -1.063,1.13 -0.203,0.052 -0.463,0.104 -0.781,0.161 -0.312,0.057 -0.671,0.109 -1.072,0.162 -0.401,0.046 -0.839,0.104 -1.307,0.156 -0.464,0.057 -0.953,0.109 -1.463,0.161 -0.599,0.948 -1.182,1.885 -1.745,2.822 -0.567,0.937 -1.098,1.843 -1.593,2.723 -0.5,0.88 -0.963,1.729 -1.385,2.541 -0.422,0.813 -0.781,1.573 -1.088,2.27 -0.224,0.094 -0.552,0.188 -0.989,0.287 -0.438,0.094 -0.896,0.187 -1.37,0.281 -0.468,0.089 -0.911,0.177 -1.317,0.26 -0.406,0.078 -0.692,0.146 -0.854,0.198 0.953,-2.046 1.916,-3.973 2.89,-5.774 0.974,-1.807 1.963,-3.541 2.983,-5.212 -0.531,0.042 -1.025,0.078 -1.494,0.114 -0.469,0.037 -0.88,0.063 -1.239,0.084 -0.354,0.021 -0.646,0.041 -0.87,0.057 -0.224,0.016 -0.354,0.021 -0.396,0.021 -0.057,0 -0.088,-0.042 -0.088,-0.12 0,-0.114 0.047,-0.276 0.151,-0.489 0.099,-0.214 0.219,-0.433 0.359,-0.651 0.136,-0.219 0.281,-0.412 0.427,-0.578 0.146,-0.167 0.261,-0.26 0.344,-0.281 0.791,-0.073 1.541,-0.151 2.249,-0.229 0.708,-0.084 1.38,-0.167 2.02,-0.261 1.656,-2.572 3.359,-4.988 5.098,-7.248 1.739,-2.254 3.499,-4.457 5.29,-6.602 0.042,-0.041 0.062,-0.13 0.062,-0.26 0,-0.063 -0.02,-0.12 -0.052,-0.182 -0.036,-0.063 -0.114,-0.073 -0.239,-0.032 -2.166,0.589 -4.124,1.245 -5.873,1.969 -1.75,0.723 -3.307,1.452 -4.666,2.186 -1.364,0.74 -2.541,1.458 -3.53,2.161 -0.994,0.703 -1.812,1.333 -2.452,1.901 -0.641,0.562 -1.114,1.025 -1.416,1.395 -0.308,0.365 -0.459,0.578 -0.459,0.641 0,0.031 0.011,0.072 0.037,0.13 0.026,0.052 0.114,0.083 0.271,0.083 0.322,0 0.671,-0.047 1.041,-0.141 0.375,-0.088 0.744,-0.208 1.114,-0.348 0.37,-0.141 0.729,-0.297 1.078,-0.464 0.344,-0.172 0.666,-0.328 0.958,-0.484 0.01,0.234 0.026,0.51 0.042,0.817 0.015,0.313 0.026,0.625 0.041,0.938 0.016,0.317 0.032,0.619 0.047,0.911 0.016,0.286 0.026,0.526 0.026,0.708 -0.125,0.062 -0.323,0.125 -0.599,0.193 -0.27,0.062 -0.604,0.125 -0.999,0.182 -0.391,0.052 -0.833,0.099 -1.323,0.135 -0.494,0.037 -1.02,0.052 -1.583,0.052 -0.057,0 -0.109,-0.005 -0.145,-0.015 -0.032,-0.011 -0.068,-0.016 -0.099,-0.016 -0.089,-0.01 -0.224,-0.088 -0.401,-0.239 -0.177,-0.157 -0.375,-0.349 -0.589,-0.584 -0.213,-0.234 -0.432,-0.489 -0.656,-0.77 -0.224,-0.276 -0.427,-0.547 -0.609,-0.807 -0.182,-0.261 -0.333,-0.5 -0.453,-0.719 -0.114,-0.218 -0.172,-0.375 -0.172,-0.479 0,-0.619 0.229,-1.265 0.693,-1.931 0.463,-0.662 1.088,-1.328 1.874,-1.99 0.792,-0.661 1.703,-1.312 2.739,-1.952 1.036,-0.64 2.13,-1.245 3.28,-1.817 1.151,-0.568 2.317,-1.094 3.51,-1.578 1.187,-0.484 2.327,-0.895 3.415,-1.244 1.088,-0.344 2.093,-0.615 3.015,-0.813 0.922,-0.197 1.682,-0.296 2.281,-0.296 0.171,0 0.374,0.062 0.604,0.198 0.229,0.13 0.453,0.301 0.682,0.515 0.229,0.213 0.458,0.453 0.682,0.719 0.224,0.265 0.421,0.531 0.598,0.791 0.183,0.266 0.323,0.515 0.438,0.755 0.109,0.239 0.172,0.437 0.182,0.588 0,0.063 -0.104,0.261 -0.312,0.604 -0.209,0.339 -0.495,0.787 -0.859,1.344 -0.37,0.552 -0.802,1.202 -1.297,1.952 -0.5,0.745 -1.047,1.557 -1.635,2.437 -0.588,0.88 -1.213,1.812 -1.869,2.796 -0.656,0.979 -1.317,1.989 -1.989,3.025 0.916,-0.213 1.697,-0.416 2.348,-0.62 0.651,-0.197 1.192,-0.369 1.619,-0.525 0.427,-0.151 0.745,-0.276 0.959,-0.37 0.213,-0.099 0.333,-0.146 0.354,-0.146zm7.747 8.373c0,0.062 0.031,0.093 0.089,0.093 0.093,0 0.244,-0.067 0.458,-0.197 0.213,-0.136 0.458,-0.302 0.734,-0.506 0.276,-0.203 0.568,-0.432 0.875,-0.687 0.312,-0.255 0.609,-0.505 0.895,-0.744 0.282,-0.245 0.542,-0.469 0.771,-0.672 0.229,-0.203 0.401,-0.365 0.526,-0.474 0.088,0.089 0.203,0.214 0.344,0.365 0.135,0.151 0.26,0.291 0.369,0.411 -0.239,0.224 -0.536,0.5 -0.875,0.817 -0.343,0.323 -0.708,0.656 -1.098,1 -0.391,0.344 -0.797,0.687 -1.213,1.031 -0.417,0.338 -0.823,0.64 -1.219,0.906 -0.395,0.266 -0.776,0.479 -1.13,0.646 -0.354,0.171 -0.666,0.255 -0.932,0.255 -0.182,0 -0.38,-0.037 -0.598,-0.11 -0.219,-0.067 -0.422,-0.166 -0.604,-0.296 -0.183,-0.125 -0.339,-0.276 -0.459,-0.448 -0.125,-0.172 -0.182,-0.37 -0.182,-0.583 0,-0.078 -0.005,-0.177 -0.01,-0.297 -0.005,-0.115 0.005,-0.266 0.026,-0.458 0.021,-0.188 0.057,-0.417 0.12,-0.682 0.062,-0.271 0.151,-0.604 0.276,-1 -0.339,0.354 -0.729,0.724 -1.182,1.114 -0.453,0.385 -0.927,0.75 -1.427,1.099 -0.5,0.343 -1,0.656 -1.505,0.937 -0.5,0.276 -0.968,0.489 -1.395,0.63 -0.052,0.021 -0.089,0.031 -0.12,0.031 -0.031,0 -0.062,0 -0.094,0 -0.099,0 -0.234,-0.052 -0.401,-0.151 -0.171,-0.104 -0.333,-0.239 -0.499,-0.406 -0.162,-0.166 -0.302,-0.359 -0.417,-0.573 -0.12,-0.213 -0.177,-0.427 -0.177,-0.64 0,-0.057 0.031,-0.266 0.094,-0.609 0.057,-0.344 0.203,-0.786 0.432,-1.318 0.229,-0.536 0.567,-1.135 1.015,-1.801 0.448,-0.667 1.057,-1.349 1.833,-2.052 0.396,-0.354 0.823,-0.692 1.281,-1.004 0.385,-0.266 0.828,-0.537 1.328,-0.813 0.494,-0.27 1.02,-0.489 1.567,-0.656 0.021,0 0.041,-0.005 0.057,-0.015 0.01,-0.011 0.036,-0.006 0.068,0.015 0.119,0.042 0.265,0.104 0.432,0.193 0.167,0.088 0.338,0.177 0.505,0.276 0.167,0.094 0.312,0.193 0.443,0.286 0.124,0.099 0.208,0.177 0.249,0.24 0.011,0.021 0.011,0.036 0,0.041l-0.031 0.032c-0.458,0.244 -0.89,0.52 -1.296,0.817 -0.406,0.302 -0.766,0.583 -1.083,0.849 -0.365,0.312 -0.703,0.625 -1.021,0.927 -0.744,0.734 -1.255,1.369 -1.541,1.9 -0.286,0.536 -0.427,0.916 -0.427,1.151 0,0.177 0.073,0.26 0.213,0.26 0.141,0 0.323,-0.057 0.542,-0.172 0.219,-0.12 0.463,-0.276 0.739,-0.474 0.276,-0.197 0.578,-0.432 0.912,-0.702 0.328,-0.271 0.671,-0.552 1.025,-0.849 0.318,-0.255 0.62,-0.526 0.917,-0.823 0.255,-0.245 0.52,-0.521 0.791,-0.838 0.276,-0.318 0.51,-0.635 0.703,-0.963 0,-0.011 0.005,-0.021 0.016,-0.026 0.01,-0.011 0.026,-0.011 0.046,0 0.11,0.078 0.24,0.213 0.381,0.401 0.14,0.187 0.276,0.395 0.395,0.619 0.125,0.224 0.229,0.437 0.313,0.646 0.088,0.208 0.13,0.369 0.13,0.484 -0.234,0.474 -0.411,0.911 -0.542,1.302 -0.125,0.39 -0.224,0.734 -0.286,1.031 -0.068,0.296 -0.109,0.546 -0.125,0.755 -0.016,0.208 -0.021,0.369 -0.021,0.479zm7.534 0.276c0.167,0 0.386,-0.073 0.667,-0.214 0.281,-0.14 0.588,-0.323 0.921,-0.541 0.339,-0.219 0.688,-0.459 1.052,-0.724 0.37,-0.266 0.714,-0.526 1.031,-0.781 0.323,-0.255 0.609,-0.484 0.865,-0.698 0.249,-0.213 0.442,-0.375 0.562,-0.474 0.094,0.089 0.203,0.209 0.328,0.349 0.125,0.141 0.245,0.276 0.359,0.396 -0.224,0.224 -0.505,0.5 -0.838,0.817 -0.339,0.323 -0.703,0.651 -1.094,0.984 -0.39,0.334 -0.796,0.672 -1.218,1.005 -0.422,0.339 -0.833,0.636 -1.234,0.901 -0.406,0.266 -0.776,0.479 -1.125,0.641 -0.343,0.166 -0.635,0.244 -0.869,0.244 -0.313,0 -0.646,-0.109 -1,-0.333 -0.349,-0.224 -0.677,-0.489 -0.984,-0.786 -0.302,-0.302 -0.562,-0.604 -0.776,-0.911 -0.213,-0.302 -0.333,-0.531 -0.364,-0.682 -0.021,-0.063 -0.031,-0.136 -0.031,-0.224 0,-0.084 0,-0.183 0,-0.282 0,-0.51 0.062,-1.15 0.187,-1.931 0.13,-0.776 0.302,-1.599 0.515,-2.468 0.214,-0.87 0.459,-1.734 0.74,-2.593 0.276,-0.859 0.573,-1.619 0.875,-2.281 0.619,-1.354 1.26,-2.556 1.916,-3.603 0.656,-1.046 1.296,-1.958 1.926,-2.739 0.63,-0.775 1.239,-1.426 1.817,-1.957 0.578,-0.531 1.099,-0.958 1.562,-1.281 0.464,-0.328 0.854,-0.563 1.177,-0.703 0.318,-0.141 0.542,-0.214 0.661,-0.214 0.193,0.073 0.391,0.177 0.589,0.313 0.198,0.135 0.385,0.281 0.557,0.437 0.172,0.151 0.328,0.302 0.458,0.448 0.13,0.146 0.229,0.255 0.292,0.328 0.078,0.083 0.13,0.161 0.156,0.234 0.026,0.078 0.041,0.177 0.041,0.302 0,0.24 -0.062,0.578 -0.182,1.005 -0.125,0.427 -0.354,0.969 -0.687,1.625 -0.339,0.656 -0.802,1.442 -1.395,2.358 -0.599,0.912 -1.375,1.979 -2.328,3.203 -0.448,0.567 -0.921,1.15 -1.421,1.739 -0.427,0.505 -0.917,1.062 -1.479,1.661 -0.557,0.598 -1.135,1.176 -1.724,1.723 -0.291,1.119 -0.499,2.104 -0.619,2.963 -0.115,0.854 -0.172,1.52 -0.172,1.994 0,0.317 0.026,0.521 0.073,0.614 0.052,0.089 0.125,0.136 0.213,0.136zm2.442 -11.185c-0.171,0.391 -0.333,0.766 -0.479,1.13 -0.145,0.37 -0.286,0.729 -0.421,1.083 0.317,-0.354 0.604,-0.697 0.864,-1.02 0.26,-0.328 0.479,-0.604 0.661,-0.838 0.214,-0.276 0.412,-0.537 0.583,-0.782 0.709,-0.994 1.328,-1.91 1.844,-2.743 0.52,-0.834 0.947,-1.568 1.28,-2.203 0.339,-0.635 0.584,-1.166 0.74,-1.588 0.161,-0.422 0.239,-0.724 0.239,-0.906 0,-0.052 -0.005,-0.088 -0.01,-0.115 -0.005,-0.026 -0.031,-0.041 -0.083,-0.041 -0.089,0 -0.297,0.151 -0.625,0.453 -0.323,0.297 -0.724,0.776 -1.198,1.426 -0.474,0.651 -0.999,1.479 -1.588,2.494 -0.583,1.011 -1.187,2.229 -1.807,3.65zm13.215 8.498c-0.937,0.916 -1.822,1.687 -2.65,2.307 -0.828,0.619 -1.619,1.114 -2.369,1.494 -0.755,0.375 -1.474,0.645 -2.161,0.807 -0.687,0.161 -1.354,0.245 -2.005,0.245 -0.276,0 -0.578,-0.105 -0.916,-0.308 -0.333,-0.203 -0.646,-0.447 -0.937,-0.739 -0.292,-0.286 -0.531,-0.593 -0.724,-0.906 -0.193,-0.318 -0.292,-0.583 -0.292,-0.807 0,-0.838 0.115,-1.598 0.344,-2.296 0.229,-0.698 0.531,-1.328 0.906,-1.885 0.38,-0.562 0.807,-1.052 1.291,-1.479 0.485,-0.427 0.984,-0.786 1.51,-1.067 0.526,-0.287 1.047,-0.5 1.562,-0.641 0.521,-0.145 1,-0.213 1.437,-0.213 0.313,0 0.625,0.088 0.938,0.271 0.307,0.182 0.593,0.406 0.843,0.671 0.255,0.266 0.464,0.542 0.62,0.834 0.156,0.291 0.234,0.541 0.234,0.754 0,0.344 -0.141,0.698 -0.432,1.063 -0.292,0.359 -0.698,0.729 -1.229,1.104 -0.526,0.374 -1.166,0.76 -1.906,1.15 -0.744,0.391 -1.562,0.786 -2.457,1.182 -0.031,0.245 -0.047,0.484 -0.047,0.719 0,0.312 0.073,0.526 0.208,0.64 0.136,0.109 0.396,0.167 0.771,0.167 0.671,0 1.302,-0.11 1.9,-0.334 0.594,-0.223 1.167,-0.515 1.713,-0.869 0.552,-0.359 1.078,-0.765 1.588,-1.224 0.511,-0.458 1.011,-0.916 1.51,-1.385l0.75 0.745zm-5.373 -3.811c-0.203,0 -0.427,0.109 -0.672,0.328 -0.239,0.218 -0.484,0.505 -0.729,0.859 -0.245,0.359 -0.479,0.765 -0.703,1.228 -0.224,0.464 -0.416,0.943 -0.578,1.443 0.375,-0.245 0.745,-0.505 1.104,-0.776 0.359,-0.276 0.682,-0.562 0.969,-0.864 0.286,-0.297 0.515,-0.61 0.687,-0.922 0.172,-0.318 0.26,-0.63 0.26,-0.948 0,-0.088 -0.031,-0.171 -0.083,-0.244 -0.057,-0.068 -0.141,-0.104 -0.255,-0.104zm12.97 8.695c-0.182,0 -0.391,-0.057 -0.625,-0.177 -0.234,-0.115 -0.474,-0.276 -0.719,-0.474 -0.239,-0.198 -0.479,-0.432 -0.708,-0.698 -0.229,-0.27 -0.416,-0.552 -0.572,-0.848 -0.058,-0.115 -0.099,-0.24 -0.12,-0.38 -0.021,-0.146 -0.031,-0.329 -0.031,-0.552 0,-0.578 0.088,-1.162 0.265,-1.745 0.182,-0.588 0.427,-1.145 0.74,-1.671 0.317,-0.531 0.697,-1.026 1.14,-1.489 0.442,-0.464 0.921,-0.859 1.442,-1.198 0.516,-0.333 1.073,-0.599 1.661,-0.791 0.588,-0.193 1.187,-0.292 1.802,-0.292 0.088,0 0.213,0.052 0.369,0.146 0.162,0.099 0.328,0.229 0.516,0.391 0.182,0.161 0.364,0.343 0.552,0.546 0.192,0.203 0.359,0.412 0.515,0.62 0.151,0.208 0.276,0.411 0.37,0.609 0.099,0.198 0.146,0.375 0.146,0.526 -0.052,0.193 -0.209,0.406 -0.474,0.635 -0.261,0.229 -0.573,0.443 -0.937,0.641 -0.36,0.197 -0.74,0.364 -1.135,0.494 -0.396,0.13 -0.745,0.198 -1.037,0.198 -0.172,0 -0.26,-0.052 -0.26,-0.151 0,-0.114 0.078,-0.276 0.229,-0.495 0.151,-0.218 0.323,-0.458 0.51,-0.718 0.188,-0.26 0.36,-0.521 0.511,-0.776 0.151,-0.26 0.229,-0.484 0.229,-0.666 0,-0.089 -0.021,-0.167 -0.068,-0.229 -0.047,-0.063 -0.109,-0.089 -0.193,-0.089 -0.223,0 -0.458,0.099 -0.697,0.302 -0.245,0.203 -0.49,0.474 -0.735,0.807 -0.244,0.338 -0.479,0.724 -0.702,1.156 -0.224,0.432 -0.417,0.875 -0.589,1.333 -0.166,0.458 -0.302,0.916 -0.401,1.374 -0.104,0.459 -0.156,0.875 -0.156,1.25 0,0.224 0.068,0.38 0.203,0.464 0.13,0.088 0.333,0.13 0.609,0.13 0.682,0 1.338,-0.115 1.974,-0.344 0.635,-0.229 1.244,-0.521 1.833,-0.885 0.583,-0.359 1.14,-0.766 1.666,-1.213 0.531,-0.448 1.031,-0.891 1.499,-1.338 0.11,0.13 0.245,0.26 0.412,0.385 0.161,0.13 0.281,0.239 0.364,0.328 -0.63,0.661 -1.302,1.291 -2.005,1.885 -0.708,0.593 -1.452,1.114 -2.233,1.557 -0.786,0.442 -1.609,0.791 -2.468,1.051 -0.859,0.261 -1.755,0.391 -2.692,0.391zm10.497 -2.687c0,0.307 0.109,0.458 0.333,0.458 0.234,0 0.547,-0.187 0.932,-0.557 0.385,-0.369 0.786,-0.838 1.203,-1.411 -0.016,-0.109 -0.032,-0.208 -0.037,-0.297 -0.005,-0.088 -0.005,-0.166 -0.005,-0.234 0,-0.203 0.021,-0.448 0.068,-0.729 0.047,-0.276 0.161,-0.593 0.343,-0.953 0.12,-0.27 0.266,-0.541 0.443,-0.807 0.141,-0.234 0.312,-0.484 0.515,-0.755 0.204,-0.27 0.427,-0.52 0.672,-0.755l0.094 -0.093c0.099,0.125 0.234,0.291 0.401,0.499 0.172,0.209 0.338,0.422 0.505,0.641 0.166,0.219 0.317,0.416 0.442,0.599 0.131,0.187 0.209,0.312 0.235,0.385 0,0.437 -0.078,0.875 -0.235,1.312 -0.156,0.437 -0.369,0.87 -0.635,1.297 0.615,-0.042 1.182,-0.198 1.703,-0.469 0.526,-0.271 1.072,-0.708 1.64,-1.317 0.094,0.088 0.213,0.213 0.359,0.375 0.146,0.156 0.266,0.291 0.359,0.4 -0.427,0.448 -0.848,0.818 -1.26,1.115 -0.411,0.296 -0.822,0.531 -1.234,0.703 -0.411,0.171 -0.833,0.296 -1.26,0.374 -0.427,0.073 -0.864,0.115 -1.312,0.115 -0.343,0.365 -0.718,0.698 -1.114,1.005 -0.396,0.307 -0.802,0.567 -1.213,0.791 -0.411,0.224 -0.818,0.401 -1.229,0.521 -0.406,0.12 -0.791,0.182 -1.156,0.182 -0.307,0 -0.62,-0.088 -0.948,-0.276 -0.322,-0.182 -0.619,-0.406 -0.885,-0.677 -0.26,-0.27 -0.479,-0.557 -0.656,-0.864 -0.172,-0.302 -0.26,-0.573 -0.26,-0.807 0,-0.771 0.109,-1.541 0.318,-2.301 0.208,-0.766 0.531,-1.479 0.973,-2.146 0.443,-0.666 1.005,-1.254 1.692,-1.759 0.688,-0.511 1.505,-0.896 2.448,-1.162 0.031,-0.02 0.088,-0.036 0.161,-0.046 0.078,-0.011 0.141,-0.016 0.193,-0.016 0.14,0 0.291,0.057 0.447,0.161 0.162,0.11 0.308,0.229 0.443,0.36 0.141,0.13 0.255,0.26 0.344,0.39 0.093,0.125 0.14,0.208 0.14,0.25 -0.021,0.052 -0.099,0.115 -0.229,0.193 -0.135,0.073 -0.312,0.203 -0.536,0.385 -0.224,0.188 -0.49,0.448 -0.792,0.786 -0.307,0.344 -0.64,0.792 -1.01,1.354 -0.546,0.823 -0.916,1.567 -1.114,2.234 -0.193,0.666 -0.286,1.182 -0.286,1.546zm12.72 -5.811c-0.12,0.323 -0.24,0.656 -0.365,0.99 -0.119,0.338 -0.244,0.682 -0.364,1.041 0.64,-0.734 1.192,-1.333 1.656,-1.796 0.463,-0.458 0.854,-0.823 1.171,-1.088 0.323,-0.266 0.583,-0.448 0.781,-0.542 0.198,-0.099 0.354,-0.146 0.464,-0.146 0.13,0 0.328,0.068 0.593,0.198 0.266,0.13 0.531,0.297 0.802,0.49 0.271,0.192 0.505,0.39 0.703,0.593 0.198,0.203 0.297,0.38 0.297,0.536 0,0.032 -0.005,0.068 -0.016,0.115 -0.01,0.042 -0.026,0.104 -0.047,0.172 -0.078,0.255 -0.182,0.557 -0.312,0.9 -0.125,0.349 -0.261,0.703 -0.401,1.078 -0.146,0.37 -0.286,0.74 -0.427,1.115 -0.146,0.369 -0.271,0.718 -0.385,1.041 -0.11,0.328 -0.203,0.609 -0.271,0.854 -0.073,0.245 -0.109,0.422 -0.109,0.536 0,0.063 0.031,0.089 0.093,0.089 0.11,0 0.276,-0.063 0.5,-0.198 0.224,-0.13 0.484,-0.302 0.771,-0.516 0.291,-0.213 0.593,-0.448 0.911,-0.703 0.312,-0.255 0.614,-0.505 0.906,-0.755 0.291,-0.249 0.552,-0.473 0.786,-0.676 0.234,-0.203 0.411,-0.36 0.531,-0.459 0.104,0.089 0.214,0.209 0.339,0.349 0.119,0.141 0.239,0.276 0.349,0.396 -0.224,0.224 -0.506,0.5 -0.839,0.817 -0.333,0.323 -0.698,0.651 -1.088,0.984 -0.396,0.334 -0.802,0.672 -1.224,1.005 -0.421,0.339 -0.827,0.636 -1.228,0.901 -0.396,0.266 -0.766,0.479 -1.115,0.641 -0.343,0.166 -0.635,0.244 -0.864,0.244 -0.156,0 -0.349,-0.052 -0.583,-0.161 -0.234,-0.104 -0.458,-0.24 -0.677,-0.396 -0.219,-0.156 -0.406,-0.333 -0.557,-0.526 -0.151,-0.192 -0.229,-0.38 -0.229,-0.562 0.088,-0.417 0.213,-0.89 0.375,-1.422 0.156,-0.525 0.328,-1.067 0.51,-1.624 0.182,-0.552 0.375,-1.104 0.573,-1.645 0.198,-0.547 0.385,-1.047 0.572,-1.505l-0.031 0.031c-0.192,0.234 -0.474,0.542 -0.833,0.922 -0.359,0.385 -0.771,0.869 -1.229,1.468 -0.458,0.594 -0.937,1.312 -1.447,2.15 -0.51,0.839 -1.005,1.833 -1.495,2.979 -0.062,0.145 -0.119,0.255 -0.166,0.338 -0.052,0.078 -0.151,0.12 -0.292,0.12 -0.172,0 -0.369,-0.047 -0.588,-0.141 -0.219,-0.099 -0.443,-0.224 -0.672,-0.385 -0.229,-0.156 -0.458,-0.333 -0.687,-0.526 -0.229,-0.192 -0.432,-0.385 -0.614,-0.578 0,-0.062 0.026,-0.234 0.083,-0.52 0.057,-0.282 0.135,-0.641 0.234,-1.073 0.104,-0.432 0.229,-0.927 0.38,-1.479 0.156,-0.557 0.328,-1.14 0.521,-1.749 0.193,-0.61 0.406,-1.234 0.635,-1.869 0.229,-0.636 0.474,-1.25 0.739,-1.839 0.427,0.204 0.901,0.453 1.427,0.75 0.521,0.292 1.005,0.641 1.453,1.036zm10.085 5.811c0,0.307 0.11,0.458 0.334,0.458 0.234,0 0.546,-0.187 0.932,-0.557 0.385,-0.369 0.786,-0.838 1.202,-1.411 -0.015,-0.109 -0.031,-0.208 -0.036,-0.297 -0.005,-0.088 -0.005,-0.166 -0.005,-0.234 0,-0.203 0.021,-0.448 0.067,-0.729 0.047,-0.276 0.162,-0.593 0.344,-0.953 0.12,-0.27 0.266,-0.541 0.443,-0.807 0.14,-0.234 0.312,-0.484 0.515,-0.755 0.203,-0.27 0.427,-0.52 0.672,-0.755l0.093 -0.093c0.099,0.125 0.235,0.291 0.401,0.499 0.172,0.209 0.339,0.422 0.505,0.641 0.167,0.219 0.318,0.416 0.443,0.599 0.13,0.187 0.208,0.312 0.234,0.385 0,0.437 -0.078,0.875 -0.234,1.312 -0.156,0.437 -0.37,0.87 -0.635,1.297 0.614,-0.042 1.182,-0.198 1.702,-0.469 0.526,-0.271 1.073,-0.708 1.641,-1.317 0.093,0.088 0.213,0.213 0.359,0.375 0.146,0.156 0.265,0.291 0.359,0.4 -0.427,0.448 -0.849,0.818 -1.26,1.115 -0.411,0.296 -0.823,0.531 -1.234,0.703 -0.411,0.171 -0.833,0.296 -1.26,0.374 -0.427,0.073 -0.864,0.115 -1.312,0.115 -0.344,0.365 -0.719,0.698 -1.114,1.005 -0.396,0.307 -0.802,0.567 -1.213,0.791 -0.412,0.224 -0.818,0.401 -1.229,0.521 -0.406,0.12 -0.792,0.182 -1.156,0.182 -0.307,0 -0.62,-0.088 -0.948,-0.276 -0.323,-0.182 -0.619,-0.406 -0.885,-0.677 -0.26,-0.27 -0.479,-0.557 -0.656,-0.864 -0.172,-0.302 -0.26,-0.573 -0.26,-0.807 0,-0.771 0.109,-1.541 0.317,-2.301 0.208,-0.766 0.531,-1.479 0.974,-2.146 0.442,-0.666 1.005,-1.254 1.692,-1.759 0.687,-0.511 1.505,-0.896 2.447,-1.162 0.032,-0.02 0.089,-0.036 0.162,-0.046 0.078,-0.011 0.14,-0.016 0.192,-0.016 0.141,0 0.292,0.057 0.448,0.161 0.162,0.11 0.307,0.229 0.443,0.36 0.14,0.13 0.255,0.26 0.343,0.39 0.094,0.125 0.141,0.208 0.141,0.25 -0.021,0.052 -0.099,0.115 -0.229,0.193 -0.136,0.073 -0.313,0.203 -0.536,0.385 -0.224,0.188 -0.49,0.448 -0.792,0.786 -0.307,0.344 -0.64,0.792 -1.01,1.354 -0.547,0.823 -0.916,1.567 -1.114,2.234 -0.193,0.666 -0.287,1.182 -0.287,1.546z"/>
   <path class="fil2" d="M140.402 28.555c0.234,-0.224 0.5,-0.474 0.796,-0.76 0.302,-0.287 0.604,-0.594 0.901,-0.933 0.302,-0.333 0.583,-0.697 0.839,-1.082 0.26,-0.386 0.468,-0.802 0.619,-1.25 0.042,-0.234 0.104,-0.479 0.193,-0.74 0.083,-0.26 0.182,-0.494 0.286,-0.708 0.109,-0.213 0.214,-0.395 0.312,-0.536 0.105,-0.14 0.198,-0.213 0.276,-0.213 0.125,0.073 0.308,0.208 0.552,0.406 0.245,0.198 0.485,0.406 0.729,0.63 0.245,0.224 0.464,0.432 0.651,0.619 0.188,0.188 0.281,0.302 0.281,0.344 -0.119,0.469 -0.182,0.89 -0.177,1.265 0.006,0.375 0.037,0.75 0.094,1.114 0.057,0.365 0.115,0.755 0.182,1.167 0.068,0.411 0.099,0.885 0.099,1.426 0,0.323 -0.052,0.698 -0.161,1.12 -0.104,0.422 -0.292,0.802 -0.557,1.14 0.52,-0.307 1.036,-0.651 1.541,-1.031 0.51,-0.38 0.963,-0.739 1.359,-1.078 0.468,-0.395 0.916,-0.791 1.343,-1.187l0.687 0.745c-0.338,0.318 -0.702,0.651 -1.093,1.01 -0.39,0.354 -0.797,0.703 -1.218,1.052 -0.422,0.343 -0.854,0.677 -1.292,0.989 -0.437,0.318 -0.869,0.594 -1.296,0.838 -0.427,0.245 -0.838,0.438 -1.234,0.583 -0.396,0.141 -0.771,0.214 -1.114,0.214 -0.297,0 -0.62,-0.073 -0.974,-0.214 -0.359,-0.145 -0.692,-0.317 -1.01,-0.52 -0.313,-0.203 -0.589,-0.417 -0.823,-0.641 -0.234,-0.223 -0.37,-0.411 -0.411,-0.562 0,-0.021 0.021,-0.068 0.062,-0.13 0.037,-0.068 0.089,-0.135 0.141,-0.208 0.057,-0.073 0.114,-0.136 0.172,-0.188 0.052,-0.057 0.099,-0.088 0.13,-0.088 0.057,0 0.182,0.047 0.364,0.14 0.183,0.089 0.49,0.136 0.917,0.136 0.234,0 0.432,-0.063 0.599,-0.183 0.171,-0.119 0.307,-0.286 0.421,-0.489 0.11,-0.203 0.193,-0.437 0.245,-0.698 0.052,-0.265 0.073,-0.546 0.073,-0.843 0,-0.427 -0.016,-0.838 -0.057,-1.239 -0.042,-0.407 -0.089,-0.792 -0.141,-1.172 -0.172,0.208 -0.37,0.422 -0.593,0.646 -0.224,0.218 -0.448,0.442 -0.677,0.661 -0.229,0.219 -0.459,0.432 -0.688,0.64 -0.229,0.209 -0.437,0.396 -0.619,0.557l-0.729 -0.749zm11.439 5.342c-0.182,0 -0.39,-0.057 -0.625,-0.177 -0.234,-0.115 -0.474,-0.276 -0.718,-0.474 -0.24,-0.198 -0.479,-0.432 -0.708,-0.698 -0.229,-0.27 -0.417,-0.552 -0.573,-0.848 -0.057,-0.115 -0.099,-0.24 -0.12,-0.38 -0.021,-0.146 -0.031,-0.329 -0.031,-0.552 0,-0.578 0.088,-1.162 0.265,-1.745 0.183,-0.588 0.427,-1.145 0.74,-1.671 0.317,-0.531 0.697,-1.026 1.14,-1.489 0.443,-0.464 0.922,-0.859 1.442,-1.198 0.516,-0.333 1.073,-0.599 1.661,-0.791 0.589,-0.193 1.187,-0.292 1.802,-0.292 0.088,0 0.213,0.052 0.37,0.146 0.161,0.099 0.328,0.229 0.515,0.391 0.182,0.161 0.364,0.343 0.552,0.546 0.192,0.203 0.359,0.412 0.515,0.62 0.151,0.208 0.276,0.411 0.37,0.609 0.099,0.198 0.146,0.375 0.146,0.526 -0.052,0.193 -0.208,0.406 -0.474,0.635 -0.26,0.229 -0.573,0.443 -0.937,0.641 -0.359,0.197 -0.74,0.364 -1.135,0.494 -0.396,0.13 -0.745,0.198 -1.036,0.198 -0.172,0 -0.261,-0.052 -0.261,-0.151 0,-0.114 0.078,-0.276 0.229,-0.495 0.151,-0.218 0.323,-0.458 0.511,-0.718 0.187,-0.26 0.359,-0.521 0.51,-0.776 0.151,-0.26 0.229,-0.484 0.229,-0.666 0,-0.089 -0.021,-0.167 -0.068,-0.229 -0.047,-0.063 -0.109,-0.089 -0.192,-0.089 -0.224,0 -0.459,0.099 -0.698,0.302 -0.245,0.203 -0.49,0.474 -0.734,0.807 -0.245,0.338 -0.479,0.724 -0.703,1.156 -0.224,0.432 -0.417,0.875 -0.589,1.333 -0.166,0.458 -0.302,0.916 -0.4,1.374 -0.105,0.459 -0.157,0.875 -0.157,1.25 0,0.224 0.068,0.38 0.203,0.464 0.131,0.088 0.334,0.13 0.61,0.13 0.682,0 1.338,-0.115 1.973,-0.344 0.635,-0.229 1.244,-0.521 1.833,-0.885 0.583,-0.359 1.14,-0.766 1.666,-1.213 0.531,-0.448 1.031,-0.891 1.499,-1.338 0.11,0.13 0.245,0.26 0.412,0.385 0.161,0.13 0.281,0.239 0.364,0.328 -0.63,0.661 -1.301,1.291 -2.004,1.885 -0.708,0.593 -1.453,1.114 -2.234,1.557 -0.786,0.442 -1.609,0.791 -2.468,1.051 -0.859,0.261 -1.755,0.391 -2.692,0.391zm10.497 -2.687c0,0.307 0.109,0.458 0.333,0.458 0.234,0 0.547,-0.187 0.932,-0.557 0.385,-0.369 0.786,-0.838 1.203,-1.411 -0.016,-0.109 -0.031,-0.208 -0.037,-0.297 -0.005,-0.088 -0.005,-0.166 -0.005,-0.234 0,-0.203 0.021,-0.448 0.068,-0.729 0.047,-0.276 0.161,-0.593 0.344,-0.953 0.119,-0.27 0.265,-0.541 0.442,-0.807 0.141,-0.234 0.313,-0.484 0.516,-0.755 0.203,-0.27 0.427,-0.52 0.671,-0.755l0.094 -0.093c0.099,0.125 0.234,0.291 0.401,0.499 0.172,0.209 0.338,0.422 0.505,0.641 0.167,0.219 0.318,0.416 0.443,0.599 0.13,0.187 0.208,0.312 0.234,0.385 0,0.437 -0.078,0.875 -0.234,1.312 -0.157,0.437 -0.37,0.87 -0.636,1.297 0.615,-0.042 1.182,-0.198 1.703,-0.469 0.526,-0.271 1.073,-0.708 1.64,-1.317 0.094,0.088 0.214,0.213 0.359,0.375 0.146,0.156 0.266,0.291 0.36,0.4 -0.427,0.448 -0.849,0.818 -1.26,1.115 -0.412,0.296 -0.823,0.531 -1.234,0.703 -0.412,0.171 -0.834,0.296 -1.26,0.374 -0.427,0.073 -0.865,0.115 -1.312,0.115 -0.344,0.365 -0.719,0.698 -1.115,1.005 -0.396,0.307 -0.802,0.567 -1.213,0.791 -0.411,0.224 -0.817,0.401 -1.229,0.521 -0.406,0.12 -0.791,0.182 -1.156,0.182 -0.307,0 -0.619,-0.088 -0.947,-0.276 -0.323,-0.182 -0.62,-0.406 -0.885,-0.677 -0.261,-0.27 -0.479,-0.557 -0.656,-0.864 -0.172,-0.302 -0.261,-0.573 -0.261,-0.807 0,-0.771 0.11,-1.541 0.318,-2.301 0.208,-0.766 0.531,-1.479 0.973,-2.146 0.443,-0.666 1.005,-1.254 1.693,-1.759 0.687,-0.511 1.504,-0.896 2.447,-1.162 0.031,-0.02 0.088,-0.036 0.161,-0.046 0.078,-0.011 0.141,-0.016 0.193,-0.016 0.14,0 0.291,0.057 0.448,0.161 0.161,0.11 0.307,0.229 0.442,0.36 0.141,0.13 0.255,0.26 0.344,0.39 0.094,0.125 0.14,0.208 0.14,0.25 -0.02,0.052 -0.098,0.115 -0.229,0.193 -0.135,0.073 -0.312,0.203 -0.536,0.385 -0.224,0.188 -0.489,0.448 -0.791,0.786 -0.308,0.344 -0.641,0.792 -1.01,1.354 -0.547,0.823 -0.917,1.567 -1.115,2.234 -0.192,0.666 -0.286,1.182 -0.286,1.546z"/>
  </g>
 </g>
</svg>
