<?xml version="1.0" encoding="UTF-8"?>
<!DOCTYPE svg PUBLIC "-//W3C//DTD SVG 1.1//EN" "http://www.w3.org/Graphics/SVG/1.1/DTD/svg11.dtd">
<!-- Creator: CorelDRAW 2021 (64-Bit) -->
<svg xmlns="http://www.w3.org/2000/svg" xml:space="preserve" width="211px" height="60px" version="1.1" style="shape-rendering:geometricPrecision; text-rendering:geometricPrecision; image-rendering:optimizeQuality; fill-rule:evenodd; clip-rule:evenodd"
viewBox="0 0 12.759 3.63"
 xmlns:xlink="http://www.w3.org/1999/xlink"
 xmlns:xodm="http://www.corel.com/coreldraw/odm/2003">
 <defs>
  <style type="text/css">
   <![CDATA[
    .fil1 {fill:#2E4562}
    .fil2 {fill:#2E4562;fill-rule:nonzero}
    .fil0 {fill:url(#id0)}
   ]]>
  </style>
  <linearGradient id="id0" gradientUnits="userSpaceOnUse" x1="12.758" y1="2.678" x2="2.488" y2="2.678">
   <stop offset="0" style="stop-opacity:1; stop-color:#F58634"/>
   <stop offset="1" style="stop-opacity:1; stop-color:#FEBF2C"/>
  </linearGradient>
 </defs>
 <g id="Layer_x0020_1">
  <metadata id="CorelCorpID_0Corel-Layer"/>
  <g id="_1792596178032">
   <path class="fil0" d="M2.521 2.553c-0.001,-0.006 -0.018,0.006 -0.015,-0.004 0.018,-0.002 0.043,-0.002 0.056,-0.002 0.004,0.01 -0.029,0 -0.034,0.005 0.027,0.011 0.08,-0.005 0.1,0.005 -0.015,-0.005 0.031,-0.007 0.04,-0.013 0.012,0.005 0,0.003 0.002,0.009 0.022,0.002 0.007,-0.007 0.034,-0.005 -0.001,0.005 -0.024,0.005 -0.018,0.012 -0.014,0 -0.025,-0.001 -0.029,-0.004 -0.015,0.001 -0.013,0.007 -0.02,0.01 0.028,0.009 0.08,-0.003 0.099,-0.003 -0.003,-0.003 -0.018,-0.002 -0.029,-0.002 0.034,-0.014 0.079,-0.003 0.115,0.006 0.019,-0.001 0.007,-0.01 0.033,-0.01 0,0.005 -0.019,0.003 -0.012,0.01 0.061,-0.007 0.148,-0.02 0.215,-0.017 -0.002,-0.007 -0.037,-0.002 -0.037,-0.01 0.02,0.001 0.048,0.001 0.052,0.009 0.043,-0.003 0.106,0.015 0.156,-0.002 -0.003,0.005 0.023,0.004 0.037,0.008 0.018,-0.002 0.01,-0.01 0.027,-0.003 0.017,-0.001 -0.014,-0.005 -0.01,-0.011 0.024,0 0.014,0.012 0.039,0.011 0.01,-0.002 0,-0.003 -0.008,-0.002 0.024,-0.008 0.129,0.01 0.147,-0.006l0.009 0.006c0.019,-0.003 0.055,0.002 0.085,0.002 0.025,0 -0.016,-0.006 0.006,-0.006 0.031,0.003 0.126,0.011 0.131,-0.013 0.003,0 0.005,0.001 0.007,0.001l0 -0.002c0.008,0.001 0.017,0.001 0.025,0.001 0.007,-0.002 0.012,-0.003 0.014,-0.004l-0.001 0c0.004,-0.006 -0.042,-0.011 -0.082,-0.012l0.016 -0.011c0.005,0.002 0.01,0.003 0.014,0.005l0.008 -0.005c-0.013,-0.004 -0.054,0.001 -0.078,0l0.013 -0.006c-0.033,0.005 -0.056,-0.002 -0.054,0.01 -0.015,-0.003 -0.023,-0.008 -0.045,-0.008 -0.01,0.001 0.003,0.003 0.001,0.007 -0.016,-0.004 -0.034,-0.007 -0.045,-0.012 -0.02,0.004 -0.072,0.018 -0.097,0.006 -0.016,0 -0.022,0.003 -0.019,0.008 -0.022,-0.005 -0.042,-0.002 -0.087,-0.002 -0.006,-0.009 0.026,-0.008 0.048,-0.008 -0.01,-0.009 -0.029,0.001 -0.05,-0.003 -0.008,0 -0.022,0.006 -0.006,0.006 -0.012,0.006 -0.046,0 -0.043,-0.007 -0.035,0.001 -0.062,-0.004 -0.085,0.004 -0.001,0.006 0.026,-0.006 0.023,0.004 -0.029,0.004 -0.047,-0.004 -0.079,-0.002 -0.01,0 0.004,0.003 0.002,0.006 -0.112,-0.01 -0.216,0.002 -0.32,-0.005 0.015,-0.002 0.026,-0.007 0.041,-0.003 -0.02,-0.009 0.013,-0.003 0.012,-0.011 0.012,0 0.017,0.003 0.016,0.008 0.023,-0.007 0.034,0.005 0.064,0.003 0.017,-0.001 -0.008,-0.006 -0.015,-0.006 0.008,-0.005 0.029,0.002 0.033,-0.005 0.059,0.002 0.095,0.008 0.149,-0.005l0.002 0.009c0.012,-0.004 0.018,-0.001 0.035,-0.001 0.014,-0.002 -0.019,-0.007 -0.024,-0.01 0.014,-0.003 0.028,-0.005 0.018,-0.014 0.015,-0.001 0.042,0.012 0.043,0.002 0.021,0.002 0,0.01 -0.003,0.013 0.029,0.005 0.04,-0.002 0.053,-0.013 0.011,0 0.027,0 0.028,-0.003 0.023,0.002 -0.006,0.006 -0.02,0.005 -0.028,0.021 0.078,0.019 0.093,0.004 0.029,0 -0.011,0.012 0.029,0.008 0,0.003 -0.011,0.002 -0.02,0.003 0.021,0.008 0.038,-0.009 0.057,-0.001 0.01,-0.003 -0.003,-0.004 0.004,-0.009 0.039,0.005 0.047,-0.005 0.079,0.002 -0.003,-0.009 0.029,-0.002 0.047,-0.012 0.015,0.005 -0.001,0.002 -0.006,0.006 0.015,0.005 0.053,-0.001 0.048,-0.008 0.031,0.001 0.007,0.007 0.031,0.009 0.03,-0.003 0.011,-0.01 0.041,-0.004 0.026,-0.007 -0.017,-0.009 -0.018,-0.014 0.022,-0.004 0.027,-0.003 0.043,0 0.005,-0.005 0.035,-0.004 0.04,-0.01 -0.003,-0.005 -0.012,0.004 -0.028,0.001 0.008,-0.012 0.009,-0.004 -0.01,-0.012 0.042,0.002 0.067,0 0.094,0.01 0.028,-0.01 0.066,-0.013 0.104,-0.016 -0.016,0.013 -0.088,0.005 -0.075,0.017 0.024,0.005 0.056,0.007 0.061,0.018 -0.031,0 -0.05,-0.011 -0.101,-0.01 0.011,0.006 0.045,0.005 0.058,0.01 -0.031,0.004 -0.101,-0.008 -0.148,0.001 0.009,0.004 0.04,0.011 0.018,0.018 0.022,0.007 0.056,0 0.1,-0.001l-0.01 -0.009c0.019,0.001 0.024,0.005 0.02,-0.004 0.011,0.003 0.025,0.005 0.044,0.005 0.01,0 0.007,-0.002 0,-0.004 0.044,0.002 0.091,0.003 0.156,0.002 0.007,0 0.004,-0.004 0.013,-0.005 -0.007,-0.003 -0.02,-0.004 -0.037,-0.003 0.034,-0.004 0.011,-0.01 -0.016,-0.011 -0.009,0.005 0.008,0.011 -0.018,0.014 -0.015,-0.003 0.006,-0.01 -0.011,-0.015 -0.023,0.002 -0.01,0.01 -0.019,0.012 -0.039,-0.006 -0.006,-0.021 -0.06,-0.016 -0.009,-0.008 0.028,-0.004 0.041,-0.006l0.009 0.009c0.066,0.002 0.048,-0.024 -0.018,-0.016 0.004,-0.002 0.008,-0.003 -0.001,-0.004 0.002,-0.002 0.059,-0.004 0.058,0.003 0.019,-0.002 -0.015,-0.008 0.005,-0.011 -0.053,0.004 -0.068,-0.006 -0.121,-0.002 0.003,0.005 -0.034,0.009 -0.019,0.01 -0.038,0 -0.08,-0.002 -0.121,-0.002 0.024,-0.003 0.032,-0.006 0.011,-0.013 0.022,-0.001 0.034,0.002 0.023,0.006 0.017,-0.004 0.043,-0.003 0.028,0.004 0.024,0.001 0.009,-0.008 0.027,-0.008 -0.003,-0.005 -0.048,0.003 -0.049,-0.002 -0.009,-0.009 0.029,-0.003 0.033,-0.009l-0.023 -0.005c0.01,0.005 -0.035,0.01 -0.062,0.005 0.03,0.008 0.011,0.007 -0.019,0.012 0.014,-0.014 -0.088,-0.009 -0.098,0.003 -0.029,0.003 -0.029,-0.004 -0.051,-0.003l0.02 -0.007c-0.008,-0.007 -0.017,0.003 -0.035,0.001 -0.01,0 -0.001,0.006 -0.013,0.007 0.014,0.001 0.026,0.004 0.044,0.005 -0.001,0.005 -0.009,0.009 -0.003,0.015 0.005,0.003 0.015,0.004 0.029,0.004 -0.03,-0.01 0.039,-0.002 0.047,-0.007 0,0.008 0.038,0.006 0.059,0.007 0.005,-0.007 -0.012,-0.006 -0.01,-0.011 0.03,0.002 0.013,0.007 0.025,0.015 -0.018,0 -0.037,0.001 -0.057,0.001 0.002,0.004 0.007,0.007 0.017,0.009l-0.027 0.007c-0.02,-0.002 0.021,-0.005 0.012,-0.012l-0.006 0.006c-0.004,-0.006 -0.047,-0.008 -0.035,0.003 -0.019,0 -0.019,-0.005 -0.023,-0.009 -0.028,0 -0.048,0.007 -0.064,0 -0.01,0 0.003,0.002 0.001,0.006 -0.037,-0.008 -0.111,-0.004 -0.147,0.004 -0.048,-0.002 -0.068,0 -0.144,-0.005l0.01 0.009c-0.015,-0.009 -0.04,0 -0.052,-0.01 -0.005,0.002 -0.011,0.002 -0.021,0.002 -0.006,0.001 -0.018,0.008 -0.008,0.008 -0.017,0.004 -0.014,-0.009 -0.021,-0.011 0.012,-0.001 0.051,-0.007 0.058,0.003 0.016,-0.005 0.053,-0.004 0.069,-0.008 0.011,0 0.017,0.002 0.016,0.008 0.049,-0.008 0.104,-0.003 0.131,-0.015 -0.021,-0.002 -0.062,0 -0.106,0.001 0.004,-0.008 0.059,-0.003 0.075,-0.009 -0.008,-0.003 -0.044,0 -0.022,-0.008 -0.027,0.001 -0.025,0.003 -0.044,-0.001 0.045,0.002 0.083,-0.018 0.023,-0.02 -0.024,0.002 0.006,0.006 -0.011,0.011 -0.012,0 -0.016,-0.004 -0.015,-0.008 -0.022,0.008 -0.041,-0.004 -0.049,0.005 -0.029,-0.002 -0.001,-0.009 -0.011,-0.017 0.004,0.004 0.029,0.016 0.044,0.007 0,0 -0.035,-0.008 0.005,-0.006 -0.006,-0.005 -0.04,0 -0.036,-0.008 0.024,-0.003 0.03,0.003 0.042,-0.002 0.001,-0.003 -0.007,-0.003 -0.015,-0.003 0,-0.003 0.038,-0.002 0.041,-0.008 0.013,0.003 -0.007,0.006 0.009,0.01 0.014,-0.005 0.041,-0.002 0.043,0.004 0.013,-0.001 0.016,-0.004 0.013,-0.009 0.029,0.005 0.053,-0.002 0.078,0.004 0.002,0.005 -0.025,0.002 -0.034,0.004 0.01,0.018 0.051,-0.008 0.071,0l-0.02 0.005c0.007,0.003 0.024,0.003 0.036,0.006 0.01,-0.001 0.001,-0.007 0.012,-0.008l-0.014 0.001c-0.029,-0.004 0.02,-0.004 0.02,-0.007 0.003,0.001 0.014,0.01 -0.005,0.009 0,0.006 0.017,0.006 0.017,0.013 0.023,0 0.025,-0.005 0.049,-0.004 -0.006,-0.008 -0.021,0.001 -0.036,-0.004 0.002,-0.003 0.017,-0.002 0.028,-0.003 0.017,0.001 -0.007,-0.009 0.019,-0.007 0,0.005 -0.003,0.008 -0.012,0.01 0.007,0.008 0.047,0.005 0.079,0.004 0.006,-0.004 0.014,-0.01 -0.004,-0.018 0.017,0.001 0.032,0.009 0.017,0.014 0.014,0.005 0.038,-0.003 0.049,-0.004 -0.021,-0.001 -0.007,-0.007 -0.016,-0.009 0.016,-0.004 0.005,0.009 0.037,0.008 0.028,-0.004 -0.01,-0.016 0.032,-0.018l-0.036 0.003c-0.015,-0.001 -0.015,-0.003 -0.007,-0.007 -0.014,0 -0.014,0.003 -0.015,0.005 -0.014,0 -0.015,-0.002 -0.007,-0.006 -0.049,-0.004 -0.079,-0.003 -0.123,-0.006 -0.007,-0.006 0.009,-0.006 0.005,-0.011 0.037,0.009 0.062,-0.004 0.093,0.002 -0.027,-0.02 -0.123,-0.024 -0.183,-0.024 -0.007,0.005 -0.001,0.007 -0.011,0.013 -0.008,0 -0.019,-0.003 -0.008,-0.003 -0.01,-0.008 -0.018,0 -0.03,-0.006 0.001,-0.004 0.017,-0.003 0.028,-0.003 -0.034,-0.001 -0.083,-0.015 -0.093,-0.002 -0.012,-0.004 0.009,-0.008 0.004,-0.013 -0.077,0.004 -0.073,0.003 -0.162,0.003 0.022,-0.003 0.022,-0.011 -0.009,-0.006 -0.011,-0.01 0.036,-0.004 0.041,-0.01l-0.056 0.006c-0.01,-0.003 -0.025,-0.005 -0.03,-0.01 -0.01,0.003 -0.037,0.003 -0.034,0.009 -0.028,-0.003 -0.038,0 -0.064,-0.002 0.001,-0.005 0.017,-0.014 -0.016,-0.011 0.002,-0.004 0.018,-0.004 0.011,-0.012 0.02,0.004 0.061,0.006 0.07,-0.003 0.059,0.014 0.077,0.013 0.164,0.004l-0.013 0.007 0.008 0.003c0.015,-0.001 0.013,-0.007 0.011,-0.012 0.015,0 0.009,0.008 0.023,0.008 0.02,-0.002 0.008,-0.004 0.006,-0.009 0.029,0.013 0.056,-0.003 0.073,0.011 0.035,0.001 0.044,-0.006 0.069,-0.008 0.007,0.003 0.008,0.008 0.023,0.008 0.01,-0.006 -0.018,-0.011 -0.004,-0.017 0.013,0 0.01,0.006 0.03,0.003 -0.015,0.005 -0.017,0.013 0.016,0.011 -0.015,-0.007 -0.019,-0.012 0.01,-0.016 -0.013,0.014 0.038,0.008 0.051,0.005 0.012,0 -0.006,0.01 0.023,0.009 0.017,-0.01 -0.034,-0.018 -0.066,-0.012 0.019,-0.01 0.053,-0.002 0.07,-0.006 0.004,0.003 0.006,0.017 0.032,0.019 0.018,-0.002 0.03,-0.005 0.025,-0.014 -0.022,0.002 -0.012,0.008 -0.027,0.007 -0.037,-0.008 0.04,-0.011 -0.002,-0.013 0.005,-0.005 0.043,-0.001 0.062,-0.004 -0.001,0.005 -0.047,0.006 -0.017,0.017 0.024,0 0.036,-0.003 0.041,-0.008 0.004,0.005 0.055,0.004 0.048,-0.006 0.035,-0.001 0.079,0 0.075,-0.011 0.009,0 0.005,0.006 0.013,0.006 -0.041,0.008 -0.007,0.017 0.009,0.027 0.027,-0.005 0.01,-0.008 0.016,-0.018 0.02,0.004 0.053,0.003 0.066,0.009 0.058,-0.009 0.112,0 0.154,-0.01 0.001,-0.006 -0.028,-0.002 -0.023,-0.009l0.021 0c0.008,0 0.006,0.003 0.008,0.006 0.033,-0.001 0.04,-0.009 0.069,-0.011l-0.012 0.007c0.125,-0.004 0.185,0 0.311,-0.001 -0.026,-0.003 -0.047,-0.005 -0.065,-0.005 0.041,-0.018 0.115,0.004 0.16,-0.009 -0.014,-0.004 -0.025,-0.003 -0.016,-0.011 0.067,0.001 0.125,0.011 0.147,-0.008 -0.043,-0.001 -0.09,0.004 -0.089,-0.017 0.009,-0.001 0.019,-0.001 0.028,-0.001 -0.001,-0.01 -0.018,-0.014 -0.039,-0.017 -0.023,0 0.019,0.006 -0.006,0.007 -0.023,-0.021 -0.135,-0.026 -0.17,0 -0.026,-0.008 0.026,-0.013 0.046,-0.017 -0.01,-0.009 -0.047,-0.008 -0.061,-0.016 -0.013,0.007 -0.032,0.004 -0.033,0.01 -0.016,0 -0.003,-0.011 -0.017,-0.013 -0.016,0.002 -0.011,0.008 -0.034,0.007 -0.014,-0.012 -0.049,-0.001 -0.077,0.003 -0.045,-0.011 -0.116,-0.003 -0.145,-0.012 -0.022,0.003 -0.029,0.009 -0.054,0.01 -0.003,-0.005 -0.025,-0.004 -0.023,-0.01 -0.061,0.001 -0.077,0.004 -0.141,0.006 0,-0.006 0.022,-0.005 0.041,-0.006 -0.028,-0.003 -0.045,-0.01 -0.073,-0.013l-0.014 0.006c-0.012,-0.002 -0.028,-0.003 -0.03,-0.01 0.009,-0.006 0.042,0.004 0.034,-0.005 0.041,0.003 0.106,-0.001 0.103,-0.016 0.006,-0.006 0.009,0.004 0.003,0.006 0.026,-0.005 0.03,0.005 0.069,0.001 0.014,-0.001 0.004,-0.009 0.027,-0.007l-0.01 -0.009c0.031,0 0.094,0.002 0.105,-0.009 0.039,0.004 0.092,-0.004 0.129,0.008 0.023,-0.016 0.1,0.002 0.118,-0.013 0.012,0.002 0.009,0.01 0.017,0.013 0.002,-0.008 0.016,-0.009 0.021,0 0.062,-0.006 0.164,0.007 0.204,-0.008 0.02,0.009 0.086,0.008 0.114,0.002l-0.009 -0.007c0.083,-0.012 0.15,0.002 0.192,-0.022 -0.022,-0.008 -0.024,0.008 -0.054,0.005 0.055,-0.026 0.211,-0.003 0.284,-0.023 0.055,0.016 0.095,-0.016 0.122,0.002 0.012,-0.001 0.023,-0.003 0.026,-0.006 0.014,0.003 0.025,0.006 0.038,0.008 0.007,0 0.017,-0.004 0.006,-0.004 0.019,-0.004 0.034,-0.002 0.05,0.003 0.085,-0.004 0.143,-0.011 0.225,-0.006 0.054,-0.013 0.154,-0.005 0.219,-0.004 0.144,-0.013 0.29,0.002 0.394,-0.014 -0.002,0.005 0.013,0.004 0.009,0.01 0.022,0.001 0.021,-0.005 0.018,-0.011 0.025,0.002 0.015,0.006 0.024,0.01 0.01,-0.009 0.017,-0.005 0.042,-0.003 0.007,-0.01 -0.034,-0.002 -0.03,-0.01 0.026,0.004 0.087,0.005 0.08,0.013 0.024,0.002 0.023,-0.003 0.019,-0.009 0.085,-0.001 0.103,0.014 0.193,0.001 -0.009,0.003 -0.002,0.004 0.001,0.007 0.025,0.001 0.036,-0.003 0.041,-0.007 0.021,-0.003 0.02,0.005 0.036,0.005 0.036,-0.001 0.028,-0.013 0.068,-0.013 -0.02,0.012 0.051,0.003 0.066,0.01 0.022,-0.002 0.023,-0.01 0.047,-0.01l-0.019 0.007c0.074,0.001 0.096,-0.004 0.169,-0.002 0.034,0 0.079,-0.005 0.099,-0.003 0.023,0.001 0.032,0.009 0.052,0.009 0.036,0.002 0.101,-0.008 0.113,0.002 0.067,-0.007 0.135,-0.005 0.226,-0.006 0.004,-0.01 0.082,-0.002 0.099,0 0.02,-0.003 0.007,-0.004 0.005,-0.01 0.022,0.003 0.033,0.008 0.065,0.006 0.022,-0.003 0.007,-0.006 0.004,-0.011 0.015,-0.002 0.015,0.002 0.016,0.005 0.071,0.007 0.139,-0.016 0.205,-0.003 0.023,-0.008 0.099,0.006 0.117,-0.011 0.011,0.002 0.032,0.001 0.03,0.008 0.02,0 0.016,-0.007 0.027,-0.01 0.003,0.016 0.078,0 0.113,0 0.028,-0.001 0.062,0.011 0.084,-0.003 0.035,0.015 0.083,0.001 0.141,-0.001l0.005 -0.007c0.084,0.006 0.135,-0.005 0.19,-0.01 0.025,0 0.036,0.005 0.045,0.01 0.035,0.002 0.036,-0.006 0.061,-0.008 -0.002,0.011 0.059,-0.003 0.059,0.008 0.023,-0.008 0.064,-0.006 0.093,-0.005 0,0.001 0.042,0.005 0.056,0.005 0.022,0 0.034,-0.005 0.055,-0.006 0.023,-0.001 0.049,0.006 0.073,0.007 0.035,0.001 0.104,0.003 0.162,-0.002 0.011,0.005 0.016,0.004 0.009,0.011 0.051,-0.018 0.088,0 0.141,-0.004 -0.005,-0.006 -0.031,-0.005 -0.031,-0.012 0.026,0.017 0.128,0.001 0.185,0.003 -0.005,-0.009 -0.063,0 -0.059,-0.013 -0.026,0.013 -0.071,0.002 -0.112,0.007 0.106,-0.016 0.264,-0.018 0.348,-0.024 -0.037,-0.019 -0.172,0.009 -0.208,-0.013 -0.045,0.007 -0.052,0.005 -0.083,0.011 0.007,-0.006 0.003,-0.01 -0.017,-0.013 -0.039,0.018 -0.139,0 -0.159,0.018 -0.018,-0.011 -0.052,0 -0.071,-0.002l0.02 -0.006c-0.006,-0.011 -0.1,0 -0.091,0.005 -0.036,-0.011 -0.084,0 -0.134,0.006 -0.031,-0.008 -0.16,-0.013 -0.19,0.003 -0.012,-0.001 -0.016,-0.004 -0.015,-0.009 -0.076,0.003 -0.12,0.008 -0.199,0.001 0.065,-0.008 0.121,0.001 0.159,-0.013l-0.015 -0.006c-0.027,0.002 -0.029,0.002 -0.05,-0.001 -0.023,0.006 -0.066,0.011 -0.091,0.004 -0.018,0.011 -0.056,0.007 -0.082,0.016 0.017,-0.007 -0.022,-0.005 -0.043,-0.006 0.113,-0.017 0.238,-0.014 0.327,-0.024 0.016,0.002 0.046,0.012 0.057,0.001 0.02,0.002 0.026,0.008 0.045,0.01 -0.01,-0.004 0.007,-0.004 0.027,-0.01 0.012,0 0.005,0.007 0.022,0.007 0.029,0 0.011,-0.012 0.04,-0.011 -0.001,0.004 0.006,0.004 0.015,0.004 0.057,-0.017 0.187,-0.002 0.238,-0.01 0.059,0.009 0.12,-0.007 0.205,-0.001 0.033,-0.006 0.086,-0.012 0.1,-0.003 0.013,-0.001 0.021,-0.005 0.033,-0.007l-0.016 -0.007c0.013,0.008 0.032,0.001 0.051,0.001 0.082,0 0.201,-0.001 0.296,-0.001 0.001,0.008 -0.008,0.006 -0.026,0.005l-0.007 0.005 0.014 0c0.02,0.001 -0.009,0.006 0.01,0.008 0.04,-0.021 0.119,-0.003 0.183,-0.005l-0.012 -0.002c0.07,-0.012 0.17,-0.017 0.208,-0.007 0.021,0 0.003,-0.01 0.022,-0.01l0.004 0c-0.021,0.008 0.027,0.004 0.023,0.013 0.017,-0.004 0.037,-0.004 0.051,0.001 -0.022,0.005 0.015,0.008 0.024,0.011 0.016,-0.009 0.041,-0.01 0.068,-0.011 -0.001,0.005 -0.018,0.005 -0.028,0.003 -0.004,0.006 -0.011,0.008 0.004,0.017 0.014,-0.009 0.023,0.004 0.049,-0.004l0.009 0.005c-0.015,0.009 -0.016,0.019 -0.039,0.021l0.01 0.008c0.012,0 0.014,-0.003 0.028,-0.003 -0.001,0.006 0.01,0.007 0.029,0.006 -0.02,0.006 -0.01,0.013 0.004,0.017 -0.01,-0.001 -0.018,-0.001 -0.029,0.002 0.019,0.005 0.005,0.015 -0.016,0.017 0.008,0.007 0.017,-0.002 0.036,0l0.002 0.015c-0.028,-0.002 -0.026,0.006 -0.063,0.001 -0.007,0.006 -0.015,0.011 -0.025,0.015 -0.014,-0.004 -0.017,0 -0.035,0.001 -0.003,-0.007 -0.049,-0.005 -0.057,-0.003 0.007,0.003 0.012,0.006 0.03,0.006 -0.019,0.011 0.005,0.014 0.039,0.017 0.009,-0.003 0.013,-0.007 0.019,-0.01 0.015,0.016 0.073,0.004 0.095,0.015 0.018,-0.005 0.046,-0.02 0.01,-0.02 0.002,-0.007 0.042,-0.003 0.056,-0.002 0.008,0.008 -0.022,0.004 -0.027,0.008 0.002,0.006 0.04,0.007 0.01,0.011 0.013,0.001 0.021,0.005 0.037,0.006 -0.004,0.002 -0.007,0.003 0.001,0.004 -0.008,0.003 -0.048,0.009 -0.032,0.012 -0.031,0.005 -0.06,0 -0.099,0.005 0.007,0.006 0.028,0.002 0.043,0 -0.004,0.009 0.022,0.006 0.018,0.016 -0.005,0.002 -0.063,0.001 -0.041,0.007 -0.024,-0.002 -0.037,-0.003 -0.078,-0.002 -0.012,0.017 -0.068,0.012 -0.102,0.023 0.03,0.005 0.034,-0.006 0.071,-0.003 0.004,0.008 -0.025,0 -0.025,0.009 -0.007,-0.005 -0.017,-0.002 -0.006,0.008 -0.014,-0.001 -0.029,-0.004 -0.017,-0.009 -0.027,0.002 -0.037,0.003 -0.047,0.013 -0.034,-0.006 -0.053,0.006 -0.082,0.009 0.018,0.007 0.087,0.02 0.102,0.013 0.023,0.003 -0.016,0.009 -0.01,0.015 0.013,0.006 0.019,0.015 0.046,0.017l-0.001 -0.002c0.005,-0.007 0.019,0.002 0.035,-0.002 0.016,0.001 -0.002,-0.006 -0.008,-0.006l0.058 0.006c0.04,-0.011 0.152,-0.012 0.165,-0.023 0.008,-0.004 0.029,0.006 0.037,0.008l0.014 -0.002c0.01,-0.007 -0.033,-0.004 -0.009,-0.007 0.006,-0.001 0.011,-0.003 0.02,-0.003 0.007,0.019 0.126,0.001 0.163,-0.003 0.023,0.005 0.067,0.01 0.085,0 0.027,-0.002 0.003,0.001 0.009,0.005 0.019,-0.005 0.017,-0.003 0.047,-0.005 -0.034,-0.006 -0.025,-0.012 -0.047,-0.021 -0.014,0.005 -0.021,-0.001 -0.043,0.001 0.028,-0.007 0.071,-0.009 0.119,-0.01 0.006,0.005 0.024,0.011 0.011,0.016 0.02,0 0.024,-0.012 0.004,-0.011 0.004,-0.008 0.064,0.004 0.029,0.003 0.008,0.006 0.021,-0.003 0.042,-0.001 0.012,0.012 0.035,0.021 0.084,0.024 -0.012,0.01 -0.106,-0.003 -0.12,-0.001 0.022,0.005 0.036,0.012 0.073,0.011 -0.002,0.008 -0.035,0.009 -0.055,0.008 0.008,0.01 0.04,0.003 0.066,0.01 -0.011,0.005 -0.067,0.006 -0.064,-0.003 -0.036,0.002 -0.018,0.016 -0.061,0.011 0.018,0.004 0.032,0.009 0.059,0.012 -0.004,0.002 -0.008,0.004 0.001,0.004l-0.027 0.007c0.007,0.008 0.03,0.01 0.039,0.017 0.055,-0.005 0.111,0 0.178,-0.003 -0.015,0.005 0.01,0.008 0.023,0.011 -0.022,-0.008 0.001,-0.004 -0.003,-0.016 0.007,0.01 0.032,0.007 0.05,0.008 0.011,0.005 -0.018,0.01 0.003,0.011l-0.02 0.005c-0.01,0.009 0.031,-0.001 0.03,0.006 0.002,0.007 -0.028,0.004 -0.035,0.003 -0.027,0.002 0.008,0.021 -0.03,0.02l-0.002 -0.008c-0.038,0.002 0.004,0.012 -0.025,0.016 0.007,0.006 0.01,-0.005 0.028,-0.003 0.005,0.011 -0.048,0.005 -0.046,0.014 0.01,0.005 0.025,0.007 0.044,0.008 -0.002,0.01 0.019,0.039 0.084,0.024 -0.012,-0.002 -0.019,-0.005 -0.037,-0.005 0.013,-0.005 0.052,0 0.07,0 -0.024,0.006 0.008,0.018 -0.008,0.025 -0.015,-0.002 -0.029,-0.004 -0.043,-0.006 -0.022,0.001 -0.036,0.003 -0.041,0.008 0.024,0.003 0.054,0.002 0.078,0 -0.021,0.013 -0.052,0.003 -0.092,0.005l0.009 0.004c0.007,0.005 -0.036,-0.008 -0.052,-0.01 -0.026,0.006 -0.007,0.017 -0.039,0.017 0.014,0.004 0.03,0.008 0.058,0.007 -0.008,0.007 -0.03,-0.001 -0.049,0.001 -0.011,0.004 -0.01,0.011 -0.024,0.014l0.007 0.005c0.019,-0.004 0.086,-0.013 0.098,-0.015l-0.002 0.001 0.009 0.006c0.023,-0.001 0.029,-0.007 0.063,-0.005 0.005,0.006 -0.011,0.006 -0.005,0.013 0.014,0 0.016,-0.005 0.009,-0.005 0.018,-0.002 0.068,0.004 0.082,-0.002 -0.009,-0.003 -0.009,-0.01 -0.031,-0.008 -0.017,0.001 0.012,0.003 0.002,0.009 -0.033,0.001 -0.013,-0.008 -0.01,-0.013 0.01,0 0.021,0 0.022,-0.003 0.012,0 0.005,0.007 0.022,0.006 0.008,-0.004 0.009,-0.008 0.01,-0.016 0.01,0 0.008,0.005 0.01,0.008 0.011,0 0.023,0 0.035,0 0.018,-0.003 0.015,-0.018 0.047,-0.011l-0.02 0.005c0.018,0.002 0.025,0.007 0.044,0.009 -0.028,0.003 -0.009,0.002 -0.048,0.008 -0.005,0.01 0.015,0.011 0.045,0.009 -0.016,-0.009 0.008,-0.007 0.014,0 0.032,-0.001 0.036,-0.01 0.076,-0.009 0.004,0.005 -0.009,0.005 -0.02,0.005l0.015 0.006c0.047,-0.01 0.113,-0.006 0.146,-0.017 0.011,0.003 0.015,0.008 0.043,0.006 -0.001,0.005 -0.021,0.011 -0.034,0.007 -0.003,0.006 0.005,0.008 0.023,0.006 0.023,0.002 -0.018,0.003 -0.028,0.003 0.03,0.016 0.129,-0.002 0.081,-0.017 0.008,-0.001 0.014,-0.001 0.022,-0.001 -0.006,-0.002 -0.014,-0.003 -0.023,-0.004 0.008,-0.012 0.048,-0.008 0.076,-0.011 -0.019,0.008 0.019,0.009 0.038,0.011 0.018,-0.001 0.009,-0.009 0.018,-0.012 0.022,0.004 0.031,0.003 0.05,-0.001 0.009,0.01 0.007,0.016 0.038,0.014 -0.005,0.006 0,0.014 -0.024,0.014 0.053,0.001 0.107,0.012 0.12,0.032 0.019,0.006 0.04,0.003 0.056,-0.001 -0.017,0.015 -0.08,0.004 -0.057,0.027 0.019,0.001 0.004,-0.008 0.027,-0.007 -0.011,0.016 0.042,-0.006 -0.016,-0.003 0.014,-0.012 0.064,0.009 0.033,0.014 0.005,0.007 0.019,0.002 0.035,0.002 -0.005,0.005 -0.032,0.009 -0.048,0.005 0.006,0.002 0.005,0.006 0.016,0.006 -0.022,0.007 -0.033,-0.003 -0.072,-0.002l0.023 0.006c-0.012,0.007 -0.054,-0.002 -0.036,-0.006 -0.01,0.002 -0.026,0.003 -0.035,0.005l0.01 0.009c-0.021,-0.004 -0.018,-0.005 -0.038,-0.006 0.005,-0.009 0.003,-0.013 -0.031,-0.012l0.013 -0.007c-0.003,-0.003 -0.019,-0.001 -0.029,-0.001 -0.019,0 0.009,0.011 -0.019,0.009 0.012,-0.006 -0.004,-0.006 0.003,-0.014 0.028,0.001 0.035,0.002 0.05,-0.003 -0.016,-0.006 -0.042,0.005 -0.051,-0.003 -0.019,0 -0.047,0.01 -0.018,0.011 -0.046,0 -0.09,0.005 -0.162,0.005 -0.01,0.002 0.002,0.003 -0.005,0.009 -0.022,0 -0.047,-0.004 -0.064,0.001 0.03,0.005 -0.012,0.018 0.024,0.013 0.012,0.005 -0.024,0.002 -0.041,0.005 0.006,0.008 0.036,0.003 0.05,0.002 -0.001,0.003 0.002,0.006 0.01,0.006 -0.017,0.001 -0.035,0.004 -0.041,0.012l0.008 0.004c0.021,-0.003 0.039,-0.008 0.061,-0.011 0.011,0.011 0.093,0.021 0.093,0.003 0.024,0.003 0.038,0.01 0.054,0.016 0.018,-0.011 0.055,-0.002 0.086,-0.007 -0.025,0.01 0.024,0.026 -0.031,0.032 0.016,0.008 -0.002,0.013 0.006,0.024 -0.036,0.003 -0.057,0 -0.072,-0.005 -0.009,0.001 -0.006,0.005 -0.006,0.008 -0.036,-0.001 -0.071,-0.003 -0.088,-0.011 -0.011,0.005 -0.017,0.011 -0.053,0.01 -0.008,0.006 0.023,0.009 0.002,0.011 0.017,0.003 0.029,0.006 0.066,0.006 -0.036,0.007 0.003,0.009 -0.002,0.023 0.031,-0.009 0.048,-0.004 0.097,-0.005 -0.023,0.009 -0.074,-0.002 -0.082,0.011 -0.012,-0.003 -0.041,0 -0.064,0 -0.076,0.026 0.087,0.025 0.117,0.043 0.005,-0.002 0.015,-0.003 0.027,-0.003l0.008 0.004c0.011,0.007 -0.022,0.003 -0.011,0.01 0.02,-0.001 0.014,0.003 0.023,0.01 0.055,-0.006 0.106,-0.007 0.13,0.007 0.006,-0.001 0.015,-0.003 0.027,-0.003 0,0.01 0.03,0.009 0.039,0.015 0.005,0.024 -0.054,0.032 -0.066,0.051 0.066,0.006 0.086,-0.008 0.16,-0.009 -0.011,-0.009 -0.028,-0.013 -0.039,-0.016 0.013,-0.003 0.025,0.006 0.029,-0.002 0.019,0.009 0.049,0.015 0.101,0.011 0.015,0.005 -0.002,0.007 0.01,0.013 0.1,-0.004 0.187,0.004 0.26,0.02 0.093,-0.001 0.151,0.026 0.151,0.053 0,0.013 -0.015,0.025 -0.046,0.035 -0.006,-0.005 -0.016,-0.008 -0.017,-0.015 -0.036,0.002 -0.05,-0.004 -0.079,-0.005 -0.064,0.015 -0.137,0.004 -0.211,0.01l0.007 -0.004c-0.062,-0.002 -0.106,0.005 -0.135,-0.001 -0.012,0.002 -0.019,0.006 -0.033,0.007 -0.02,0.001 -0.02,-0.005 -0.031,-0.008 -0.022,0.008 -0.124,-0.004 -0.11,0.014 -0.022,-0.005 -0.032,-0.002 -0.064,0 0.009,-0.013 0.035,-0.008 0.06,-0.015 0.069,-0.021 0.022,-0.046 -0.036,-0.066 -0.032,0.001 -0.054,-0.002 -0.08,-0.004 -0.013,0.002 -0.019,0.007 -0.017,0.014 0.062,-0.018 0.107,0.012 0.078,0.028 -0.018,0.002 -0.017,-0.003 -0.036,-0.001 -0.009,0.001 -0.01,0.004 -0.021,0.006 0.019,0.005 0.014,0.007 0.026,0.016 -0.014,0 -0.018,0.003 -0.028,0.003 0.077,0.012 -0.015,0.026 -0.027,0.038 -0.01,-0.003 -0.037,0 -0.033,0.006 0.011,0.006 0.027,-0.004 0.049,-0.001l-0.005 0.008c-0.011,-0.003 -0.036,0 -0.057,0 0,0.006 0.023,0.005 0.018,0.015 -0.006,0.001 -0.016,0.003 -0.028,0.003 0.01,0.007 0.008,0.008 -0.004,0.013 0.007,0.006 0.031,0.005 0.044,0.008 0.004,0.018 -0.006,0.022 0.009,0.037 -0.008,0.003 -0.025,0.003 -0.034,0.005 0.002,0.004 0.014,0.005 0.029,0.004 0.004,0.006 -0.027,0.002 -0.018,0.01 -0.019,-0.002 -0.034,-0.003 -0.042,0.003 0.025,-0.007 0.046,0.026 -0.009,0.022 -0.003,-0.009 0.02,-0.013 -0.006,-0.022 -0.021,0.009 -0.038,0.012 -0.045,0.021 0.039,0.003 0.051,0.019 -0.001,0.02 0.005,0.007 0.022,0.009 0.031,0.015l-0.02 0.003c-0.003,0.005 0.01,0.003 0.022,0.003 0.003,0.007 -0.02,0.006 -0.019,0.012 0.021,0.006 0.017,-0.006 0.041,-0.005 -0.029,0.01 -0.023,0.031 -0.038,0.045 -0.017,0 -0.02,0.004 -0.042,0.003 -0.002,0.007 0.01,0.009 0.023,0.01 -0.021,0.008 0.002,0.019 -0.029,0.026 -0.02,-0.002 0,-0.01 -0.003,-0.013 -0.023,-0.001 -0.029,0.003 -0.034,0.007 -0.022,-0.008 0.027,-0.014 0.038,-0.021 -0.034,-0.003 -0.05,-0.023 -0.037,-0.034 -0.018,-0.004 -0.048,-0.003 -0.071,-0.005l0.014 0.002c0,0.008 -0.024,0.01 -0.024,0.018 -0.011,0.001 -0.012,-0.002 -0.021,-0.002 -0.019,0.003 0.002,0.012 0.003,0.016 -0.007,-0.003 -0.035,-0.012 -0.028,0 -0.057,0.006 -0.093,-0.01 -0.127,0.002 0.012,-0.009 -0.003,-0.017 -0.031,-0.01 0.014,-0.008 0.009,-0.008 -0.004,-0.014 0.028,-0.003 0.051,0.006 0.057,-0.003 -0.006,-0.007 -0.057,0.004 -0.045,-0.008 -0.028,0.001 -0.035,0.006 -0.061,0.008 0.004,0.007 0.019,0.011 0.031,0.015 -0.005,0.004 -0.047,-0.006 -0.064,0.002 0.009,0.007 0.014,0.001 0.037,0.001 0.011,0.003 -0.003,0.008 0.017,0.013 -0.015,0.008 -0.019,-0.008 -0.031,-0.008 -0.019,-0.002 0.008,0.01 -0.011,0.008 0.019,0.008 0.025,0.006 0.045,0.013 -0.02,0.002 -0.025,0.017 -0.041,0.008 -0.023,0.002 -0.003,0.003 -0.004,0.011 0.011,0 0.024,-0.001 0.035,-0.001 -0.019,0.014 -0.047,-0.006 -0.079,-0.003 -0.001,0.007 0.008,0.01 0.03,0.008 -0.011,0.005 0.011,0.007 -0.004,0.012 -0.012,-0.001 0.005,-0.007 -0.016,-0.009 -0.027,-0.001 -0.01,0.009 -0.033,0.008 -0.006,-0.005 -0.023,-0.007 -0.011,-0.011 -0.045,0.003 -0.039,-0.013 -0.086,-0.009 0.01,0.008 0.03,0.014 0.047,0.021 0.009,-0.001 0.005,-0.005 0.005,-0.009 0.011,0.001 0.019,0.003 0.029,0.004 -0.001,0.004 -0.031,0.001 -0.027,0.007 0.018,-0.002 0.013,0.012 0.039,0.012 -0.011,0.008 -0.01,0.009 -0.002,0.02 -0.011,-0.004 -0.032,-0.004 -0.044,-0.007 0,-0.006 0.025,-0.005 0.025,-0.01 -0.017,-0.003 -0.031,-0.004 -0.009,-0.008 -0.008,-0.005 -0.055,0 -0.03,-0.008 -0.024,0.001 -0.04,0 -0.057,-0.001 0.005,-0.012 0.003,-0.029 -0.036,-0.034 0.028,-0.002 0.056,-0.003 0.053,-0.013l-0.021 -0.002 0.004 -0.011c0.027,0.003 0.034,-0.001 0.057,0.001 0.006,0.005 -0.013,0.005 -0.012,0.008 0.029,0.011 0.074,-0.004 0.097,-0.008 -0.023,-0.002 -0.039,-0.008 -0.08,-0.009 -0.005,-0.01 0.01,0 0.028,-0.003 0.001,-0.008 -0.023,-0.007 -0.031,-0.01 -0.023,0.002 0,0.004 -0.012,0.009 -0.032,-0.005 -0.053,-0.013 -0.062,-0.025 -0.022,0.003 -0.031,0.001 -0.057,0.001 0.02,-0.006 -0.005,-0.013 -0.005,-0.024 -0.02,0.002 -0.016,0.01 -0.041,0.01 0.01,0.008 -0.019,0.018 0.012,0.019 -0.004,0.004 -0.015,0.005 -0.027,0.005 0,-0.008 -0.011,-0.011 -0.018,-0.016 -0.022,0.003 -0.052,0.007 -0.078,0.003 -0.006,0.01 0.019,0.007 0.038,0.006 -0.012,0.002 -0.019,0.009 -0.005,0.011 -0.025,-0.001 -0.062,0.008 -0.079,-0.002 -0.007,-0.001 0.002,0.012 0.011,0.013 -0.015,0.005 -0.04,0.007 -0.061,0.011 0.001,0.004 0.019,0.002 0.015,0.008 -0.028,-0.002 -0.035,0.002 -0.056,-0.001 -0.031,0.008 0.024,0.011 0.026,0.022 0.018,-0.002 0.021,-0.001 0.041,-0.006 0.027,0.005 -0.031,0.008 -0.004,0.011 -0.011,0.003 -0.017,0.008 -0.034,0.008 0.013,0.002 0.014,0.008 0.037,0.005 0.005,0.008 0,0.013 -0.018,0.014 0.04,0.01 0.022,-0.006 0.054,-0.01 0,-0.001 0.027,0.015 -0.005,0.016 0.031,0 0.07,0.002 0.093,-0.005 0,0.01 0.016,0.009 0.038,0.015 -0.026,0 -0.028,-0.003 -0.049,0.001l-0.002 -0.006c-0.04,0 -0.031,0.006 -0.063,0.001 0.016,0.008 0.057,0.009 0.101,0.006l0.008 0.004 0.001 0.005c-0.011,0.001 -0.013,-0.002 -0.022,-0.002l0.023 0.008c-0.003,0.004 -0.009,0.006 -0.019,0.007 -0.024,-0.005 -0.04,0.001 -0.065,-0.005 -0.006,-0.006 0.032,-0.002 0.034,-0.007 -0.019,-0.004 -0.05,0.004 -0.078,0.004l0.003 0.011c0.006,0.002 0.043,0.008 0.01,0.009 0.01,0.008 0.014,-0.001 0.035,-0.001 0.01,0.003 0.005,0.008 -0.005,0.011 0.026,0.011 0.069,-0.005 0.06,-0.017 0.018,0.006 0.011,0.005 0.037,0.006 0.008,0.007 -0.021,0.004 -0.035,0.005 0.008,0.003 0.003,0.012 0.024,0.011 -0.019,0.011 -0.019,0.023 0.001,0.035 -0.013,-0.004 -0.024,-0.009 -0.038,-0.013 -0.033,0.003 -0.01,0.008 -0.004,0.014 -0.024,0.001 -0.034,-0.003 -0.05,-0.006 -0.009,-0.007 0.029,-0.002 0.033,-0.007l-0.015 -0.006c-0.018,0.002 -0.021,0.01 -0.033,0.014 -0.021,-0.003 0.008,-0.01 -0.004,-0.017 -0.022,-0.002 -0.012,0.005 -0.034,0.005 0.007,-0.011 -0.038,-0.019 -0.069,-0.023 0.002,-0.004 0.027,-0.002 0.019,-0.009 -0.006,-0.009 -0.034,-0.01 -0.054,-0.014 0,-0.009 0.028,0.002 0.035,-0.005 0,0.003 0.012,0.009 0.044,0.007 -0.039,-0.007 -0.068,-0.018 -0.099,-0.029 0.002,-0.01 0.036,-0.012 0.076,-0.012 0.007,-0.001 0.003,-0.005 0.013,-0.005l-0.035 0.003c-0.012,-0.008 -0.033,-0.01 -0.052,-0.01 0.002,-0.003 0.008,-0.004 0.02,-0.005 -0.005,-0.001 -0.013,-0.003 -0.022,-0.003 -0.02,0.002 0.012,0.005 -0.004,0.008 -0.038,-0.008 -0.071,-0.001 -0.113,0.003 0.013,-0.004 0,-0.011 -0.018,-0.012 -0.04,-0.001 -0.07,0.019 -0.084,0.002 0.016,-0.009 0.126,-0.005 0.102,-0.018 0.011,-0.004 0.052,0.002 0.062,-0.008 -0.004,-0.005 -0.028,-0.002 -0.024,-0.009 -0.027,0.001 -0.03,0.009 -0.061,0.009 0.022,-0.006 0.006,-0.016 -0.032,-0.013 0.005,-0.002 0.012,-0.003 0.02,-0.005 -0.013,-0.003 -0.021,-0.009 -0.038,-0.012 -0.029,0.006 -0.056,0.014 -0.065,0.026 -0.013,0 -0.006,-0.007 -0.015,-0.009 -0.06,0 -0.049,0.018 -0.095,0.021 0.002,0.002 0.013,0.001 0.021,0.001 -0.023,0.009 -0.044,0.022 -0.028,0.029 -0.034,0.002 -0.011,-0.018 -0.047,-0.016 0.002,-0.003 0.017,-0.002 0.028,-0.003 0.002,-0.008 -0.009,-0.01 -0.024,-0.012 0.001,-0.004 0.017,-0.003 0.028,-0.003 -0.028,-0.012 -0.021,-0.002 -0.012,-0.017 -0.019,-0.003 -0.044,-0.004 -0.038,-0.015 -0.038,-0.005 -0.062,-0.001 -0.107,-0.001 -0.004,0.005 0.011,0.005 0.009,0.01 -0.034,-0.003 -0.011,-0.013 -0.04,-0.019 -0.012,0 -0.002,0.008 -0.011,0.009 -0.011,-0.001 -0.017,-0.005 -0.018,-0.01 -0.014,0.001 0.001,0.01 -0.011,0.011 -0.027,-0.001 -0.024,0.001 -0.042,-0.001 -0.044,0.009 -0.059,0.031 -0.067,0.046 -0.017,0 -0.035,-0.005 -0.028,0.005 -0.017,0 -0.054,0.003 -0.035,-0.003 -0.024,0.002 0,0.005 -0.013,0.008 -0.014,-0.002 -0.016,-0.009 -0.037,-0.009 -0.017,0.001 -0.002,0.007 0.007,0.007 -0.013,0.002 -0.027,0.002 -0.056,0 0.029,0.005 -0.005,0.006 -0.013,0.001 -0.008,0.003 -0.012,0.007 -0.035,0.005 0.015,0.007 0.028,0.002 0.058,0.001 -0.016,0.006 0.009,0.006 0.023,0.008l-0.02 0.007c-0.016,-0.01 -0.017,0.003 -0.037,-0.005 -0.005,0.01 -0.014,0.002 -0.025,0.014l0.008 0.004c0.033,-0.011 0.071,-0.008 0.104,-0.011l-0.006 0.004c0.045,0.001 0.054,-0.007 0.096,-0.012 0.002,0.008 0.022,0.008 0.044,0.008 0.011,0.007 -0.022,0.003 -0.011,0.009 -0.023,0.002 -0.023,-0.003 -0.036,0.002 0.01,0.005 0.037,-0.002 0.049,-0.002 0,0.003 0.001,0.006 0.01,0.007 -0.035,-0.002 -0.042,0.014 -0.037,0.029 -0.02,0.003 -0.03,0.007 -0.017,0.014 -0.028,0.003 -0.036,0.003 -0.057,-0.001 -0.009,0.009 -0.082,0.006 -0.051,0.023 -0.008,0.003 -0.025,0.003 -0.042,0.004 0.001,-0.003 0.012,-0.002 0.021,-0.003 0,-0.005 -0.008,-0.006 -0.023,-0.006 0.003,-0.006 0.035,-0.004 0.032,-0.012 -0.02,-0.004 -0.076,-0.008 -0.085,-0.002 -0.009,-0.006 -0.021,-0.008 -0.044,-0.003 0,-0.004 -0.005,-0.006 -0.015,-0.007 0.01,-0.008 0.012,0.005 0.029,0.002 0.008,-0.002 -0.02,-0.012 -0.045,-0.01l0.004 -0.009c-0.04,0.005 -0.064,-0.009 -0.114,-0.008 -0.024,0.002 0.02,0.008 -0.013,0.007 -0.016,-0.001 0.002,-0.01 -0.051,-0.007 0.003,-0.008 -0.018,-0.008 -0.018,-0.016 -0.02,0.001 -0.033,0.004 -0.025,0.012 -0.02,0.004 -0.042,0.002 -0.045,-0.007 0.019,-0.001 0.01,0.009 0.037,0.006 0.002,-0.008 -0.042,-0.011 -0.051,-0.006 -0.002,-0.002 0.001,-0.006 0.019,-0.008 -0.037,-0.013 -0.113,0.003 -0.132,-0.018 -0.016,0.009 -0.019,0.003 -0.041,0.006l0.015 0.004c-0.017,0.003 -0.052,0 -0.091,0.004l0.002 0.009c0.016,0.001 0.014,-0.004 0.013,-0.007 0.018,-0.001 0.028,0.012 0.044,0.003 -0.002,0.001 -0.005,0.018 0.004,0.018 0.023,0.006 0.097,-0.01 0.125,-0.008 -0.032,0.008 -0.093,0.018 -0.144,0.017 -0.009,0.002 0.009,0.008 0.008,0.009 0.003,0.003 -0.04,0.004 -0.012,0.007 -0.004,0.007 -0.022,-0.001 -0.035,0.001 0.019,0.007 0.063,0.007 0.061,0.016 0.028,-0.003 0.034,0.003 0.057,0.003 0.012,-0.01 -0.076,-0.009 -0.069,-0.02 0.02,-0.001 0.018,0.005 0.037,0.005 0.015,-0.003 -0.018,-0.009 -0.018,-0.015 0.033,0.003 0.047,0.012 0.061,0.02 0.017,-0.002 0.014,0 0.036,-0.002 -0.011,0.003 -0.006,0.01 0.015,0.008 -0.011,0.002 0.004,0.011 -0.011,0.011 0.02,-0.003 0.013,0.015 0.033,0.019 0.033,-0.008 0.055,-0.006 0.091,-0.004 0.015,-0.006 -0.011,-0.004 -0.009,-0.011 0.013,0.003 0.031,0.004 0.031,0.012 -0.025,0.006 -0.061,0.015 -0.09,0.014 0.003,0.005 0.019,0.004 0.037,0.003 -0.017,0.007 -0.053,0.001 -0.051,-0.007 -0.032,0.006 -0.047,0.002 -0.077,0.006 0.008,0.006 0.011,0.003 0.029,0.002l-0.019 0.009c-0.011,-0.003 -0.017,-0.011 -0.011,-0.013l-0.014 0c-0.021,0 0.02,0.006 -0.005,0.007 -0.004,0.005 -0.003,-0.005 -0.016,-0.008 -0.016,0.004 -0.038,0.013 -0.063,0.001 0.02,0 0.046,0 0.055,-0.003 -0.037,0.001 -0.081,-0.012 -0.116,-0.011 0.009,0.005 0.03,0.005 0.038,0.011 -0.017,0.011 -0.081,0.006 -0.124,0.014l0.009 0.009c-0.033,0.001 -0.034,0.002 -0.063,0.001 0.006,0.006 0.034,0.003 0.038,0.011 -0.022,-0.001 -0.062,-0.011 -0.071,-0.001 0.006,0.007 0.015,-0.002 0.028,-0.001 -0.02,0.01 -0.027,0.01 -0.054,0.01 0.029,-0.005 0.009,-0.008 -0.004,-0.015 -0.022,-0.001 -0.012,0.007 -0.034,0.005 -0.018,-0.006 -0.059,-0.005 -0.075,-0.013 0.052,0.008 0.141,0.007 0.198,-0.005 -0.016,0.001 -0.061,-0.002 -0.098,0.004 0.001,-0.006 -0.028,0 -0.023,-0.008 -0.068,0.004 -0.111,0 -0.147,0.008 -0.008,0 -0.007,-0.003 -0.009,-0.006 -0.031,0.007 -0.059,-0.002 -0.082,0.008 -0.009,0.009 0.03,0 0.023,0.009 -0.018,0.007 -0.022,-0.002 -0.043,-0.001 -0.02,0.003 0.01,0.006 0.003,0.011 -0.029,0.003 -0.041,0.001 -0.058,-0.005 -0.082,0.007 -0.107,0.013 -0.065,0.028 0.024,-0.001 0.03,-0.007 0.04,-0.012 -0.008,-0.006 -0.022,0.002 -0.035,0.001 0.009,-0.007 0.021,-0.004 0.033,-0.008 0.003,0.004 0.009,0.005 0.03,0.006 -0.001,0.004 -0.017,0.002 -0.028,0.003l-0.005 0.005c0.012,0.006 0.044,0.004 0.048,-0.004 0.007,0.006 0.053,0.005 0.049,-0.003 0.014,0.011 0.042,0.012 0.073,0.007 -0.004,-0.004 -0.028,-0.001 -0.024,-0.009 0.038,-0.005 0.071,-0.001 0.1,0.002 -0.009,0.03 0.172,0.02 0.24,0.023 -0.01,0.004 -0.029,0.006 -0.034,0.012 0.03,-0.008 0.048,-0.01 0.09,-0.011l0.002 0.009c-0.027,-0.008 -0.064,-0.002 -0.069,0.008 0.028,0.003 0.041,-0.002 0.023,0.011 0.033,0.002 0.018,-0.008 0.019,-0.014 0.025,0.003 0.038,0.003 0.056,-0.004 0.022,0.001 0.01,0.015 0.026,0.019 -0.003,0.007 -0.016,0.012 -0.047,0.012l0.003 0.014c-0.02,0.002 -0.019,-0.003 -0.036,-0.002 0.03,0.008 0.004,0.018 -0.03,0.021 -0.007,-0.006 0.012,-0.005 0.012,-0.009 -0.131,0.01 -0.248,-0.004 -0.336,-0.011 -0.016,0.004 -0.029,0.009 -0.062,0.008 0,-0.004 -0.006,-0.006 -0.015,-0.006l0.02 -0.003c-0.04,-0.014 -0.06,-0.01 -0.136,-0.008 -0.004,0.008 0.029,0.002 0.024,0.011 -0.019,-0.003 -0.015,-0.004 -0.037,-0.001l0.006 -0.007c-0.032,0.007 -0.045,-0.009 -0.078,0 -0.027,-0.001 0.022,-0.009 -0.001,-0.009 0.001,-0.005 0.034,-0.002 0.047,-0.003 -0.002,-0.013 -0.047,-0.002 -0.064,-0.006 0.036,-0.006 -0.023,-0.006 -0.004,-0.013 -0.044,0.001 -0.044,0.009 -0.07,0 -0.018,0 -0.021,0.004 -0.027,0.008 -0.002,0.003 0.023,0.005 0.032,0.003 -0.021,0.01 -0.07,-0.011 -0.126,-0.012 0.03,-0.016 0.097,0.002 0.154,-0.011 0.034,0.01 0.041,-0.007 0.077,-0.002 -0.003,0.006 -0.025,0.006 -0.04,0.008 0.024,0.009 0.061,-0.002 0.099,0.001 -0.027,-0.007 -0.057,-0.014 -0.09,-0.02 -0.022,0 -0.011,0.007 -0.034,0.006l-0.001 -0.006c-0.029,-0.002 -0.023,0.007 -0.056,0.006 0.028,-0.006 -0.005,-0.007 -0.004,-0.016 -0.041,0 -0.012,0.006 -0.026,0.011 -0.052,0.004 -0.089,-0.002 -0.134,-0.001 -0.009,0.002 -0.004,0.006 -0.004,0.01 0.018,-0.004 0.052,-0.009 0.07,-0.002 -0.009,-0.002 -0.082,0.008 -0.04,0.012 -0.023,0.003 -0.026,0.003 -0.054,0.013l0.005 -0.009c-0.011,-0.001 -0.012,0.002 -0.02,0.002l0.002 0.007c-0.053,-0.015 -0.115,-0.03 -0.188,-0.043 -0.204,-0.036 -0.451,-0.018 -0.57,-0.006 -0.058,-0.001 -0.119,0.006 -0.178,-0.008 -0.008,0.001 0.012,0.008 -0.011,0.011 0.002,-0.013 -0.059,-0.008 -0.084,0 0.033,-0.016 -0.072,-0.008 -0.103,-0.013l0.013 -0.005c-0.021,-0.003 -0.042,-0.001 -0.055,0.006 -0.016,0.001 -0.005,-0.007 -0.01,-0.011 -0.065,0.004 -0.114,-0.012 -0.185,-0.004 0.004,-0.006 -0.013,-0.006 -0.01,-0.013 -0.019,0.001 -0.041,0.002 -0.044,-0.003 -0.008,0 -0.022,0.007 -0.004,0.007 -0.006,0.006 -0.016,-0.006 -0.037,-0.002 -0.013,-0.003 0.005,-0.004 -0.008,-0.008 -0.026,0.008 -0.074,-0.001 -0.084,0.008 -0.01,-0.014 -0.038,-0.01 -0.073,-0.013 0.004,-0.005 0.039,-0.002 0.055,-0.003 0.006,-0.008 -0.019,-0.011 -0.038,-0.011 0.014,-0.011 0.048,0.006 0.078,-0.004 -0.016,-0.004 -0.055,0.001 -0.052,-0.01 -0.022,0 -0.019,0.008 -0.049,0.006 -0.02,0.003 0.017,0.003 0.01,0.009 -0.027,-0.006 -0.037,-0.007 -0.061,-0.017 0.016,0.001 0.026,0 0.027,-0.005l-0.009 -0.006c-0.028,0.008 -0.03,-0.001 -0.063,0.004 0.018,-0.005 0.015,-0.014 -0.023,-0.01 -0.022,-0.004 0.036,-0.003 0.048,-0.004 -0.039,-0.007 -0.071,-0.004 -0.114,-0.004 0,-0.007 -0.019,-0.01 0.012,-0.011 -0.039,-0.002 -0.073,0.002 -0.082,0.015 -0.02,0 -0.057,-0.009 -0.064,0 -0.008,0.008 0.025,0.001 0.023,0.006 -0.022,0.009 -0.03,-0.012 -0.06,-0.014 -0.009,-0.001 -0.022,0.007 -0.006,0.007 -0.01,0.004 -0.029,-0.005 -0.008,-0.009 -0.016,-0.007 -0.053,0.009 -0.044,-0.007 -0.019,0.003 -0.015,0.011 -0.019,0.013 -0.016,0 -0.065,-0.002 -0.085,-0.002 0.012,-0.007 0.034,0.002 0.056,-0.001 0.002,-0.005 -0.003,-0.007 -0.016,-0.007 0.017,-0.008 0.027,-0.001 0.029,0.002 0.019,0 0.017,-0.005 0.019,-0.01 -0.121,0.002 -0.309,-0.017 -0.44,-0.006 0.016,-0.016 -0.115,-0.014 -0.129,-0.005 -0.01,-0.002 -0.012,-0.008 -0.023,-0.009 -0.014,0.01 -0.026,-0.002 -0.049,0.004 -0.027,-0.003 0.029,0 0.013,-0.007 -0.023,-0.01 -0.031,0.009 -0.057,0.001l0.013 -0.004c-0.021,-0.005 -0.08,-0.006 -0.076,0.006 -0.022,-0.012 -0.013,-0.021 -0.056,-0.025 -0.022,-0.001 -0.012,0.007 -0.034,0.005 -0.01,-0.007 -0.046,-0.007 -0.065,-0.004 -0.014,-0.023 -0.101,-0.006 -0.131,-0.015 -0.04,0.009 -0.165,0.005 -0.185,-0.001 0.012,-0.008 0.025,-0.003 0.037,0 0.016,-0.002 -0.017,-0.008 0.019,-0.008 -0.009,0.002 -0.008,0.008 0.002,0.01 0.005,-0.007 0.04,-0.002 0.064,-0.002l0.012 -0.004c-0.011,-0.012 -0.089,-0.009 -0.099,-0.004 -0.012,-0.002 -0.046,-0.008 -0.057,-0.001 -0.028,-0.005 0.025,-0.005 0.041,-0.005l-0.003 -0.009c-0.018,0 -0.013,0.007 -0.033,0.007 0.028,-0.011 -0.018,-0.007 -0.051,-0.005 -0.001,-0.009 0.054,-0.003 0.077,-0.006 -0.013,-0.008 -0.009,-0.006 -0.024,-0.011 0.007,0.012 -0.126,0.011 -0.149,0.004 -0.051,0.01 -0.144,0.001 -0.181,0.01 0.011,0.005 0.025,0.002 0.043,0 0.008,0.007 -0.016,0.005 -0.027,0.005 -0.005,0.008 0.011,0.007 0.023,0.009 0.005,-0.009 0.03,0 0.026,-0.008 0.01,0.002 0.015,0.004 0.017,0.009 -0.013,0 -0.024,0.001 -0.036,0.001 0.003,0.006 0.04,0 0.038,0.008 -0.08,-0.003 -0.065,-0.006 -0.156,0 0.006,-0.007 0.026,-0.007 0.01,-0.014 0.026,-0.004 0.033,0 0.049,-0.006 -0.01,-0.007 -0.012,-0.007 -0.018,-0.013 -0.008,0.001 -0.003,0.003 0.001,0.003 -0.013,0.008 -0.061,-0.005 -0.062,0.006 -0.012,-0.006 -0.016,-0.004 -0.036,-0.002 0.009,-0.005 -0.014,-0.007 -0.014,-0.008 -0.034,0.001 -0.085,0.004 -0.128,0.003 0.087,-0.015 -0.151,-0.01 -0.193,-0.002 -0.042,-0.008 -0.149,0.001 -0.198,0.001 -0.007,-0.006 -0.032,-0.006 -0.05,-0.007 -0.021,0.003 0.035,0.004 0.008,0.011 -0.008,-0.005 -0.015,-0.009 -0.043,-0.006l0.006 -0.007c-0.023,0.005 -0.063,0.006 -0.079,-0.002 -0.072,0.008 -0.143,0 -0.204,0.003 0.007,-0.006 -0.041,-0.01 -0.036,0.003 -0.013,-0.004 -0.025,-0.003 -0.016,-0.011 -0.045,0.003 -0.069,-0.001 -0.114,0.002 0.006,0.005 0.051,0.008 0.065,0.002 0.023,0.006 -0.051,0.004 -0.054,0.01l-0.001 -0.007c-0.029,0.004 -0.047,0 -0.091,0.008 -0.061,-0.01 -0.102,-0.018 -0.164,-0.005l0.016 0.011c0.022,-0.003 -0.004,-0.009 0.034,-0.01 -0.031,0.01 0.053,0.018 0.043,0.005 0.027,0.013 0.089,0.008 0.128,0.002l-0.005 0.008c0.007,0.006 0.056,-0.008 0.051,0.006 0.013,-0.001 0.016,-0.006 0.034,-0.006 -0.004,0.003 -0.012,0.004 -0.02,0.006 0.015,0.006 0.03,0.001 0.064,0.002 -0.01,0.003 -0.026,0.006 -0.033,0.01 -0.033,-0.005 -0.075,-0.002 -0.084,0.002 -0.015,0 -0.016,-0.006 -0.03,-0.006 -0.023,0 -0.019,0.008 -0.033,0.01 -0.021,-0.004 -0.03,-0.003 -0.057,-0.001 -0.008,-0.007 0.023,-0.004 0.019,-0.009 0,-0.006 -0.012,-0.007 -0.023,-0.008 -0.005,0.001 -0.011,0.002 -0.021,0.002 -0.003,0.003 0.029,0.005 0.009,0.007 -0.029,-0.007 -0.035,-0.011 -0.073,-0.009 -0.006,0 -0.007,0.002 -0.014,0.002 -0.007,0.008 0.024,0.001 0.017,0.008 -0.027,-0.002 -0.046,-0.013 -0.072,-0.002 0.008,0.006 0.021,-0.003 0.042,-0.001 0.018,0.011 -0.031,0.004 -0.033,0.009 -0.014,-0.009 -0.042,-0.002 -0.071,0 0.009,-0.008 0.034,-0.003 0.034,-0.009 -0.019,-0.002 -0.058,0.002 -0.067,-0.012 0.01,0.001 0.048,0.01 0.049,-0.001 0.013,0.001 0.015,0.007 0.024,0.01 0.021,0.001 0.072,-0.013 0.063,-0.002 0.013,0 0.016,-0.004 0.012,-0.008l-0.049 0c-0.016,-0.002 0.019,-0.008 -0.004,-0.015 -0.011,0.007 -0.014,0.002 -0.028,-0.001 -0.042,0 0.007,0.012 -0.033,0.012l0.012 -0.012c-0.012,0 -0.024,0.001 -0.036,0.001 -0.009,0.013 -0.057,0.004 -0.091,0.003 -0.006,0.01 0.032,0.004 0.024,0.015 0.023,0 0.007,-0.008 0.035,-0.006 -0.004,0.007 0.014,0.006 0.01,0.013l-0.02 0.007c-0.055,-0.001 -0.093,-0.007 -0.137,-0.011 -0.029,0.004 -0.125,0.006 -0.161,-0.006 0.022,0.006 0.104,0.008 0.116,-0.005 0.04,0.003 0.07,0.011 0.101,0.005 -0.001,-0.01 -0.033,-0.004 -0.018,-0.014 -0.019,0 -0.025,0.002 -0.02,0.008 -0.011,0 -0.023,0.001 -0.035,0.001l0.006 -0.009c-0.051,0.012 -0.149,0.006 -0.226,0.003 -0.023,0.003 -0.009,0.009 -0.004,0.014 -0.014,0 -0.015,0.003 -0.028,0.003 0.019,-0.007 -0.006,-0.008 0.003,-0.016 -0.022,0.01 -0.033,0.005 -0.076,0.005 0.019,-0.009 -0.027,-0.007 -0.025,-0.015l-0.013 0.001 0.096 -0.095 0.008 0c0.032,0.013 0.098,-0.001 0.161,-0.006l-0.008 -0.008c0.036,-0.002 0.07,-0.016 0.108,-0.024 0.013,0.001 -0.016,0.008 -0.027,0.008 0.018,0.011 0.043,-0.002 0.062,-0.004 -0.003,0.004 -0.02,0.005 -0.005,0.009 0.029,-0.003 0.049,-0.007 0.053,-0.017 0.02,0.002 0.036,0 0.056,-0.004 -0.038,-0.013 -0.112,0.003 -0.135,-0.003 -0.011,0.004 -0.043,0.017 -0.049,0.004 -0.01,0.002 -0.016,0.004 -0.019,0.007 -0.014,0.001 0.015,-0.015 -0.024,-0.011 -0.003,-0.005 0.016,-0.006 0.033,-0.007 -0.002,0.008 0.009,0.011 0.025,0.013 0.015,-0.003 0.015,-0.016 -0.004,-0.016 -0.006,-0.004 0.055,-0.001 0.027,-0.005 0.024,-0.004 0.076,0.002 0.082,-0.011 -0.06,-0.013 -0.128,-0.008 -0.185,-0.006 -0.02,-0.001 -0.009,-0.003 -0.009,-0.008 -0.026,0.001 -0.04,-0.002 -0.057,-0.003 0.014,-0.002 0.013,-0.009 0.032,-0.011 -0.008,-0.004 -0.044,0.001 -0.064,0 0.009,-0.009 -0.056,-0.011 -0.061,-0.022 -0.026,0.001 -0.061,0.001 -0.096,0.002l-0.01 -0.006c0.028,-0.001 0.057,-0.001 0.083,-0.001 0.01,0 0.006,-0.005 0.006,-0.008 0.014,0.006 0.042,0.001 0.056,0 -0.019,-0.009 -0.084,-0.007 -0.115,-0.005 -0.005,-0.008 -0.022,-0.011 -0.026,-0.019 0.015,0.002 0.034,0.002 0.038,0.007 0.076,-0.017 0.127,0.012 0.189,-0.007 0.01,0 0.008,0.005 0.01,0.009 0.017,-0.001 0.021,-0.004 0.027,-0.008 0.007,-0.001 0.002,0.011 0.015,0.004 0.012,0.003 -0.004,0.01 0.023,0.011 0.009,-0.001 0.01,-0.005 0.02,-0.005 -0.004,-0.003 -0.012,-0.005 -0.022,-0.006 0.017,-0.003 0.073,0 0.073,0.011 -0.009,0 -0.019,0 -0.028,0.001 0.002,0.004 0.019,0.004 0.036,0.004 -0.004,0.005 -0.004,0.006 0.003,0.011 0.015,-0.001 0.021,-0.003 0.019,-0.008 0.011,0.001 0.015,0.005 0.017,0.008 -0.046,0.003 -0.111,0 -0.148,0.007 0.007,0.007 -0.006,0.008 -0.004,0.013 0.019,0.009 0.073,0.004 0.102,0.009 -0.015,-0.009 -0.001,-0.007 0.013,-0.003 0.008,-0.001 0.022,-0.01 0.004,-0.011 0.017,-0.003 0.022,-0.008 0.033,-0.012 0.061,-0.002 0.031,0.014 0.088,0.013l-0.005 0.007c0.032,-0.007 0.033,-0.004 0.063,0 0.014,-0.002 -0.007,-0.011 -0.01,-0.015 -0.037,0.009 -0.091,-0.009 -0.137,-0.012 0.035,-0.004 0.064,-0.009 0.081,-0.017l0.002 0.01c0.021,0 0.02,-0.005 0.041,-0.005l-0.006 0.007c0.031,-0.004 0.024,-0.001 0.05,0.001 0.018,0 0.022,-0.004 0.027,-0.008 -0.029,-0.001 -0.054,-0.004 -0.08,-0.006 0.007,-0.002 0.023,-0.003 0.035,-0.005 0.01,-0.002 0.017,-0.004 0.006,-0.008 -0.009,0.001 -0.005,0.005 -0.006,0.008 -0.04,-0.008 -0.089,-0.009 -0.112,0.005 -0.036,0.001 0.037,-0.014 -0.017,-0.013 0.032,-0.011 0.077,-0.008 0.132,-0.011 -0.022,-0.003 0.015,-0.005 0.001,-0.006 0.011,0 0.042,0.003 0.038,-0.007 0.028,0 0.029,0 0.057,-0.002 -0.127,-0.001 -0.266,0.007 -0.383,-0.001 -0.014,0.007 -0.038,0.005 -0.057,0.003 -0.015,0.001 0,0.01 -0.004,0.014 -0.018,-0.001 -0.025,0.002 -0.019,0.007 -0.016,0 -0.033,0 -0.03,-0.008 0.087,-0.001 -0.013,-0.023 -0.055,-0.021 0.014,-0.003 -0.018,-0.01 0.019,-0.009 -0.029,-0.005 -0.048,0 -0.063,0.004l-0.002 -0.009c0.038,0.002 0.088,-0.001 0.098,-0.007 -0.011,-0.004 -0.056,0.002 -0.07,0.004 0.003,-0.006 -0.031,-0.011 -0.059,-0.012l0.011 -0.011c0.01,0.004 0.013,0.01 0.031,0.01 0.005,-0.012 0.02,0.002 0.041,-0.006 0.015,0.001 0.016,0.003 0.009,0.007 0.032,0.001 0.039,-0.005 0.063,-0.001 0.018,-0.002 -0.01,-0.004 -0.002,-0.009 0.093,0 0.126,0.005 0.192,0.003 0.011,0.011 0.02,0.015 0.08,0.011 0.001,-0.005 -0.027,0 -0.022,-0.008 -0.019,-0.002 -0.034,0.006 -0.036,0.001 0,-0.009 0.062,-0.004 0.078,-0.004l-0.006 0.007c0.038,-0.003 0.066,-0.009 0.086,0.002 0.065,0.005 0.036,-0.011 0.064,-0.026 0.001,-0.011 -0.025,0.001 -0.023,-0.008l0.006 -0.004c0.013,0 0.014,0.005 0.036,0.002 0.008,0 0.004,-0.004 0.014,-0.004 -0.007,-0.004 -0.02,-0.004 -0.037,-0.004 -0.009,-0.008 0.032,-0.003 0.026,-0.009 0.014,0.001 0.002,0.004 0.001,0.006 0.039,0.003 0.037,-0.011 0.063,-0.005 -0.024,0.007 -0.065,0.01 -0.057,0.025 -0.012,0.001 -0.014,-0.001 -0.022,-0.001 -0.002,0.014 -0.017,0.014 0,0.028 0.018,-0.001 0.037,-0.001 0.055,-0.001l-0.008 -0.009c0.021,-0.001 0.016,0.007 0.024,0.011 -0.027,-0.001 -0.03,0.004 -0.057,0.004l0.009 0.006c0.034,-0.004 0.087,-0.018 0.126,-0.008 -0.012,0.003 -0.047,0.002 -0.034,0.007 -0.048,0.005 -0.085,0.003 -0.154,0.005 0.008,0.014 0.107,-0.005 0.115,0.01 0.036,-0.011 0.071,-0.001 0.133,-0.008 -0.004,-0.003 -0.01,-0.004 -0.023,-0.004 -0.005,-0.005 0.036,0.004 0.057,-0.001l-0.009 -0.004c0.009,-0.003 0.044,0.004 0.065,0.005 0.024,-0.006 -0.006,-0.011 0.041,-0.008 -0.043,-0.012 -0.105,-0.006 -0.162,0 0.004,-0.008 -0.024,-0.003 -0.03,-0.006 0.029,-0.008 0.042,0.003 0.078,-0.002 -0.02,-0.006 -0.061,-0.004 -0.055,-0.019 0.011,0.008 0.053,0.018 0.082,0.018 0.008,-0.001 0.004,-0.005 0.014,-0.005 0.049,-0.001 0.08,0.006 0.113,0.002 -0.007,-0.004 -0.026,-0.004 -0.037,-0.006 0.034,-0.004 0.095,0.009 0.142,0.001 0,-0.008 -0.03,-0.004 -0.037,-0.008 0.027,0.004 0.073,-0.005 0.103,-0.006l0.046 -0.033 0.01 0c0.045,0.013 0.136,-0.001 0.223,-0.006l-0.012 -0.008c0.051,-0.002 0.098,-0.016 0.15,-0.023 0.018,0 -0.022,0.007 -0.038,0.007 0.025,0.011 0.06,-0.002 0.086,-0.004 -0.004,0.004 -0.027,0.005 -0.006,0.009 0.039,-0.003 0.067,-0.007 0.072,-0.017 0.028,0.002 0.05,0 0.077,-0.004 -0.052,-0.013 -0.155,0.003 -0.186,-0.003 -0.015,0.004 -0.06,0.017 -0.068,0.004 -0.013,0.002 -0.022,0.004 -0.026,0.008 -0.018,0 0.021,-0.016 -0.033,-0.012 -0.004,-0.005 0.023,-0.006 0.046,-0.007 -0.002,0.008 0.012,0.011 0.035,0.013 0.021,-0.003 0.021,-0.016 -0.006,-0.016 -0.009,-0.004 0.075,-0.001 0.037,-0.005 0.033,-0.004 0.104,0.002 0.114,-0.011 -0.083,-0.013 -0.177,-0.008 -0.256,-0.006 -0.028,-0.001 -0.012,-0.003 -0.012,-0.008 -0.036,0.001 -0.055,-0.002 -0.079,-0.003 0.02,-0.002 0.018,-0.009 0.045,-0.011 -0.012,-0.004 -0.061,0.001 -0.089,0 0.011,-0.008 -0.059,-0.01 -0.079,-0.019 0,0.001 0,0.001 0,0.002 -0.008,-0.002 -0.016,-0.002 -0.021,-0.005 -0.021,0.001 -0.045,0.001 -0.07,0.001 -0.007,0.001 -0.015,0.002 -0.023,0.002 -0.001,-0.001 -0.002,-0.001 -0.002,-0.001 -0.007,0 -0.014,0 -0.021,0l-0.015 -0.006c0.021,0 0.041,-0.001 0.061,-0.001 0.001,0 0.002,-0.001 0.003,-0.001 -0.018,-0.003 -0.055,-0.006 -0.064,0.002 -0.058,-0.019 -0.132,0.011 -0.177,-0.002 -0.022,0.011 -0.056,0.008 -0.082,0.015 -0.025,-0.004 0.02,-0.006 0.02,-0.01 -0.006,-0.006 -0.082,0.006 -0.058,-0.005 -0.033,0.002 -0.08,0.011 -0.105,0.005 0.02,-0.004 0.066,-0.003 0.054,-0.01 0.001,-0.006 -0.017,0.005 -0.021,-0.001 0,0.006 -0.034,0.005 -0.037,-0.004 -0.01,0.002 -0.017,0.004 -0.027,0.005 0.044,0.003 0.014,0.005 -0.019,0.007l-0.01 -0.01c-0.065,0.01 -0.13,-0.003 -0.205,0.005 0.013,-0.005 -0.004,-0.004 -0.001,-0.011 0.008,0 0.018,0 0.027,-0.001l-0.02 0.005c0.029,0.005 0.045,0 0.085,0 0.016,-0.001 -0.003,-0.012 0.011,-0.014 0.004,0.007 0.01,0.013 0.039,0.015 0.032,-0.008 0.013,-0.003 0.048,-0.008l0.001 0.006c0.022,-0.001 0.027,0.003 0.043,0.002 0.022,-0.002 0.007,-0.013 0.033,-0.013 -0.009,0.008 0.002,0.007 0.017,0.011 0.023,-0.007 0.023,-0.001 0.055,-0.001 0.007,0.006 -0.012,0.005 -0.011,0.009l0.007 0.004c0.046,-0.004 0.01,-0.017 0.068,-0.017 0.002,-0.006 -0.057,-0.006 -0.049,0.002 -0.013,0.006 -0.004,-0.007 -0.003,-0.009 -0.018,-0.002 -0.025,0.001 -0.019,0.006 -0.025,-0.01 -0.069,-0.002 -0.088,-0.01 -0.021,0.003 0.016,0.009 -0.004,0.013 -0.015,-0.001 -0.02,-0.005 -0.023,-0.011 -0.033,0.002 -0.066,0.003 -0.076,0.009 -0.023,-0.001 0.001,-0.007 0.005,-0.009 -0.008,-0.006 -0.051,0.003 -0.051,0 -0.006,0.007 -0.032,0.008 -0.076,0.006l0.013 -0.005c-0.041,-0.003 -0.105,-0.012 -0.134,0.004 -0.009,-0.004 -0.025,-0.005 -0.024,-0.013 -0.026,0.001 -0.048,0.001 -0.051,-0.005l-0.013 0.002c0.004,0.011 0.052,0.005 0.054,0.017 -0.076,-0.008 -0.134,-0.014 -0.222,-0.008l0.005 -0.007c-0.008,0.003 -0.064,0.012 -0.07,0.002 0.026,0.006 0.031,-0.006 0.056,-0.001 -0.005,-0.005 -0.012,-0.008 -0.036,-0.006 -0.004,-0.018 0.05,-0.004 0.057,0.003 0.043,-0.002 0.037,-0.004 0.063,-0.004 -0.012,-0.008 -0.043,-0.009 -0.06,-0.014 -0.005,0.009 -0.066,0 -0.104,0.01 -0.019,-0.006 0.053,-0.005 0.046,-0.015zm1.18 -0.012c0,0.002 -0.001,0.003 0.001,0.006l0.016 0.003c0.015,0 0.001,-0.007 0.005,-0.011 0.017,-0.001 0.033,-0.002 0.047,-0.004 -0.03,-0.002 -0.051,0.003 -0.069,0.006zm0.09 -0.01c0.007,-0.002 0.013,-0.004 0.018,-0.007 -0.015,0 -0.035,0.001 -0.05,0.003l0.003 0c-0.005,0.002 -0.009,0.004 -0.014,0.006 0.015,-0.001 0.03,-0.001 0.043,-0.002zm0.016 -0.014c-0.004,-0.001 -0.008,-0.002 -0.013,-0.002 -0.003,0 -0.004,0.001 -0.005,0.002 0.007,0 0.013,0 0.018,0zm-0.042 -0.006c-0.008,0 -0.018,0.001 -0.027,0.001 0.008,0.001 0.017,0.002 0.027,-0.001zm-0.028 0.001c0.029,-0.006 -0.005,-0.006 -0.01,-0.013 -0.015,0.007 -0.001,0.006 -0.027,0.003 0.002,0.006 0.021,0.007 0.035,0.01l0.002 0zm0.622 0.11c-0.008,0.002 -0.019,0.004 -0.029,0.003l0.001 -0.001c-0.032,0 -0.069,-0.006 -0.105,-0.01 0,0.001 0.001,0.002 0.003,0.003 -0.005,-0.006 -0.039,-0.002 -0.044,-0.007l-0.002 0c-0.008,0 -0.01,0.001 -0.009,0.002l0 0.001c0.001,0.001 0.003,0.002 0.004,0.003 0.08,-0.001 0.041,0.014 0.118,0.013l-0.007 0.007c0.045,-0.006 0.047,-0.004 0.088,0 0.019,-0.002 -0.01,-0.011 -0.014,-0.015l-0.004 0.001zm-0.013 -0.019c0,-0.001 0,-0.003 0,-0.005 0.032,0.004 0.042,0.006 0.085,0.003 -0.026,-0.008 -0.086,-0.006 -0.121,-0.002 0.011,-0.009 0.05,-0.007 0.07,-0.004 0.001,0 0.002,-0.001 0.002,-0.001 -0.016,-0.001 -0.033,-0.002 -0.049,-0.003 0.006,-0.001 0.019,-0.002 0.031,-0.003 -0.005,-0.002 -0.009,-0.003 -0.004,-0.005l-0.004 0c-0.037,0.003 -0.064,0.001 -0.092,-0.001 -0.01,0.001 -0.019,0.003 -0.027,0.005 0.001,0.001 0.002,0.002 0,0.003 -0.003,0 -0.006,0 -0.009,0l-0.002 0.001c-0.012,0 -0.015,-0.001 -0.014,-0.002 -0.006,0 -0.01,0 -0.017,0.002l0.021 0.002c0.017,0.002 -0.015,0.008 -0.033,0.007l0.035 -0.001c0.005,-0.001 0.003,0.003 0.004,0.005 0.026,-0.003 0.048,-0.007 0.064,-0.012l0.002 0.01c0.029,0 0.028,-0.005 0.057,-0.005l-0.008 0.007 0.009 -0.001zm-0.116 -0.021c-0.002,0 -0.002,0 -0.002,0.001 0.001,-0.001 0.001,-0.001 0.002,-0.001zm-0.062 0.036c-0.011,-0.002 -0.026,-0.003 -0.045,-0.001 0.001,-0.001 0.003,-0.002 0.005,-0.003 -0.038,0.001 -0.08,0.001 -0.115,0.002 -0.002,0.001 -0.003,0.001 -0.003,0.002 -0.003,0 -0.005,-0.001 -0.007,-0.001 -0.011,0.001 -0.022,0.002 -0.031,0.003 0.009,0.007 -0.008,0.008 -0.006,0.013 0.025,0.009 0.101,0.004 0.14,0.009 -0.02,-0.009 -0.001,-0.007 0.019,-0.003 0.01,-0.001 0.03,-0.01 0.005,-0.011 0.019,-0.002 0.027,-0.006 0.038,-0.01zm-0.03 -0.006c0.003,0 0.006,-0.001 0.009,-0.001 0.004,-0.001 0.006,-0.002 0.006,-0.004 -0.012,0.001 -0.023,0.001 -0.035,0.001 0.001,0.001 0.004,0.003 0.008,0.005 0.005,0 0.009,-0.001 0.012,-0.001zm0.03 -0.004c0.003,0 0.006,0 0.009,-0.001 -0.005,0 -0.009,0 -0.013,0 0.001,0 0.003,0.001 0.004,0.001zm-0.48 0.005c-0.003,-0.001 -0.007,-0.002 -0.012,-0.002 -0.002,0.001 -0.003,0.001 -0.004,0.002 0.005,0 0.01,0 0.016,0z"/>
   <path class="fil1" d="M2.224 1.566c0.679,-0.003 2.012,-0.038 2.678,-0.053 0.667,-0.014 0.667,-0.008 0.644,0.093 -0.024,0.102 -0.07,0.3 -0.094,0.402 -0.023,0.102 -0.023,0.108 0.038,0.111 0.061,0.003 0.184,0.003 0.245,0.003 0.061,0 0.061,0 0.086,-0.103 0.024,-0.103 0.074,-0.309 0.099,-0.412 0.024,-0.102 0.024,-0.102 0.025,-0.102 0.001,0 0.002,0 0.021,0.009 0.019,0.01 0.056,0.029 0.123,0.042 0.068,0.013 0.167,0.018 0.269,-0.005 0.233,-0.053 0.399,-0.227 0.515,-0.428 0.105,-0.181 0.121,-0.372 0.081,-0.576 -0.099,-0.516 -0.664,-0.175 -0.756,-0.105l-0.026 0.019c-0.004,0.004 -0.007,-0.013 -0.004,-0.028 0.006,-0.029 0.018,-0.087 0.024,-0.116 0.006,-0.029 0.006,-0.029 -0.061,-0.029 -0.067,0 -0.201,0 -0.268,0 -0.067,0 -0.067,0 -0.085,0.116 -0.017,0.117 -0.052,0.35 -0.072,0.472 -0.021,0.122 -0.027,0.134 -0.076,0.145 -0.049,0.012 -0.143,0.024 -0.236,0.024 -0.093,0 -0.186,-0.012 -0.317,-0.044 -0.131,-0.032 -0.3,-0.084 -0.463,-0.134 -0.163,-0.049 -0.32,-0.096 -0.454,-0.137 -0.134,-0.04 -0.244,-0.075 -0.373,-0.099 -0.128,-0.023 -0.273,-0.035 -0.407,-0.032 -0.134,0.003 -0.256,0.021 -0.358,0.038 -0.102,0.018 -0.183,0.035 -0.268,0.058 -0.084,0.024 -0.172,0.053 -0.25,0.091 -0.079,0.037 -0.149,0.084 -0.239,0.128 -0.09,0.043 -0.201,0.084 -0.294,0.113 -0.093,0.029 -0.169,0.047 -0.233,0.061 -0.064,0.014 -0.116,0.024 -0.225,0.04 -0.108,0.015 -0.272,0.036 -0.427,0.054 -0.154,0.018 -0.298,0.034 -0.449,0.067 -0.15,0.034 -0.308,0.087 -0.422,0.138 -0.115,0.051 -0.188,0.101 -0.209,0.138 -0.02,0.038 0.012,0.064 0.045,0.06 0.034,-0.005 0.069,-0.04 0.142,-0.075 0.072,-0.035 0.183,-0.069 0.334,-0.102 0.152,-0.032 0.344,-0.061 0.533,-0.075 0.189,-0.015 0.376,-0.015 0.552,-0.037 0.176,-0.022 0.342,-0.067 0.487,-0.122 0.146,-0.055 0.271,-0.121 0.371,-0.175 0.101,-0.053 0.176,-0.094 0.273,-0.129 0.096,-0.035 0.212,-0.064 0.384,-0.076 0.171,-0.011 0.398,-0.005 0.598,0.029 0.2,0.034 0.373,0.097 0.501,0.143 0.128,0.047 0.212,0.077 0.256,0.093 0.045,0.015 0.051,0.015 -0.026,0.036 -0.076,0.022 -0.235,0.064 -0.436,0.105 -0.2,0.041 -0.444,0.08 -0.609,0.111 -0.165,0.031 -0.252,0.054 -0.386,0.06 -0.134,0.005 -0.315,-0.006 -0.443,-0.006 -0.128,0 -0.203,0.011 -0.352,0.032 -0.148,0.02 -0.369,0.049 -0.503,0.07 -0.134,0.02 -0.181,0.032 -0.192,0.052 -0.012,0.02 0.011,0.05 0.689,0.047zm5.553 0.023c-0.197,0 -0.346,-0.047 -0.448,-0.14 -0.103,-0.093 -0.154,-0.229 -0.154,-0.407l0 -0.247c0,-0.178 0.051,-0.314 0.154,-0.407 0.102,-0.093 0.251,-0.139 0.448,-0.139 0.192,0 0.341,0.046 0.444,0.139 0.103,0.093 0.155,0.229 0.155,0.407l0 0.247c0,0.178 -0.052,0.314 -0.154,0.407 -0.102,0.093 -0.251,0.14 -0.445,0.14zm0 -0.249c0.199,0 0.299,-0.101 0.299,-0.303l0 -0.239c0,-0.204 -0.1,-0.306 -0.299,-0.306 -0.202,0 -0.302,0.102 -0.302,0.306l0 0.239c0,0.202 0.1,0.303 0.302,0.303zm0.893 0.225l0 -1.293 0.282 0 0 0.178c0,0.047 -0.005,0.091 -0.015,0.132l-0.008 0.031 0.03 0 0.013 -0.035c0.023,-0.071 0.056,-0.131 0.098,-0.18 0.042,-0.049 0.093,-0.086 0.154,-0.112 0.06,-0.025 0.127,-0.037 0.201,-0.037l0.075 0.004 0 0.282c-0.023,-0.003 -0.05,-0.005 -0.08,-0.005 -0.092,0 -0.172,0.023 -0.24,0.068 -0.068,0.045 -0.121,0.108 -0.158,0.19 -0.037,0.082 -0.055,0.179 -0.055,0.289l0 0.488 -0.297 0zm1.767 -0.244l0.035 0.244c-0.057,0.017 -0.131,0.026 -0.222,0.026 -0.154,0 -0.268,-0.034 -0.341,-0.102 -0.073,-0.068 -0.109,-0.174 -0.109,-0.32l0 -0.632 -0.189 0 0 -0.232 0.194 0 0 -0.232 0.294 -0.073 0 0.305 0.355 0 0 0.232 -0.355 0 0 0.614c0,0.048 0.007,0.087 0.019,0.114 0.013,0.028 0.034,0.048 0.063,0.06 0.03,0.011 0.071,0.017 0.125,0.017 0.023,0 0.046,-0.002 0.068,-0.006 0.022,-0.004 0.037,-0.007 0.048,-0.01l0.015 -0.005zm0.772 0.268c-0.196,0 -0.345,-0.047 -0.448,-0.14 -0.102,-0.093 -0.153,-0.229 -0.153,-0.407l0 -0.247c0,-0.178 0.051,-0.314 0.153,-0.407 0.103,-0.093 0.252,-0.139 0.448,-0.139 0.193,0 0.341,0.046 0.444,0.139 0.104,0.093 0.155,0.229 0.155,0.407l0 0.247c0,0.178 -0.051,0.314 -0.153,0.407 -0.103,0.093 -0.251,0.14 -0.446,0.14zm0 -0.249c0.2,0 0.3,-0.101 0.3,-0.303l0 -0.239c0,-0.204 -0.1,-0.306 -0.3,-0.306 -0.201,0 -0.302,0.102 -0.302,0.306l0 0.239c0,0.202 0.101,0.303 0.302,0.303zm-5.189 -0.103c-0.003,-0.07 0.026,-0.204 0.064,-0.32 0.038,-0.117 0.084,-0.216 0.125,-0.277 0.041,-0.061 0.076,-0.084 0.115,-0.097 0.04,-0.012 0.084,-0.014 0.122,-0.008 0.037,0.006 0.069,0.019 0.091,0.046 0.022,0.027 0.033,0.068 0.039,0.123 0.006,0.055 0.006,0.125 -0.003,0.189 -0.009,0.064 -0.026,0.123 -0.052,0.175 -0.027,0.052 -0.061,0.099 -0.105,0.137 -0.044,0.038 -0.096,0.067 -0.151,0.084 -0.056,0.018 -0.114,0.023 -0.161,0.023 -0.046,0 -0.081,-0.005 -0.084,-0.075z"/>
   <g>
    <path class="fil2" d="M4.639 2.938c0,0.014 0.005,0.021 0.014,0.021 0.01,0 0.023,-0.004 0.038,-0.01 0.015,-0.007 0.031,-0.016 0.047,-0.027 0.017,-0.011 0.033,-0.024 0.05,-0.037 0.017,-0.014 0.033,-0.027 0.048,-0.04 0.015,-0.013 0.029,-0.025 0.041,-0.037 0.012,-0.011 0.021,-0.02 0.028,-0.027 0.005,0.005 0.012,0.012 0.02,0.02 0.008,0.008 0.015,0.015 0.021,0.022 -0.014,0.015 -0.031,0.031 -0.05,0.049 -0.019,0.018 -0.038,0.037 -0.06,0.056 -0.021,0.019 -0.043,0.037 -0.066,0.055 -0.023,0.018 -0.046,0.034 -0.068,0.047 -0.023,0.014 -0.045,0.025 -0.066,0.034 -0.022,0.008 -0.042,0.013 -0.061,0.013 -0.011,0 -0.023,-0.005 -0.038,-0.014 -0.014,-0.01 -0.029,-0.021 -0.042,-0.035 -0.014,-0.013 -0.025,-0.028 -0.034,-0.043 -0.01,-0.014 -0.015,-0.028 -0.015,-0.04 0,-0.026 0.002,-0.053 0.006,-0.081 -0.026,0.022 -0.051,0.044 -0.074,0.064 -0.024,0.021 -0.048,0.04 -0.072,0.057 -0.024,0.018 -0.049,0.034 -0.074,0.05 -0.025,0.015 -0.052,0.027 -0.08,0.038 -0.009,0.004 -0.016,0.005 -0.022,0.005 -0.006,0 -0.013,-0.003 -0.022,-0.008 -0.009,-0.006 -0.018,-0.013 -0.027,-0.022 -0.008,-0.009 -0.015,-0.018 -0.022,-0.029 -0.006,-0.012 -0.009,-0.022 -0.009,-0.032 0,-0.023 0.004,-0.049 0.013,-0.078 0.009,-0.029 0.022,-0.058 0.038,-0.088 0.017,-0.031 0.037,-0.061 0.061,-0.091 0.025,-0.03 0.052,-0.059 0.082,-0.086 0.031,-0.027 0.065,-0.051 0.102,-0.073 0.036,-0.022 0.075,-0.039 0.117,-0.052 0.008,0.001 0.018,0.005 0.031,0.011 0.012,0.006 0.024,0.012 0.035,0.018 0.02,-0.058 0.043,-0.117 0.07,-0.175 0.026,-0.059 0.054,-0.115 0.084,-0.169 0.03,-0.054 0.061,-0.105 0.093,-0.152 0.032,-0.047 0.064,-0.089 0.096,-0.126 0.033,-0.036 0.064,-0.066 0.096,-0.088 0.031,-0.023 0.061,-0.037 0.09,-0.042 0.012,0 0.025,0.004 0.039,0.012 0.014,0.009 0.027,0.018 0.039,0.03 0.013,0.012 0.023,0.024 0.032,0.036 0.009,0.013 0.014,0.023 0.017,0.031 0,0.027 -0.007,0.057 -0.02,0.091 -0.013,0.035 -0.031,0.072 -0.054,0.112 -0.022,0.04 -0.05,0.082 -0.081,0.125 -0.032,0.044 -0.065,0.088 -0.102,0.133 -0.036,0.045 -0.074,0.09 -0.114,0.134 -0.039,0.045 -0.08,0.088 -0.12,0.13 -0.017,0.058 -0.03,0.113 -0.04,0.165 -0.01,0.053 -0.015,0.1 -0.015,0.143zm0.426 -1.039c-0.009,0 -0.021,0.007 -0.035,0.021 -0.014,0.014 -0.03,0.034 -0.047,0.059 -0.017,0.025 -0.035,0.055 -0.055,0.09 -0.019,0.034 -0.038,0.072 -0.058,0.112 -0.02,0.041 -0.04,0.084 -0.06,0.13 -0.019,0.046 -0.038,0.092 -0.055,0.139 0.042,-0.052 0.082,-0.104 0.12,-0.156 0.039,-0.053 0.072,-0.102 0.101,-0.149 0.029,-0.047 0.052,-0.09 0.069,-0.129 0.017,-0.039 0.025,-0.071 0.025,-0.097 0,-0.003 0,-0.007 0,-0.013 -0.001,-0.005 -0.002,-0.007 -0.005,-0.007zm-0.805 1.01c0.018,0 0.046,-0.014 0.083,-0.04 0.037,-0.026 0.078,-0.061 0.124,-0.106 0.006,-0.026 0.012,-0.052 0.019,-0.079 0.008,-0.027 0.016,-0.054 0.025,-0.082 -0.033,0.022 -0.065,0.048 -0.097,0.076 -0.031,0.028 -0.059,0.056 -0.083,0.084 -0.024,0.027 -0.044,0.053 -0.059,0.077 -0.015,0.024 -0.022,0.043 -0.022,0.055 0,0.01 0.003,0.015 0.01,0.015zm1.234 -0.086c-0.052,0.051 -0.102,0.094 -0.148,0.128 -0.046,0.035 -0.09,0.062 -0.131,0.083 -0.042,0.021 -0.082,0.036 -0.121,0.045 -0.038,0.009 -0.075,0.014 -0.111,0.014 -0.016,0 -0.032,-0.006 -0.051,-0.017 -0.019,-0.012 -0.036,-0.025 -0.052,-0.041 -0.017,-0.016 -0.03,-0.033 -0.041,-0.051 -0.01,-0.018 -0.016,-0.032 -0.016,-0.045 0,-0.046 0.007,-0.089 0.019,-0.127 0.013,-0.039 0.03,-0.074 0.051,-0.105 0.021,-0.032 0.045,-0.059 0.072,-0.083 0.026,-0.023 0.054,-0.043 0.084,-0.059 0.029,-0.016 0.058,-0.028 0.086,-0.036 0.029,-0.008 0.056,-0.012 0.08,-0.012 0.018,0 0.035,0.005 0.053,0.016 0.017,0.01 0.033,0.022 0.046,0.037 0.015,0.015 0.026,0.03 0.035,0.046 0.009,0.016 0.013,0.03 0.013,0.042 0,0.019 -0.008,0.039 -0.024,0.059 -0.016,0.02 -0.039,0.041 -0.068,0.062 -0.03,0.021 -0.065,0.042 -0.106,0.064 -0.042,0.022 -0.087,0.044 -0.137,0.066 -0.002,0.013 -0.003,0.026 -0.003,0.04 0,0.017 0.004,0.029 0.012,0.035 0.007,0.006 0.022,0.009 0.043,0.009 0.037,0 0.072,-0.006 0.105,-0.018 0.033,-0.013 0.065,-0.029 0.096,-0.049 0.03,-0.019 0.06,-0.042 0.088,-0.068 0.028,-0.025 0.056,-0.051 0.084,-0.077l0.042 0.042zm-0.299 -0.212c-0.011,0 -0.024,0.006 -0.038,0.018 -0.013,0.012 -0.026,0.028 -0.04,0.048 -0.014,0.02 -0.027,0.042 -0.039,0.068 -0.013,0.026 -0.023,0.053 -0.032,0.08 0.021,-0.013 0.041,-0.028 0.061,-0.043 0.02,-0.015 0.038,-0.031 0.054,-0.048 0.016,-0.016 0.029,-0.034 0.038,-0.051 0.01,-0.018 0.015,-0.035 0.015,-0.053 0,-0.005 -0.002,-0.009 -0.005,-0.013 -0.003,-0.004 -0.008,-0.006 -0.014,-0.006zm1.816 -0.641c-0.019,0.1 -0.048,0.196 -0.088,0.29 -0.04,0.094 -0.087,0.182 -0.14,0.265 -0.053,0.084 -0.11,0.162 -0.172,0.233 -0.062,0.072 -0.124,0.136 -0.186,0.193 -0.062,0.056 -0.122,0.104 -0.179,0.143 -0.058,0.039 -0.109,0.067 -0.154,0.085 -0.006,0.003 -0.012,0.005 -0.016,0.006 -0.005,0.001 -0.008,0.001 -0.01,0.001 -0.011,0 -0.023,-0.004 -0.035,-0.014 -0.013,-0.009 -0.024,-0.019 -0.035,-0.031 -0.011,-0.012 -0.021,-0.024 -0.029,-0.035 -0.008,-0.012 -0.014,-0.021 -0.017,-0.028 -0.003,-0.004 -0.006,-0.011 -0.009,-0.02 -0.003,-0.008 -0.004,-0.019 -0.004,-0.03 0,-0.029 0.003,-0.069 0.009,-0.119 0.006,-0.05 0.016,-0.107 0.027,-0.172 0.012,-0.064 0.026,-0.134 0.042,-0.21 0.016,-0.076 0.035,-0.154 0.055,-0.235 0.02,-0.081 0.042,-0.164 0.065,-0.247 0.024,-0.083 0.048,-0.165 0.073,-0.244 0.009,0.009 0.019,0.021 0.032,0.036 0.012,0.015 0.025,0.03 0.039,0.047 0.013,0.017 0.027,0.033 0.04,0.05 0.013,0.017 0.025,0.033 0.036,0.046 0.01,0.014 0.018,0.025 0.025,0.034 0.006,0.008 0.009,0.013 0.009,0.013 -0.03,0.089 -0.059,0.179 -0.085,0.269 -0.026,0.09 -0.051,0.178 -0.074,0.264 -0.023,0.086 -0.044,0.17 -0.064,0.25 -0.02,0.081 -0.038,0.156 -0.055,0.226 0.067,-0.041 0.129,-0.089 0.188,-0.145 0.058,-0.056 0.112,-0.117 0.161,-0.183 0.05,-0.066 0.094,-0.135 0.132,-0.209 0.039,-0.073 0.072,-0.147 0.099,-0.222 0.027,-0.075 0.047,-0.15 0.061,-0.224 0.015,-0.073 0.021,-0.144 0.021,-0.212 0,-0.019 0,-0.036 -0.002,-0.05 -0.001,-0.014 -0.002,-0.025 -0.004,-0.035 -0.002,-0.01 -0.003,-0.017 -0.005,-0.022 -0.001,-0.006 -0.002,-0.01 -0.003,-0.012l0.252 0.248zm0.312 0.987c0,0.003 0.001,0.005 0.005,0.005 0.005,0 0.013,-0.004 0.025,-0.011 0.012,-0.007 0.026,-0.017 0.041,-0.028 0.015,-0.011 0.031,-0.024 0.049,-0.038 0.017,-0.014 0.033,-0.028 0.049,-0.042 0.016,-0.013 0.031,-0.026 0.043,-0.037 0.013,-0.011 0.023,-0.02 0.03,-0.026 0.004,0.005 0.011,0.012 0.019,0.02 0.007,0.008 0.014,0.016 0.02,0.023 -0.013,0.012 -0.03,0.028 -0.048,0.045 -0.02,0.018 -0.04,0.037 -0.062,0.056 -0.021,0.019 -0.044,0.038 -0.067,0.057 -0.023,0.019 -0.046,0.036 -0.068,0.051 -0.022,0.014 -0.043,0.026 -0.063,0.036 -0.019,0.009 -0.037,0.014 -0.052,0.014 -0.01,0 -0.021,-0.002 -0.033,-0.006 -0.012,-0.004 -0.023,-0.01 -0.033,-0.017 -0.011,-0.007 -0.019,-0.015 -0.026,-0.025 -0.007,-0.009 -0.01,-0.02 -0.01,-0.032 0,-0.005 0,-0.01 -0.001,-0.017 0,-0.006 0.001,-0.014 0.002,-0.025 0.001,-0.011 0.003,-0.023 0.006,-0.038 0.004,-0.015 0.009,-0.034 0.016,-0.056 -0.019,0.02 -0.041,0.041 -0.066,0.062 -0.025,0.022 -0.052,0.042 -0.079,0.061 -0.028,0.019 -0.056,0.037 -0.084,0.052 -0.028,0.016 -0.054,0.028 -0.078,0.036 -0.003,0.001 -0.005,0.001 -0.006,0.001 -0.002,0 -0.004,0 -0.006,0 -0.005,0 -0.013,-0.003 -0.022,-0.008 -0.009,-0.006 -0.018,-0.013 -0.028,-0.023 -0.009,-0.009 -0.016,-0.02 -0.023,-0.032 -0.006,-0.011 -0.01,-0.023 -0.01,-0.035 0,-0.003 0.002,-0.015 0.006,-0.034 0.003,-0.019 0.011,-0.044 0.024,-0.073 0.012,-0.03 0.031,-0.064 0.056,-0.101 0.025,-0.037 0.059,-0.075 0.102,-0.114 0.022,-0.019 0.046,-0.038 0.071,-0.056 0.022,-0.014 0.046,-0.029 0.074,-0.045 0.028,-0.015 0.057,-0.027 0.087,-0.036 0.002,0 0.003,-0.001 0.004,-0.001 0,-0.001 0.002,0 0.003,0.001 0.007,0.002 0.015,0.005 0.024,0.01 0.01,0.005 0.019,0.01 0.028,0.016 0.01,0.005 0.018,0.01 0.025,0.016 0.007,0.005 0.012,0.01 0.014,0.013 0.001,0.001 0.001,0.002 0,0.002l-0.002 0.002c-0.025,0.014 -0.049,0.029 -0.072,0.046 -0.022,0.016 -0.042,0.032 -0.06,0.047 -0.02,0.017 -0.039,0.035 -0.057,0.051 -0.041,0.041 -0.07,0.076 -0.086,0.106 -0.016,0.03 -0.023,0.051 -0.023,0.064 0,0.01 0.004,0.015 0.011,0.015 0.008,0 0.018,-0.004 0.031,-0.01 0.012,-0.007 0.025,-0.015 0.041,-0.026 0.015,-0.011 0.032,-0.024 0.05,-0.039 0.019,-0.016 0.038,-0.031 0.057,-0.048 0.018,-0.014 0.035,-0.029 0.051,-0.045 0.015,-0.014 0.029,-0.029 0.044,-0.047 0.016,-0.018 0.029,-0.035 0.04,-0.054 0,0 0,-0.001 0,-0.001 0.001,-0.001 0.002,-0.001 0.003,0 0.006,0.004 0.013,0.012 0.021,0.022 0.008,0.011 0.016,0.022 0.022,0.035 0.007,0.012 0.013,0.024 0.018,0.036 0.005,0.011 0.007,0.02 0.007,0.026 -0.013,0.027 -0.023,0.051 -0.03,0.073 -0.007,0.022 -0.013,0.041 -0.016,0.057 -0.004,0.017 -0.006,0.031 -0.007,0.042 -0.001,0.012 -0.001,0.021 -0.001,0.027zm0.48 -0.335c-0.007,0.018 -0.013,0.036 -0.02,0.055 -0.007,0.019 -0.014,0.038 -0.021,0.058 0.036,-0.041 0.067,-0.074 0.092,-0.1 0.026,-0.026 0.048,-0.046 0.066,-0.061 0.018,-0.015 0.032,-0.025 0.043,-0.03 0.011,-0.005 0.02,-0.008 0.026,-0.008 0.007,0 0.018,0.004 0.033,0.011 0.015,0.007 0.029,0.017 0.045,0.027 0.015,0.011 0.028,0.022 0.039,0.033 0.011,0.012 0.016,0.021 0.016,0.03 0,0.002 0,0.004 -0.001,0.006 0,0.003 -0.001,0.006 -0.002,0.01 -0.005,0.014 -0.01,0.031 -0.018,0.05 -0.007,0.02 -0.014,0.039 -0.022,0.06 -0.008,0.021 -0.016,0.041 -0.024,0.062 -0.008,0.021 -0.015,0.04 -0.021,0.058 -0.006,0.018 -0.012,0.034 -0.015,0.048 -0.004,0.013 -0.006,0.023 -0.006,0.029 0,0.004 0.001,0.005 0.005,0.005 0.006,0 0.015,-0.003 0.028,-0.011 0.012,-0.007 0.027,-0.016 0.043,-0.028 0.016,-0.012 0.033,-0.025 0.05,-0.039 0.018,-0.015 0.034,-0.029 0.051,-0.042 0.016,-0.014 0.03,-0.027 0.043,-0.038 0.013,-0.011 0.023,-0.02 0.03,-0.026 0.006,0.005 0.012,0.012 0.019,0.02 0.006,0.008 0.013,0.015 0.019,0.022 -0.012,0.012 -0.028,0.028 -0.046,0.045 -0.019,0.018 -0.039,0.036 -0.061,0.055 -0.022,0.019 -0.045,0.037 -0.068,0.056 -0.024,0.019 -0.046,0.035 -0.068,0.05 -0.022,0.015 -0.043,0.027 -0.062,0.036 -0.02,0.009 -0.036,0.013 -0.049,0.013 -0.008,0 -0.019,-0.003 -0.032,-0.009 -0.013,-0.005 -0.025,-0.013 -0.038,-0.022 -0.012,-0.008 -0.022,-0.018 -0.031,-0.029 -0.008,-0.011 -0.012,-0.021 -0.012,-0.031 0.005,-0.023 0.012,-0.05 0.02,-0.079 0.009,-0.03 0.019,-0.06 0.029,-0.091 0.01,-0.03 0.021,-0.061 0.032,-0.091 0.011,-0.031 0.021,-0.058 0.032,-0.084l-0.002 0.002c-0.011,0.013 -0.026,0.03 -0.046,0.051 -0.02,0.021 -0.043,0.048 -0.069,0.082 -0.025,0.033 -0.052,0.073 -0.08,0.119 -0.029,0.047 -0.056,0.102 -0.083,0.166 -0.004,0.008 -0.007,0.014 -0.01,0.019 -0.003,0.004 -0.008,0.007 -0.016,0.007 -0.01,0 -0.021,-0.003 -0.033,-0.008 -0.012,-0.006 -0.024,-0.013 -0.037,-0.022 -0.013,-0.008 -0.026,-0.018 -0.038,-0.029 -0.013,-0.011 -0.024,-0.021 -0.034,-0.032 0,-0.004 0.001,-0.013 0.004,-0.029 0.003,-0.016 0.008,-0.036 0.013,-0.06 0.006,-0.024 0.013,-0.051 0.021,-0.082 0.009,-0.031 0.019,-0.063 0.029,-0.097 0.011,-0.034 0.023,-0.069 0.036,-0.104 0.012,-0.036 0.026,-0.07 0.041,-0.103 0.024,0.012 0.05,0.026 0.079,0.042 0.029,0.016 0.056,0.036 0.081,0.058zm0.541 0.456c-0.009,0 -0.022,-0.004 -0.037,-0.013 -0.016,-0.009 -0.031,-0.019 -0.046,-0.032 -0.014,-0.013 -0.027,-0.026 -0.038,-0.04 -0.011,-0.013 -0.016,-0.025 -0.016,-0.034 0,-0.017 0.005,-0.044 0.014,-0.081 0.009,-0.037 0.022,-0.079 0.037,-0.126 0.015,-0.047 0.032,-0.098 0.052,-0.151 0.02,-0.054 0.039,-0.107 0.059,-0.158l-0.12 0 -0.001 0c0,0 0,-0.001 0,-0.002 0,-0.003 0.001,-0.008 0.004,-0.015 0.002,-0.006 0.005,-0.013 0.009,-0.02 0.004,-0.007 0.008,-0.014 0.013,-0.02 0.004,-0.006 0.009,-0.01 0.014,-0.011l0.11 -0.005c0.016,-0.039 0.031,-0.074 0.045,-0.107 0.015,-0.032 0.028,-0.06 0.039,-0.083 0.003,-0.007 0.006,-0.013 0.009,-0.02 0.003,-0.007 0.007,-0.014 0.013,-0.021 0.006,-0.008 0.014,-0.015 0.024,-0.023 0.01,-0.007 0.023,-0.015 0.041,-0.023 0.012,-0.006 0.027,-0.013 0.045,-0.02 0.018,-0.008 0.035,-0.014 0.052,-0.021 0.018,-0.006 0.033,-0.011 0.048,-0.015 0.014,-0.005 0.024,-0.007 0.03,-0.007 0.006,0 0.009,0.001 0.009,0.004l0 0.001c0,0.001 -0.001,0.002 -0.002,0.005 -0.003,0.005 -0.01,0.018 -0.019,0.037 -0.009,0.018 -0.02,0.042 -0.033,0.071 -0.013,0.028 -0.028,0.061 -0.044,0.098 -0.016,0.036 -0.033,0.075 -0.05,0.115l0.204 -0.007c0.005,0 0.007,0.003 0.005,0.01 -0.002,0.007 -0.007,0.014 -0.013,0.023 -0.006,0.01 -0.014,0.019 -0.022,0.029 -0.008,0.009 -0.015,0.017 -0.02,0.022 -0.002,0.001 -0.004,0.002 -0.007,0.003 -0.004,0.001 -0.008,0.002 -0.013,0.002l-0.168 0c-0.02,0.049 -0.04,0.099 -0.058,0.149 -0.019,0.05 -0.036,0.098 -0.051,0.144 -0.014,0.045 -0.026,0.086 -0.035,0.124 -0.009,0.038 -0.013,0.069 -0.013,0.093 0,0.004 0.002,0.006 0.005,0.006 0.006,0 0.016,-0.004 0.028,-0.011 0.013,-0.007 0.026,-0.016 0.042,-0.028 0.016,-0.011 0.032,-0.023 0.05,-0.037 0.017,-0.014 0.034,-0.027 0.05,-0.04 0.016,-0.014 0.03,-0.026 0.043,-0.037 0.012,-0.011 0.022,-0.019 0.029,-0.025 0.005,0.005 0.011,0.012 0.018,0.02 0.007,0.008 0.014,0.015 0.02,0.022 -0.012,0.012 -0.028,0.028 -0.046,0.045 -0.019,0.018 -0.039,0.036 -0.061,0.055 -0.022,0.019 -0.045,0.037 -0.068,0.056 -0.024,0.019 -0.046,0.035 -0.069,0.05 -0.022,0.015 -0.043,0.027 -0.062,0.036 -0.019,0.009 -0.036,0.013 -0.049,0.013zm0.793 -0.121c0,0.003 0.002,0.005 0.005,0.005 0.005,0 0.014,-0.004 0.026,-0.011 0.011,-0.007 0.025,-0.017 0.04,-0.028 0.016,-0.011 0.032,-0.024 0.049,-0.038 0.017,-0.014 0.034,-0.028 0.05,-0.042 0.015,-0.013 0.03,-0.026 0.043,-0.037 0.012,-0.011 0.022,-0.02 0.029,-0.026 0.005,0.005 0.011,0.012 0.019,0.02 0.008,0.008 0.015,0.016 0.021,0.023 -0.014,0.012 -0.03,0.028 -0.049,0.045 -0.019,0.018 -0.039,0.037 -0.061,0.056 -0.022,0.019 -0.044,0.038 -0.068,0.057 -0.023,0.019 -0.045,0.036 -0.067,0.051 -0.022,0.014 -0.044,0.026 -0.063,0.036 -0.02,0.009 -0.037,0.014 -0.052,0.014 -0.01,0 -0.021,-0.002 -0.033,-0.006 -0.013,-0.004 -0.024,-0.01 -0.034,-0.017 -0.01,-0.007 -0.019,-0.015 -0.026,-0.025 -0.006,-0.009 -0.01,-0.02 -0.01,-0.032 0,-0.005 0,-0.01 0,-0.017 -0.001,-0.006 0,-0.014 0.001,-0.025 0.001,-0.011 0.003,-0.023 0.007,-0.038 0.003,-0.015 0.008,-0.034 0.015,-0.056 -0.019,0.02 -0.04,0.041 -0.066,0.062 -0.025,0.022 -0.051,0.042 -0.079,0.061 -0.028,0.019 -0.055,0.037 -0.084,0.052 -0.027,0.016 -0.053,0.028 -0.077,0.036 -0.003,0.001 -0.005,0.001 -0.007,0.001 -0.002,0 -0.003,0 -0.005,0 -0.006,0 -0.013,-0.003 -0.022,-0.008 -0.01,-0.006 -0.019,-0.013 -0.028,-0.023 -0.009,-0.009 -0.017,-0.02 -0.023,-0.032 -0.007,-0.011 -0.01,-0.023 -0.01,-0.035 0,-0.003 0.002,-0.015 0.005,-0.034 0.003,-0.019 0.011,-0.044 0.024,-0.073 0.013,-0.03 0.032,-0.064 0.057,-0.101 0.024,-0.037 0.058,-0.075 0.101,-0.114 0.022,-0.019 0.046,-0.038 0.072,-0.056 0.021,-0.014 0.046,-0.029 0.074,-0.045 0.027,-0.015 0.056,-0.027 0.087,-0.036 0.001,0 0.002,-0.001 0.003,-0.001 0.001,-0.001 0.002,0 0.004,0.001 0.006,0.002 0.014,0.005 0.024,0.01 0.009,0.005 0.019,0.01 0.028,0.016 0.009,0.005 0.017,0.01 0.024,0.016 0.007,0.005 0.012,0.01 0.014,0.013 0.001,0.001 0.001,0.002 0,0.002l-0.001 0.002c-0.026,0.014 -0.05,0.029 -0.072,0.046 -0.023,0.016 -0.043,0.032 -0.061,0.047 -0.02,0.017 -0.039,0.035 -0.056,0.051 -0.042,0.041 -0.07,0.076 -0.086,0.106 -0.016,0.03 -0.024,0.051 -0.024,0.064 0,0.01 0.004,0.015 0.012,0.015 0.008,0 0.018,-0.004 0.03,-0.01 0.012,-0.007 0.026,-0.015 0.041,-0.026 0.016,-0.011 0.032,-0.024 0.051,-0.039 0.018,-0.016 0.037,-0.031 0.057,-0.048 0.018,-0.014 0.034,-0.029 0.051,-0.045 0.014,-0.014 0.029,-0.029 0.044,-0.047 0.015,-0.018 0.028,-0.035 0.039,-0.054 0,0 0,-0.001 0.001,-0.001 0,-0.001 0.001,-0.001 0.002,0 0.007,0.004 0.014,0.012 0.022,0.022 0.007,0.011 0.015,0.022 0.022,0.035 0.007,0.012 0.012,0.024 0.017,0.036 0.005,0.011 0.007,0.02 0.007,0.026 -0.013,0.027 -0.023,0.051 -0.03,0.073 -0.007,0.022 -0.012,0.041 -0.016,0.057 -0.004,0.017 -0.006,0.031 -0.007,0.042 -0.001,0.012 -0.001,0.021 -0.001,0.027zm0.944 -0.134c-0.049,0.05 -0.097,0.095 -0.146,0.137 -0.049,0.042 -0.098,0.08 -0.146,0.117 -0.009,0.026 -0.019,0.052 -0.029,0.079 -0.011,0.027 -0.022,0.054 -0.033,0.081 -0.016,0.037 -0.035,0.073 -0.057,0.107 -0.022,0.035 -0.045,0.066 -0.069,0.095 -0.025,0.029 -0.05,0.056 -0.075,0.079 -0.026,0.024 -0.05,0.044 -0.073,0.06 -0.024,0.016 -0.046,0.029 -0.066,0.038 -0.02,0.009 -0.037,0.014 -0.051,0.014 -0.01,0 -0.021,-0.004 -0.034,-0.013 -0.013,-0.008 -0.026,-0.019 -0.037,-0.032 -0.012,-0.012 -0.022,-0.026 -0.03,-0.041 -0.008,-0.015 -0.012,-0.029 -0.012,-0.043 0,-0.029 0.01,-0.058 0.03,-0.087 0.02,-0.028 0.048,-0.057 0.083,-0.087 0.035,-0.03 0.077,-0.062 0.124,-0.095 0.048,-0.033 0.099,-0.069 0.155,-0.107 0.012,-0.032 0.026,-0.07 0.042,-0.115 0.015,-0.044 0.034,-0.099 0.056,-0.164 -0.021,0.028 -0.045,0.056 -0.072,0.083 -0.027,0.028 -0.055,0.052 -0.084,0.074 -0.029,0.021 -0.057,0.039 -0.086,0.052 -0.029,0.013 -0.055,0.02 -0.078,0.02 -0.006,0 -0.015,-0.003 -0.024,-0.009 -0.011,-0.006 -0.02,-0.014 -0.03,-0.023 -0.01,-0.01 -0.019,-0.021 -0.026,-0.034 -0.007,-0.013 -0.01,-0.027 -0.01,-0.042 0,-0.018 0.004,-0.041 0.013,-0.067 0.009,-0.027 0.022,-0.055 0.04,-0.084 0.017,-0.029 0.038,-0.059 0.062,-0.09 0.025,-0.03 0.053,-0.059 0.084,-0.086 0.03,-0.027 0.064,-0.051 0.101,-0.072 0.036,-0.021 0.075,-0.037 0.116,-0.049 0.006,0 0.015,0.003 0.027,0.007 0.011,0.005 0.022,0.01 0.033,0.016 0.011,0.006 0.021,0.012 0.029,0.018 0.008,0.006 0.012,0.009 0.012,0.011 0,0.001 0,0.002 -0.002,0.004 -0.001,0.001 -0.002,0.001 -0.003,0.001 -0.013,0.008 -0.029,0.019 -0.05,0.033 -0.02,0.014 -0.042,0.03 -0.064,0.048 -0.023,0.018 -0.046,0.037 -0.068,0.057 -0.023,0.021 -0.043,0.041 -0.062,0.061 -0.018,0.02 -0.033,0.039 -0.044,0.058 -0.012,0.018 -0.017,0.035 -0.017,0.049 0,0.005 0.001,0.01 0.004,0.013 0.002,0.004 0.006,0.006 0.011,0.006 0.014,0 0.03,-0.005 0.048,-0.015 0.018,-0.01 0.036,-0.023 0.055,-0.039 0.018,-0.015 0.037,-0.033 0.056,-0.053 0.018,-0.019 0.036,-0.038 0.053,-0.057 0.017,-0.019 0.031,-0.037 0.044,-0.053 0.013,-0.017 0.023,-0.03 0.031,-0.04 0.001,-0.001 0.002,-0.003 0.003,-0.004 0.001,-0.001 0.002,-0.002 0.004,-0.003 0.004,0.001 0.01,0.007 0.018,0.017 0.007,0.01 0.015,0.022 0.022,0.035 0.008,0.014 0.014,0.027 0.019,0.04 0.006,0.013 0.008,0.022 0.008,0.028l0 0.001c0,0.001 0,0.003 -0.001,0.006 -0.006,0.02 -0.014,0.048 -0.024,0.083 -0.01,0.036 -0.022,0.077 -0.037,0.124 0.037,-0.029 0.073,-0.06 0.11,-0.091 0.036,-0.032 0.072,-0.066 0.109,-0.102l0.038 0.045zm-0.758 0.693c0.011,0 0.028,-0.008 0.049,-0.026 0.021,-0.017 0.043,-0.039 0.067,-0.066 0.024,-0.027 0.047,-0.056 0.07,-0.089 0.023,-0.033 0.042,-0.064 0.058,-0.095 -0.037,0.027 -0.071,0.052 -0.101,0.076 -0.031,0.023 -0.057,0.046 -0.079,0.068 -0.022,0.022 -0.039,0.043 -0.051,0.064 -0.012,0.02 -0.018,0.041 -0.018,0.061 0,0.005 0.002,0.007 0.005,0.007z"/>
    <path class="fil2" d="M10.627 2.823c-0.053,0.051 -0.102,0.094 -0.148,0.128 -0.046,0.035 -0.09,0.062 -0.132,0.083 -0.042,0.021 -0.082,0.036 -0.12,0.045 -0.038,0.009 -0.075,0.014 -0.111,0.014 -0.016,0 -0.033,-0.006 -0.051,-0.017 -0.019,-0.012 -0.036,-0.025 -0.053,-0.041 -0.016,-0.016 -0.029,-0.033 -0.04,-0.051 -0.011,-0.018 -0.016,-0.032 -0.016,-0.045 0,-0.046 0.006,-0.089 0.019,-0.127 0.013,-0.039 0.03,-0.074 0.051,-0.105 0.021,-0.032 0.044,-0.059 0.071,-0.083 0.027,-0.023 0.055,-0.043 0.084,-0.059 0.03,-0.016 0.059,-0.028 0.087,-0.036 0.029,-0.008 0.056,-0.012 0.08,-0.012 0.018,0 0.035,0.005 0.052,0.016 0.017,0.01 0.033,0.022 0.047,0.037 0.014,0.015 0.026,0.03 0.035,0.046 0.008,0.016 0.013,0.03 0.013,0.042 0,0.019 -0.008,0.039 -0.024,0.059 -0.017,0.02 -0.039,0.041 -0.069,0.062 -0.029,0.021 -0.065,0.042 -0.106,0.064 -0.041,0.022 -0.087,0.044 -0.136,0.066 -0.002,0.013 -0.003,0.026 -0.003,0.04 0,0.017 0.004,0.029 0.012,0.035 0.007,0.006 0.022,0.009 0.042,0.009 0.038,0 0.073,-0.006 0.106,-0.018 0.033,-0.013 0.065,-0.029 0.095,-0.049 0.031,-0.019 0.06,-0.042 0.089,-0.068 0.028,-0.025 0.056,-0.051 0.084,-0.077l0.042 0.042zm-0.299 -0.212c-0.012,0 -0.024,0.006 -0.038,0.018 -0.013,0.012 -0.027,0.028 -0.04,0.048 -0.014,0.02 -0.027,0.042 -0.039,0.068 -0.013,0.026 -0.024,0.053 -0.033,0.08 0.021,-0.013 0.042,-0.028 0.062,-0.043 0.02,-0.015 0.038,-0.031 0.054,-0.048 0.016,-0.016 0.028,-0.034 0.038,-0.051 0.01,-0.018 0.014,-0.035 0.014,-0.053 0,-0.005 -0.001,-0.009 -0.004,-0.013 -0.003,-0.004 -0.008,-0.006 -0.014,-0.006zm0.497 0.011c-0.007,0.018 -0.013,0.036 -0.02,0.055 -0.007,0.019 -0.014,0.038 -0.021,0.058 0.036,-0.041 0.067,-0.074 0.093,-0.1 0.025,-0.026 0.047,-0.046 0.065,-0.061 0.018,-0.015 0.032,-0.025 0.043,-0.03 0.011,-0.005 0.02,-0.008 0.026,-0.008 0.007,0 0.018,0.004 0.033,0.011 0.015,0.007 0.029,0.017 0.045,0.027 0.015,0.011 0.028,0.022 0.039,0.033 0.011,0.012 0.016,0.021 0.016,0.03 0,0.002 0,0.004 -0.001,0.006 0,0.003 -0.001,0.006 -0.002,0.01 -0.005,0.014 -0.01,0.031 -0.018,0.05 -0.007,0.02 -0.014,0.039 -0.022,0.06 -0.008,0.021 -0.016,0.041 -0.024,0.062 -0.008,0.021 -0.015,0.04 -0.021,0.058 -0.006,0.018 -0.011,0.034 -0.015,0.048 -0.004,0.013 -0.006,0.023 -0.006,0.029 0,0.004 0.001,0.005 0.005,0.005 0.006,0 0.015,-0.003 0.028,-0.011 0.012,-0.007 0.027,-0.016 0.043,-0.028 0.016,-0.012 0.033,-0.025 0.05,-0.039 0.018,-0.015 0.034,-0.029 0.051,-0.042 0.016,-0.014 0.03,-0.027 0.043,-0.038 0.013,-0.011 0.023,-0.02 0.03,-0.026 0.006,0.005 0.012,0.012 0.019,0.02 0.006,0.008 0.013,0.015 0.019,0.022 -0.012,0.012 -0.028,0.028 -0.046,0.045 -0.019,0.018 -0.039,0.036 -0.061,0.055 -0.022,0.019 -0.045,0.037 -0.068,0.056 -0.024,0.019 -0.046,0.035 -0.068,0.05 -0.022,0.015 -0.043,0.027 -0.062,0.036 -0.02,0.009 -0.036,0.013 -0.048,0.013 -0.009,0 -0.02,-0.003 -0.033,-0.009 -0.013,-0.005 -0.025,-0.013 -0.038,-0.022 -0.012,-0.008 -0.022,-0.018 -0.031,-0.029 -0.008,-0.011 -0.012,-0.021 -0.012,-0.031 0.005,-0.023 0.012,-0.05 0.021,-0.079 0.008,-0.03 0.018,-0.06 0.028,-0.091 0.01,-0.03 0.021,-0.061 0.032,-0.091 0.011,-0.031 0.021,-0.058 0.032,-0.084l-0.002 0.002c-0.011,0.013 -0.026,0.03 -0.046,0.051 -0.02,0.021 -0.043,0.048 -0.069,0.082 -0.025,0.033 -0.052,0.073 -0.08,0.119 -0.029,0.047 -0.056,0.102 -0.083,0.166 -0.004,0.008 -0.007,0.014 -0.01,0.019 -0.003,0.004 -0.008,0.007 -0.016,0.007 -0.01,0 -0.021,-0.003 -0.033,-0.008 -0.012,-0.006 -0.024,-0.013 -0.037,-0.022 -0.013,-0.008 -0.026,-0.018 -0.038,-0.029 -0.013,-0.011 -0.024,-0.021 -0.034,-0.032 0,-0.004 0.001,-0.013 0.004,-0.029 0.003,-0.016 0.008,-0.036 0.013,-0.06 0.006,-0.024 0.013,-0.051 0.021,-0.082 0.009,-0.031 0.019,-0.063 0.029,-0.097 0.011,-0.034 0.023,-0.069 0.036,-0.104 0.012,-0.036 0.026,-0.07 0.041,-0.103 0.024,0.012 0.05,0.026 0.079,0.042 0.029,0.016 0.056,0.036 0.081,0.058zm0.442 0.175c0.013,-0.012 0.028,-0.026 0.045,-0.042 0.016,-0.016 0.033,-0.033 0.05,-0.052 0.017,-0.018 0.032,-0.039 0.046,-0.06 0.015,-0.022 0.026,-0.045 0.035,-0.07 0.002,-0.013 0.006,-0.026 0.011,-0.041 0.004,-0.014 0.01,-0.027 0.015,-0.039 0.007,-0.012 0.012,-0.022 0.018,-0.03 0.006,-0.008 0.011,-0.012 0.015,-0.012 0.007,0.004 0.017,0.012 0.031,0.023 0.013,0.011 0.027,0.022 0.04,0.035 0.014,0.012 0.026,0.024 0.037,0.034 0.01,0.011 0.015,0.017 0.015,0.019 -0.006,0.026 -0.01,0.05 -0.01,0.071 0.001,0.021 0.002,0.042 0.006,0.062 0.003,0.02 0.006,0.042 0.01,0.065 0.004,0.023 0.005,0.049 0.005,0.079 0,0.018 -0.003,0.039 -0.009,0.062 -0.005,0.024 -0.016,0.045 -0.031,0.064 0.029,-0.017 0.058,-0.036 0.086,-0.058 0.028,-0.021 0.054,-0.041 0.076,-0.06 0.026,-0.022 0.051,-0.044 0.074,-0.066l0.039 0.042c-0.019,0.017 -0.039,0.036 -0.061,0.056 -0.022,0.02 -0.045,0.039 -0.068,0.059 -0.023,0.019 -0.047,0.037 -0.072,0.055 -0.024,0.017 -0.048,0.033 -0.072,0.046 -0.024,0.014 -0.047,0.025 -0.069,0.033 -0.022,0.007 -0.042,0.011 -0.062,0.011 -0.016,0 -0.034,-0.004 -0.054,-0.011 -0.02,-0.008 -0.038,-0.018 -0.056,-0.029 -0.017,-0.012 -0.033,-0.024 -0.046,-0.036 -0.013,-0.012 -0.02,-0.023 -0.023,-0.031 0,-0.001 0.002,-0.004 0.004,-0.008 0.002,-0.003 0.005,-0.007 0.008,-0.011 0.003,-0.004 0.006,-0.008 0.009,-0.011 0.003,-0.003 0.006,-0.004 0.008,-0.004 0.003,0 0.01,0.002 0.02,0.007 0.01,0.005 0.027,0.008 0.051,0.008 0.013,0 0.024,-0.004 0.033,-0.01 0.01,-0.007 0.017,-0.016 0.024,-0.027 0.006,-0.012 0.01,-0.025 0.013,-0.039 0.003,-0.015 0.004,-0.031 0.004,-0.047 0,-0.024 -0.001,-0.047 -0.003,-0.069 -0.002,-0.023 -0.005,-0.044 -0.008,-0.065 -0.009,0.011 -0.02,0.023 -0.033,0.036 -0.012,0.012 -0.025,0.024 -0.037,0.036 -0.013,0.013 -0.026,0.024 -0.039,0.036 -0.012,0.012 -0.024,0.022 -0.034,0.031l-0.041 -0.042z"/>
   </g>
  </g>
 </g>
</svg>
