<?xml version="1.0" encoding="UTF-8"?>
<!DOCTYPE svg PUBLIC "-//W3C//DTD SVG 1.1//EN" "http://www.w3.org/Graphics/SVG/1.1/DTD/svg11.dtd">
<!-- Creator: CorelDRAW 2021 (64-Bit) -->
<svg xmlns="http://www.w3.org/2000/svg" xml:space="preserve" width="211px" height="60px" version="1.1" style="shape-rendering:geometricPrecision; text-rendering:geometricPrecision; image-rendering:optimizeQuality; fill-rule:evenodd; clip-rule:evenodd"
viewBox="0 0 6.174 1.756"
 xmlns:xlink="http://www.w3.org/1999/xlink"
 xmlns:xodm="http://www.corel.com/coreldraw/odm/2003">
 <defs>
  <style type="text/css">
   <![CDATA[
    .fil1 {fill:#FEFEFE}
    .fil2 {fill:#FEFEFE;fill-rule:nonzero}
    .fil0 {fill:url(#id0)}
   ]]>
  </style>
  <linearGradient id="id0" gradientUnits="userSpaceOnUse" x1="6.174" y1="1.296" x2="1.204" y2="1.296">
   <stop offset="0" style="stop-opacity:1; stop-color:#F58634"/>
   <stop offset="1" style="stop-opacity:1; stop-color:#FEBF2C"/>
  </linearGradient>
 </defs>
 <g id="Layer_x0020_1">
  <metadata id="CorelCorpID_0Corel-Layer"/>
  <g id="_1792599394144">
   <path class="fil0" d="M1.22 1.235c-0.001,-0.003 -0.009,0.003 -0.007,-0.002 0.008,-0.001 0.021,-0.001 0.027,0 0.001,0.005 -0.014,0 -0.017,0.002 0.013,0.005 0.039,-0.002 0.049,0.002 -0.007,-0.002 0.015,-0.003 0.019,-0.006 0.006,0.002 0,0.002 0.001,0.004 0.011,0.001 0.003,-0.003 0.017,-0.002 -0.001,0.002 -0.012,0.002 -0.009,0.006 -0.007,0 -0.012,-0.001 -0.014,-0.002 -0.007,0 -0.007,0.003 -0.01,0.004 0.014,0.005 0.039,-0.001 0.048,-0.001 -0.002,-0.001 -0.009,-0.001 -0.014,-0.001 0.016,-0.007 0.038,-0.001 0.056,0.003 0.009,0 0.003,-0.005 0.015,-0.004 0.001,0.002 -0.008,0.001 -0.005,0.004 0.029,-0.003 0.072,-0.009 0.104,-0.008 -0.001,-0.003 -0.018,-0.001 -0.018,-0.005 0.01,0.001 0.023,0.001 0.025,0.005 0.021,-0.002 0.051,0.007 0.075,-0.001 -0.001,0.002 0.011,0.001 0.018,0.004 0.009,-0.002 0.005,-0.005 0.013,-0.002 0.009,-0.001 -0.006,-0.002 -0.004,-0.005 0.011,-0.001 0.006,0.005 0.018,0.005 0.005,-0.001 0,-0.001 -0.003,-0.001 0.011,-0.004 0.062,0.005 0.071,-0.003l0.004 0.003c0.009,-0.001 0.027,0.001 0.041,0.001 0.012,0 -0.008,-0.003 0.003,-0.003 0.015,0.002 0.061,0.005 0.064,-0.006 0.001,0 0.002,0 0.003,0l0 -0.001c0.004,0.001 0.008,0.001 0.012,0.001 0.003,-0.001 0.006,-0.002 0.007,-0.002l-0.001 0c0.002,-0.003 -0.02,-0.005 -0.039,-0.006l0.007 -0.005c0.003,0 0.005,0.001 0.007,0.002l0.004 -0.002c-0.006,-0.002 -0.026,0 -0.037,0l0.006 -0.003c-0.016,0.002 -0.027,-0.001 -0.026,0.005 -0.008,-0.002 -0.011,-0.004 -0.022,-0.004 -0.005,0 0.001,0.001 0,0.003 -0.008,-0.002 -0.016,-0.003 -0.022,-0.006 -0.009,0.002 -0.034,0.009 -0.047,0.003 -0.007,0 -0.01,0.002 -0.009,0.004 -0.01,-0.002 -0.02,-0.001 -0.042,-0.001 -0.003,-0.004 0.013,-0.004 0.024,-0.004 -0.006,-0.004 -0.014,0.001 -0.025,-0.001 -0.004,0 -0.01,0.003 -0.003,0.003 -0.005,0.003 -0.022,0 -0.021,-0.004 -0.016,0.001 -0.03,-0.002 -0.04,0.002 -0.001,0.003 0.012,-0.003 0.01,0.002 -0.014,0.002 -0.022,-0.002 -0.038,-0.001 -0.004,0 0.002,0.002 0.001,0.003 -0.054,-0.005 -0.104,0.001 -0.154,-0.002 0.006,-0.001 0.012,-0.004 0.019,-0.002 -0.009,-0.004 0.007,-0.001 0.006,-0.005 0.006,0 0.008,0.001 0.008,0.004 0.011,-0.004 0.016,0.002 0.031,0.001 0.008,0 -0.004,-0.002 -0.007,-0.003 0.003,-0.002 0.013,0.001 0.016,-0.002 0.028,0.001 0.046,0.004 0.071,-0.002l0.001 0.004c0.006,-0.002 0.009,-0.001 0.018,-0.001 0.006,-0.001 -0.01,-0.003 -0.012,-0.004 0.006,-0.002 0.013,-0.003 0.009,-0.007 0.007,-0.001 0.02,0.005 0.021,0.001 0.01,0.001 0,0.004 -0.002,0.006 0.014,0.002 0.019,-0.001 0.026,-0.006 0.005,0 0.013,0 0.013,-0.002 0.011,0.001 -0.003,0.003 -0.01,0.003 -0.013,0.01 0.038,0.009 0.045,0.002 0.015,0 -0.005,0.005 0.015,0.004 0,0.001 -0.006,0.001 -0.01,0.001 0.01,0.004 0.018,-0.004 0.027,-0.001 0.005,-0.001 -0.001,-0.001 0.003,-0.004 0.018,0.003 0.022,-0.002 0.038,0.001 -0.002,-0.004 0.013,-0.001 0.022,-0.006 0.008,0.003 0,0.001 -0.003,0.003 0.007,0.003 0.026,0 0.024,-0.004 0.014,0.001 0.003,0.004 0.014,0.005 0.015,-0.002 0.006,-0.005 0.02,-0.002 0.013,-0.004 -0.008,-0.005 -0.008,-0.007 0.01,-0.002 0.013,-0.002 0.02,0 0.003,-0.003 0.018,-0.002 0.02,-0.005 -0.002,-0.002 -0.006,0.002 -0.014,0.001 0.004,-0.006 0.005,-0.003 -0.005,-0.006 0.021,0.001 0.033,0 0.046,0.005 0.014,-0.005 0.032,-0.007 0.05,-0.008 -0.007,0.006 -0.042,0.002 -0.036,0.008 0.012,0.003 0.027,0.004 0.03,0.009 -0.016,0 -0.024,-0.005 -0.049,-0.005 0.005,0.003 0.021,0.002 0.028,0.005 -0.015,0.002 -0.049,-0.004 -0.072,0 0.005,0.002 0.02,0.006 0.009,0.009 0.011,0.003 0.027,0 0.048,0l-0.005 -0.005c0.01,0.001 0.012,0.002 0.01,-0.002 0.005,0.002 0.012,0.003 0.021,0.003 0.005,0 0.004,-0.001 0,-0.002 0.022,0.001 0.044,0.001 0.076,0.001 0.003,0 0.002,-0.002 0.006,-0.003 -0.003,-0.001 -0.009,-0.002 -0.018,-0.001 0.017,-0.002 0.005,-0.005 -0.008,-0.005 -0.004,0.002 0.004,0.005 -0.008,0.006 -0.007,-0.001 0.002,-0.004 -0.005,-0.007 -0.012,0.001 -0.005,0.005 -0.01,0.006 -0.019,-0.003 -0.002,-0.011 -0.029,-0.008 -0.004,-0.004 0.014,-0.002 0.02,-0.003l0.005 0.004c0.031,0.002 0.023,-0.011 -0.009,-0.007 0.002,-0.001 0.004,-0.002 -0.001,-0.002 0.001,-0.001 0.029,-0.002 0.028,0.001 0.009,-0.001 -0.007,-0.003 0.003,-0.005 -0.026,0.002 -0.033,-0.003 -0.059,-0.001 0.002,0.002 -0.016,0.004 -0.009,0.005 -0.018,0 -0.039,-0.001 -0.058,-0.001 0.011,-0.002 0.015,-0.003 0.005,-0.006 0.01,-0.001 0.016,0 0.011,0.003 0.008,-0.002 0.021,-0.002 0.014,0.001 0.011,0.001 0.004,-0.003 0.013,-0.003 -0.002,-0.003 -0.024,0.001 -0.024,-0.002 -0.005,-0.004 0.014,-0.001 0.016,-0.004l-0.011 -0.002c0.004,0.002 -0.017,0.005 -0.03,0.002 0.014,0.004 0.005,0.004 -0.01,0.006 0.007,-0.007 -0.042,-0.004 -0.047,0.002 -0.014,0.001 -0.014,-0.003 -0.025,-0.002l0.01 -0.003c-0.004,-0.004 -0.008,0.001 -0.017,0 -0.005,0 0,0.003 -0.006,0.004 0.007,0 0.013,0.002 0.021,0.002 -0.001,0.002 -0.004,0.004 -0.001,0.007 0.002,0.002 0.007,0.002 0.013,0.002 -0.014,-0.005 0.019,-0.001 0.024,-0.003 0,0.004 0.018,0.003 0.028,0.003 0.002,-0.003 -0.006,-0.003 -0.005,-0.005 0.015,0.001 0.006,0.003 0.012,0.007 -0.009,0 -0.018,0.001 -0.027,0.001 0.001,0.002 0.003,0.003 0.008,0.004l-0.013 0.003c-0.01,-0.001 0.01,-0.002 0.005,-0.005l-0.002 0.002c-0.002,-0.002 -0.023,-0.004 -0.017,0.002 -0.009,0 -0.009,-0.002 -0.011,-0.005 -0.014,0.001 -0.024,0.004 -0.031,0 -0.005,0.001 0.001,0.001 0,0.004 -0.018,-0.004 -0.053,-0.003 -0.071,0.001 -0.023,-0.001 -0.033,0 -0.07,-0.002l0.005 0.004c-0.007,-0.004 -0.019,0 -0.025,-0.004 -0.003,0 -0.005,0.001 -0.01,0.001 -0.003,0 -0.009,0.003 -0.004,0.003 -0.008,0.002 -0.007,-0.004 -0.01,-0.005 0.006,-0.001 0.025,-0.003 0.028,0.001 0.008,-0.002 0.025,-0.002 0.033,-0.004 0.006,0 0.008,0.002 0.008,0.004 0.024,-0.003 0.05,-0.001 0.063,-0.007 -0.01,-0.001 -0.03,0 -0.051,0.001 0.002,-0.004 0.029,-0.002 0.037,-0.005 -0.005,-0.001 -0.022,0 -0.011,-0.004 -0.014,0.001 -0.013,0.002 -0.021,0 0.021,0.001 0.04,-0.009 0.011,-0.01 -0.012,0.001 0.003,0.003 -0.006,0.005 -0.005,0 -0.008,-0.001 -0.007,-0.003 -0.011,0.004 -0.02,-0.002 -0.024,0.002 -0.014,-0.001 0,-0.004 -0.005,-0.008 0.002,0.002 0.014,0.008 0.021,0.003 0,0 -0.017,-0.003 0.003,-0.003 -0.003,-0.002 -0.02,0 -0.018,-0.004 0.012,-0.001 0.015,0.002 0.02,0 0.001,-0.002 -0.003,-0.002 -0.007,-0.002 0,-0.001 0.019,-0.001 0.02,-0.004 0.006,0.002 -0.003,0.003 0.005,0.005 0.006,-0.002 0.02,-0.001 0.02,0.002 0.007,0 0.008,-0.002 0.007,-0.005 0.014,0.003 0.025,0 0.038,0.003 0,0.002 -0.013,0.001 -0.017,0.001 0.005,0.009 0.025,-0.003 0.034,0l-0.01 0.003c0.004,0.002 0.012,0.002 0.018,0.003 0.005,-0.001 0,-0.004 0.006,-0.004l-0.007 0c-0.014,-0.002 0.01,-0.001 0.01,-0.003 0.001,0.001 0.007,0.005 -0.003,0.004 0,0.003 0.009,0.003 0.009,0.007 0.01,0 0.011,-0.003 0.023,-0.002 -0.003,-0.004 -0.01,0 -0.017,-0.002 0.001,-0.001 0.008,-0.001 0.013,-0.001 0.009,0 -0.003,-0.005 0.009,-0.004 0,0.002 -0.001,0.004 -0.005,0.005 0.003,0.004 0.023,0.002 0.038,0.002 0.003,-0.002 0.007,-0.005 -0.002,-0.009 0.008,0.001 0.015,0.004 0.008,0.007 0.007,0.002 0.018,-0.001 0.024,-0.002 -0.01,-0.001 -0.003,-0.004 -0.008,-0.004 0.008,-0.002 0.002,0.004 0.018,0.004 0.014,-0.003 -0.005,-0.008 0.015,-0.009l-0.017 0.001c-0.007,0 -0.007,-0.001 -0.003,-0.003 -0.007,0 -0.007,0.001 -0.007,0.002 -0.007,0 -0.008,-0.001 -0.004,-0.003 -0.024,-0.002 -0.038,-0.001 -0.059,-0.003 -0.004,-0.002 0.004,-0.002 0.002,-0.005 0.018,0.004 0.03,-0.002 0.045,0.001 -0.013,-0.01 -0.059,-0.012 -0.089,-0.012 -0.003,0.003 0,0.004 -0.005,0.007 -0.004,0 -0.009,-0.002 -0.004,-0.002 -0.004,-0.003 -0.009,0 -0.014,-0.003 0,-0.002 0.008,-0.001 0.013,-0.001 -0.016,-0.001 -0.04,-0.007 -0.045,-0.001 -0.005,-0.002 0.005,-0.004 0.002,-0.007 -0.037,0.003 -0.035,0.002 -0.078,0.002 0.011,-0.002 0.011,-0.005 -0.004,-0.003 -0.006,-0.005 0.017,-0.002 0.019,-0.005l-0.027 0.003c-0.005,-0.001 -0.012,-0.002 -0.014,-0.005 -0.005,0.002 -0.018,0.002 -0.017,0.005 -0.013,-0.002 -0.018,0 -0.031,-0.001 0.001,-0.003 0.009,-0.007 -0.008,-0.005 0.001,-0.003 0.009,-0.003 0.006,-0.006 0.01,0.002 0.03,0.003 0.034,-0.002 0.029,0.007 0.037,0.006 0.079,0.002l-0.006 0.004 0.004 0.001c0.007,-0.001 0.006,-0.003 0.005,-0.006 0.007,0 0.004,0.004 0.011,0.004 0.01,-0.001 0.004,-0.002 0.003,-0.004 0.014,0.006 0.027,-0.002 0.035,0.005 0.018,0 0.022,-0.003 0.034,-0.004 0.003,0.002 0.004,0.004 0.011,0.004 0.005,-0.003 -0.009,-0.005 -0.002,-0.008 0.006,0 0.005,0.002 0.014,0.001 -0.007,0.003 -0.008,0.006 0.008,0.006 -0.007,-0.004 -0.009,-0.006 0.005,-0.008 -0.006,0.007 0.018,0.004 0.025,0.002 0.005,0 -0.003,0.005 0.011,0.005 0.008,-0.005 -0.016,-0.009 -0.032,-0.006 0.009,-0.005 0.025,-0.001 0.034,-0.003 0.002,0.001 0.003,0.008 0.016,0.009 0.008,-0.001 0.014,-0.002 0.012,-0.007 -0.011,0.001 -0.006,0.004 -0.013,0.004 -0.018,-0.004 0.019,-0.005 -0.002,-0.007 0.003,-0.002 0.021,0 0.03,-0.001 0,0.002 -0.022,0.002 -0.008,0.007 0.012,0 0.018,-0.001 0.02,-0.003 0.002,0.002 0.027,0.002 0.023,-0.003 0.017,-0.001 0.039,0 0.037,-0.005 0.004,0 0.002,0.003 0.006,0.003 -0.02,0.004 -0.004,0.008 0.004,0.012 0.013,-0.002 0.005,-0.004 0.008,-0.008 0.009,0.002 0.026,0.001 0.032,0.004 0.028,-0.004 0.054,0 0.074,-0.005 0.001,-0.003 -0.013,-0.001 -0.011,-0.004l0.01 0c0.004,0 0.004,0.002 0.004,0.003 0.016,-0.001 0.019,-0.005 0.034,-0.005l-0.006 0.003c0.06,-0.002 0.089,0 0.15,-0.001 -0.012,-0.001 -0.022,-0.002 -0.031,-0.002 0.02,-0.009 0.055,0.002 0.078,-0.004 -0.007,-0.002 -0.013,-0.002 -0.008,-0.005 0.032,0 0.06,0.005 0.071,-0.004 -0.021,-0.001 -0.044,0.001 -0.043,-0.009 0.004,0 0.009,0 0.013,0 0,-0.005 -0.008,-0.007 -0.019,-0.008 -0.011,0 0.01,0.003 -0.002,0.003 -0.011,-0.01 -0.066,-0.012 -0.083,0 -0.012,-0.004 0.013,-0.006 0.022,-0.008 -0.004,-0.004 -0.022,-0.004 -0.029,-0.008 -0.006,0.003 -0.016,0.002 -0.016,0.005 -0.008,0 -0.001,-0.006 -0.008,-0.006 -0.008,0 -0.006,0.004 -0.017,0.003 -0.006,-0.006 -0.024,-0.001 -0.037,0.001 -0.022,-0.005 -0.056,-0.001 -0.07,-0.005 -0.011,0.001 -0.014,0.004 -0.026,0.005 -0.002,-0.003 -0.012,-0.002 -0.011,-0.005 -0.03,0 -0.038,0.001 -0.069,0.002 0,-0.002 0.011,-0.002 0.02,-0.002 -0.013,-0.002 -0.021,-0.005 -0.035,-0.007l-0.007 0.003c-0.006,-0.001 -0.013,-0.001 -0.015,-0.005 0.005,-0.003 0.021,0.002 0.017,-0.002 0.02,0.001 0.051,0 0.05,-0.008 0.003,-0.003 0.004,0.002 0.001,0.003 0.013,-0.002 0.015,0.002 0.034,0.001 0.006,-0.001 0.002,-0.005 0.013,-0.004l-0.005 -0.004c0.015,0 0.046,0.001 0.051,-0.005 0.019,0.002 0.044,-0.001 0.062,0.004 0.011,-0.008 0.049,0.001 0.057,-0.006 0.006,0.001 0.005,0.005 0.008,0.007 0.001,-0.004 0.008,-0.005 0.011,-0.001 0.03,-0.003 0.079,0.004 0.098,-0.003 0.01,0.004 0.042,0.004 0.055,0l-0.004 -0.003c0.041,-0.006 0.073,0.001 0.093,-0.011 -0.011,-0.003 -0.012,0.004 -0.026,0.003 0.027,-0.013 0.102,-0.002 0.138,-0.011 0.026,0.008 0.045,-0.008 0.058,0 0.006,0 0.011,-0.001 0.013,-0.002 0.007,0.001 0.012,0.002 0.018,0.004 0.004,0 0.009,-0.002 0.003,-0.002 0.009,-0.002 0.017,-0.001 0.025,0.001 0.041,-0.002 0.069,-0.005 0.108,-0.003 0.026,-0.006 0.075,-0.002 0.107,-0.001 0.069,-0.007 0.14,0 0.19,-0.007 -0.001,0.002 0.006,0.002 0.004,0.004 0.011,0.001 0.011,-0.002 0.009,-0.005 0.012,0.001 0.007,0.003 0.012,0.005 0.004,-0.004 0.008,-0.002 0.02,-0.001 0.003,-0.005 -0.016,-0.001 -0.015,-0.006 0.013,0.003 0.043,0.003 0.039,0.007 0.012,0.001 0.011,-0.002 0.01,-0.004 0.041,-0.001 0.049,0.006 0.093,0 -0.005,0.002 -0.001,0.002 0,0.003 0.013,0.001 0.018,-0.001 0.02,-0.003 0.01,-0.001 0.01,0.002 0.018,0.002 0.017,0 0.013,-0.006 0.032,-0.006 -0.009,0.006 0.025,0.002 0.032,0.005 0.011,-0.001 0.012,-0.005 0.023,-0.005l-0.009 0.004c0.036,0 0.046,-0.003 0.082,-0.002 0.016,0.001 0.038,-0.002 0.048,-0.001 0.011,0.001 0.015,0.004 0.025,0.005 0.017,0.001 0.049,-0.005 0.055,0 0.032,-0.003 0.065,-0.002 0.109,-0.002 0.002,-0.005 0.039,-0.002 0.048,0 0.009,-0.002 0.003,-0.002 0.002,-0.005 0.011,0.001 0.016,0.003 0.031,0.002 0.011,-0.001 0.004,-0.002 0.002,-0.005 0.008,-0.001 0.008,0.002 0.008,0.003 0.034,0.003 0.067,-0.008 0.099,-0.001 0.012,-0.004 0.048,0.002 0.057,-0.006 0.005,0.001 0.016,0 0.015,0.004 0.009,0 0.008,-0.003 0.013,-0.005 0.001,0.008 0.038,0 0.054,0 0.014,-0.001 0.03,0.005 0.041,-0.001 0.017,0.007 0.04,0 0.068,-0.001l0.003 -0.004c0.04,0.004 0.065,-0.002 0.092,-0.004 0.012,0 0.017,0.002 0.021,0.005 0.017,0.001 0.018,-0.003 0.03,-0.004 -0.001,0.005 0.029,-0.001 0.029,0.003 0.011,-0.003 0.03,-0.002 0.045,-0.002 0,0.001 0.02,0.003 0.026,0.002 0.011,0 0.017,-0.002 0.027,-0.002 0.011,-0.001 0.024,0.003 0.035,0.003 0.018,0.001 0.051,0.002 0.079,-0.001 0.005,0.003 0.008,0.002 0.004,0.005 0.025,-0.008 0.043,0 0.068,-0.001 -0.002,-0.003 -0.014,-0.003 -0.014,-0.006 0.012,0.008 0.061,0 0.089,0.001 -0.002,-0.004 -0.031,0 -0.029,-0.006 -0.012,0.006 -0.034,0.001 -0.054,0.003 0.051,-0.008 0.128,-0.009 0.169,-0.011 -0.018,-0.01 -0.084,0.004 -0.101,-0.006 -0.022,0.003 -0.025,0.002 -0.04,0.005 0.003,-0.003 0.001,-0.005 -0.008,-0.006 -0.019,0.008 -0.068,0 -0.077,0.008 -0.009,-0.005 -0.025,0 -0.035,-0.001l0.01 -0.003c-0.003,-0.005 -0.049,0 -0.044,0.003 -0.018,-0.006 -0.041,0 -0.065,0.002 -0.015,-0.003 -0.078,-0.006 -0.092,0.002 -0.006,-0.001 -0.008,-0.002 -0.007,-0.004 -0.037,0.001 -0.058,0.003 -0.097,0 0.032,-0.004 0.059,0.001 0.078,-0.006l-0.008 -0.003c-0.013,0.001 -0.014,0.001 -0.024,-0.001 -0.011,0.003 -0.032,0.006 -0.044,0.003 -0.009,0.005 -0.027,0.003 -0.04,0.007 0.009,-0.003 -0.01,-0.002 -0.02,-0.003 0.054,-0.008 0.115,-0.007 0.158,-0.011 0.007,0.001 0.022,0.005 0.027,0 0.01,0.001 0.013,0.004 0.022,0.005 -0.005,-0.002 0.004,-0.002 0.013,-0.005 0.006,0 0.003,0.004 0.011,0.003 0.014,0.001 0.005,-0.005 0.019,-0.005 0,0.002 0.003,0.002 0.008,0.002 0.027,-0.008 0.09,-0.001 0.115,-0.005 0.028,0.005 0.058,-0.003 0.099,0 0.016,-0.003 0.042,-0.006 0.048,-0.002 0.007,0 0.01,-0.002 0.016,-0.003l-0.007 -0.003c0.006,0.004 0.015,0 0.024,0 0.04,0 0.097,-0.001 0.144,0 0,0.004 -0.005,0.003 -0.013,0.002l-0.004 0.002 0.007 0c0.01,0.001 -0.004,0.003 0.005,0.004 0.019,-0.01 0.058,-0.001 0.088,-0.002l-0.005 -0.001c0.034,-0.006 0.082,-0.008 0.1,-0.003 0.011,0 0.002,-0.005 0.011,-0.005l0.002 0c-0.01,0.003 0.013,0.002 0.011,0.006 0.008,-0.002 0.018,-0.002 0.025,0 -0.011,0.003 0.007,0.004 0.012,0.006 0.007,-0.005 0.019,-0.005 0.032,-0.006 0,0.003 -0.008,0.003 -0.013,0.002 -0.002,0.003 -0.006,0.004 0.002,0.008 0.007,-0.004 0.011,0.002 0.023,-0.002l0.005 0.003c-0.007,0.004 -0.008,0.009 -0.019,0.01l0.005 0.004c0.006,0 0.007,-0.002 0.013,-0.002 0,0.003 0.005,0.004 0.014,0.003 -0.009,0.003 -0.005,0.006 0.002,0.009 -0.005,-0.001 -0.008,-0.001 -0.014,0 0.009,0.003 0.003,0.007 -0.007,0.009 0.003,0.003 0.008,-0.002 0.017,-0.001l0.001 0.008c-0.014,-0.001 -0.013,0.003 -0.03,0.001 -0.004,0.002 -0.008,0.004 -0.012,0.007 -0.007,-0.002 -0.009,0 -0.018,0 -0.001,-0.003 -0.023,-0.003 -0.027,-0.001 0.003,0.001 0.006,0.003 0.014,0.002 -0.009,0.006 0.003,0.007 0.019,0.008 0.005,-0.001 0.006,-0.003 0.009,-0.004 0.008,0.008 0.036,0.002 0.046,0.007 0.009,-0.002 0.023,-0.01 0.005,-0.01 0.001,-0.003 0.021,-0.001 0.027,0 0.004,0.003 -0.01,0.001 -0.013,0.003 0.001,0.003 0.02,0.004 0.005,0.006 0.007,0 0.01,0.002 0.018,0.002 -0.002,0.001 -0.003,0.002 0.001,0.003 -0.004,0.001 -0.024,0.004 -0.016,0.005 -0.015,0.003 -0.029,0 -0.048,0.003 0.003,0.003 0.014,0.001 0.021,0 -0.002,0.004 0.011,0.003 0.008,0.007 -0.002,0.001 -0.03,0.001 -0.019,0.004 -0.012,-0.001 -0.018,-0.002 -0.038,-0.001 -0.006,0.008 -0.033,0.006 -0.049,0.011 0.014,0.002 0.016,-0.003 0.034,-0.001 0.002,0.004 -0.012,0 -0.012,0.004 -0.004,-0.002 -0.008,-0.001 -0.003,0.004 -0.007,-0.001 -0.014,-0.002 -0.008,-0.004 -0.013,0 -0.018,0.001 -0.023,0.006 -0.016,-0.003 -0.026,0.003 -0.04,0.004 0.009,0.003 0.043,0.01 0.05,0.006 0.011,0.002 -0.008,0.005 -0.005,0.008 0.006,0.002 0.009,0.007 0.022,0.008l0 -0.001c0.002,-0.003 0.009,0.001 0.017,-0.001 0.007,0 -0.002,-0.003 -0.004,-0.003l0.028 0.003c0.019,-0.005 0.074,-0.006 0.08,-0.011 0.003,-0.002 0.013,0.003 0.018,0.004l0.006 -0.001c0.005,-0.004 -0.016,-0.002 -0.004,-0.004 0.003,0 0.005,-0.001 0.01,-0.001 0.003,0.009 0.061,0 0.078,-0.002 0.012,0.003 0.033,0.005 0.042,0 0.013,0 0.001,0.001 0.004,0.003 0.009,-0.002 0.008,-0.002 0.023,-0.003 -0.017,-0.002 -0.012,-0.005 -0.023,-0.01 -0.007,0.003 -0.01,0 -0.021,0.001 0.014,-0.004 0.035,-0.005 0.058,-0.005 0.003,0.003 0.011,0.005 0.005,0.007 0.01,0 0.011,-0.005 0.002,-0.005 0.002,-0.004 0.031,0.002 0.014,0.002 0.004,0.003 0.01,-0.002 0.02,-0.001 0.006,0.006 0.017,0.011 0.041,0.012 -0.006,0.005 -0.051,-0.001 -0.058,0 0.011,0.002 0.017,0.005 0.035,0.005 -0.001,0.004 -0.017,0.004 -0.026,0.004 0.003,0.004 0.019,0.001 0.032,0.004 -0.006,0.003 -0.033,0.003 -0.031,-0.001 -0.018,0.001 -0.009,0.008 -0.03,0.005 0.009,0.002 0.016,0.005 0.029,0.006 -0.002,0.001 -0.004,0.002 0,0.002l-0.013 0.004c0.003,0.003 0.015,0.004 0.019,0.008 0.027,-0.003 0.053,0 0.086,-0.002 -0.007,0.003 0.005,0.004 0.011,0.006 -0.01,-0.004 0.001,-0.002 -0.001,-0.008 0.003,0.004 0.015,0.003 0.024,0.004 0.005,0.002 -0.009,0.004 0.002,0.005l-0.01 0.002c-0.005,0.005 0.015,0 0.014,0.003 0.001,0.003 -0.013,0.002 -0.017,0.002 -0.012,0.001 0.004,0.01 -0.014,0.01l-0.001 -0.005c-0.018,0.001 0.002,0.006 -0.012,0.008 0.003,0.003 0.004,-0.002 0.013,-0.001 0.003,0.005 -0.023,0.002 -0.022,0.007 0.005,0.002 0.012,0.003 0.021,0.004 -0.001,0.004 0.009,0.018 0.041,0.011 -0.006,-0.001 -0.009,-0.002 -0.018,-0.002 0.006,-0.003 0.025,0 0.034,0 -0.011,0.003 0.004,0.008 -0.004,0.012 -0.007,-0.001 -0.014,-0.002 -0.021,-0.003 -0.01,0 -0.017,0.001 -0.02,0.004 0.012,0.001 0.027,0.001 0.038,0 -0.01,0.006 -0.025,0.001 -0.044,0.002l0.004 0.002c0.004,0.003 -0.018,-0.004 -0.025,-0.005 -0.013,0.003 -0.003,0.008 -0.019,0.008 0.007,0.002 0.014,0.005 0.028,0.004 -0.004,0.003 -0.015,0 -0.023,0.001 -0.006,0.001 -0.006,0.005 -0.013,0.006l0.004 0.002c0.01,-0.001 0.042,-0.006 0.047,-0.007l0 0.001 0.004 0.003c0.011,-0.001 0.014,-0.004 0.03,-0.003 0.003,0.003 -0.005,0.003 -0.002,0.006 0.007,0.001 0.008,-0.002 0.004,-0.002 0.009,-0.001 0.033,0.002 0.04,-0.001 -0.004,-0.001 -0.004,-0.005 -0.015,-0.004 -0.008,0.001 0.006,0.002 0.001,0.005 -0.016,0 -0.006,-0.004 -0.005,-0.007 0.005,0 0.01,0 0.011,-0.001 0.006,0 0.002,0.003 0.01,0.003 0.004,-0.002 0.005,-0.004 0.005,-0.008 0.005,0 0.004,0.003 0.005,0.004 0.006,0 0.011,0 0.017,0 0.009,-0.001 0.008,-0.009 0.023,-0.005l-0.01 0.002c0.009,0.001 0.012,0.003 0.021,0.004 -0.013,0.002 -0.004,0.002 -0.023,0.004 -0.002,0.005 0.008,0.006 0.022,0.005 -0.008,-0.005 0.004,-0.004 0.007,0 0.015,-0.001 0.017,-0.005 0.037,-0.005 0.001,0.003 -0.005,0.003 -0.01,0.003l0.007 0.003c0.023,-0.005 0.055,-0.003 0.071,-0.008 0.005,0.001 0.007,0.003 0.02,0.002 0,0.003 -0.01,0.005 -0.016,0.004 -0.001,0.002 0.002,0.004 0.011,0.003 0.011,0.001 -0.009,0.001 -0.013,0.001 0.014,0.008 0.062,-0.001 0.039,-0.008 0.004,-0.001 0.007,-0.001 0.01,-0.001 -0.002,-0.001 -0.006,-0.001 -0.011,-0.001 0.004,-0.006 0.024,-0.004 0.037,-0.006 -0.009,0.004 0.009,0.005 0.018,0.005 0.009,0 0.005,-0.004 0.009,-0.005 0.011,0.002 0.015,0.001 0.024,-0.001 0.005,0.005 0.004,0.008 0.019,0.007 -0.002,0.003 0,0.007 -0.012,0.007 0.026,0 0.052,0.005 0.058,0.015 0.009,0.003 0.02,0.002 0.027,0 -0.008,0.007 -0.038,0.002 -0.027,0.013 0.009,0 0.002,-0.004 0.013,-0.004 -0.005,0.008 0.02,-0.002 -0.008,-0.001 0.007,-0.006 0.031,0.004 0.016,0.007 0.003,0.003 0.009,0.001 0.017,0 -0.002,0.003 -0.016,0.005 -0.023,0.003 0.003,0.001 0.002,0.003 0.007,0.003 -0.01,0.003 -0.015,-0.002 -0.034,-0.001l0.011 0.003c-0.006,0.003 -0.026,-0.001 -0.018,-0.003 -0.004,0.001 -0.012,0.001 -0.016,0.002l0.004 0.005c-0.01,-0.002 -0.008,-0.003 -0.018,-0.003 0.002,-0.004 0.001,-0.006 -0.015,-0.006l0.006 -0.003c-0.001,-0.002 -0.009,-0.001 -0.014,-0.001 -0.009,0 0.005,0.006 -0.009,0.005 0.006,-0.004 -0.002,-0.004 0.002,-0.007 0.013,0 0.016,0.001 0.024,-0.002 -0.008,-0.003 -0.021,0.003 -0.025,-0.001 -0.009,0 -0.023,0.005 -0.009,0.005 -0.022,0 -0.043,0.003 -0.078,0.002 -0.005,0.002 0.001,0.002 -0.003,0.005 -0.01,0 -0.022,-0.002 -0.03,0 0.014,0.003 -0.006,0.009 0.011,0.007 0.006,0.002 -0.011,0.001 -0.02,0.002 0.003,0.004 0.017,0.002 0.024,0.001 0,0.002 0.001,0.003 0.005,0.003 -0.008,0.001 -0.017,0.002 -0.019,0.006l0.003 0.002c0.01,-0.002 0.019,-0.004 0.03,-0.005 0.005,0.005 0.045,0.01 0.045,0.001 0.011,0.001 0.018,0.005 0.026,0.008 0.009,-0.005 0.027,-0.002 0.041,-0.004 -0.012,0.005 0.012,0.013 -0.014,0.016 0.008,0.004 -0.001,0.006 0.002,0.011 -0.017,0.002 -0.027,0 -0.034,-0.002 -0.005,0 -0.003,0.002 -0.003,0.004 -0.018,-0.001 -0.035,-0.002 -0.043,-0.006 -0.005,0.003 -0.008,0.006 -0.026,0.005 -0.003,0.003 0.011,0.004 0.001,0.005 0.009,0.002 0.015,0.003 0.032,0.004 -0.017,0.003 0.002,0.004 -0.001,0.011 0.016,-0.005 0.023,-0.002 0.048,-0.003 -0.012,0.005 -0.037,-0.001 -0.04,0.005 -0.006,-0.001 -0.02,0 -0.031,0 -0.037,0.013 0.042,0.013 0.056,0.021 0.003,0 0.008,-0.001 0.014,-0.001l0.003 0.002c0.005,0.003 -0.01,0.001 -0.005,0.005 0.01,-0.001 0.007,0.001 0.011,0.005 0.027,-0.004 0.051,-0.004 0.063,0.003 0.003,-0.001 0.007,-0.001 0.013,-0.001 0,0.004 0.015,0.004 0.019,0.007 0.002,0.011 -0.026,0.015 -0.032,0.024 0.032,0.003 0.042,-0.004 0.078,-0.004 -0.006,-0.004 -0.014,-0.006 -0.019,-0.008 0.006,-0.001 0.012,0.003 0.014,-0.001 0.009,0.005 0.023,0.007 0.049,0.006 0.007,0.002 -0.001,0.003 0.004,0.006 0.049,-0.002 0.091,0.002 0.126,0.01 0.045,-0.001 0.073,0.012 0.073,0.025 0,0.006 -0.007,0.012 -0.022,0.017 -0.003,-0.002 -0.008,-0.004 -0.008,-0.007 -0.018,0.001 -0.025,-0.002 -0.039,-0.002 -0.031,0.007 -0.066,0.001 -0.101,0.004l0.003 -0.002c-0.03,-0.001 -0.052,0.003 -0.066,0 -0.006,0.001 -0.009,0.003 -0.016,0.004 -0.009,0 -0.009,-0.003 -0.015,-0.004 -0.01,0.004 -0.059,-0.002 -0.053,0.006 -0.01,-0.002 -0.015,-0.001 -0.031,0 0.005,-0.006 0.017,-0.004 0.029,-0.007 0.034,-0.01 0.011,-0.022 -0.017,-0.032 -0.016,0 -0.026,-0.001 -0.039,-0.002 -0.006,0.001 -0.009,0.004 -0.008,0.007 0.03,-0.009 0.052,0.006 0.037,0.013 -0.008,0.001 -0.007,-0.001 -0.017,0 -0.004,0 -0.005,0.002 -0.01,0.003 0.009,0.002 0.007,0.003 0.013,0.008 -0.007,-0.001 -0.009,0.001 -0.014,0.001 0.037,0.006 -0.007,0.013 -0.013,0.019 -0.005,-0.002 -0.018,-0.001 -0.016,0.002 0.006,0.003 0.013,-0.001 0.024,0l-0.003 0.004c-0.005,-0.002 -0.017,0 -0.027,0 0,0.003 0.011,0.002 0.008,0.007 -0.002,0.001 -0.007,0.001 -0.013,0.001 0.005,0.004 0.004,0.004 -0.002,0.007 0.003,0.003 0.015,0.002 0.021,0.004 0.002,0.008 -0.002,0.01 0.005,0.018 -0.004,0.001 -0.012,0.001 -0.017,0.002 0.001,0.002 0.007,0.002 0.014,0.002 0.002,0.003 -0.013,0.001 -0.009,0.005 -0.009,-0.001 -0.016,-0.002 -0.02,0.001 0.012,-0.003 0.022,0.013 -0.004,0.011 -0.001,-0.004 0.01,-0.006 -0.003,-0.011 -0.01,0.005 -0.018,0.006 -0.022,0.01 0.019,0.002 0.025,0.009 -0.001,0.01 0.003,0.003 0.012,0.004 0.016,0.007l-0.01 0.002c-0.001,0.002 0.005,0.001 0.011,0.001 0.001,0.004 -0.01,0.003 -0.01,0.006 0.011,0.003 0.009,-0.003 0.02,-0.002 -0.014,0.004 -0.011,0.014 -0.018,0.021 -0.009,0 -0.01,0.002 -0.021,0.002 -0.001,0.003 0.005,0.004 0.012,0.005 -0.011,0.004 0.001,0.009 -0.014,0.012 -0.01,-0.001 0,-0.004 -0.002,-0.006 -0.011,-0.001 -0.014,0.002 -0.016,0.003 -0.011,-0.004 0.013,-0.007 0.018,-0.01 -0.016,-0.001 -0.024,-0.011 -0.018,-0.017 -0.008,-0.001 -0.023,-0.001 -0.034,-0.002l0.007 0.001c0,0.004 -0.012,0.005 -0.012,0.009 -0.005,0.001 -0.006,-0.001 -0.01,-0.001 -0.009,0.002 0.001,0.006 0.001,0.008 -0.003,-0.002 -0.016,-0.006 -0.013,0 -0.028,0.003 -0.045,-0.005 -0.062,0.001 0.006,-0.005 -0.001,-0.008 -0.014,-0.005 0.006,-0.004 0.004,-0.004 -0.002,-0.007 0.013,-0.001 0.024,0.003 0.027,-0.001 -0.003,-0.004 -0.027,0.002 -0.022,-0.004 -0.013,0 -0.017,0.003 -0.029,0.004 0.001,0.003 0.009,0.005 0.015,0.007 -0.002,0.002 -0.023,-0.003 -0.031,0.001 0.004,0.003 0.007,0 0.017,0 0.006,0.002 -0.001,0.004 0.009,0.006 -0.007,0.004 -0.01,-0.003 -0.015,-0.003 -0.009,-0.001 0.004,0.004 -0.006,0.004 0.01,0.004 0.013,0.003 0.022,0.006 -0.009,0.001 -0.012,0.008 -0.019,0.004 -0.011,0.001 -0.002,0.001 -0.003,0.005 0.006,0 0.012,0 0.018,0 -0.01,0.006 -0.023,-0.003 -0.038,-0.002 -0.001,0.004 0.003,0.005 0.014,0.004 -0.006,0.002 0.005,0.003 -0.002,0.006 -0.006,-0.001 0.002,-0.004 -0.008,-0.005 -0.013,0 -0.004,0.005 -0.016,0.004 -0.003,-0.002 -0.011,-0.003 -0.005,-0.005 -0.022,0.001 -0.019,-0.006 -0.042,-0.004 0.005,0.004 0.015,0.007 0.023,0.01 0.004,-0.001 0.002,-0.003 0.002,-0.005 0.006,0.001 0.009,0.002 0.015,0.002 -0.001,0.002 -0.016,0.001 -0.013,0.004 0.008,-0.001 0.006,0.005 0.018,0.006 -0.005,0.004 -0.004,0.004 -0.001,0.009 -0.005,-0.002 -0.015,-0.002 -0.021,-0.003 0,-0.003 0.012,-0.002 0.012,-0.005 -0.008,-0.001 -0.015,-0.002 -0.004,-0.004 -0.004,-0.002 -0.027,0 -0.015,-0.004 -0.012,0.001 -0.019,0 -0.027,0 0.002,-0.006 0.001,-0.014 -0.018,-0.017 0.014,-0.001 0.027,-0.001 0.026,-0.006l-0.01 -0.001 0.002 -0.005c0.013,0.001 0.016,-0.001 0.027,0 0.003,0.003 -0.006,0.003 -0.006,0.004 0.014,0.006 0.036,-0.002 0.047,-0.004 -0.011,-0.001 -0.018,-0.004 -0.038,-0.004 -0.003,-0.005 0.004,0 0.013,-0.002 0.001,-0.003 -0.011,-0.003 -0.015,-0.004 -0.011,0.001 0,0.002 -0.006,0.004 -0.015,-0.002 -0.025,-0.006 -0.03,-0.012 -0.011,0.002 -0.015,0 -0.027,0 0.01,-0.003 -0.002,-0.006 -0.003,-0.011 -0.009,0 -0.007,0.004 -0.019,0.004 0.004,0.005 -0.01,0.009 0.005,0.01 -0.002,0.002 -0.007,0.002 -0.013,0.002 0,-0.003 -0.005,-0.005 -0.009,-0.008 -0.01,0.002 -0.025,0.004 -0.037,0.002 -0.003,0.005 0.009,0.003 0.018,0.003 -0.006,0.001 -0.009,0.004 -0.002,0.005 -0.012,0 -0.03,0.004 -0.038,-0.001 -0.004,0 0.001,0.006 0.005,0.006 -0.007,0.003 -0.02,0.004 -0.03,0.006 0.001,0.002 0.009,0.001 0.008,0.004 -0.014,-0.001 -0.018,0.001 -0.028,-0.001 -0.015,0.004 0.012,0.006 0.013,0.011 0.009,-0.001 0.01,-0.001 0.02,-0.003 0.013,0.002 -0.015,0.004 -0.002,0.005 -0.005,0.002 -0.008,0.004 -0.016,0.004 0.006,0.001 0.006,0.004 0.017,0.003 0.003,0.004 0.001,0.006 -0.008,0.006 0.019,0.005 0.01,-0.003 0.026,-0.005 0,0 0.013,0.008 -0.003,0.008 0.015,0 0.034,0.001 0.045,-0.002 0,0.005 0.008,0.004 0.019,0.007 -0.013,0 -0.014,-0.001 -0.024,0.001l-0.001 -0.004c-0.019,0.001 -0.015,0.004 -0.03,0.001 0.007,0.004 0.027,0.004 0.048,0.003l0.005 0.002 0 0.002c-0.006,0.001 -0.006,-0.001 -0.011,-0.001l0.011 0.004c-0.001,0.002 -0.004,0.003 -0.009,0.004 -0.011,-0.003 -0.019,0 -0.031,-0.003 -0.003,-0.003 0.015,-0.001 0.016,-0.003 -0.009,-0.002 -0.024,0.002 -0.038,0.002l0.002 0.005c0.003,0.001 0.021,0.004 0.004,0.005 0.006,0.003 0.007,-0.001 0.018,-0.001 0.004,0.001 0.002,0.004 -0.003,0.006 0.013,0.004 0.034,-0.003 0.029,-0.009 0.009,0.003 0.006,0.002 0.018,0.003 0.004,0.003 -0.01,0.002 -0.017,0.002 0.004,0.002 0.002,0.006 0.012,0.006 -0.009,0.005 -0.009,0.011 0,0.017 -0.006,-0.002 -0.011,-0.005 -0.018,-0.006 -0.016,0.001 -0.005,0.003 -0.002,0.006 -0.012,0.001 -0.017,-0.001 -0.024,-0.003 -0.005,-0.003 0.014,-0.001 0.016,-0.003l-0.008 -0.003c-0.008,0.001 -0.01,0.005 -0.015,0.007 -0.011,-0.002 0.003,-0.005 -0.002,-0.009 -0.011,0 -0.006,0.003 -0.017,0.003 0.004,-0.006 -0.018,-0.009 -0.033,-0.011 0.001,-0.002 0.013,-0.001 0.009,-0.005 -0.003,-0.004 -0.017,-0.004 -0.026,-0.006 0,-0.005 0.013,0.001 0.017,-0.003 0,0.002 0.006,0.005 0.021,0.004 -0.019,-0.004 -0.033,-0.009 -0.048,-0.014 0.001,-0.005 0.017,-0.006 0.037,-0.006 0.003,-0.001 0.001,-0.003 0.006,-0.003l-0.017 0.002c-0.005,-0.004 -0.015,-0.005 -0.025,-0.005 0.001,-0.001 0.004,-0.002 0.01,-0.002 -0.003,-0.001 -0.007,-0.002 -0.011,-0.002 -0.009,0.001 0.006,0.003 -0.002,0.004 -0.018,-0.004 -0.034,-0.001 -0.055,0.002 0.007,-0.003 0,-0.006 -0.008,-0.006 -0.019,-0.001 -0.034,0.009 -0.041,0.001 0.008,-0.005 0.061,-0.003 0.049,-0.009 0.006,-0.002 0.026,0.001 0.03,-0.004 -0.001,-0.002 -0.013,-0.001 -0.011,-0.004 -0.013,0 -0.014,0.004 -0.03,0.004 0.011,-0.003 0.003,-0.008 -0.015,-0.006 0.002,-0.001 0.006,-0.002 0.01,-0.003 -0.007,-0.001 -0.011,-0.004 -0.019,-0.006 -0.014,0.004 -0.027,0.007 -0.031,0.013 -0.006,0 -0.003,-0.003 -0.008,-0.004 -0.028,0 -0.023,0.008 -0.046,0.01 0.001,0.001 0.007,0.001 0.011,0.001 -0.012,0.004 -0.022,0.01 -0.014,0.014 -0.016,0 -0.005,-0.009 -0.023,-0.008 0.001,-0.002 0.009,-0.001 0.014,-0.002 0.001,-0.003 -0.004,-0.005 -0.012,-0.006 0.001,-0.001 0.009,-0.001 0.014,-0.001 -0.014,-0.006 -0.01,-0.001 -0.006,-0.008 -0.009,-0.002 -0.021,-0.002 -0.018,-0.008 -0.019,-0.002 -0.03,0 -0.052,0 -0.002,0.003 0.005,0.002 0.004,0.005 -0.016,-0.002 -0.005,-0.006 -0.019,-0.009 -0.006,0 -0.001,0.003 -0.006,0.004 -0.005,-0.001 -0.007,-0.002 -0.008,-0.005 -0.007,0.001 0.001,0.005 -0.005,0.005 -0.013,0 -0.012,0.001 -0.021,0 -0.021,0.004 -0.028,0.015 -0.032,0.022 -0.009,0 -0.017,-0.002 -0.014,0.003 -0.008,0 -0.026,0.001 -0.017,-0.002 -0.011,0.001 0,0.003 -0.006,0.004 -0.007,-0.001 -0.008,-0.004 -0.018,-0.004 -0.008,0 -0.001,0.003 0.003,0.003 -0.006,0.001 -0.013,0.001 -0.027,0 0.014,0.003 -0.002,0.003 -0.006,0.001 -0.004,0.001 -0.006,0.003 -0.017,0.002 0.007,0.003 0.014,0.001 0.028,0 -0.008,0.003 0.005,0.004 0.011,0.004l-0.01 0.004c-0.007,-0.005 -0.007,0.001 -0.017,-0.003 -0.003,0.005 -0.007,0.001 -0.012,0.007l0.004 0.002c0.016,-0.005 0.034,-0.004 0.05,-0.005l-0.003 0.002c0.022,0 0.026,-0.004 0.047,-0.006 0,0.004 0.01,0.004 0.021,0.004 0.005,0.003 -0.011,0.001 -0.006,0.004 -0.011,0.001 -0.011,-0.002 -0.017,0.001 0.005,0.002 0.018,-0.001 0.024,-0.001 0,0.002 0,0.003 0.004,0.003 -0.016,0 -0.02,0.007 -0.017,0.014 -0.01,0.002 -0.015,0.004 -0.009,0.007 -0.013,0.002 -0.017,0.002 -0.027,0 -0.004,0.004 -0.04,0.003 -0.025,0.011 -0.004,0.002 -0.012,0.002 -0.02,0.002 0,-0.002 0.006,-0.001 0.01,-0.002 0,-0.002 -0.004,-0.003 -0.011,-0.002 0.001,-0.004 0.017,-0.002 0.016,-0.006 -0.01,-0.002 -0.037,-0.004 -0.042,-0.001 -0.004,-0.003 -0.01,-0.004 -0.021,-0.002 0,-0.002 -0.003,-0.003 -0.007,-0.003 0.004,-0.004 0.005,0.003 0.014,0.001 0.004,-0.001 -0.01,-0.006 -0.022,-0.005l0.002 -0.004c-0.019,0.002 -0.031,-0.005 -0.055,-0.004 -0.012,0.001 0.009,0.004 -0.006,0.003 -0.008,-0.001 0.001,-0.005 -0.025,-0.003 0.001,-0.004 -0.009,-0.004 -0.009,-0.008 -0.01,0.001 -0.016,0.002 -0.012,0.006 -0.01,0.002 -0.02,0.001 -0.022,-0.004 0.009,0 0.005,0.005 0.018,0.003 0.001,-0.003 -0.02,-0.005 -0.025,-0.003 0,-0.001 0.001,-0.002 0.01,-0.003 -0.018,-0.007 -0.055,0.001 -0.064,-0.009 -0.008,0.004 -0.009,0.001 -0.02,0.003l0.007 0.002c-0.008,0.001 -0.025,0 -0.044,0.002l0.001 0.004c0.008,0 0.007,-0.002 0.006,-0.003 0.009,-0.001 0.014,0.005 0.022,0.001 -0.001,0.001 -0.003,0.009 0.001,0.009 0.011,0.003 0.048,-0.005 0.061,-0.004 -0.015,0.004 -0.045,0.009 -0.07,0.008 -0.004,0.001 0.005,0.004 0.004,0.004 0.002,0.002 -0.019,0.002 -0.006,0.004 -0.002,0.003 -0.01,-0.001 -0.016,0 0.008,0.004 0.03,0.004 0.029,0.008 0.014,-0.001 0.016,0.002 0.028,0.002 0.006,-0.005 -0.037,-0.005 -0.034,-0.01 0.01,-0.001 0.009,0.003 0.018,0.003 0.007,-0.002 -0.008,-0.005 -0.008,-0.008 0.015,0.001 0.022,0.006 0.029,0.01 0.008,-0.001 0.007,0 0.017,-0.001 -0.005,0.001 -0.003,0.004 0.008,0.004 -0.006,0 0.002,0.005 -0.006,0.005 0.01,-0.001 0.007,0.007 0.016,0.009 0.016,-0.004 0.027,-0.003 0.044,-0.002 0.008,-0.003 -0.005,-0.002 -0.004,-0.005 0.006,0.001 0.015,0.002 0.015,0.006 -0.012,0.003 -0.03,0.007 -0.044,0.007 0.002,0.002 0.01,0.001 0.018,0.001 -0.008,0.003 -0.025,0 -0.025,-0.004 -0.015,0.004 -0.022,0.002 -0.037,0.004 0.004,0.003 0.006,0.001 0.014,0l-0.009 0.005c-0.005,-0.001 -0.008,-0.005 -0.005,-0.006l-0.007 0c-0.01,0 0.01,0.002 -0.002,0.003 -0.002,0.002 -0.002,-0.002 -0.008,-0.004 -0.008,0.002 -0.019,0.006 -0.031,0.001 0.01,-0.001 0.022,0 0.027,-0.002 -0.018,0.001 -0.039,-0.006 -0.056,-0.005 0.004,0.002 0.014,0.002 0.018,0.005 -0.008,0.005 -0.039,0.003 -0.06,0.007l0.005 0.004c-0.016,0.001 -0.017,0.001 -0.031,0.001 0.003,0.002 0.017,0.001 0.019,0.005 -0.011,-0.001 -0.03,-0.005 -0.035,-0.001 0.003,0.004 0.007,-0.001 0.014,0 -0.01,0.005 -0.013,0.005 -0.027,0.005 0.015,-0.002 0.005,-0.004 -0.002,-0.007 -0.01,-0.001 -0.005,0.003 -0.016,0.002 -0.009,-0.003 -0.028,-0.002 -0.036,-0.006 0.025,0.004 0.068,0.003 0.096,-0.003 -0.008,0.001 -0.03,-0.001 -0.048,0.002 0.001,-0.002 -0.013,0 -0.011,-0.003 -0.033,0.001 -0.054,-0.001 -0.071,0.003 -0.004,0 -0.003,-0.001 -0.004,-0.003 -0.016,0.004 -0.029,0 -0.04,0.004 -0.004,0.005 0.015,0 0.011,0.005 -0.008,0.003 -0.011,-0.001 -0.021,-0.001 -0.01,0.001 0.005,0.003 0.002,0.005 -0.014,0.002 -0.02,0.001 -0.028,-0.002 -0.04,0.003 -0.052,0.006 -0.032,0.014 0.012,-0.001 0.015,-0.004 0.02,-0.006 -0.004,-0.003 -0.011,0.001 -0.017,0 0.004,-0.003 0.01,-0.002 0.016,-0.004 0.001,0.002 0.004,0.003 0.014,0.003 0,0.002 -0.008,0.001 -0.013,0.002l-0.003 0.002c0.006,0.003 0.022,0.002 0.024,-0.002 0.003,0.003 0.025,0.003 0.023,-0.001 0.007,0.005 0.021,0.006 0.035,0.003 -0.001,-0.002 -0.013,-0.001 -0.011,-0.004 0.018,-0.003 0.034,-0.001 0.048,0.001 -0.004,0.014 0.083,0.01 0.116,0.011 -0.004,0.002 -0.014,0.003 -0.016,0.006 0.014,-0.004 0.023,-0.005 0.044,-0.006l0 0.004c-0.013,-0.003 -0.031,0 -0.033,0.004 0.014,0.002 0.02,0 0.011,0.006 0.016,0.001 0.009,-0.004 0.009,-0.007 0.013,0.002 0.019,0.001 0.027,-0.002 0.011,0.001 0.005,0.007 0.013,0.009 -0.002,0.004 -0.008,0.006 -0.023,0.006l0.002 0.007c-0.01,0.001 -0.009,-0.001 -0.018,-0.001 0.015,0.004 0.002,0.009 -0.014,0.01 -0.004,-0.003 0.006,-0.002 0.006,-0.004 -0.064,0.005 -0.12,-0.002 -0.163,-0.006 -0.008,0.002 -0.014,0.005 -0.03,0.004 0,-0.001 -0.003,-0.003 -0.007,-0.003l0.009 -0.001c-0.019,-0.007 -0.028,-0.005 -0.065,-0.004 -0.002,0.004 0.014,0.001 0.011,0.005 -0.009,-0.001 -0.007,-0.002 -0.017,0l0.002 -0.003c-0.015,0.003 -0.021,-0.005 -0.037,0 -0.014,-0.001 0.01,-0.005 -0.001,-0.005 0.001,-0.002 0.017,-0.001 0.023,-0.001 -0.001,-0.007 -0.023,-0.001 -0.031,-0.003 0.017,-0.003 -0.011,-0.003 -0.002,-0.006 -0.021,0 -0.021,0.004 -0.034,-0.001 -0.008,0.001 -0.01,0.002 -0.013,0.004 -0.001,0.002 0.011,0.003 0.016,0.002 -0.011,0.005 -0.035,-0.006 -0.061,-0.006 0.014,-0.008 0.046,0.001 0.074,-0.005 0.016,0.005 0.02,-0.004 0.037,-0.001 -0.001,0.002 -0.012,0.002 -0.019,0.004 0.012,0.004 0.029,-0.001 0.048,0 -0.013,-0.003 -0.028,-0.006 -0.044,-0.009 -0.01,-0.001 -0.005,0.003 -0.016,0.003l-0.001 -0.004c-0.014,0 -0.011,0.004 -0.027,0.003 0.014,-0.003 -0.002,-0.003 -0.002,-0.008 -0.019,0 -0.006,0.004 -0.012,0.006 -0.026,0.002 -0.044,-0.001 -0.065,0 -0.005,0 -0.002,0.003 -0.002,0.004 0.009,-0.002 0.025,-0.004 0.034,-0.001 -0.005,-0.001 -0.04,0.004 -0.019,0.006 -0.012,0.002 -0.013,0.002 -0.027,0.006l0.002 -0.004c-0.005,0 -0.005,0.001 -0.009,0.001l0.001 0.004c-0.026,-0.008 -0.056,-0.015 -0.091,-0.021 -0.099,-0.018 -0.218,-0.009 -0.276,-0.003 -0.028,-0.001 -0.057,0.002 -0.086,-0.004 -0.004,0 0.006,0.004 -0.005,0.005 0.001,-0.006 -0.029,-0.004 -0.041,0 0.016,-0.007 -0.035,-0.004 -0.05,-0.006l0.006 -0.003c-0.01,-0.001 -0.02,0 -0.026,0.003 -0.008,0.001 -0.002,-0.003 -0.005,-0.005 -0.032,0.002 -0.055,-0.006 -0.089,-0.002 0.001,-0.003 -0.007,-0.003 -0.005,-0.006 -0.009,0 -0.02,0.001 -0.021,-0.001 -0.005,-0.001 -0.011,0.003 -0.003,0.003 -0.003,0.002 -0.007,-0.003 -0.017,-0.001 -0.007,-0.002 0.002,-0.002 -0.004,-0.004 -0.013,0.004 -0.036,-0.001 -0.041,0.004 -0.005,-0.007 -0.018,-0.005 -0.035,-0.006 0.001,-0.003 0.019,-0.001 0.026,-0.002 0.003,-0.004 -0.009,-0.005 -0.018,-0.005 0.007,-0.006 0.023,0.003 0.037,-0.002 -0.007,-0.002 -0.026,0 -0.025,-0.005 -0.01,0 -0.009,0.004 -0.023,0.003 -0.01,0.001 0.008,0.001 0.004,0.004 -0.013,-0.003 -0.017,-0.003 -0.029,-0.008 0.008,0 0.013,0 0.013,-0.002l-0.004 -0.003c-0.014,0.003 -0.015,-0.001 -0.031,0.002 0.009,-0.003 0.007,-0.007 -0.011,-0.005 -0.01,-0.002 0.018,-0.002 0.024,-0.002 -0.019,-0.004 -0.035,-0.002 -0.056,-0.002 0,-0.003 -0.009,-0.005 0.006,-0.006 -0.019,-0.001 -0.035,0.001 -0.039,0.008 -0.01,0 -0.028,-0.005 -0.031,0 -0.005,0.004 0.012,0 0.011,0.003 -0.011,0.004 -0.015,-0.006 -0.029,-0.007 -0.005,0 -0.011,0.003 -0.003,0.003 -0.005,0.002 -0.014,-0.002 -0.004,-0.004 -0.008,-0.003 -0.026,0.004 -0.022,-0.004 -0.008,0.002 -0.007,0.006 -0.008,0.007 -0.008,0 -0.032,-0.001 -0.042,-0.001 0.006,-0.004 0.016,0.001 0.027,-0.001 0.001,-0.002 -0.001,-0.003 -0.007,-0.003 0.008,-0.004 0.013,-0.001 0.014,0.001 0.009,0 0.008,-0.003 0.009,-0.005 -0.059,0.001 -0.15,-0.008 -0.213,-0.003 0.008,-0.007 -0.056,-0.007 -0.063,-0.002 -0.004,-0.001 -0.005,-0.004 -0.011,-0.004 -0.007,0.004 -0.012,-0.001 -0.023,0.001 -0.013,-0.001 0.013,0 0.006,-0.003 -0.011,-0.005 -0.015,0.004 -0.028,0.001l0.007 -0.002c-0.011,-0.003 -0.039,-0.003 -0.037,0.003 -0.011,-0.006 -0.007,-0.011 -0.027,-0.013 -0.011,0 -0.006,0.004 -0.017,0.003 -0.004,-0.003 -0.022,-0.004 -0.031,-0.002 -0.007,-0.011 -0.049,-0.003 -0.064,-0.007 -0.019,0.004 -0.079,0.002 -0.089,-0.001 0.006,-0.004 0.012,-0.002 0.018,0 0.007,-0.001 -0.008,-0.004 0.009,-0.004 -0.004,0.001 -0.004,0.004 0.001,0.005 0.002,-0.003 0.019,-0.001 0.031,-0.001l0.006 -0.002c-0.006,-0.006 -0.043,-0.004 -0.048,-0.002 -0.006,-0.001 -0.022,-0.003 -0.028,0 -0.013,-0.002 0.012,-0.003 0.02,-0.003l-0.001 -0.004c-0.009,0 -0.007,0.004 -0.016,0.004 0.013,-0.006 -0.009,-0.004 -0.025,-0.003 0,-0.005 0.026,-0.002 0.037,-0.003 -0.006,-0.004 -0.004,-0.003 -0.012,-0.005 0.004,0.006 -0.06,0.005 -0.071,0.002 -0.025,0.004 -0.07,0 -0.088,0.004 0.005,0.003 0.012,0.002 0.021,0.001 0.004,0.003 -0.008,0.002 -0.013,0.002 -0.003,0.004 0.005,0.003 0.011,0.004 0.002,-0.004 0.015,0 0.012,-0.004 0.005,0.001 0.008,0.003 0.009,0.005 -0.006,0 -0.012,0 -0.018,0 0.002,0.003 0.019,0 0.018,0.004 -0.038,-0.002 -0.031,-0.003 -0.075,0 0.003,-0.003 0.013,-0.003 0.005,-0.007 0.013,-0.002 0.016,0.001 0.024,-0.003 -0.005,-0.003 -0.006,-0.003 -0.009,-0.006 -0.004,0.001 -0.001,0.001 0,0.001 -0.006,0.004 -0.029,-0.002 -0.03,0.003 -0.005,-0.002 -0.007,-0.002 -0.017,0 0.004,-0.003 -0.007,-0.004 -0.007,-0.004 -0.016,0 -0.041,0.002 -0.062,0.001 0.042,-0.007 -0.073,-0.005 -0.093,-0.001 -0.02,-0.004 -0.072,0.001 -0.096,0.001 -0.004,-0.003 -0.016,-0.003 -0.024,-0.004 -0.011,0.002 0.017,0.002 0.004,0.005 -0.004,-0.002 -0.008,-0.004 -0.021,-0.002l0.003 -0.004c-0.011,0.003 -0.031,0.003 -0.038,-0.001 -0.035,0.004 -0.07,0 -0.099,0.002 0.003,-0.003 -0.02,-0.005 -0.017,0.001 -0.007,-0.002 -0.012,-0.001 -0.008,-0.005 -0.022,0.001 -0.034,-0.001 -0.055,0.001 0.002,0.002 0.024,0.004 0.031,0.001 0.011,0.003 -0.025,0.002 -0.026,0.005l-0.001 -0.004c-0.014,0.002 -0.023,0 -0.044,0.004 -0.029,-0.005 -0.049,-0.008 -0.079,-0.002l0.008 0.005c0.01,-0.002 -0.002,-0.004 0.016,-0.005 -0.015,0.005 0.026,0.009 0.021,0.003 0.013,0.006 0.043,0.004 0.062,0l-0.002 0.005c0.003,0.002 0.027,-0.005 0.024,0.002 0.007,0 0.008,-0.002 0.016,-0.002 -0.001,0.001 -0.005,0.001 -0.009,0.002 0.007,0.003 0.015,0.001 0.031,0.002 -0.005,0.001 -0.013,0.002 -0.016,0.004 -0.016,-0.002 -0.036,-0.001 -0.041,0.001 -0.007,0 -0.007,-0.003 -0.014,-0.003 -0.011,0 -0.009,0.004 -0.016,0.005 -0.011,-0.002 -0.015,-0.001 -0.028,0 -0.003,-0.004 0.011,-0.002 0.01,-0.005 0,-0.002 -0.006,-0.003 -0.012,-0.004 -0.002,0.001 -0.005,0.002 -0.01,0.002 -0.001,0.001 0.014,0.002 0.004,0.003 -0.013,-0.003 -0.016,-0.006 -0.035,-0.005 -0.003,0.001 -0.003,0.001 -0.007,0.002 -0.003,0.003 0.012,0 0.009,0.003 -0.013,-0.001 -0.023,-0.006 -0.035,-0.001 0.004,0.003 0.01,-0.001 0.02,0 0.009,0.005 -0.015,0.002 -0.016,0.004 -0.006,-0.004 -0.02,-0.001 -0.034,0 0.004,-0.004 0.016,-0.001 0.016,-0.004 -0.009,-0.001 -0.028,0.001 -0.032,-0.006 0.005,0 0.023,0.005 0.024,-0.001 0.006,0.001 0.007,0.004 0.011,0.005 0.01,0.001 0.035,-0.006 0.031,0 0.006,-0.001 0.007,-0.003 0.005,-0.005l-0.023 0.001c-0.008,-0.002 0.009,-0.004 -0.002,-0.008 -0.006,0.004 -0.007,0.001 -0.014,0 -0.02,0 0.004,0.006 -0.016,0.006l0.006 -0.006c-0.006,0 -0.012,0 -0.017,0 -0.004,0.006 -0.028,0.002 -0.044,0.002 -0.003,0.004 0.015,0.001 0.011,0.007 0.011,0 0.004,-0.004 0.017,-0.003 -0.002,0.003 0.007,0.003 0.005,0.006l-0.01 0.004c-0.026,-0.001 -0.045,-0.004 -0.066,-0.006 -0.014,0.002 -0.061,0.003 -0.078,-0.002 0.011,0.002 0.05,0.003 0.056,-0.003 0.02,0.001 0.034,0.006 0.049,0.002 0,-0.004 -0.016,-0.001 -0.008,-0.006 -0.01,0 -0.013,0.001 -0.01,0.003 -0.006,0 -0.011,0.001 -0.017,0.001l0.003 -0.004c-0.025,0.006 -0.072,0.003 -0.11,0.001 -0.011,0.001 -0.004,0.005 -0.002,0.007 -0.006,0 -0.007,0.002 -0.013,0.001 0.009,-0.003 -0.003,-0.004 0.001,-0.007 -0.01,0.004 -0.016,0.002 -0.037,0.002 0.01,-0.004 -0.013,-0.003 -0.012,-0.007l-0.006 0 0.047 -0.046 0.003 0c0.016,0.007 0.048,0 0.079,-0.003l-0.005 -0.004c0.018,0 0.035,-0.007 0.053,-0.011 0.006,0.001 -0.008,0.004 -0.013,0.004 0.008,0.005 0.021,-0.001 0.03,-0.002 -0.002,0.002 -0.01,0.002 -0.002,0.004 0.013,-0.001 0.023,-0.003 0.025,-0.008 0.01,0.001 0.018,0 0.027,-0.002 -0.018,-0.006 -0.054,0.002 -0.065,-0.001 -0.006,0.002 -0.021,0.008 -0.024,0.002 -0.005,0 -0.008,0.001 -0.009,0.003 -0.007,0.001 0.007,-0.007 -0.012,-0.005 -0.001,-0.003 0.008,-0.003 0.016,-0.004 -0.001,0.004 0.005,0.006 0.012,0.006 0.008,-0.001 0.008,-0.007 -0.001,-0.007 -0.004,-0.002 0.026,-0.001 0.012,-0.003 0.012,-0.002 0.037,0.001 0.04,-0.005 -0.029,-0.006 -0.062,-0.004 -0.09,-0.003 -0.009,0 -0.004,-0.001 -0.004,-0.004 -0.012,0.001 -0.019,-0.001 -0.028,-0.001 0.007,-0.001 0.007,-0.005 0.016,-0.005 -0.004,-0.002 -0.021,0 -0.031,0 0.004,-0.005 -0.027,-0.006 -0.029,-0.011 -0.013,0 -0.03,0 -0.047,0.001l-0.005 -0.003c0.014,0 0.028,-0.001 0.04,0 0.006,-0.001 0.003,-0.003 0.003,-0.005 0.007,0.004 0.021,0.001 0.028,0.001 -0.01,-0.005 -0.041,-0.004 -0.056,-0.003 -0.003,-0.004 -0.011,-0.005 -0.013,-0.009 0.007,0.001 0.017,0.001 0.019,0.003 0.037,-0.008 0.061,0.006 0.091,-0.003 0.005,0 0.004,0.003 0.005,0.004 0.008,0 0.01,-0.002 0.013,-0.004 0.004,0 0.001,0.006 0.007,0.003 0.006,0.001 -0.002,0.004 0.011,0.004 0.005,0 0.005,-0.002 0.01,-0.002 -0.002,-0.001 -0.006,-0.002 -0.011,-0.003 0.009,-0.001 0.036,0.001 0.036,0.006 -0.005,0 -0.009,0 -0.014,0 0.001,0.002 0.009,0.002 0.018,0.002 -0.003,0.002 -0.003,0.003 0.001,0.005 0.008,0 0.01,-0.001 0.009,-0.003 0.006,0 0.007,0.002 0.008,0.004 -0.022,0.001 -0.053,-0.001 -0.071,0.003 0.003,0.003 -0.003,0.004 -0.002,0.006 0.009,0.004 0.035,0.002 0.049,0.004 -0.007,-0.004 0,-0.003 0.007,-0.001 0.003,0 0.01,-0.005 0.002,-0.005 0.008,-0.002 0.01,-0.004 0.015,-0.006 0.03,-0.001 0.016,0.007 0.043,0.006l-0.002 0.004c0.015,-0.004 0.016,-0.003 0.03,0 0.007,-0.002 -0.003,-0.006 -0.004,-0.008 -0.019,0.005 -0.045,-0.004 -0.067,-0.006 0.017,-0.001 0.031,-0.004 0.039,-0.008l0.001 0.005c0.01,0 0.01,-0.002 0.02,-0.002l-0.003 0.003c0.015,-0.002 0.012,0 0.024,0 0.009,0 0.011,-0.001 0.013,-0.003 -0.014,-0.001 -0.026,-0.002 -0.038,-0.003 0.003,-0.001 0.011,-0.002 0.017,-0.003 0.005,-0.001 0.008,-0.002 0.002,-0.003 -0.004,0 -0.002,0.002 -0.002,0.003 -0.02,-0.003 -0.043,-0.004 -0.055,0.003 -0.017,0 0.018,-0.007 -0.008,-0.007 0.016,-0.005 0.038,-0.003 0.064,-0.005 -0.011,-0.001 0.007,-0.002 0,-0.003 0.006,0 0.021,0.002 0.019,-0.003 0.013,0 0.014,0 0.027,-0.001 -0.061,-0.001 -0.128,0.003 -0.185,-0.001 -0.006,0.004 -0.018,0.003 -0.027,0.002 -0.008,0 0,0.005 -0.002,0.007 -0.009,-0.001 -0.012,0 -0.009,0.003 -0.008,0 -0.017,0 -0.015,-0.004 0.042,0 -0.006,-0.011 -0.027,-0.01 0.007,-0.002 -0.008,-0.005 0.01,-0.005 -0.015,-0.002 -0.024,0.001 -0.031,0.003l-0.001 -0.005c0.019,0.001 0.043,0 0.047,-0.003 -0.005,-0.002 -0.026,0.001 -0.033,0.002 0.001,-0.003 -0.015,-0.005 -0.029,-0.006l0.005 -0.005c0.005,0.001 0.007,0.004 0.015,0.005 0.003,-0.006 0.01,0.001 0.02,-0.003 0.008,0 0.008,0.001 0.005,0.003 0.015,0 0.018,-0.003 0.03,-0.001 0.009,0 -0.005,-0.002 -0.001,-0.004 0.045,0 0.061,0.002 0.093,0.002 0.005,0.005 0.01,0.007 0.039,0.005 0,-0.003 -0.013,0 -0.011,-0.004 -0.009,-0.001 -0.016,0.003 -0.017,0.001 0,-0.005 0.03,-0.003 0.037,-0.003l-0.003 0.004c0.019,-0.001 0.032,-0.004 0.042,0.001 0.032,0.002 0.018,-0.006 0.031,-0.013 0.001,-0.005 -0.012,0.001 -0.011,-0.004l0.003 -0.002c0.006,0 0.007,0.003 0.017,0.002 0.004,-0.001 0.002,-0.002 0.007,-0.002 -0.003,-0.002 -0.009,-0.003 -0.018,-0.002 -0.004,-0.004 0.016,-0.002 0.013,-0.005 0.006,0.001 0.001,0.002 0,0.003 0.019,0.002 0.018,-0.005 0.031,-0.002 -0.012,0.003 -0.032,0.004 -0.028,0.012 -0.006,0 -0.006,-0.001 -0.011,-0.001 -0.001,0.007 -0.008,0.007 0,0.014 0.009,0 0.018,0 0.027,-0.001l-0.004 -0.004c0.01,-0.001 0.008,0.004 0.012,0.005 -0.013,0 -0.015,0.002 -0.028,0.002l0.004 0.003c0.017,-0.002 0.043,-0.009 0.062,-0.004 -0.006,0.002 -0.023,0.001 -0.017,0.004 -0.023,0.002 -0.041,0.001 -0.075,0.002 0.005,0.007 0.052,-0.002 0.056,0.005 0.017,-0.005 0.035,-0.001 0.065,-0.004 -0.003,-0.001 -0.005,-0.002 -0.011,-0.002 -0.003,-0.002 0.017,0.002 0.027,0l-0.004 -0.002c0.004,-0.002 0.021,0.002 0.031,0.002 0.012,-0.003 -0.003,-0.005 0.02,-0.004 -0.021,-0.006 -0.051,-0.002 -0.078,0 0.002,-0.003 -0.012,-0.001 -0.015,-0.003 0.014,-0.003 0.021,0.002 0.038,-0.001 -0.01,-0.003 -0.03,-0.002 -0.027,-0.009 0.006,0.004 0.026,0.009 0.04,0.009 0.004,0 0.002,-0.002 0.007,-0.002 0.023,-0.001 0.038,0.002 0.054,0 -0.003,-0.002 -0.012,-0.001 -0.017,-0.002 0.016,-0.002 0.045,0.004 0.068,0 0,-0.004 -0.014,-0.002 -0.018,-0.004 0.013,0.002 0.036,-0.002 0.05,-0.003l0.022 -0.015 0.005 0c0.022,0.006 0.066,-0.001 0.108,-0.004l-0.006 -0.003c0.025,-0.001 0.048,-0.008 0.073,-0.012 0.009,0.001 -0.011,0.004 -0.018,0.004 0.012,0.005 0.028,-0.001 0.041,-0.002 -0.002,0.002 -0.013,0.002 -0.003,0.004 0.019,-0.001 0.033,-0.003 0.035,-0.008 0.014,0.001 0.024,0 0.037,-0.002 -0.025,-0.006 -0.075,0.002 -0.09,-0.001 -0.007,0.002 -0.029,0.008 -0.032,0.002 -0.007,0 -0.011,0.001 -0.013,0.003 -0.009,0.001 0.01,-0.007 -0.016,-0.005 -0.002,-0.003 0.011,-0.003 0.022,-0.004 -0.001,0.004 0.006,0.006 0.017,0.006 0.01,-0.001 0.01,-0.007 -0.003,-0.007 -0.004,-0.002 0.037,-0.001 0.018,-0.003 0.016,-0.002 0.051,0.002 0.055,-0.005 -0.04,-0.006 -0.085,-0.004 -0.124,-0.003 -0.013,0 -0.006,-0.001 -0.006,-0.004 -0.017,0.001 -0.026,-0.001 -0.038,-0.001 0.01,-0.001 0.009,-0.005 0.022,-0.005 -0.006,-0.002 -0.03,0 -0.043,0 0.005,-0.004 -0.029,-0.005 -0.038,-0.01 0,0.001 0,0.001 0,0.001 -0.004,0 -0.008,-0.001 -0.01,-0.002 -0.01,0 -0.022,0 -0.034,0 -0.004,0.001 -0.007,0.001 -0.011,0.001 -0.001,0 -0.001,0 -0.002,0 -0.003,0 -0.006,0 -0.01,0l-0.007 -0.003c0.01,0 0.02,0 0.03,0 0,-0.001 0.001,-0.001 0.001,-0.001 -0.008,-0.001 -0.026,-0.003 -0.031,0.001 -0.028,-0.009 -0.063,0.005 -0.086,-0.001 -0.01,0.005 -0.026,0.004 -0.039,0.007 -0.012,-0.002 0.01,-0.003 0.01,-0.004 -0.004,-0.004 -0.04,0.002 -0.029,-0.003 -0.015,0.001 -0.038,0.005 -0.05,0.003 0.009,-0.003 0.031,-0.002 0.026,-0.005 0,-0.004 -0.008,0.002 -0.01,-0.001 0,0.003 -0.017,0.002 -0.018,-0.002 -0.005,0.001 -0.008,0.002 -0.013,0.003 0.021,0.001 0.007,0.002 -0.01,0.003l-0.004 -0.005c-0.032,0.005 -0.063,-0.002 -0.099,0.002 0.006,-0.002 -0.003,-0.001 -0.001,-0.005 0.004,0 0.009,0 0.013,0l-0.01 0.002c0.014,0.003 0.022,0 0.042,0 0.007,-0.001 -0.002,-0.006 0.005,-0.007 0.002,0.004 0.005,0.006 0.019,0.007 0.015,-0.003 0.006,-0.001 0.023,-0.003l0 0.003c0.011,-0.001 0.013,0.001 0.021,0 0.011,0 0.003,-0.006 0.016,-0.006 -0.004,0.004 0.001,0.004 0.008,0.006 0.011,-0.004 0.011,-0.001 0.027,-0.001 0.003,0.003 -0.006,0.003 -0.005,0.005l0.003 0.001c0.023,-0.001 0.005,-0.008 0.033,-0.008 0.001,-0.003 -0.028,-0.003 -0.024,0.001 -0.006,0.003 -0.002,-0.003 -0.001,-0.004 -0.009,-0.001 -0.012,0 -0.01,0.003 -0.012,-0.005 -0.033,-0.001 -0.042,-0.005 -0.01,0.001 0.008,0.004 -0.002,0.006 -0.007,0 -0.01,-0.002 -0.011,-0.005 -0.016,0.001 -0.032,0.001 -0.037,0.004 -0.011,0 0.001,-0.003 0.003,-0.004 -0.004,-0.003 -0.025,0.001 -0.025,0 -0.003,0.003 -0.016,0.004 -0.037,0.003l0.007 -0.003c-0.02,-0.001 -0.051,-0.005 -0.065,0.002 -0.005,-0.002 -0.012,-0.002 -0.012,-0.006 -0.012,0.001 -0.023,0.001 -0.025,-0.003l-0.006 0.002c0.002,0.005 0.025,0.002 0.026,0.008 -0.037,-0.004 -0.065,-0.007 -0.107,-0.004l0.002 -0.004c-0.004,0.002 -0.031,0.006 -0.033,0.002 0.012,0.002 0.014,-0.004 0.026,-0.001 -0.002,-0.002 -0.006,-0.004 -0.017,-0.003 -0.002,-0.008 0.024,-0.002 0.028,0.001 0.02,-0.001 0.018,-0.001 0.03,-0.001 -0.006,-0.004 -0.021,-0.005 -0.029,-0.007 -0.002,0.004 -0.032,0 -0.05,0.005 -0.01,-0.003 0.025,-0.003 0.022,-0.008zm0.571 -0.005c0,0 0,0.001 0.001,0.002l0.007 0.002c0.007,0 0.001,-0.003 0.002,-0.005 0.009,-0.001 0.017,-0.001 0.023,-0.002 -0.014,-0.001 -0.024,0.001 -0.033,0.003zm0.043 -0.005c0.004,-0.001 0.007,-0.002 0.009,-0.004 -0.007,0 -0.017,0.001 -0.024,0.002l0.001 0c-0.002,0.001 -0.004,0.002 -0.006,0.003 0.007,-0.001 0.014,-0.001 0.02,-0.001zm0.008 -0.007c-0.002,0 -0.004,-0.001 -0.006,-0.001 -0.001,0 -0.002,0.001 -0.002,0.001 0.003,0 0.006,0 0.008,0zm-0.02 -0.003c-0.004,0 -0.009,0 -0.013,0.001 0.004,0 0.008,0 0.013,-0.001zm-0.013 0.001c0.013,-0.003 -0.003,-0.004 -0.005,-0.007 -0.008,0.004 -0.001,0.003 -0.014,0.002 0.002,0.003 0.01,0.003 0.017,0.005l0.002 0zm0.301 0.053c-0.004,0.001 -0.01,0.002 -0.015,0.001l0.001 0c-0.016,0 -0.034,-0.003 -0.051,-0.005 0,0 0,0.001 0.001,0.001 -0.002,-0.003 -0.018,-0.001 -0.021,-0.003l-0.001 0c-0.004,0 -0.005,0.001 -0.004,0.001l0 0c0,0.001 0.001,0.001 0.002,0.002 0.039,-0.001 0.02,0.007 0.057,0.006l-0.003 0.004c0.021,-0.004 0.022,-0.002 0.042,0 0.009,-0.001 -0.005,-0.006 -0.007,-0.007l-0.001 0zm-0.007 -0.009c0,-0.001 0,-0.002 0,-0.003 0.016,0.002 0.02,0.003 0.041,0.001 -0.012,-0.003 -0.042,-0.002 -0.058,0 0.005,-0.005 0.024,-0.004 0.034,-0.002 0,0 0,-0.001 0.001,-0.001 -0.008,0 -0.016,-0.001 -0.024,-0.001 0.003,-0.001 0.009,-0.001 0.015,-0.002 -0.003,0 -0.005,-0.001 -0.002,-0.002l-0.002 0c-0.018,0.002 -0.031,0 -0.045,0 -0.005,0 -0.009,0.001 -0.013,0.002 0.001,0 0.001,0.001 0.001,0.001 -0.002,0 -0.004,0 -0.005,0l-0.001 0.001c-0.006,0 -0.007,-0.001 -0.007,-0.001 -0.003,0 -0.005,0 -0.008,0.001l0.01 0.001c0.008,0.001 -0.007,0.003 -0.016,0.003l0.017 0c0.003,-0.001 0.002,0.001 0.002,0.002 0.013,-0.001 0.023,-0.003 0.031,-0.006l0.001 0.005c0.014,0 0.013,-0.002 0.027,-0.002l-0.003 0.003 0.004 0zm-0.056 -0.011c-0.001,0 -0.001,0.001 -0.001,0.001 0,0 0.001,-0.001 0.001,-0.001zm-0.03 0.018c-0.005,-0.001 -0.012,-0.001 -0.022,0 0.001,-0.001 0.002,-0.001 0.003,-0.002 -0.019,0 -0.039,0 -0.056,0.001 -0.001,0 -0.002,0.001 -0.002,0.001 -0.001,0 -0.002,0 -0.003,-0.001 -0.005,0.001 -0.011,0.001 -0.015,0.002 0.004,0.003 -0.004,0.004 -0.003,0.006 0.013,0.004 0.049,0.002 0.068,0.004 -0.01,-0.004 -0.001,-0.003 0.009,-0.001 0.005,0 0.015,-0.005 0.002,-0.005 0.01,-0.001 0.014,-0.003 0.019,-0.005zm-0.014 -0.003c0.001,0 0.002,0 0.004,-0.001 0.002,0 0.003,-0.001 0.003,-0.001 -0.006,0 -0.011,0 -0.017,0 0,0.001 0.002,0.001 0.004,0.002 0.002,0 0.004,0 0.006,0zm0.014 -0.002c0.002,0 0.003,0 0.004,0 -0.002,0 -0.004,-0.001 -0.006,0 0.001,0 0.001,0 0.002,0zm-0.232 0.003c-0.002,-0.001 -0.004,-0.001 -0.006,-0.002 -0.001,0.001 -0.002,0.001 -0.002,0.002 0.002,0 0.005,0 0.008,0z"/>
   <path class="fil1" d="M1.076 0.758c0.329,-0.002 0.974,-0.019 1.296,-0.026 0.323,-0.007 0.323,-0.004 0.312,0.045 -0.012,0.05 -0.034,0.145 -0.046,0.195 -0.011,0.049 -0.011,0.052 0.019,0.053 0.029,0.002 0.089,0.002 0.118,0.002 0.03,0 0.03,0 0.042,-0.05 0.012,-0.05 0.036,-0.149 0.048,-0.199 0.012,-0.05 0.012,-0.05 0.012,-0.05 0,0 0.001,0 0.01,0.005 0.009,0.004 0.027,0.014 0.06,0.02 0.032,0.006 0.08,0.009 0.13,-0.002 0.112,-0.026 0.193,-0.11 0.249,-0.207 0.051,-0.088 0.058,-0.181 0.039,-0.279 -0.048,-0.25 -0.321,-0.085 -0.366,-0.051l-0.012 0.009c-0.002,0.002 -0.003,-0.006 -0.002,-0.013 0.003,-0.014 0.008,-0.043 0.011,-0.057 0.003,-0.014 0.003,-0.014 -0.029,-0.014 -0.033,0 -0.098,0 -0.13,0 -0.032,0 -0.032,0 -0.041,0.057 -0.008,0.056 -0.025,0.169 -0.035,0.228 -0.01,0.059 -0.013,0.065 -0.037,0.07 -0.024,0.006 -0.069,0.012 -0.114,0.012 -0.045,0 -0.09,-0.006 -0.153,-0.022 -0.064,-0.015 -0.145,-0.04 -0.224,-0.064 -0.079,-0.024 -0.155,-0.047 -0.22,-0.067 -0.065,-0.019 -0.118,-0.036 -0.18,-0.047 -0.062,-0.012 -0.133,-0.017 -0.197,-0.016 -0.065,0.001 -0.124,0.01 -0.174,0.018 -0.049,0.009 -0.088,0.017 -0.129,0.028 -0.041,0.012 -0.083,0.026 -0.121,0.044 -0.038,0.018 -0.072,0.041 -0.116,0.062 -0.044,0.021 -0.097,0.041 -0.142,0.055 -0.045,0.014 -0.082,0.023 -0.113,0.029 -0.031,0.007 -0.056,0.012 -0.109,0.02 -0.052,0.007 -0.132,0.017 -0.206,0.026 -0.075,0.009 -0.145,0.016 -0.218,0.033 -0.073,0.016 -0.149,0.041 -0.204,0.066 -0.056,0.025 -0.091,0.049 -0.101,0.067 -0.01,0.018 0.006,0.031 0.022,0.029 0.016,-0.002 0.033,-0.019 0.068,-0.036 0.035,-0.017 0.089,-0.034 0.162,-0.049 0.073,-0.016 0.166,-0.03 0.258,-0.037 0.092,-0.007 0.182,-0.007 0.267,-0.018 0.085,-0.011 0.165,-0.032 0.236,-0.059 0.07,-0.027 0.131,-0.059 0.179,-0.085 0.049,-0.025 0.086,-0.045 0.132,-0.062 0.047,-0.017 0.103,-0.031 0.186,-0.037 0.083,-0.005 0.193,-0.002 0.29,0.014 0.096,0.017 0.18,0.047 0.242,0.07 0.062,0.022 0.102,0.037 0.124,0.044 0.022,0.008 0.024,0.008 -0.013,0.018 -0.037,0.01 -0.113,0.031 -0.211,0.051 -0.097,0.019 -0.214,0.038 -0.294,0.053 -0.08,0.015 -0.122,0.026 -0.187,0.029 -0.065,0.003 -0.152,-0.003 -0.214,-0.003 -0.062,0 -0.099,0.006 -0.171,0.016 -0.072,0.01 -0.179,0.024 -0.243,0.034 -0.065,0.01 -0.088,0.015 -0.093,0.025 -0.006,0.01 0.005,0.024 0.333,0.023zm2.687 0.011c-0.095,0 -0.167,-0.023 -0.217,-0.068 -0.049,-0.045 -0.074,-0.111 -0.074,-0.197l0 -0.119c0,-0.086 0.025,-0.152 0.074,-0.197 0.05,-0.045 0.122,-0.068 0.217,-0.068 0.094,0 0.165,0.023 0.215,0.068 0.05,0.045 0.075,0.111 0.075,0.197l0 0.119c0,0.086 -0.025,0.152 -0.074,0.197 -0.05,0.045 -0.122,0.068 -0.216,0.068zm0 -0.121c0.097,0 0.145,-0.048 0.145,-0.146l0 -0.116c0,-0.098 -0.048,-0.148 -0.145,-0.148 -0.097,0 -0.146,0.05 -0.146,0.148l0 0.116c0,0.098 0.049,0.146 0.146,0.146zm0.432 0.109l0 -0.625 0.137 0 0 0.086c0,0.023 -0.003,0.044 -0.007,0.064l-0.004 0.015 0.015 0 0.006 -0.017c0.011,-0.035 0.027,-0.064 0.047,-0.088 0.02,-0.023 0.045,-0.041 0.074,-0.053 0.03,-0.013 0.062,-0.019 0.098,-0.019l0.036 0.003 0 0.136c-0.011,-0.002 -0.024,-0.002 -0.039,-0.002 -0.044,0 -0.083,0.01 -0.116,0.032 -0.033,0.022 -0.058,0.053 -0.076,0.092 -0.018,0.04 -0.027,0.087 -0.027,0.14l0 0.236 -0.144 0zm0.855 -0.118l0.017 0.118c-0.027,0.009 -0.063,0.013 -0.107,0.013 -0.074,0 -0.129,-0.017 -0.165,-0.049 -0.035,-0.033 -0.053,-0.085 -0.053,-0.155l0 -0.306 -0.091 0 0 -0.112 0.094 0 0 -0.112 0.142 -0.036 0 0.148 0.172 0 0 0.112 -0.172 0 0 0.297c0,0.023 0.003,0.042 0.009,0.055 0.006,0.014 0.017,0.023 0.031,0.029 0.014,0.006 0.034,0.009 0.06,0.009 0.011,0 0.022,-0.001 0.033,-0.003 0.01,-0.002 0.018,-0.004 0.023,-0.005l0.007 -0.003zm0.374 0.13c-0.095,0 -0.167,-0.023 -0.217,-0.068 -0.049,-0.045 -0.074,-0.111 -0.074,-0.197l0 -0.119c0,-0.086 0.025,-0.152 0.074,-0.197 0.05,-0.045 0.122,-0.068 0.217,-0.068 0.094,0 0.165,0.023 0.215,0.068 0.05,0.045 0.075,0.111 0.075,0.197l0 0.119c0,0.086 -0.025,0.152 -0.074,0.197 -0.05,0.045 -0.122,0.068 -0.216,0.068zm0 -0.121c0.097,0 0.145,-0.048 0.145,-0.146l0 -0.116c0,-0.098 -0.048,-0.148 -0.145,-0.148 -0.097,0 -0.146,0.05 -0.146,0.148l0 0.116c0,0.098 0.049,0.146 0.146,0.146zm-2.511 -0.05c-0.001,-0.033 0.013,-0.098 0.031,-0.154 0.018,-0.057 0.041,-0.105 0.061,-0.134 0.019,-0.03 0.036,-0.041 0.055,-0.047 0.019,-0.006 0.041,-0.007 0.059,-0.004 0.018,0.003 0.034,0.009 0.044,0.022 0.011,0.013 0.016,0.033 0.019,0.06 0.003,0.026 0.003,0.06 -0.001,0.091 -0.004,0.031 -0.013,0.059 -0.026,0.085 -0.012,0.025 -0.029,0.048 -0.05,0.066 -0.021,0.018 -0.047,0.032 -0.074,0.041 -0.026,0.008 -0.054,0.011 -0.077,0.011 -0.023,0 -0.039,-0.003 -0.041,-0.037z"/>
   <g>
    <path class="fil2" d="M2.245 1.421c0,0.007 0.002,0.011 0.006,0.011 0.006,0 0.012,-0.002 0.019,-0.005 0.007,-0.004 0.015,-0.008 0.023,-0.013 0.008,-0.005 0.016,-0.011 0.024,-0.018 0.008,-0.007 0.016,-0.013 0.023,-0.019 0.008,-0.007 0.014,-0.012 0.02,-0.018 0.006,-0.005 0.01,-0.01 0.013,-0.013 0.003,0.002 0.006,0.006 0.01,0.009 0.004,0.004 0.007,0.008 0.011,0.011 -0.008,0.007 -0.016,0.015 -0.025,0.024 -0.009,0.009 -0.018,0.018 -0.029,0.027 -0.01,0.009 -0.021,0.018 -0.032,0.026 -0.011,0.009 -0.022,0.017 -0.033,0.023 -0.011,0.007 -0.021,0.013 -0.032,0.017 -0.01,0.004 -0.02,0.006 -0.029,0.006 -0.005,0 -0.011,-0.002 -0.018,-0.007 -0.008,-0.004 -0.014,-0.01 -0.021,-0.017 -0.007,-0.006 -0.012,-0.013 -0.017,-0.02 -0.004,-0.008 -0.006,-0.014 -0.006,-0.02 0,-0.012 0,-0.026 0.002,-0.039 -0.012,0.011 -0.024,0.021 -0.036,0.031 -0.011,0.01 -0.023,0.019 -0.034,0.028 -0.012,0.008 -0.024,0.016 -0.036,0.023 -0.012,0.008 -0.025,0.014 -0.039,0.019 -0.004,0.002 -0.007,0.003 -0.011,0.003 -0.002,0 -0.006,-0.002 -0.01,-0.004 -0.005,-0.003 -0.009,-0.007 -0.013,-0.011 -0.004,-0.004 -0.008,-0.009 -0.011,-0.014 -0.003,-0.006 -0.004,-0.011 -0.004,-0.016 0,-0.011 0.002,-0.024 0.006,-0.037 0.005,-0.014 0.011,-0.028 0.019,-0.043 0.008,-0.015 0.018,-0.029 0.029,-0.044 0.012,-0.015 0.025,-0.028 0.04,-0.041 0.015,-0.013 0.031,-0.025 0.049,-0.036 0.018,-0.01 0.037,-0.019 0.057,-0.025 0.004,0 0.009,0.002 0.015,0.005 0.006,0.003 0.011,0.006 0.016,0.009 0.01,-0.028 0.022,-0.057 0.034,-0.085 0.013,-0.028 0.027,-0.055 0.041,-0.082 0.014,-0.026 0.029,-0.05 0.045,-0.073 0.016,-0.023 0.031,-0.043 0.047,-0.061 0.015,-0.018 0.031,-0.032 0.046,-0.043 0.015,-0.011 0.03,-0.017 0.043,-0.02 0.006,0 0.013,0.002 0.019,0.006 0.007,0.004 0.013,0.009 0.02,0.014 0.006,0.006 0.011,0.012 0.015,0.018 0.004,0.006 0.007,0.011 0.008,0.015 0,0.013 -0.003,0.027 -0.009,0.044 -0.007,0.017 -0.015,0.035 -0.027,0.054 -0.011,0.019 -0.024,0.04 -0.039,0.061 -0.015,0.021 -0.032,0.042 -0.049,0.064 -0.018,0.022 -0.036,0.043 -0.055,0.065 -0.02,0.022 -0.039,0.043 -0.058,0.063 -0.009,0.028 -0.015,0.054 -0.02,0.08 -0.005,0.025 -0.007,0.048 -0.007,0.068zm0.206 -0.502c-0.005,0 -0.01,0.003 -0.017,0.01 -0.007,0.007 -0.014,0.016 -0.023,0.029 -0.008,0.012 -0.017,0.026 -0.026,0.043 -0.009,0.017 -0.019,0.035 -0.028,0.054 -0.01,0.02 -0.02,0.041 -0.029,0.063 -0.01,0.023 -0.019,0.045 -0.027,0.068 0.02,-0.026 0.04,-0.051 0.058,-0.076 0.019,-0.025 0.035,-0.049 0.049,-0.072 0.014,-0.023 0.025,-0.044 0.033,-0.063 0.008,-0.018 0.013,-0.034 0.013,-0.046 0,-0.002 -0.001,-0.004 -0.001,-0.007 0,-0.002 -0.001,-0.003 -0.002,-0.003zm-0.39 0.488c0.009,0 0.023,-0.006 0.041,-0.019 0.017,-0.012 0.037,-0.029 0.06,-0.051 0.002,-0.012 0.005,-0.025 0.009,-0.038 0.003,-0.013 0.008,-0.026 0.012,-0.04 -0.016,0.011 -0.032,0.023 -0.047,0.037 -0.015,0.013 -0.028,0.027 -0.04,0.04 -0.012,0.014 -0.021,0.026 -0.029,0.038 -0.007,0.012 -0.011,0.02 -0.011,0.026 0,0.005 0.002,0.007 0.005,0.007zm0.597 -0.041c-0.025,0.025 -0.049,0.045 -0.071,0.062 -0.022,0.017 -0.043,0.03 -0.064,0.04 -0.02,0.01 -0.039,0.018 -0.058,0.022 -0.018,0.004 -0.036,0.007 -0.054,0.007 -0.007,0 -0.015,-0.003 -0.024,-0.009 -0.009,-0.005 -0.018,-0.012 -0.026,-0.02 -0.008,-0.007 -0.014,-0.016 -0.019,-0.024 -0.005,-0.009 -0.008,-0.016 -0.008,-0.022 0,-0.022 0.003,-0.043 0.009,-0.061 0.006,-0.019 0.015,-0.036 0.025,-0.051 0.01,-0.015 0.021,-0.029 0.034,-0.04 0.013,-0.012 0.027,-0.021 0.041,-0.029 0.014,-0.007 0.028,-0.013 0.042,-0.017 0.014,-0.004 0.027,-0.006 0.039,-0.006 0.008,0 0.017,0.003 0.025,0.008 0.008,0.004 0.016,0.01 0.023,0.018 0.007,0.007 0.012,0.014 0.016,0.022 0.005,0.008 0.007,0.015 0.007,0.02 0,0.01 -0.004,0.019 -0.012,0.029 -0.008,0.01 -0.019,0.02 -0.033,0.03 -0.014,0.01 -0.031,0.02 -0.051,0.031 -0.02,0.01 -0.042,0.021 -0.066,0.031 -0.001,0.007 -0.002,0.014 -0.002,0.02 0,0.008 0.002,0.014 0.006,0.017 0.004,0.003 0.011,0.005 0.021,0.005 0.018,0 0.035,-0.003 0.051,-0.009 0.016,-0.006 0.031,-0.014 0.046,-0.024 0.015,-0.01 0.029,-0.02 0.043,-0.033 0.013,-0.012 0.027,-0.024 0.04,-0.037l0.02 0.02zm-0.144 -0.103c-0.006,0 -0.012,0.003 -0.018,0.009 -0.007,0.006 -0.013,0.014 -0.02,0.023 -0.006,0.01 -0.013,0.021 -0.019,0.033 -0.006,0.013 -0.011,0.026 -0.015,0.039 0.01,-0.006 0.02,-0.013 0.029,-0.021 0.01,-0.007 0.019,-0.015 0.026,-0.023 0.008,-0.008 0.014,-0.016 0.019,-0.025 0.005,-0.008 0.007,-0.017 0.007,-0.025 0,-0.003 -0.001,-0.005 -0.002,-0.007 -0.002,-0.002 -0.004,-0.003 -0.007,-0.003zm0.879 -0.31c-0.009,0.049 -0.023,0.095 -0.043,0.14 -0.019,0.046 -0.042,0.089 -0.067,0.129 -0.026,0.041 -0.054,0.078 -0.084,0.113 -0.03,0.035 -0.06,0.066 -0.09,0.093 -0.03,0.027 -0.059,0.05 -0.087,0.069 -0.028,0.019 -0.052,0.033 -0.074,0.042 -0.003,0.001 -0.006,0.002 -0.008,0.002 -0.002,0.001 -0.004,0.001 -0.005,0.001 -0.005,0 -0.011,-0.002 -0.017,-0.007 -0.006,-0.004 -0.011,-0.009 -0.017,-0.015 -0.005,-0.006 -0.01,-0.011 -0.013,-0.017 -0.005,-0.006 -0.007,-0.01 -0.009,-0.013 -0.001,-0.002 -0.003,-0.006 -0.004,-0.01 -0.001,-0.004 -0.002,-0.009 -0.002,-0.015 0,-0.014 0.001,-0.033 0.004,-0.057 0.003,-0.025 0.008,-0.052 0.014,-0.084 0.005,-0.031 0.012,-0.065 0.02,-0.101 0.008,-0.037 0.016,-0.075 0.026,-0.114 0.01,-0.039 0.021,-0.079 0.032,-0.119 0.011,-0.041 0.023,-0.08 0.035,-0.118 0.004,0.004 0.01,0.01 0.016,0.017 0.005,0.007 0.012,0.015 0.018,0.023 0.007,0.008 0.014,0.016 0.02,0.024 0.006,0.008 0.012,0.016 0.017,0.022 0.005,0.007 0.009,0.012 0.012,0.016 0.003,0.005 0.005,0.007 0.005,0.007 -0.015,0.043 -0.029,0.086 -0.041,0.13 -0.013,0.043 -0.025,0.086 -0.036,0.128 -0.011,0.042 -0.022,0.082 -0.031,0.121 -0.01,0.039 -0.019,0.075 -0.027,0.109 0.032,-0.02 0.063,-0.043 0.091,-0.07 0.028,-0.027 0.054,-0.057 0.078,-0.089 0.024,-0.031 0.045,-0.065 0.064,-0.101 0.019,-0.035 0.035,-0.071 0.048,-0.107 0.013,-0.037 0.023,-0.073 0.03,-0.108 0.006,-0.036 0.01,-0.07 0.01,-0.103 0,-0.009 -0.001,-0.017 -0.001,-0.024 -0.001,-0.007 -0.002,-0.012 -0.002,-0.017 -0.001,-0.005 -0.002,-0.008 -0.003,-0.011 0,-0.003 -0.001,-0.005 -0.001,-0.006l0.122 0.12zm0.151 0.478c0,0.002 0,0.002 0.002,0.002 0.002,0 0.006,-0.001 0.012,-0.005 0.006,-0.004 0.013,-0.008 0.02,-0.014 0.007,-0.005 0.015,-0.011 0.024,-0.018 0.008,-0.007 0.016,-0.014 0.024,-0.02 0.007,-0.007 0.014,-0.013 0.02,-0.018 0.007,-0.006 0.011,-0.01 0.015,-0.013 0.002,0.002 0.005,0.006 0.009,0.01 0.003,0.004 0.007,0.008 0.01,0.011 -0.007,0.006 -0.015,0.013 -0.024,0.022 -0.009,0.009 -0.019,0.018 -0.029,0.027 -0.011,0.009 -0.022,0.018 -0.033,0.028 -0.011,0.009 -0.022,0.017 -0.033,0.024 -0.01,0.007 -0.021,0.013 -0.03,0.017 -0.01,0.005 -0.018,0.007 -0.025,0.007 -0.005,0 -0.011,-0.001 -0.016,-0.003 -0.006,-0.001 -0.012,-0.004 -0.017,-0.008 -0.005,-0.003 -0.009,-0.007 -0.012,-0.012 -0.003,-0.004 -0.005,-0.01 -0.005,-0.015 0,-0.002 0,-0.005 0,-0.008 0,-0.003 0,-0.008 0,-0.013 0.001,-0.005 0.002,-0.011 0.004,-0.018 0.001,-0.007 0.004,-0.016 0.007,-0.027 -0.009,0.01 -0.02,0.019 -0.032,0.03 -0.012,0.01 -0.025,0.02 -0.038,0.03 -0.014,0.009 -0.027,0.017 -0.041,0.025 -0.013,0.007 -0.026,0.013 -0.037,0.017 -0.002,0 -0.003,0.001 -0.003,0.001 -0.001,0 -0.002,0 -0.003,0 -0.003,0 -0.006,-0.002 -0.011,-0.004 -0.004,-0.003 -0.009,-0.007 -0.013,-0.011 -0.005,-0.005 -0.008,-0.01 -0.011,-0.016 -0.004,-0.006 -0.005,-0.011 -0.005,-0.017 0,-0.002 0.001,-0.007 0.002,-0.016 0.002,-0.01 0.006,-0.022 0.012,-0.036 0.006,-0.014 0.015,-0.03 0.027,-0.048 0.012,-0.018 0.029,-0.037 0.05,-0.056 0.01,-0.009 0.022,-0.018 0.034,-0.027 0.011,-0.007 0.022,-0.014 0.036,-0.022 0.013,-0.007 0.027,-0.013 0.042,-0.017 0.001,0 0.001,0 0.002,-0.001 0,0 0.001,0 0.001,0.001 0.004,0.001 0.008,0.003 0.012,0.005 0.005,0.002 0.009,0.005 0.014,0.007 0.004,0.003 0.008,0.006 0.012,0.008 0.003,0.003 0.005,0.005 0.006,0.007 0.001,0 0.001,0.001 0,0.001l-0.001 0.001c-0.012,0.006 -0.023,0.014 -0.034,0.022 -0.011,0.008 -0.021,0.015 -0.03,0.022 -0.009,0.009 -0.018,0.017 -0.027,0.025 -0.02,0.02 -0.034,0.037 -0.042,0.051 -0.007,0.015 -0.011,0.025 -0.011,0.031 0,0.005 0.002,0.007 0.006,0.007 0.004,0 0.008,-0.001 0.014,-0.004 0.006,-0.003 0.013,-0.008 0.02,-0.013 0.008,-0.005 0.016,-0.012 0.025,-0.019 0.009,-0.007 0.018,-0.015 0.027,-0.023 0.009,-0.007 0.017,-0.014 0.025,-0.022 0.007,-0.006 0.014,-0.014 0.021,-0.022 0.008,-0.009 0.014,-0.017 0.019,-0.026 0,-0.001 0,-0.001 0.001,-0.001 0,0 0,0 0.001,0 0.003,0.002 0.006,0.006 0.01,0.011 0.004,0.005 0.008,0.01 0.011,0.016 0.003,0.006 0.006,0.012 0.008,0.018 0.003,0.005 0.004,0.01 0.004,0.013 -0.007,0.013 -0.011,0.024 -0.015,0.035 -0.003,0.01 -0.006,0.02 -0.008,0.028 -0.001,0.008 -0.003,0.014 -0.003,0.02 0,0.006 0,0.01 0,0.013zm0.232 -0.162c-0.003,0.008 -0.007,0.017 -0.01,0.026 -0.003,0.009 -0.006,0.019 -0.01,0.028 0.018,-0.019 0.032,-0.036 0.045,-0.048 0.012,-0.012 0.023,-0.022 0.031,-0.029 0.009,-0.007 0.016,-0.012 0.021,-0.015 0.006,-0.003 0.01,-0.004 0.013,-0.004 0.003,0 0.009,0.002 0.016,0.006 0.007,0.003 0.014,0.008 0.021,0.013 0.008,0.005 0.014,0.01 0.019,0.016 0.006,0.005 0.008,0.01 0.008,0.014 0,0.001 0,0.002 0,0.003 0,0.001 -0.001,0.003 -0.001,0.005 -0.002,0.007 -0.005,0.015 -0.009,0.024 -0.003,0.009 -0.007,0.019 -0.011,0.029 -0.003,0.01 -0.007,0.02 -0.011,0.03 -0.004,0.01 -0.007,0.019 -0.01,0.028 -0.003,0.009 -0.006,0.017 -0.008,0.023 -0.002,0.007 -0.003,0.011 -0.003,0.015 0,0.001 0.001,0.002 0.003,0.002 0.003,0 0.007,-0.002 0.013,-0.005 0.006,-0.004 0.013,-0.009 0.021,-0.014 0.008,-0.006 0.016,-0.012 0.025,-0.019 0.008,-0.007 0.016,-0.014 0.024,-0.021 0.008,-0.006 0.015,-0.012 0.021,-0.018 0.007,-0.005 0.011,-0.009 0.015,-0.012 0.002,0.002 0.005,0.006 0.009,0.009 0.003,0.004 0.006,0.008 0.009,0.011 -0.006,0.006 -0.014,0.013 -0.023,0.022 -0.009,0.009 -0.018,0.018 -0.029,0.026 -0.011,0.009 -0.021,0.019 -0.033,0.028 -0.011,0.009 -0.022,0.017 -0.033,0.024 -0.011,0.007 -0.02,0.013 -0.03,0.017 -0.009,0.005 -0.017,0.007 -0.023,0.007 -0.004,0 -0.01,-0.002 -0.016,-0.005 -0.006,-0.003 -0.012,-0.006 -0.018,-0.01 -0.006,-0.005 -0.011,-0.009 -0.015,-0.015 -0.004,-0.005 -0.006,-0.01 -0.006,-0.015 0.002,-0.011 0.006,-0.024 0.01,-0.038 0.004,-0.014 0.009,-0.029 0.014,-0.044 0.005,-0.015 0.01,-0.029 0.015,-0.044 0.005,-0.015 0.01,-0.028 0.015,-0.04l0 0c-0.006,0.007 -0.013,0.015 -0.023,0.025 -0.009,0.011 -0.021,0.024 -0.033,0.04 -0.012,0.016 -0.025,0.035 -0.039,0.058 -0.014,0.022 -0.027,0.049 -0.04,0.08 -0.002,0.004 -0.003,0.007 -0.005,0.009 -0.001,0.002 -0.004,0.003 -0.007,0.003 -0.005,0 -0.01,-0.001 -0.016,-0.004 -0.006,-0.002 -0.012,-0.006 -0.018,-0.01 -0.007,-0.004 -0.013,-0.009 -0.019,-0.014 -0.006,-0.005 -0.012,-0.011 -0.016,-0.016 0,-0.001 0,-0.006 0.002,-0.014 0.001,-0.007 0.003,-0.017 0.006,-0.029 0.003,-0.011 0.006,-0.025 0.01,-0.039 0.005,-0.015 0.009,-0.031 0.014,-0.048 0.006,-0.016 0.011,-0.033 0.017,-0.05 0.007,-0.017 0.013,-0.034 0.02,-0.049 0.012,0.005 0.025,0.012 0.039,0.02 0.014,0.008 0.027,0.017 0.039,0.028zm0.262 0.221c-0.005,0 -0.011,-0.002 -0.018,-0.007 -0.008,-0.004 -0.015,-0.009 -0.022,-0.015 -0.007,-0.007 -0.014,-0.013 -0.019,-0.019 -0.005,-0.007 -0.008,-0.013 -0.008,-0.017 0,-0.009 0.003,-0.021 0.007,-0.039 0.005,-0.018 0.011,-0.038 0.018,-0.061 0.007,-0.023 0.016,-0.048 0.025,-0.074 0.01,-0.026 0.019,-0.051 0.029,-0.076l-0.058 0 -0.001 0c0,0 0,0 0,-0.001 0,-0.001 0.001,-0.004 0.002,-0.007 0.001,-0.003 0.003,-0.006 0.005,-0.01 0.001,-0.003 0.003,-0.006 0.006,-0.009 0.002,-0.003 0.004,-0.005 0.006,-0.006l0.054 -0.002c0.008,-0.019 0.015,-0.036 0.022,-0.052 0.007,-0.016 0.013,-0.029 0.018,-0.04 0.002,-0.003 0.003,-0.007 0.005,-0.01 0.001,-0.003 0.003,-0.007 0.006,-0.01 0.003,-0.004 0.007,-0.007 0.012,-0.011 0.005,-0.004 0.011,-0.007 0.019,-0.011 0.006,-0.003 0.014,-0.006 0.022,-0.01 0.009,-0.004 0.017,-0.007 0.026,-0.01 0.008,-0.003 0.016,-0.005 0.023,-0.007 0.006,-0.003 0.011,-0.004 0.014,-0.004 0.003,0 0.005,0.001 0.005,0.002l0 0.001c0,0 -0.001,0.001 -0.001,0.002 -0.002,0.003 -0.005,0.009 -0.009,0.018 -0.005,0.009 -0.01,0.021 -0.017,0.034 -0.006,0.014 -0.013,0.03 -0.021,0.048 -0.008,0.017 -0.016,0.036 -0.024,0.056l0.099 -0.004c0.002,0 0.003,0.002 0.002,0.005 -0.001,0.003 -0.003,0.007 -0.006,0.011 -0.003,0.005 -0.007,0.009 -0.011,0.014 -0.003,0.005 -0.007,0.008 -0.01,0.011 0,0 -0.001,0.001 -0.003,0.001 -0.002,0.001 -0.004,0.001 -0.006,0.001l-0.081 0c-0.01,0.024 -0.02,0.048 -0.029,0.072 -0.009,0.025 -0.017,0.048 -0.024,0.07 -0.007,0.022 -0.013,0.042 -0.017,0.06 -0.004,0.018 -0.006,0.033 -0.006,0.045 0,0.002 0.001,0.003 0.002,0.003 0.003,0 0.008,-0.002 0.014,-0.005 0.006,-0.004 0.012,-0.008 0.02,-0.014 0.008,-0.005 0.016,-0.011 0.024,-0.018 0.008,-0.006 0.017,-0.013 0.024,-0.019 0.008,-0.007 0.015,-0.013 0.021,-0.018 0.006,-0.005 0.011,-0.009 0.014,-0.012 0.003,0.002 0.006,0.006 0.009,0.009 0.003,0.004 0.007,0.008 0.01,0.011 -0.006,0.006 -0.014,0.013 -0.023,0.022 -0.009,0.009 -0.019,0.018 -0.029,0.026 -0.011,0.009 -0.022,0.019 -0.033,0.028 -0.012,0.009 -0.023,0.017 -0.033,0.024 -0.011,0.007 -0.021,0.013 -0.031,0.017 -0.009,0.005 -0.017,0.007 -0.023,0.007zm0.384 -0.059c0,0.002 0,0.002 0.002,0.002 0.002,0 0.007,-0.001 0.012,-0.005 0.006,-0.004 0.013,-0.008 0.02,-0.014 0.007,-0.005 0.015,-0.011 0.024,-0.018 0.008,-0.007 0.016,-0.014 0.024,-0.02 0.007,-0.007 0.014,-0.013 0.02,-0.018 0.007,-0.006 0.011,-0.01 0.015,-0.013 0.002,0.002 0.005,0.006 0.009,0.01 0.003,0.004 0.007,0.008 0.01,0.011 -0.007,0.006 -0.015,0.013 -0.024,0.022 -0.009,0.009 -0.019,0.018 -0.029,0.027 -0.011,0.009 -0.022,0.018 -0.033,0.028 -0.011,0.009 -0.022,0.017 -0.033,0.024 -0.01,0.007 -0.021,0.013 -0.03,0.017 -0.01,0.005 -0.018,0.007 -0.025,0.007 -0.005,0 -0.011,-0.001 -0.016,-0.003 -0.006,-0.001 -0.012,-0.004 -0.017,-0.008 -0.005,-0.003 -0.009,-0.007 -0.012,-0.012 -0.003,-0.004 -0.005,-0.01 -0.005,-0.015 0,-0.002 0,-0.005 0,-0.008 0,-0.003 0,-0.008 0,-0.013 0.001,-0.005 0.002,-0.011 0.004,-0.018 0.001,-0.007 0.004,-0.016 0.007,-0.027 -0.009,0.01 -0.019,0.019 -0.032,0.03 -0.012,0.01 -0.025,0.02 -0.038,0.03 -0.014,0.009 -0.027,0.017 -0.041,0.025 -0.013,0.007 -0.026,0.013 -0.037,0.017 -0.002,0 -0.003,0.001 -0.003,0.001 -0.001,0 -0.002,0 -0.003,0 -0.003,0 -0.006,-0.002 -0.011,-0.004 -0.004,-0.003 -0.009,-0.007 -0.013,-0.011 -0.005,-0.005 -0.008,-0.01 -0.011,-0.016 -0.004,-0.006 -0.005,-0.011 -0.005,-0.017 0,-0.002 0.001,-0.007 0.002,-0.016 0.002,-0.01 0.006,-0.022 0.012,-0.036 0.006,-0.014 0.015,-0.03 0.027,-0.048 0.012,-0.018 0.029,-0.037 0.05,-0.056 0.01,-0.009 0.022,-0.018 0.034,-0.027 0.011,-0.007 0.022,-0.014 0.036,-0.022 0.013,-0.007 0.027,-0.013 0.042,-0.017 0.001,0 0.001,0 0.002,-0.001 0,0 0.001,0 0.001,0.001 0.004,0.001 0.008,0.003 0.012,0.005 0.005,0.002 0.009,0.005 0.014,0.007 0.004,0.003 0.008,0.006 0.012,0.008 0.003,0.003 0.005,0.005 0.006,0.007 0.001,0 0.001,0.001 0,0.001l0 0.001c-0.013,0.006 -0.024,0.014 -0.035,0.022 -0.011,0.008 -0.021,0.015 -0.03,0.022 -0.009,0.009 -0.018,0.017 -0.027,0.025 -0.02,0.02 -0.034,0.037 -0.042,0.051 -0.007,0.015 -0.011,0.025 -0.011,0.031 0,0.005 0.002,0.007 0.006,0.007 0.004,0 0.008,-0.001 0.014,-0.004 0.006,-0.003 0.013,-0.008 0.02,-0.013 0.008,-0.005 0.016,-0.012 0.025,-0.019 0.009,-0.007 0.018,-0.015 0.027,-0.023 0.009,-0.007 0.017,-0.014 0.025,-0.022 0.007,-0.006 0.014,-0.014 0.021,-0.022 0.008,-0.009 0.014,-0.017 0.019,-0.026 0,-0.001 0,-0.001 0.001,-0.001 0,0 0,0 0.001,0 0.003,0.002 0.006,0.006 0.01,0.011 0.004,0.005 0.008,0.01 0.011,0.016 0.003,0.006 0.006,0.012 0.008,0.018 0.003,0.005 0.004,0.01 0.004,0.013 -0.007,0.013 -0.011,0.024 -0.015,0.035 -0.003,0.01 -0.006,0.02 -0.008,0.028 -0.001,0.008 -0.002,0.014 -0.003,0.02 0,0.006 0,0.01 0,0.013zm0.456 -0.065c-0.023,0.024 -0.047,0.046 -0.071,0.066 -0.023,0.02 -0.047,0.039 -0.07,0.057 -0.004,0.012 -0.009,0.025 -0.014,0.038 -0.005,0.013 -0.011,0.026 -0.016,0.039 -0.008,0.019 -0.017,0.036 -0.028,0.052 -0.01,0.017 -0.021,0.032 -0.033,0.046 -0.012,0.014 -0.024,0.027 -0.036,0.039 -0.013,0.011 -0.024,0.021 -0.036,0.029 -0.011,0.007 -0.022,0.014 -0.031,0.018 -0.01,0.004 -0.018,0.006 -0.025,0.006 -0.005,0 -0.01,-0.001 -0.017,-0.006 -0.006,-0.004 -0.012,-0.009 -0.018,-0.015 -0.005,-0.006 -0.01,-0.013 -0.014,-0.02 -0.004,-0.007 -0.006,-0.014 -0.006,-0.021 0,-0.014 0.005,-0.028 0.015,-0.042 0.009,-0.013 0.023,-0.028 0.04,-0.042 0.017,-0.015 0.037,-0.03 0.06,-0.046 0.023,-0.016 0.048,-0.033 0.075,-0.052 0.006,-0.015 0.013,-0.034 0.02,-0.055 0.008,-0.022 0.017,-0.048 0.027,-0.08 -0.01,0.014 -0.021,0.027 -0.035,0.041 -0.013,0.013 -0.026,0.025 -0.04,0.035 -0.014,0.011 -0.028,0.019 -0.042,0.025 -0.014,0.007 -0.026,0.01 -0.038,0.01 -0.003,0 -0.007,-0.001 -0.011,-0.004 -0.005,-0.003 -0.01,-0.007 -0.015,-0.012 -0.005,-0.004 -0.009,-0.01 -0.012,-0.016 -0.004,-0.006 -0.005,-0.013 -0.005,-0.02 0,-0.009 0.002,-0.02 0.006,-0.033 0.005,-0.012 0.011,-0.026 0.019,-0.04 0.009,-0.015 0.019,-0.029 0.031,-0.044 0.012,-0.015 0.025,-0.028 0.04,-0.041 0.015,-0.014 0.031,-0.025 0.049,-0.035 0.017,-0.011 0.036,-0.018 0.056,-0.024 0.003,0 0.008,0.001 0.013,0.003 0.005,0.003 0.011,0.005 0.016,0.008 0.006,0.003 0.01,0.006 0.014,0.009 0.004,0.003 0.006,0.004 0.006,0.005 0,0.001 0,0.001 -0.001,0.002 -0.001,0 -0.001,0.001 -0.001,0.001 -0.007,0.003 -0.015,0.009 -0.025,0.016 -0.009,0.006 -0.02,0.014 -0.031,0.023 -0.011,0.008 -0.022,0.018 -0.033,0.027 -0.011,0.01 -0.021,0.02 -0.029,0.03 -0.009,0.01 -0.016,0.019 -0.022,0.028 -0.005,0.009 -0.008,0.017 -0.008,0.024 0,0.002 0,0.004 0.002,0.006 0.001,0.002 0.003,0.003 0.005,0.003 0.007,0 0.015,-0.003 0.023,-0.007 0.009,-0.005 0.018,-0.011 0.027,-0.019 0.009,-0.008 0.018,-0.016 0.027,-0.026 0.009,-0.009 0.018,-0.019 0.026,-0.028 0.008,-0.009 0.015,-0.017 0.021,-0.025 0.007,-0.008 0.011,-0.015 0.015,-0.02 0.001,0 0.001,-0.001 0.002,-0.001 0,-0.001 0.001,-0.001 0.001,-0.002 0.002,0.001 0.005,0.003 0.009,0.008 0.004,0.005 0.007,0.011 0.011,0.017 0.004,0.007 0.007,0.013 0.009,0.019 0.003,0.007 0.004,0.011 0.004,0.014l0 0.001c0,0 0,0.001 -0.001,0.003 -0.003,0.009 -0.007,0.023 -0.011,0.04 -0.005,0.017 -0.011,0.037 -0.018,0.059 0.018,-0.014 0.035,-0.028 0.053,-0.043 0.018,-0.016 0.035,-0.032 0.053,-0.05l0.018 0.022zm-0.366 0.336c0.005,0 0.013,-0.005 0.023,-0.013 0.01,-0.008 0.021,-0.019 0.033,-0.032 0.011,-0.013 0.023,-0.027 0.034,-0.043 0.011,-0.016 0.02,-0.031 0.027,-0.046 -0.017,0.013 -0.034,0.025 -0.049,0.036 -0.014,0.012 -0.027,0.023 -0.037,0.033 -0.011,0.011 -0.019,0.022 -0.025,0.031 -0.006,0.01 -0.009,0.02 -0.009,0.03 0,0.002 0.001,0.004 0.003,0.004z"/>
    <path class="fil2" d="M5.142 1.366c-0.025,0.025 -0.049,0.045 -0.071,0.062 -0.022,0.017 -0.044,0.03 -0.064,0.04 -0.02,0.01 -0.04,0.018 -0.058,0.022 -0.019,0.004 -0.036,0.007 -0.054,0.007 -0.007,0 -0.016,-0.003 -0.025,-0.009 -0.009,-0.005 -0.017,-0.012 -0.025,-0.02 -0.008,-0.007 -0.014,-0.016 -0.019,-0.024 -0.006,-0.009 -0.008,-0.016 -0.008,-0.022 0,-0.022 0.003,-0.043 0.009,-0.061 0.006,-0.019 0.014,-0.036 0.024,-0.051 0.011,-0.015 0.022,-0.029 0.035,-0.04 0.013,-0.012 0.027,-0.021 0.041,-0.029 0.014,-0.007 0.028,-0.013 0.042,-0.017 0.014,-0.004 0.027,-0.006 0.039,-0.006 0.008,0 0.016,0.003 0.025,0.008 0.008,0.004 0.016,0.01 0.023,0.018 0.006,0.007 0.012,0.014 0.016,0.022 0.004,0.008 0.007,0.015 0.007,0.02 0,0.01 -0.004,0.019 -0.012,0.029 -0.008,0.01 -0.019,0.02 -0.033,0.03 -0.014,0.01 -0.032,0.02 -0.052,0.031 -0.02,0.01 -0.042,0.021 -0.066,0.031 -0.001,0.007 -0.001,0.014 -0.001,0.02 0,0.008 0.002,0.014 0.006,0.017 0.003,0.003 0.01,0.005 0.02,0.005 0.019,0 0.035,-0.003 0.052,-0.009 0.016,-0.006 0.031,-0.014 0.046,-0.024 0.015,-0.01 0.029,-0.02 0.042,-0.033 0.014,-0.012 0.028,-0.024 0.041,-0.037l0.02 0.02zm-0.144 -0.103c-0.006,0 -0.012,0.003 -0.018,0.009 -0.007,0.006 -0.013,0.014 -0.02,0.023 -0.007,0.01 -0.013,0.021 -0.019,0.033 -0.006,0.013 -0.011,0.026 -0.016,0.039 0.011,-0.006 0.02,-0.013 0.03,-0.021 0.01,-0.007 0.019,-0.015 0.026,-0.023 0.008,-0.008 0.014,-0.016 0.019,-0.025 0.004,-0.008 0.007,-0.017 0.007,-0.025 0,-0.003 -0.001,-0.005 -0.002,-0.007 -0.002,-0.002 -0.004,-0.003 -0.007,-0.003zm0.24 0.006c-0.003,0.008 -0.006,0.017 -0.01,0.026 -0.003,0.009 -0.006,0.019 -0.009,0.028 0.017,-0.019 0.032,-0.036 0.044,-0.048 0.013,-0.012 0.023,-0.022 0.032,-0.029 0.008,-0.007 0.015,-0.012 0.021,-0.015 0.005,-0.003 0.009,-0.004 0.012,-0.004 0.004,0 0.009,0.002 0.016,0.006 0.007,0.003 0.015,0.008 0.022,0.013 0.007,0.005 0.013,0.01 0.019,0.016 0.005,0.005 0.008,0.01 0.008,0.014 0,0.001 0,0.002 -0.001,0.003 0,0.001 0,0.003 -0.001,0.005 -0.002,0.007 -0.005,0.015 -0.008,0.024 -0.004,0.009 -0.007,0.019 -0.011,0.029 -0.004,0.01 -0.008,0.02 -0.012,0.03 -0.004,0.01 -0.007,0.019 -0.01,0.028 -0.003,0.009 -0.005,0.017 -0.007,0.023 -0.002,0.007 -0.003,0.011 -0.003,0.015 0,0.001 0.001,0.002 0.002,0.002 0.003,0 0.008,-0.002 0.014,-0.005 0.006,-0.004 0.013,-0.009 0.021,-0.014 0.007,-0.006 0.015,-0.012 0.024,-0.019 0.008,-0.007 0.017,-0.014 0.024,-0.021 0.008,-0.006 0.015,-0.012 0.022,-0.018 0.006,-0.005 0.011,-0.009 0.014,-0.012 0.003,0.002 0.006,0.006 0.009,0.009 0.003,0.004 0.006,0.008 0.009,0.011 -0.006,0.006 -0.013,0.013 -0.022,0.022 -0.009,0.009 -0.019,0.018 -0.029,0.026 -0.011,0.009 -0.022,0.019 -0.033,0.028 -0.012,0.009 -0.023,0.017 -0.033,0.024 -0.011,0.007 -0.021,0.013 -0.03,0.017 -0.01,0.005 -0.018,0.007 -0.024,0.007 -0.004,0 -0.009,-0.002 -0.015,-0.005 -0.007,-0.003 -0.013,-0.006 -0.019,-0.01 -0.006,-0.005 -0.011,-0.009 -0.015,-0.015 -0.004,-0.005 -0.006,-0.01 -0.006,-0.015 0.003,-0.011 0.006,-0.024 0.01,-0.038 0.004,-0.014 0.009,-0.029 0.014,-0.044 0.005,-0.015 0.01,-0.029 0.015,-0.044 0.006,-0.015 0.011,-0.028 0.016,-0.04l-0.001 0c-0.005,0.007 -0.013,0.015 -0.022,0.025 -0.01,0.011 -0.021,0.024 -0.034,0.04 -0.012,0.016 -0.025,0.035 -0.038,0.058 -0.014,0.022 -0.028,0.049 -0.041,0.08 -0.001,0.004 -0.003,0.007 -0.004,0.009 -0.002,0.002 -0.004,0.003 -0.008,0.003 -0.005,0 -0.01,-0.001 -0.016,-0.004 -0.006,-0.002 -0.012,-0.006 -0.018,-0.01 -0.006,-0.004 -0.012,-0.009 -0.018,-0.014 -0.007,-0.005 -0.012,-0.011 -0.017,-0.016 0,-0.001 0.001,-0.006 0.002,-0.014 0.002,-0.007 0.004,-0.017 0.007,-0.029 0.002,-0.011 0.006,-0.025 0.01,-0.039 0.004,-0.015 0.009,-0.031 0.014,-0.048 0.005,-0.016 0.011,-0.033 0.017,-0.05 0.006,-0.017 0.013,-0.034 0.02,-0.049 0.011,0.005 0.024,0.012 0.038,0.02 0.014,0.008 0.027,0.017 0.039,0.028zm0.214 0.085c0.007,-0.006 0.014,-0.013 0.022,-0.021 0.008,-0.008 0.016,-0.016 0.024,-0.025 0.008,-0.009 0.016,-0.019 0.023,-0.029 0.007,-0.01 0.012,-0.022 0.016,-0.034 0.001,-0.006 0.003,-0.013 0.005,-0.02 0.003,-0.007 0.005,-0.013 0.008,-0.019 0.003,-0.005 0.006,-0.01 0.009,-0.014 0.002,-0.004 0.005,-0.006 0.007,-0.006 0.003,0.002 0.008,0.006 0.015,0.011 0.006,0.005 0.013,0.011 0.02,0.017 0.006,0.006 0.012,0.012 0.017,0.017 0.005,0.005 0.008,0.008 0.008,0.009 -0.004,0.013 -0.005,0.024 -0.005,0.034 0,0.01 0.001,0.02 0.002,0.03 0.002,0.01 0.003,0.02 0.005,0.031 0.002,0.011 0.003,0.024 0.003,0.039 0,0.009 -0.001,0.019 -0.004,0.03 -0.003,0.011 -0.008,0.022 -0.015,0.031 0.014,-0.009 0.027,-0.018 0.041,-0.028 0.014,-0.01 0.026,-0.02 0.037,-0.029 0.012,-0.011 0.024,-0.021 0.036,-0.032l0.018 0.02c-0.009,0.009 -0.019,0.017 -0.029,0.027 -0.011,0.01 -0.022,0.019 -0.033,0.028 -0.011,0.01 -0.023,0.019 -0.035,0.027 -0.011,0.009 -0.023,0.016 -0.035,0.023 -0.011,0.006 -0.022,0.011 -0.033,0.015 -0.01,0.004 -0.021,0.006 -0.03,0.006 -0.008,0 -0.016,-0.002 -0.026,-0.006 -0.01,-0.004 -0.019,-0.008 -0.027,-0.014 -0.009,-0.005 -0.016,-0.011 -0.022,-0.017 -0.007,-0.006 -0.01,-0.011 -0.011,-0.015 0,-0.001 0,-0.002 0.001,-0.004 0.001,-0.001 0.003,-0.003 0.004,-0.005 0.002,-0.002 0.003,-0.004 0.005,-0.005 0.001,-0.002 0.002,-0.003 0.003,-0.003 0.002,0 0.005,0.002 0.01,0.004 0.005,0.003 0.013,0.004 0.025,0.004 0.006,0 0.011,-0.002 0.016,-0.005 0.004,-0.003 0.008,-0.008 0.011,-0.013 0.003,-0.006 0.005,-0.012 0.007,-0.019 0.001,-0.007 0.002,-0.015 0.002,-0.023 0,-0.011 -0.001,-0.022 -0.002,-0.033 -0.001,-0.011 -0.002,-0.021 -0.004,-0.032 -0.004,0.006 -0.01,0.012 -0.016,0.018 -0.006,0.006 -0.012,0.012 -0.018,0.018 -0.006,0.005 -0.012,0.011 -0.018,0.017 -0.007,0.005 -0.012,0.01 -0.017,0.015l-0.02 -0.02z"/>
   </g>
  </g>
 </g>
</svg>
