<?xml version="1.0" encoding="UTF-8"?>
<!DOCTYPE svg PUBLIC "-//W3C//DTD SVG 1.1//EN" "http://www.w3.org/Graphics/SVG/1.1/DTD/svg11.dtd">
<!-- Creator: CorelDRAW 2021 (64-Bit) -->
<svg xmlns="http://www.w3.org/2000/svg" xml:space="preserve" width="584px" height="283px" version="1.1" style="shape-rendering:geometricPrecision; text-rendering:geometricPrecision; image-rendering:optimizeQuality; fill-rule:evenodd; clip-rule:evenodd"
viewBox="0 0 126.688 61.313"
 xmlns:xlink="http://www.w3.org/1999/xlink"
 xmlns:xodm="http://www.corel.com/coreldraw/odm/2003">
 <defs>
  <style type="text/css">
   <![CDATA[
    .fil3 {fill:#F58634;fill-rule:nonzero}
    .fil0 {fill:#2E4562;fill-rule:nonzero}
    .fil2 {fill:#143759;fill-rule:nonzero}
    .fil1 {fill:url(#id0)}
   ]]>
  </style>
  <linearGradient id="id0" gradientUnits="userSpaceOnUse" x1="18.582" y1="48.862" x2="126.52" y2="48.862">
   <stop offset="0" style="stop-opacity:1; stop-color:#F58634"/>
   <stop offset="1" style="stop-opacity:1; stop-color:#FEBF2C"/>
  </linearGradient>
 </defs>
 <g id="Layer_x0020_1">
  <metadata id="CorelCorpID_0Corel-Layer"/>
  <path class="fil0" d="M0.203 50.033c0.637,-0.867 1.379,-1.76 2.236,-2.629l-0.18 -0.177c-0.865,0.879 -1.615,1.781 -2.259,2.656l0.203 0.15zm4.839 -4.886c0.893,-0.655 1.871,-1.261 2.94,-1.79l-0.111 -0.225c-1.083,0.536 -2.074,1.15 -2.977,1.812l0.148 0.203zm6.146 -3.036c1.053,-0.306 2.176,-0.538 3.372,-0.677l-0.028 -0.25c-1.211,0.141 -2.348,0.375 -3.415,0.685l0.07 0.242 0.001 0zm6.818 -0.822c1.187,-0.003 2.347,-0.058 3.476,-0.166l-0.023 -0.25c-1.121,0.106 -2.275,0.161 -3.453,0.164l0 0.252zm6.92 -0.679c1.171,-0.241 2.294,-0.545 3.36,-0.912l-0.081 -0.238c-1.055,0.363 -2.169,0.665 -3.33,0.904l0.051 0.246zm6.561 -2.294c1.058,-0.565 2.031,-1.207 2.905,-1.927l-0.16 -0.194c-0.86,0.708 -1.819,1.342 -2.864,1.899l0.119 0.222zm5.317 -4.448c0.693,-0.936 1.259,-1.957 1.678,-3.059l-0.235 -0.089c-0.411,1.08 -0.965,2.08 -1.645,2.998l0.202 0.15zm2.474 -6.456c0.05,-0.492 0.076,-0.996 0.076,-1.512 0,-0.64 -0.04,-1.299 -0.12,-1.975l-0.25 0.029c0.08,0.667 0.118,1.316 0.118,1.946 0,0.508 -0.025,1.004 -0.074,1.487l0.25 0.025zm-0.758 -6.9c-0.311,-1.052 -0.713,-2.142 -1.209,-3.266l-0.23 0.102c0.492,1.115 0.89,2.194 1.198,3.236l0.241 -0.072z"/>
  <path class="fil1" d="M126.172 50.577c0.01,0.09 0.181,-0.08 0.151,0.06 -0.182,0.03 -0.453,0.03 -0.583,0.019 -0.04,-0.14 0.302,0 0.351,-0.069 -0.281,-0.142 -0.835,0.069 -1.046,-0.061 0.151,0.071 -0.332,0.09 -0.422,0.171 -0.131,-0.06 0,-0.041 -0.021,-0.12 -0.231,-0.021 -0.069,0.099 -0.36,0.069 0.009,-0.069 0.25,-0.069 0.19,-0.16 0.151,0 0.263,0.011 0.311,0.05 0.151,-0.01 0.131,-0.091 0.202,-0.13 -0.292,-0.132 -0.835,0.03 -1.036,0.039 0.031,0.041 0.19,0.02 0.302,0.02 -0.353,0.202 -0.825,0.041 -1.208,-0.08 -0.2,0.01 -0.069,0.141 -0.342,0.131 -0.008,-0.061 0.192,-0.041 0.121,-0.131 -0.643,0.101 -1.558,0.271 -2.263,0.231 0.03,0.101 0.392,0.03 0.392,0.14 -0.211,-0.019 -0.502,-0.019 -0.542,-0.13 -0.452,0.05 -1.117,-0.201 -1.64,0.03 0.03,-0.069 -0.24,-0.049 -0.392,-0.11 -0.192,0.031 -0.1,0.141 -0.282,0.041 -0.18,0.02 0.151,0.069 0.101,0.15 -0.252,0.011 -0.142,-0.16 -0.402,-0.14 -0.112,0.019 0,0.029 0.081,0.019 -0.252,0.112 -1.359,-0.141 -1.55,0.09l-0.09 -0.09c-0.202,0.04 -0.584,-0.019 -0.896,-0.029 -0.261,0.01 0.173,0.089 -0.06,0.089 -0.331,-0.05 -1.327,-0.15 -1.378,0.172 -0.271,-0.02 -0.03,-0.071 -0.11,-0.181l-0.161 -0.051c-0.16,0 -0.011,0.101 -0.05,0.151 -0.464,0.031 -0.814,0.09 -0.987,0.281 0.061,0.021 0.14,0.041 0.231,0.051 0.102,-0.01 0.04,-0.081 0.052,-0.12 0.13,0.08 0.23,0.009 0.382,0.039 0.081,-0.039 0.06,-0.07 -0.09,-0.08 0.13,-0.081 0.261,-0.15 0.502,-0.11 -0.182,0.05 -0.382,0.079 -0.192,0.19 -0.23,0 -0.341,0.041 -0.502,0.081 0.02,0.071 0.251,0.05 0.453,0.04 -0.313,0.081 0.049,0.091 0.1,0.182 0.162,-0.101 0.011,-0.081 0.292,-0.041 -0.03,-0.091 -0.241,-0.1 -0.392,-0.141l-0.081 -0.029c0.071,-0.051 0.301,-0.041 0.432,-0.07l0.232 0.079 -0.121 0.101c0.141,0.06 0.563,-0.01 0.815,0l-0.131 0.09c0.342,-0.07 0.583,0.03 0.564,-0.14 0.161,0.04 0.24,0.11 0.472,0.11 0.112,-0.02 -0.03,-0.04 -0.01,-0.091 0.171,0.051 0.363,0.091 0.474,0.162 0.21,-0.052 0.753,-0.252 1.025,-0.091 0.161,0 0.231,-0.03 0.2,-0.1 0.224,0.06 0.433,0.029 0.906,0.029 0.071,0.121 -0.272,0.101 -0.503,0.11 0.111,0.112 0.302,-0.019 0.523,0.041 0.09,0 0.231,-0.09 0.071,-0.09 0.121,-0.08 0.483,0 0.453,0.101 0.361,-0.011 0.652,0.05 0.884,-0.061 0.01,-0.08 -0.272,0.091 -0.232,-0.05 0.304,-0.06 0.494,0.05 0.825,0.031 0.102,-0.011 -0.039,-0.041 -0.019,-0.091 1.176,0.141 2.273,-0.031 3.359,0.07 -0.151,0.03 -0.273,0.101 -0.434,0.04 0.213,0.131 -0.131,0.041 -0.119,0.161 -0.131,0 -0.182,-0.05 -0.171,-0.12 -0.242,0.1 -0.352,-0.071 -0.675,-0.032 -0.171,0.011 0.092,0.072 0.161,0.082 -0.08,0.07 -0.301,-0.03 -0.351,0.07 -0.615,-0.03 -0.996,-0.12 -1.559,0.06l-0.021 -0.121c-0.131,0.061 -0.19,0.011 -0.372,0.011 -0.151,0.03 0.201,0.1 0.252,0.14 -0.141,0.041 -0.293,0.072 -0.191,0.192 -0.151,0.009 -0.443,-0.161 -0.453,-0.02 -0.22,-0.03 0,-0.141 0.041,-0.181 -0.313,-0.071 -0.423,0.02 -0.564,0.171 -0.111,0.01 -0.282,0 -0.291,0.039 -0.242,-0.02 0.06,-0.08 0.212,-0.069 0.29,-0.283 -0.826,-0.252 -0.978,-0.051 -0.31,0 0.112,-0.161 -0.31,-0.111 0,-0.039 0.12,-0.029 0.211,-0.039 -0.222,-0.111 -0.392,0.12 -0.593,0.019 -0.112,0.031 0.029,0.05 -0.051,0.122 -0.402,-0.072 -0.493,0.06 -0.825,-0.031 0.03,0.131 -0.301,0.031 -0.492,0.171 -0.161,-0.07 0.009,-0.031 0.06,-0.091 -0.152,-0.07 -0.555,0.011 -0.503,0.111 -0.322,-0.01 -0.07,-0.09 -0.322,-0.121 -0.323,0.041 -0.12,0.131 -0.432,0.051 -0.273,0.1 0.171,0.13 0.181,0.201 -0.221,0.05 -0.282,0.04 -0.444,-0.011 -0.059,0.081 -0.371,0.061 -0.422,0.141 0.03,0.072 0.12,-0.05 0.292,-0.01 -0.08,0.161 -0.09,0.061 0.111,0.171 -0.443,-0.04 -0.714,0 -0.996,-0.14 -0.292,0.13 -0.695,0.181 -1.087,0.21 0.161,-0.17 0.926,-0.059 0.784,-0.231 -0.251,-0.07 -0.582,-0.1 -0.643,-0.251 0.333,0 0.524,0.151 1.066,0.141 -0.12,-0.08 -0.471,-0.06 -0.614,-0.13 0.333,-0.061 1.068,0.099 1.56,-0.021 -0.101,-0.051 -0.422,-0.151 -0.191,-0.241 -0.231,-0.101 -0.584,-0.01 -1.046,0.009l0.1 0.121c-0.2,-0.01 -0.25,-0.06 -0.211,0.06 -0.11,-0.049 -0.261,-0.07 -0.463,-0.07 -0.1,0 -0.07,0.031 0,0.051 -0.461,-0.03 -0.956,-0.041 -1.639,-0.03 -0.071,0.01 -0.04,0.06 -0.13,0.069 0.07,0.041 0.201,0.061 0.382,0.052 -0.352,0.05 -0.11,0.13 0.171,0.14 0.09,-0.061 -0.081,-0.14 0.191,-0.192 0.15,0.041 -0.061,0.141 0.11,0.212 0.241,-0.03 0.111,-0.14 0.201,-0.16 0.413,0.079 0.062,0.291 0.633,0.221 0.092,0.11 -0.291,0.049 -0.431,0.08l-0.1 -0.121c-0.685,-0.04 -0.503,0.322 0.19,0.211 -0.039,0.03 -0.08,0.051 0.01,0.061 -0.02,0.019 -0.613,0.05 -0.603,-0.04 -0.201,0.03 0.151,0.101 -0.051,0.15 0.554,-0.06 0.716,0.081 1.268,0.02 -0.031,-0.059 0.352,-0.121 0.201,-0.13 0.393,0 0.835,0.03 1.267,0.019 -0.251,0.052 -0.332,0.091 -0.111,0.183 -0.231,0.019 -0.361,-0.021 -0.24,-0.081 -0.182,0.049 -0.454,0.04 -0.302,-0.05 -0.251,-0.021 -0.092,0.099 -0.282,0.099 0.031,0.081 0.503,-0.04 0.523,0.04 0.09,0.112 -0.311,0.041 -0.351,0.112l0.241 0.08c-0.101,-0.08 0.371,-0.141 0.653,-0.08 -0.312,-0.101 -0.121,-0.091 0.2,-0.161 -0.15,0.201 0.927,0.131 1.028,-0.04 0.302,-0.041 0.302,0.06 0.532,0.04l-0.211 0.1c0.091,0.091 0.181,-0.04 0.372,-0.01 0.111,-0.01 0.011,-0.09 0.141,-0.101 -0.151,-0.02 -0.281,-0.059 -0.463,-0.07 0.011,-0.071 0.092,-0.12 0.03,-0.212 -0.05,-0.039 -0.162,-0.05 -0.302,-0.05 0.313,0.142 -0.411,0.031 -0.502,0.091 0,-0.11 -0.393,-0.08 -0.614,-0.091 -0.05,0.091 0.12,0.081 0.1,0.151 -0.311,-0.03 -0.129,-0.101 -0.261,-0.2 0.191,-0.01 0.392,-0.02 0.595,-0.02 -0.021,-0.061 -0.072,-0.102 -0.172,-0.122l0.282 -0.1c0.211,0.03 -0.221,0.071 -0.122,0.161l0.061 -0.07c0.04,0.07 0.493,0.11 0.361,-0.042 0.203,-0.008 0.203,0.061 0.243,0.122 0.301,-0.01 0.511,-0.1 0.673,0 0.111,-0.01 -0.03,-0.031 -0.01,-0.09 0.392,0.11 1.167,0.059 1.549,-0.051 0.503,0.03 0.714,0 1.509,0.07l-0.1 -0.12c0.15,0.12 0.422,-0.011 0.543,0.13 0.059,-0.019 0.12,-0.029 0.22,-0.029 0.061,-0.01 0.192,-0.101 0.081,-0.101 0.181,-0.06 0.151,0.12 0.221,0.151 -0.12,0.009 -0.533,0.091 -0.602,-0.04 -0.171,0.06 -0.555,0.049 -0.725,0.11 -0.121,0 -0.181,-0.04 -0.172,-0.11 -0.511,0.1 -1.095,0.029 -1.378,0.2 0.223,0.031 0.655,0 1.117,-0.009 -0.041,0.11 -0.623,0.04 -0.794,0.12 0.09,0.04 0.472,0 0.241,0.111 0.283,-0.021 0.262,-0.04 0.453,0.01 -0.473,-0.02 -0.866,0.252 -0.242,0.281 0.261,-0.029 -0.06,-0.08 0.121,-0.15 0.121,0 0.172,0.05 0.162,0.111 0.23,-0.122 0.422,0.05 0.512,-0.071 0.302,0.02 0.01,0.121 0.11,0.231 -0.04,-0.06 -0.302,-0.221 -0.462,-0.1 0,0 0.373,0.11 -0.051,0.09 0.061,0.071 0.424,0 0.383,0.111 -0.252,0.031 -0.322,-0.05 -0.442,0.02 -0.01,0.05 0.069,0.05 0.16,0.05 0,0.03 -0.401,0.021 -0.433,0.111 -0.14,-0.05 0.071,-0.09 -0.099,-0.15 -0.141,0.069 -0.433,0.039 -0.453,-0.051 -0.132,0.01 -0.162,0.061 -0.132,0.131 -0.309,-0.07 -0.562,0.02 -0.825,-0.061 -0.018,-0.07 0.263,-0.03 0.364,-0.05 -0.111,-0.251 -0.544,0.1 -0.745,0l0.211 -0.07c-0.081,-0.05 -0.262,-0.05 -0.382,-0.081 -0.111,0.009 -0.01,0.091 -0.131,0.101l0.152 -0.01c0.301,0.06 -0.211,0.05 -0.211,0.101 -0.031,-0.021 -0.152,-0.142 0.049,-0.122 0,-0.09 -0.181,-0.09 -0.181,-0.18 -0.232,0 -0.252,0.07 -0.512,0.05 0.069,0.11 0.22,-0.02 0.381,0.05 -0.02,0.041 -0.181,0.03 -0.292,0.041 -0.181,-0.011 0.071,0.13 -0.199,0.1 0,-0.061 0.029,-0.111 0.118,-0.131 -0.069,-0.12 -0.491,-0.071 -0.823,-0.06 -0.062,0.06 -0.151,0.141 0.041,0.242 -0.183,-0.011 -0.333,-0.112 -0.183,-0.182 -0.141,-0.08 -0.392,0.031 -0.513,0.05 0.221,0.02 0.072,0.101 0.172,0.121 -0.172,0.061 -0.051,-0.121 -0.392,-0.111 -0.293,0.06 0.11,0.222 -0.333,0.252l0.373 -0.041c0.16,0.011 0.16,0.041 0.081,0.091 0.14,0 0.14,-0.03 0.15,-0.07 0.151,0.01 0.161,0.04 0.08,0.09 0.514,0.06 0.826,0.041 1.288,0.081 0.07,0.08 -0.09,0.08 -0.051,0.151 -0.393,-0.121 -0.654,0.05 -0.974,-0.031 0.28,0.283 1.287,0.333 1.92,0.333 0.07,-0.072 0.011,-0.091 0.11,-0.182 0.091,0 0.202,0.04 0.091,0.051 0.1,0.1 0.191,-0.011 0.312,0.081 -0.01,0.05 -0.181,0.039 -0.292,0.039 0.353,0.011 0.876,0.201 0.977,0.031 0.12,0.05 -0.092,0.11 -0.041,0.18 0.803,-0.06 0.764,-0.049 1.699,-0.049 -0.231,0.049 -0.231,0.149 0.092,0.08 0.12,0.14 -0.373,0.06 -0.424,0.14l0.585 -0.08c0.11,0.041 0.259,0.07 0.321,0.141 0.1,-0.05 0.382,-0.039 0.352,-0.132 0.293,0.052 0.403,0 0.674,0.032 -0.011,0.069 -0.182,0.19 0.17,0.15 -0.02,0.061 -0.191,0.061 -0.12,0.161 -0.211,-0.05 -0.643,-0.081 -0.735,0.051 -0.624,-0.202 -0.804,-0.182 -1.72,-0.061l0.131 -0.1 -0.08 -0.031c-0.16,0.01 -0.142,0.091 -0.12,0.161 -0.151,0 -0.091,-0.11 -0.242,-0.11 -0.211,0.03 -0.081,0.049 -0.06,0.12 -0.303,-0.171 -0.583,0.04 -0.765,-0.151 -0.373,-0.01 -0.463,0.08 -0.724,0.111 -0.081,-0.04 -0.091,-0.111 -0.242,-0.111 -0.11,0.08 0.192,0.151 0.041,0.242 -0.141,0 -0.111,-0.081 -0.312,-0.051 0.151,-0.061 0.171,-0.17 -0.17,-0.151 0.15,0.101 0.2,0.171 -0.111,0.223 0.14,-0.192 -0.392,-0.112 -0.533,-0.072 -0.122,0 0.06,-0.13 -0.242,-0.12 -0.182,0.14 0.352,0.251 0.694,0.161 -0.201,0.14 -0.553,0.039 -0.734,0.09 -0.041,-0.04 -0.07,-0.242 -0.342,-0.261 -0.182,0.019 -0.312,0.069 -0.262,0.191 0.232,-0.031 0.131,-0.111 0.283,-0.101 0.39,0.12 -0.413,0.151 0.03,0.181 -0.061,0.071 -0.453,0.021 -0.655,0.051 0.01,-0.061 0.494,-0.071 0.181,-0.222 -0.261,0 -0.382,0.041 -0.433,0.11 -0.049,-0.08 -0.583,-0.06 -0.502,0.071 -0.372,0.02 -0.835,0 -0.794,0.152 -0.091,0 -0.05,-0.082 -0.14,-0.082 0.431,-0.11 0.08,-0.23 -0.093,-0.362 -0.28,0.061 -0.1,0.111 -0.17,0.242 -0.202,-0.05 -0.554,-0.04 -0.694,-0.12 -0.603,0.12 -1.167,0 -1.61,0.14 -0.009,0.081 0.293,0.02 0.241,0.121l-0.22 0c-0.089,0 -0.071,-0.05 -0.089,-0.091 -0.343,0.02 -0.414,0.131 -0.726,0.152l0.132 -0.091c-1.318,0.06 -1.943,0 -3.269,0.019 0.271,0.041 0.491,0.061 0.682,0.061 -0.431,0.251 -1.205,-0.05 -1.687,0.12 0.15,0.061 0.27,0.042 0.169,0.152 -0.703,-0.01 -1.308,-0.152 -1.538,0.11 0.453,0.02 0.946,-0.05 0.935,0.241 -0.1,0.01 -0.201,0.01 -0.303,0.01 0.011,0.141 0.192,0.191 0.414,0.232 0.242,0 -0.201,-0.08 0.06,-0.091 0.241,0.283 1.419,0.353 1.79,0 0.273,0.111 -0.271,0.181 -0.481,0.231 0.099,0.122 0.491,0.112 0.641,0.223 0.132,-0.092 0.333,-0.051 0.343,-0.142 0.172,0.01 0.031,0.161 0.181,0.182 0.171,-0.021 0.12,-0.112 0.353,-0.101 0.15,0.171 0.522,0.021 0.813,-0.031 0.475,0.142 1.218,0.031 1.519,0.161 0.232,-0.04 0.313,-0.12 0.575,-0.141 0.029,0.072 0.261,0.051 0.241,0.141 0.643,-0.019 0.804,-0.05 1.477,-0.08 0,0.08 -0.23,0.071 -0.431,0.08 0.301,0.041 0.471,0.141 0.773,0.182l0.141 -0.09c0.132,0.03 0.293,0.049 0.323,0.14 -0.101,0.091 -0.443,-0.05 -0.363,0.07 -0.433,-0.04 -1.107,0.01 -1.077,0.222 -0.069,0.08 -0.099,-0.051 -0.039,-0.081 -0.27,0.061 -0.312,-0.07 -0.724,-0.02 -0.141,0.02 -0.041,0.12 -0.281,0.101l0.101 0.121c-0.324,0 -0.987,-0.021 -1.099,0.129 -0.41,-0.059 -0.964,0.05 -1.356,-0.109 -0.242,0.22 -1.056,-0.031 -1.237,0.17 -0.131,-0.03 -0.101,-0.13 -0.182,-0.181 -0.019,0.112 -0.171,0.131 -0.22,0.011 -0.655,0.08 -1.721,-0.101 -2.143,0.101 -0.211,-0.121 -0.905,-0.112 -1.197,-0.021l0.09 0.09c-0.875,0.172 -1.577,-0.019 -2.021,0.312 0.241,0.102 0.261,-0.111 0.574,-0.081 -0.584,0.362 -2.223,0.05 -2.989,0.323 -0.572,-0.222 -0.995,0.22 -1.276,-0.021 -0.131,0.01 -0.242,0.032 -0.281,0.071 -0.141,-0.031 -0.262,-0.071 -0.392,-0.111 -0.082,0.011 -0.182,0.061 -0.062,0.061 -0.2,0.06 -0.362,0.03 -0.532,-0.041 -0.896,0.052 -1.499,0.152 -2.365,0.08 -0.563,0.181 -1.617,0.072 -2.303,0.052 -1.508,0.18 -3.047,-0.021 -4.132,0.2 0.019,-0.071 -0.141,-0.06 -0.102,-0.141 -0.231,-0.01 -0.221,0.07 -0.19,0.151 -0.262,-0.03 -0.152,-0.081 -0.251,-0.141 -0.102,0.131 -0.172,0.071 -0.444,0.041 -0.07,0.141 0.363,0.03 0.322,0.15 -0.272,-0.06 -0.915,-0.08 -0.844,-0.191 -0.252,-0.02 -0.242,0.052 -0.202,0.131 -0.895,0.01 -1.077,-0.191 -2.021,-0.02 0.09,-0.04 0.02,-0.051 -0.01,-0.091 -0.272,-0.01 -0.383,0.04 -0.432,0.101 -0.223,0.03 -0.212,-0.069 -0.384,-0.069 -0.371,0.008 -0.29,0.18 -0.713,0.17 0.211,-0.162 -0.534,-0.04 -0.695,-0.131 -0.231,0.03 -0.241,0.131 -0.492,0.141l0.2 -0.101c-0.783,-0.01 -1.004,0.06 -1.779,0.031 -0.351,-0.011 -0.825,0.06 -1.037,0.039 -0.239,-0.019 -0.332,-0.12 -0.543,-0.13 -0.382,-0.03 -1.065,0.12 -1.195,-0.019 -0.705,0.089 -1.419,0.059 -2.374,0.079 -0.041,0.13 -0.855,0.031 -1.037,0 -0.212,0.04 -0.071,0.051 -0.05,0.13 -0.23,-0.029 -0.352,-0.099 -0.684,-0.07 -0.231,0.031 -0.08,0.081 -0.041,0.151 -0.16,0.021 -0.16,-0.04 -0.17,-0.081 -0.744,-0.09 -1.459,0.223 -2.152,0.041 -0.251,0.111 -1.046,-0.07 -1.238,0.161 -0.111,-0.03 -0.331,-0.01 -0.311,-0.111 -0.211,0 -0.172,0.091 -0.282,0.132 -0.03,-0.212 -0.826,0.009 -1.187,0.009 -0.301,0.01 -0.652,-0.151 -0.885,0.031 -0.373,-0.202 -0.876,-0.011 -1.488,0.019l-0.051 0.101c-0.875,-0.091 -1.417,0.061 -1.991,0.131 -0.261,0 -0.383,-0.061 -0.473,-0.141 -0.372,-0.02 -0.381,0.091 -0.644,0.111 0.021,-0.141 -0.623,0.039 -0.623,-0.101 -0.241,0.111 -0.664,0.081 -0.975,0.07 0,-0.02 -0.443,-0.08 -0.585,-0.07 -0.23,0 -0.361,0.061 -0.583,0.081 -0.241,0.01 -0.512,-0.091 -0.763,-0.1 -0.373,-0.011 -1.098,-0.041 -1.7,0.029 -0.122,-0.07 -0.172,-0.05 -0.101,-0.151 -0.533,0.242 -0.925,0 -1.479,0.05 0.05,0.081 0.322,0.072 0.322,0.172 -0.272,-0.232 -1.338,-0.02 -1.941,-0.05 0.051,0.13 0.664,0 0.623,0.19 0.272,-0.19 0.744,-0.03 1.177,-0.101 -1.116,0.222 -2.776,0.252 -3.66,0.332 0.392,0.262 1.811,-0.12 2.183,0.171 0.471,-0.09 0.552,-0.069 0.874,-0.149 -0.071,0.08 -0.031,0.139 0.18,0.18 0.413,-0.251 1.459,0 1.67,-0.241 0.192,0.151 0.544,0 0.745,0.029l-0.211 0.071c0.07,0.161 1.056,0.01 0.955,-0.061 0.383,0.152 0.885,0 1.407,-0.08 0.334,0.102 1.692,0.171 2.003,-0.04 0.131,0.01 0.171,0.049 0.16,0.12 0.796,-0.049 1.258,-0.11 2.093,-0.01 -0.685,0.101 -1.278,-0.019 -1.679,0.171l0.159 0.091c0.282,-0.03 0.304,-0.04 0.524,0.01 0.241,-0.08 0.694,-0.16 0.956,-0.06 0.191,-0.151 0.594,-0.1 0.865,-0.222 -0.181,0.101 0.231,0.071 0.452,0.081 -1.187,0.241 -2.505,0.201 -3.44,0.332 -0.16,-0.021 -0.482,-0.161 -0.592,-0.01 -0.212,-0.02 -0.274,-0.111 -0.474,-0.131 0.101,0.05 -0.08,0.05 -0.281,0.131 -0.13,0 -0.061,-0.101 -0.232,-0.091 -0.312,-0.01 -0.121,0.161 -0.422,0.141 0.011,-0.05 -0.07,-0.05 -0.161,-0.05 -0.603,0.231 -1.962,0.03 -2.504,0.14 -0.614,-0.13 -1.258,0.101 -2.153,0.011 -0.342,0.09 -0.905,0.161 -1.046,0.04 -0.141,0.021 -0.22,0.071 -0.352,0.101l0.17 0.09c-0.14,-0.111 -0.332,-0.009 -0.532,-0.009 -0.865,0 -2.112,0.019 -3.117,0.009 -0.011,-0.111 0.089,-0.081 0.281,-0.07l0.07 -0.06 -0.151 0c-0.211,-0.021 0.092,-0.08 -0.1,-0.112 -0.423,0.292 -1.258,0.04 -1.921,0.061l0.12 0.03c-0.734,0.172 -1.781,0.242 -2.184,0.1 -0.22,0 -0.028,0.132 -0.23,0.142l-0.04 -0.01c0.212,-0.101 -0.291,-0.05 -0.251,-0.171 -0.17,0.059 -0.382,0.059 -0.534,-0.011 0.232,-0.069 -0.15,-0.12 -0.251,-0.15 -0.171,0.121 -0.432,0.131 -0.715,0.15 0.011,-0.069 0.192,-0.08 0.292,-0.04 0.041,-0.09 0.122,-0.12 -0.039,-0.241 -0.15,0.131 -0.242,-0.05 -0.514,0.05l-0.09 -0.061c0.151,-0.13 0.161,-0.26 0.402,-0.291l-0.1 -0.11c-0.13,0 -0.151,0.04 -0.292,0.04 0.01,-0.082 -0.111,-0.101 -0.311,-0.082 0.211,-0.08 0.11,-0.18 -0.04,-0.241 0.11,0.021 0.19,0.021 0.302,-0.02 -0.192,-0.07 -0.051,-0.201 0.17,-0.24 -0.081,-0.091 -0.181,0.039 -0.373,0.01l-0.03 -0.212c0.302,0.03 0.282,-0.08 0.664,-0.02 0.08,-0.07 0.162,-0.14 0.262,-0.201 0.151,0.05 0.181,0 0.371,-0.01 0.031,0.091 0.513,0.071 0.605,0.04 -0.081,-0.04 -0.131,-0.09 -0.322,-0.079 0.2,-0.152 -0.051,-0.193 -0.413,-0.233 -0.09,0.04 -0.13,0.091 -0.19,0.132 -0.162,-0.222 -0.774,-0.061 -1.006,-0.211 -0.192,0.07 -0.484,0.28 -0.101,0.28 -0.019,0.101 -0.442,0.04 -0.593,0.021 -0.081,-0.101 0.23,-0.051 0.282,-0.101 -0.021,-0.081 -0.414,-0.1 -0.101,-0.15 -0.141,-0.021 -0.221,-0.071 -0.393,-0.081 0.05,-0.031 0.08,-0.051 -0.01,-0.061 0.09,-0.039 0.504,-0.12 0.342,-0.161 0.323,-0.079 0.633,0 1.036,-0.071 -0.071,-0.089 -0.292,-0.029 -0.453,-0.008 0.05,-0.122 -0.231,-0.081 -0.181,-0.212 0.052,-0.03 0.654,-0.011 0.423,-0.1 0.252,0.029 0.392,0.049 0.824,0.029 0.131,-0.241 0.715,-0.17 1.067,-0.312 -0.312,-0.07 -0.352,0.081 -0.744,0.031 -0.041,-0.111 0.27,0 0.27,-0.121 0.072,0.07 0.171,0.03 0.061,-0.111 0.142,0.021 0.303,0.061 0.172,0.121 0.291,-0.02 0.391,-0.04 0.493,-0.171 0.361,0.081 0.562,-0.091 0.864,-0.12 -0.191,-0.1 -0.916,-0.283 -1.066,-0.181 -0.242,-0.05 0.162,-0.131 0.1,-0.211 -0.14,-0.081 -0.201,-0.212 -0.483,-0.232l0.011 0.03c-0.05,0.091 -0.202,-0.03 -0.372,0.02 -0.162,-0.01 0.03,0.081 0.09,0.081l-0.614 -0.071c-0.412,0.141 -1.599,0.161 -1.729,0.312 -0.081,0.06 -0.302,-0.081 -0.393,-0.111l-0.14 0.03c-0.111,0.091 0.342,0.05 0.09,0.091 -0.061,0.02 -0.111,0.04 -0.211,0.04 -0.07,-0.251 -1.328,-0.01 -1.71,0.05 -0.241,-0.079 -0.704,-0.141 -0.894,0 -0.282,0.02 -0.031,-0.019 -0.091,-0.079 -0.201,0.07 -0.182,0.05 -0.504,0.079 0.362,0.071 0.263,0.161 0.504,0.283 0.141,-0.072 0.21,0.01 0.443,-0.011 -0.293,0.091 -0.745,0.121 -1.248,0.131 -0.059,-0.07 -0.252,-0.142 -0.11,-0.211 -0.211,0 -0.252,0.161 -0.051,0.151 -0.04,0.11 -0.664,-0.06 -0.302,-0.041 -0.08,-0.091 -0.221,0.041 -0.442,0.01 -0.12,-0.17 -0.362,-0.292 -0.886,-0.331 0.132,-0.131 1.117,0.039 1.268,0.01 -0.232,-0.061 -0.382,-0.161 -0.764,-0.151 0.02,-0.111 0.362,-0.121 0.572,-0.111 -0.079,-0.13 -0.422,-0.041 -0.693,-0.13 0.121,-0.071 0.704,-0.081 0.674,0.039 0.383,-0.029 0.191,-0.22 0.643,-0.151 -0.191,-0.061 -0.341,-0.13 -0.624,-0.161 0.041,-0.029 0.081,-0.06 -0.009,-0.06l0.281 -0.1c-0.069,-0.111 -0.312,-0.131 -0.412,-0.231 -0.572,0.07 -1.157,0 -1.861,0.04 0.151,-0.072 -0.11,-0.111 -0.252,-0.151 0.233,0.111 -0.009,0.051 0.041,0.221 -0.081,-0.131 -0.343,-0.101 -0.533,-0.11 -0.11,-0.071 0.19,-0.132 -0.03,-0.151l0.211 -0.071c0.102,-0.121 -0.322,0.01 -0.311,-0.08 -0.021,-0.091 0.29,-0.05 0.362,-0.041 0.281,-0.029 -0.081,-0.291 0.321,-0.281l0.02 0.12c0.392,-0.029 -0.049,-0.171 0.262,-0.22 -0.08,-0.091 -0.102,0.069 -0.292,0.041 -0.06,-0.151 0.504,-0.072 0.483,-0.203 -0.111,-0.06 -0.271,-0.09 -0.463,-0.11 0.02,-0.13 -0.201,-0.533 -0.885,-0.332 0.121,0.03 0.202,0.08 0.392,0.08 -0.14,0.07 -0.553,0 -0.744,-0.01 0.252,-0.08 -0.08,-0.241 0.091,-0.342 0.15,0.031 0.302,0.06 0.453,0.081 0.23,-0.01 0.371,-0.04 0.431,-0.101 -0.26,-0.05 -0.573,-0.03 -0.824,-0.01 0.221,-0.17 0.552,-0.03 0.965,-0.06l-0.09 -0.06c-0.08,-0.071 0.381,0.11 0.543,0.14 0.271,-0.08 0.07,-0.231 0.413,-0.231 -0.151,-0.06 -0.313,-0.12 -0.614,-0.101 0.09,-0.1 0.322,0.01 0.513,-0.019 0.119,-0.051 0.11,-0.151 0.262,-0.192l-0.08 -0.06c-0.203,0.05 -0.906,0.181 -1.027,0.201l0.021 -0.01 -0.091 -0.09c-0.251,0.02 -0.312,0.1 -0.664,0.08 -0.061,-0.091 0.11,-0.091 0.05,-0.181 -0.152,-0.011 -0.171,0.06 -0.09,0.06 -0.191,0.03 -0.723,-0.05 -0.865,0.03 0.09,0.04 0.09,0.14 0.322,0.111 0.18,-0.01 -0.122,-0.04 -0.022,-0.121 0.344,-0.02 0.142,0.111 0.103,0.181 -0.103,0 -0.212,0 -0.223,0.041 -0.131,0 -0.06,-0.101 -0.23,-0.081 -0.091,0.05 -0.1,0.101 -0.111,0.211 -0.1,0 -0.08,-0.07 -0.1,-0.11 -0.121,0 -0.242,0 -0.372,0.01 -0.192,0.03 -0.162,0.241 -0.493,0.14l0.211 -0.069c-0.191,-0.021 -0.262,-0.091 -0.463,-0.112 0.291,-0.05 0.09,-0.039 0.503,-0.11 0.05,-0.141 -0.162,-0.16 -0.473,-0.131 0.171,0.121 -0.081,0.091 -0.151,0 -0.332,0.02 -0.371,0.141 -0.795,0.121 -0.04,-0.06 0.092,-0.06 0.211,-0.07l-0.16 -0.08c-0.493,0.14 -1.187,0.09 -1.53,0.231 -0.12,-0.041 -0.16,-0.111 -0.451,-0.071 0.01,-0.08 0.221,-0.152 0.352,-0.101 0.03,-0.08 -0.05,-0.111 -0.242,-0.091 -0.241,-0.02 0.192,-0.04 0.292,-0.04 -0.312,-0.221 -1.349,0.031 -0.845,0.242 -0.081,0.01 -0.15,0.01 -0.232,0.01 0.062,0.029 0.142,0.04 0.242,0.051 -0.081,0.17 -0.503,0.11 -0.794,0.151 0.191,-0.101 -0.203,-0.122 -0.403,-0.142 -0.191,0.01 -0.1,0.121 -0.191,0.161 -0.232,-0.06 -0.322,-0.04 -0.524,0.02 -0.099,-0.14 -0.08,-0.221 -0.4,-0.201 0.049,-0.08 0,-0.191 0.251,-0.191 -0.554,-0.01 -1.127,-0.16 -1.258,-0.443 -0.201,-0.08 -0.423,-0.039 -0.593,0.021 0.181,-0.211 0.844,-0.06 0.604,-0.382 -0.202,-0.011 -0.041,0.11 -0.283,0.1 0.111,-0.221 -0.442,0.081 0.161,0.049 -0.139,0.162 -0.673,-0.129 -0.342,-0.2 -0.059,-0.09 -0.201,-0.03 -0.372,-0.02 0.05,-0.07 0.341,-0.13 0.503,-0.08 -0.06,-0.021 -0.051,-0.081 -0.162,-0.081 0.234,-0.09 0.343,0.05 0.755,0.031l-0.241 -0.082c0.121,-0.1 0.563,0.031 0.382,0.082 0.1,-0.031 0.271,-0.041 0.362,-0.071l-0.1 -0.121c0.211,0.051 0.181,0.071 0.392,0.081 -0.049,0.121 -0.03,0.18 0.331,0.171l-0.139 0.09c0.029,0.04 0.2,0.02 0.31,0.02 0.193,0 -0.1,-0.16 0.193,-0.131 -0.121,0.091 0.048,0.091 -0.032,0.192 -0.291,-0.01 -0.362,-0.03 -0.522,0.05 0.171,0.08 0.442,-0.08 0.533,0.041 0.201,-0.011 0.493,-0.142 0.191,-0.162 0.483,0.01 0.945,-0.069 1.699,-0.06 0.111,-0.031 -0.02,-0.04 0.061,-0.121 0.231,-0.01 0.494,0.05 0.664,-0.02 -0.312,-0.07 0.13,-0.251 -0.251,-0.181 -0.121,-0.07 0.251,-0.03 0.432,-0.07 -0.06,-0.101 -0.372,-0.041 -0.523,-0.02 0.011,-0.05 -0.019,-0.081 -0.111,-0.081 0.181,-0.02 0.373,-0.061 0.432,-0.172l-0.08 -0.059c-0.221,0.05 -0.412,0.111 -0.644,0.15 -0.11,-0.15 -0.975,-0.281 -0.975,-0.03 -0.25,-0.05 -0.402,-0.14 -0.564,-0.231 -0.19,0.151 -0.583,0.04 -0.904,0.101 0.26,-0.141 -0.252,-0.352 0.321,-0.443 -0.172,-0.11 0.021,-0.181 -0.061,-0.331 0.382,-0.042 0.595,0.009 0.755,0.069 0.092,-0.009 0.061,-0.06 0.061,-0.101 0.382,0.011 0.754,0.041 0.925,0.151 0.12,-0.07 0.182,-0.161 0.564,-0.14 0.08,-0.08 -0.242,-0.121 -0.022,-0.15 -0.18,-0.05 -0.31,-0.081 -0.692,-0.091 0.372,-0.091 -0.041,-0.121 0.019,-0.312 -0.332,0.131 -0.503,0.05 -1.025,0.07 0.241,-0.13 0.785,0.03 0.864,-0.151 0.132,0.041 0.433,0 0.675,0 0.794,-0.362 -0.916,-0.351 -1.229,-0.593 -0.059,0.02 -0.161,0.04 -0.29,0.04l-0.082 -0.059c-0.109,-0.092 0.232,-0.031 0.121,-0.133 -0.211,0.011 -0.149,-0.039 -0.24,-0.14 -0.583,0.091 -1.116,0.101 -1.369,-0.1 -0.061,0.02 -0.161,0.04 -0.291,0.04 0,-0.13 -0.312,-0.111 -0.403,-0.201 -0.05,-0.332 0.565,-0.432 0.694,-0.694 -0.694,-0.09 -0.904,0.11 -1.688,0.12 0.119,0.122 0.302,0.182 0.411,0.222 -0.131,0.04 -0.261,-0.08 -0.302,0.02 -0.201,-0.12 -0.512,-0.2 -1.065,-0.151 -0.151,-0.071 0.02,-0.091 -0.102,-0.182 -1.055,0.061 -1.96,-0.05 -2.734,-0.27 -0.976,0.009 -1.581,-0.363 -1.581,-0.724 -0.009,-0.182 0.152,-0.353 0.474,-0.483 0.07,0.059 0.171,0.11 0.181,0.201 0.381,-0.02 0.533,0.06 0.835,0.07 0.673,-0.212 1.438,-0.05 2.212,-0.141l-0.069 0.061c0.653,0.03 1.116,-0.071 1.417,0.01 0.131,-0.03 0.201,-0.081 0.352,-0.1 0.21,-0.01 0.201,0.08 0.322,0.109 0.23,-0.109 1.298,0.061 1.157,-0.19 0.23,0.071 0.331,0.03 0.674,0.009 -0.101,0.172 -0.372,0.101 -0.634,0.201 -0.724,0.282 -0.232,0.634 0.382,0.906 0.332,-0.01 0.563,0.031 0.835,0.06 0.141,-0.029 0.201,-0.1 0.181,-0.19 -0.654,0.24 -1.127,-0.171 -0.815,-0.393 0.182,-0.02 0.171,0.04 0.372,0.011 0.101,-0.011 0.112,-0.051 0.223,-0.072 -0.203,-0.069 -0.142,-0.1 -0.273,-0.231 0.151,0.011 0.191,-0.03 0.292,-0.04 -0.804,-0.161 0.161,-0.352 0.281,-0.523 0.11,0.041 0.392,0.01 0.352,-0.08 -0.12,-0.081 -0.281,0.05 -0.512,0.02l0.049 -0.121c0.12,0.04 0.382,0.01 0.595,0.01 0,-0.09 -0.242,-0.08 -0.183,-0.212 0.06,-0.019 0.162,-0.04 0.293,-0.04 -0.11,-0.09 -0.081,-0.11 0.04,-0.18 -0.071,-0.08 -0.322,-0.071 -0.463,-0.111 -0.04,-0.251 0.061,-0.302 -0.09,-0.512 0.08,-0.031 0.262,-0.041 0.352,-0.072 -0.021,-0.05 -0.14,-0.06 -0.302,-0.05 -0.04,-0.08 0.281,-0.029 0.191,-0.131 0.2,0.022 0.352,0.031 0.443,-0.039 -0.262,0.09 -0.482,-0.363 0.09,-0.312 0.03,0.121 -0.212,0.18 0.061,0.301 0.22,-0.121 0.402,-0.16 0.472,-0.29 -0.402,-0.032 -0.533,-0.253 0.02,-0.273 -0.06,-0.091 -0.241,-0.12 -0.332,-0.2l0.212 -0.041c0.03,-0.07 -0.111,-0.051 -0.232,-0.051 -0.031,-0.09 0.211,-0.08 0.202,-0.16 -0.221,-0.082 -0.182,0.08 -0.433,0.07 0.302,-0.141 0.242,-0.423 0.402,-0.614 0.181,-0.009 0.211,-0.061 0.443,-0.05 0.02,-0.1 -0.11,-0.12 -0.251,-0.14 0.23,-0.111 -0.021,-0.252 0.311,-0.353 0.211,0.031 0,0.131 0.03,0.181 0.243,0.011 0.302,-0.05 0.353,-0.1 0.23,0.111 -0.283,0.2 -0.393,0.292 0.352,0.04 0.523,0.311 0.382,0.472 0.192,0.051 0.513,0.04 0.755,0.06l-0.151 -0.02c0,-0.12 0.251,-0.14 0.251,-0.252 0.12,-0.019 0.13,0.022 0.221,0.022 0.202,-0.041 -0.019,-0.162 -0.029,-0.212 0.07,0.039 0.362,0.161 0.291,-0.01 0.603,-0.08 0.976,0.14 1.338,-0.02 -0.13,0.121 0.031,0.231 0.321,0.141 -0.141,0.101 -0.09,0.101 0.04,0.191 -0.292,0.04 -0.532,-0.08 -0.593,0.04 0.061,0.09 0.593,-0.061 0.474,0.111 0.292,-0.011 0.371,-0.091 0.643,-0.111 -0.041,-0.101 -0.202,-0.152 -0.333,-0.201 0.051,-0.061 0.495,0.081 0.674,-0.03 -0.089,-0.1 -0.151,-0.011 -0.382,-0.011 -0.119,-0.05 0.031,-0.12 -0.18,-0.181 0.15,-0.111 0.2,0.101 0.321,0.11 0.201,0.021 -0.08,-0.14 0.121,-0.119 -0.201,-0.111 -0.271,-0.081 -0.473,-0.172 0.202,-0.03 0.262,-0.231 0.423,-0.11 0.242,-0.031 0.03,-0.05 0.05,-0.151 -0.121,0 -0.252,0.011 -0.373,0.011 0.201,-0.193 0.493,0.08 0.826,0.039 0.019,-0.1 -0.081,-0.14 -0.311,-0.111 0.119,-0.06 -0.111,-0.09 0.04,-0.16 0.13,0.009 -0.051,0.1 0.17,0.121 0.281,0.019 0.101,-0.121 0.352,-0.112 0.06,0.072 0.232,0.101 0.111,0.151 0.473,-0.039 0.411,0.181 0.905,0.121 -0.11,-0.11 -0.321,-0.191 -0.494,-0.281 -0.1,0.009 -0.049,0.07 -0.049,0.121 -0.121,-0.011 -0.202,-0.04 -0.312,-0.051 0.01,-0.061 0.332,-0.02 0.282,-0.1 -0.181,0.03 -0.131,-0.162 -0.403,-0.171 0.111,-0.11 0.1,-0.121 0.02,-0.272 0.111,0.06 0.331,0.06 0.462,0.1 0,0.081 -0.26,0.062 -0.26,0.131 0.17,0.041 0.322,0.061 0.09,0.121 0.08,0.06 0.583,-0.011 0.312,0.111 0.261,-0.02 0.422,0 0.603,0.01 -0.05,0.16 -0.029,0.391 0.382,0.472 -0.301,0.021 -0.594,0.041 -0.563,0.171l0.221 0.031 -0.04 0.15c-0.28,-0.041 -0.361,0.02 -0.603,-0.009 -0.061,-0.081 0.141,-0.071 0.131,-0.121 -0.302,-0.151 -0.775,0.061 -1.016,0.121 0.241,0.029 0.403,0.109 0.835,0.119 0.05,0.132 -0.1,0 -0.291,0.041 -0.011,0.111 0.24,0.091 0.321,0.141 0.25,-0.03 0,-0.06 0.13,-0.121 0.332,0.061 0.554,0.172 0.654,0.342 0.233,-0.05 0.322,-0.02 0.594,-0.02 -0.212,0.092 0.05,0.182 0.06,0.332 0.201,-0.02 0.161,-0.131 0.423,-0.131 -0.101,-0.12 0.201,-0.251 -0.121,-0.271 0.04,-0.05 0.15,-0.061 0.282,-0.071 0,0.111 0.11,0.161 0.191,0.233 0.231,-0.052 0.543,-0.103 0.815,-0.052 0.069,-0.131 -0.192,-0.09 -0.393,-0.08 0.121,-0.03 0.191,-0.121 0.05,-0.151 0.262,0.01 0.653,-0.111 0.825,0.03 0.08,0.011 -0.02,-0.171 -0.111,-0.181 0.152,-0.07 0.423,-0.101 0.644,-0.151 -0.009,-0.06 -0.201,-0.03 -0.161,-0.11 0.292,0.03 0.373,-0.031 0.593,0.01 0.322,-0.111 -0.261,-0.151 -0.281,-0.302 -0.181,0.03 -0.222,0.02 -0.432,0.08 -0.282,-0.06 0.331,-0.1 0.051,-0.151 0.11,-0.039 0.169,-0.1 0.351,-0.1 -0.13,-0.03 -0.141,-0.111 -0.383,-0.08 -0.06,-0.111 -0.01,-0.171 0.182,-0.192 -0.423,-0.13 -0.232,0.091 -0.564,0.142 0,0.01 -0.281,-0.212 0.05,-0.223 -0.321,0 -0.734,-0.019 -0.975,0.072 0,-0.142 -0.172,-0.121 -0.403,-0.201 0.272,0 0.293,0.03 0.523,-0.021l0.011 0.091c0.423,-0.011 0.331,-0.091 0.663,-0.02 -0.16,-0.111 -0.594,-0.121 -1.055,-0.08l-0.091 -0.061 -0.01 -0.061c0.121,-0.019 0.142,0.02 0.231,0.02l-0.24 -0.11c0.029,-0.05 0.1,-0.08 0.199,-0.101 0.251,0.071 0.423,-0.01 0.686,0.071 0.059,0.09 -0.332,0.03 -0.353,0.101 0.191,0.06 0.523,-0.06 0.814,-0.06l-0.029 -0.152c-0.06,-0.02 -0.454,-0.1 -0.101,-0.121 -0.111,-0.11 -0.15,0.021 -0.372,0.021 -0.101,-0.04 -0.052,-0.12 0.05,-0.162 -0.272,-0.141 -0.724,0.07 -0.624,0.242 -0.192,-0.091 -0.119,-0.07 -0.391,-0.08 -0.092,-0.101 0.221,-0.061 0.361,-0.071 -0.081,-0.049 -0.03,-0.171 -0.251,-0.151 0.2,-0.15 0.2,-0.322 -0.011,-0.482 0.141,0.049 0.252,0.121 0.403,0.17 0.342,-0.04 0.101,-0.1 0.041,-0.191 0.251,-0.01 0.362,0.051 0.531,0.081 0.091,0.1 -0.31,0.04 -0.351,0.1l0.161 0.081c0.19,-0.03 0.222,-0.131 0.342,-0.192 0.221,0.041 -0.08,0.142 0.041,0.242 0.231,0.02 0.13,-0.08 0.362,-0.07 -0.081,0.151 0.392,0.252 0.724,0.311 -0.021,0.06 -0.281,0.03 -0.202,0.132 0.061,0.12 0.363,0.131 0.563,0.19 0,0.121 -0.291,-0.03 -0.361,0.07 0,-0.049 -0.131,-0.129 -0.463,-0.1 0.413,0.091 0.714,0.252 1.035,0.393 -0.019,0.14 -0.37,0.171 -0.793,0.171 -0.071,0.009 -0.031,0.069 -0.142,0.069l0.372 -0.039c0.121,0.11 0.343,0.131 0.544,0.131 -0.02,0.04 -0.08,0.06 -0.211,0.069 0.06,0.021 0.141,0.04 0.23,0.051 0.212,-0.04 -0.119,-0.08 0.051,-0.12 0.392,0.12 0.745,0.019 1.187,-0.041 -0.14,0.06 0,0.161 0.181,0.17 0.422,0.011 0.745,-0.26 0.885,-0.028 -0.171,0.13 -1.317,0.069 -1.066,0.25 -0.121,0.051 -0.552,-0.03 -0.654,0.111 0.04,0.061 0.292,0.02 0.251,0.121 0.282,-0.02 0.313,-0.121 0.644,-0.121 -0.231,0.081 -0.07,0.222 0.333,0.171 -0.051,0.03 -0.131,0.051 -0.212,0.071 0.14,0.05 0.222,0.131 0.402,0.171 0.302,-0.091 0.593,-0.191 0.685,-0.363 0.13,0 0.059,0.101 0.16,0.121 0.624,0.009 0.514,-0.241 0.996,-0.282 -0.02,-0.03 -0.14,-0.02 -0.221,-0.02 0.242,-0.121 0.462,-0.302 0.292,-0.402 0.36,-0.021 0.12,0.252 0.493,0.221 -0.022,0.041 -0.182,0.031 -0.292,0.041 -0.02,0.11 0.091,0.15 0.252,0.171 -0.011,0.05 -0.182,0.04 -0.292,0.04 0.292,0.161 0.221,0.03 0.12,0.24 0.201,0.042 0.462,0.051 0.403,0.202 0.402,0.071 0.653,0.01 1.126,0.02 0.041,-0.08 -0.12,-0.071 -0.1,-0.14 0.361,0.04 0.121,0.17 0.422,0.261 0.13,-0.01 0.02,-0.11 0.12,-0.131 0.111,0.021 0.172,0.071 0.182,0.141 0.151,-0.01 -0.01,-0.131 0.12,-0.151 0.282,0.01 0.252,-0.009 0.441,0.01 0.464,-0.12 0.615,-0.422 0.706,-0.634 0.181,0.011 0.362,0.071 0.292,-0.07 0.18,0 0.573,-0.041 0.372,0.051 0.251,-0.031 0,-0.072 0.13,-0.121 0.151,0.029 0.171,0.13 0.392,0.13 0.182,-0.009 0.02,-0.09 -0.069,-0.09 0.13,-0.03 0.281,-0.03 0.583,-0.011 -0.302,-0.069 0.049,-0.08 0.141,-0.008 0.08,-0.041 0.12,-0.092 0.361,-0.072 -0.151,-0.09 -0.292,-0.02 -0.603,-0.01 0.17,-0.08 -0.101,-0.09 -0.241,-0.111l0.211 -0.1c0.16,0.142 0.171,-0.041 0.382,0.07 0.059,-0.13 0.15,-0.03 0.262,-0.19l-0.081 -0.05c-0.351,0.14 -0.745,0.11 -1.096,0.15l0.07 -0.06c-0.473,-0.01 -0.573,0.1 -1.016,0.161 -0.019,-0.101 -0.231,-0.111 -0.462,-0.111 -0.111,-0.09 0.231,-0.03 0.12,-0.12 0.242,-0.031 0.242,0.05 0.372,-0.02 -0.1,-0.071 -0.381,0.02 -0.512,0.02 0,-0.041 -0.011,-0.081 -0.101,-0.091 0.361,0.019 0.442,-0.192 0.382,-0.402 0.212,-0.041 0.321,-0.102 0.182,-0.191 0.291,-0.041 0.381,-0.05 0.602,0.009 0.091,-0.121 0.855,-0.08 0.533,-0.321 0.081,-0.041 0.262,-0.041 0.444,-0.051 -0.012,0.041 -0.132,0.031 -0.223,0.041 0,0.071 0.081,0.09 0.242,0.08 -0.031,0.091 -0.371,0.061 -0.341,0.171 0.211,0.05 0.804,0.11 0.904,0.03 0.092,0.08 0.211,0.102 0.452,0.041 0,0.05 0.061,0.08 0.162,0.089 -0.101,0.112 -0.12,-0.07 -0.302,-0.02 -0.089,0.031 0.211,0.162 0.472,0.132l-0.048 0.13c0.42,-0.07 0.682,0.121 1.206,0.102 0.252,-0.022 -0.211,-0.112 0.13,-0.091 0.172,0.019 -0.02,0.14 0.544,0.1 -0.031,0.111 0.179,0.111 0.179,0.211 0.213,-0.01 0.354,-0.05 0.273,-0.16 0.202,-0.051 0.432,-0.021 0.473,0.1 -0.202,0.01 -0.112,-0.121 -0.392,-0.081 -0.021,0.1 0.442,0.141 0.532,0.081 0.021,0.03 -0.009,0.08 -0.201,0.101 0.392,0.18 1.188,-0.03 1.389,0.251 0.171,-0.121 0.201,-0.041 0.432,-0.08l-0.162 -0.051c0.182,-0.04 0.554,0 0.958,-0.06l-0.022 -0.12c-0.16,-0.011 -0.14,0.05 -0.13,0.089 -0.191,0.021 -0.292,-0.161 -0.464,-0.039 0.022,-0.011 0.051,-0.251 -0.039,-0.242 -0.24,-0.09 -1.026,0.131 -1.317,0.101 0.331,-0.101 0.974,-0.242 1.518,-0.232 0.089,-0.03 -0.1,-0.101 -0.09,-0.12 -0.031,-0.041 0.421,-0.05 0.131,-0.091 0.039,-0.1 0.231,0.01 0.361,-0.02 -0.191,-0.101 -0.664,-0.09 -0.633,-0.221 -0.303,0.04 -0.362,-0.04 -0.604,-0.04 -0.13,0.14 0.795,0.12 0.724,0.281 -0.211,0.01 -0.191,-0.081 -0.393,-0.081 -0.151,0.05 0.191,0.131 0.191,0.212 -0.342,-0.04 -0.493,-0.162 -0.642,-0.281 -0.172,0.04 -0.142,0 -0.372,0.04 0.111,-0.051 0.06,-0.141 -0.161,-0.122 0.12,-0.019 -0.041,-0.141 0.12,-0.15 -0.213,0.04 -0.141,-0.201 -0.352,-0.262 -0.343,0.121 -0.574,0.081 -0.955,0.061 -0.162,0.081 0.12,0.05 0.1,0.151 -0.141,-0.041 -0.331,-0.061 -0.331,-0.172 0.261,-0.08 0.643,-0.201 0.944,-0.19 -0.029,-0.061 -0.201,-0.052 -0.382,-0.041 0.171,-0.089 0.554,-0.011 0.534,0.101 0.332,-0.09 0.493,-0.031 0.804,-0.09 -0.08,-0.082 -0.11,-0.031 -0.302,-0.022l0.202 -0.13c0.11,0.041 0.181,0.152 0.11,0.182l0.152 0c0.221,0 -0.212,-0.08 0.048,-0.091 0.041,-0.071 0.032,0.061 0.173,0.111 0.17,-0.061 0.402,-0.182 0.664,-0.02 -0.213,0.009 -0.482,0 -0.585,0.05 0.392,-0.021 0.856,0.161 1.218,0.14 -0.09,-0.069 -0.312,-0.069 -0.392,-0.14 0.172,-0.152 0.845,-0.091 1.297,-0.201l-0.091 -0.121c0.343,-0.02 0.353,-0.031 0.664,-0.02 -0.07,-0.07 -0.361,-0.041 -0.402,-0.141 0.231,0.01 0.653,0.141 0.746,0.01 -0.062,-0.091 -0.152,0.031 -0.292,0.009 0.21,-0.14 0.279,-0.13 0.571,-0.14 -0.31,0.071 -0.1,0.111 0.041,0.212 0.231,0.009 0.12,-0.091 0.353,-0.072 0.191,0.092 0.623,0.072 0.784,0.183 -0.544,-0.111 -1.479,-0.102 -2.073,0.069 0.162,-0.02 0.633,0.032 1.026,-0.06 -0.01,0.081 0.292,0.01 0.241,0.11 0.716,-0.05 1.167,0.01 1.55,-0.11 0.081,0 0.071,0.05 0.09,0.092 0.332,-0.101 0.624,0.018 0.866,-0.122 0.09,-0.12 -0.323,0 -0.242,-0.12 0.182,-0.091 0.232,0.03 0.452,0.019 0.212,-0.039 -0.11,-0.08 -0.03,-0.15 0.302,-0.051 0.423,-0.011 0.604,0.07 0.865,-0.101 1.127,-0.181 0.683,-0.391 -0.251,0.019 -0.31,0.099 -0.422,0.17 0.081,0.081 0.232,-0.031 0.373,-0.02 -0.101,0.101 -0.221,0.06 -0.353,0.11 -0.029,-0.05 -0.09,-0.061 -0.311,-0.081 0.01,-0.05 0.18,-0.029 0.291,-0.04l0.06 -0.069c-0.13,-0.081 -0.471,-0.061 -0.512,0.049 -0.071,-0.081 -0.553,-0.07 -0.513,0.051 -0.151,-0.151 -0.442,-0.17 -0.764,-0.1 0.04,0.059 0.292,0.019 0.251,0.12 -0.403,0.07 -0.744,0.02 -1.057,-0.03 0.102,-0.413 -1.801,-0.273 -2.514,-0.312 0.101,-0.061 0.303,-0.081 0.353,-0.162 -0.313,0.112 -0.503,0.132 -0.947,0.152l-0.019 -0.121c0.282,0.101 0.675,0.02 0.724,-0.111 -0.291,-0.04 -0.432,0.022 -0.241,-0.151 -0.342,-0.029 -0.191,0.111 -0.201,0.192 -0.263,-0.051 -0.393,-0.041 -0.584,0.05 -0.231,-0.02 -0.111,-0.201 -0.273,-0.261 0.032,-0.1 0.162,-0.172 0.495,-0.172l-0.031 -0.181c0.202,-0.03 0.192,0.03 0.372,0.021 -0.311,-0.111 -0.04,-0.252 0.322,-0.292 0.07,0.081 -0.131,0.07 -0.131,0.131 1.379,-0.141 2.606,0.05 3.532,0.151 0.169,-0.051 0.3,-0.121 0.651,-0.111 0,0.05 0.062,0.08 0.162,0.08l-0.211 0.041c0.413,0.191 0.624,0.14 1.428,0.11 0.04,-0.11 -0.311,-0.03 -0.251,-0.151 0.191,0.041 0.15,0.061 0.382,0.02l-0.061 0.092c0.342,-0.101 0.473,0.13 0.816,0 0.291,0.019 -0.223,0.12 0.02,0.12 -0.02,0.069 -0.363,0.03 -0.502,0.049 0.029,0.182 0.502,0.02 0.672,0.072 -0.372,0.089 0.242,0.089 0.041,0.18 0.462,-0.01 0.462,-0.12 0.744,0.01 0.181,-0.01 0.221,-0.06 0.282,-0.11 0.021,-0.041 -0.241,-0.07 -0.343,-0.041 0.222,-0.14 0.746,0.151 1.328,0.162 -0.31,0.221 -1.015,-0.031 -1.619,0.15 -0.352,-0.139 -0.433,0.101 -0.805,0.031 0.031,-0.081 0.261,-0.081 0.423,-0.112 -0.262,-0.12 -0.644,0.022 -1.047,-0.019 0.284,0.1 0.605,0.191 0.947,0.272 0.231,0.009 0.12,-0.091 0.361,-0.081l0.011 0.09c0.301,0.021 0.24,-0.1 0.583,-0.08 -0.292,0.08 0.051,0.091 0.04,0.221 0.432,0 0.131,-0.089 0.272,-0.161 0.552,-0.05 0.945,0.031 1.409,0.011 0.099,-0.02 0.049,-0.081 0.049,-0.132 -0.191,0.061 -0.554,0.121 -0.735,0.031 0.091,0.03 0.855,-0.11 0.414,-0.171 0.242,-0.039 0.281,-0.039 0.573,-0.171l-0.05 0.121c0.11,0.011 0.121,-0.031 0.21,-0.031l-0.03 -0.1c0.563,0.211 1.217,0.423 1.98,0.593 2.143,0.493 4.739,0.251 5.986,0.081 0.614,0.019 1.257,-0.071 1.871,0.12 0.09,-0.02 -0.121,-0.12 0.121,-0.151 -0.021,0.172 0.623,0.101 0.885,0 -0.353,0.212 0.754,0.111 1.075,0.172l-0.131 0.07c0.222,0.039 0.443,0.01 0.574,-0.081 0.171,-0.01 0.05,0.101 0.111,0.151 0.685,-0.06 1.197,0.161 1.942,0.05 -0.041,0.091 0.14,0.081 0.099,0.182 0.202,-0.011 0.433,-0.031 0.463,0.039 0.09,0.01 0.241,-0.09 0.05,-0.09 0.062,-0.08 0.161,0.081 0.383,0.02 0.141,0.052 -0.051,0.061 0.09,0.121 0.271,-0.111 0.775,0.009 0.875,-0.121 0.11,0.202 0.401,0.141 0.774,0.182 -0.04,0.07 -0.413,0.029 -0.582,0.05 -0.061,0.111 0.201,0.151 0.402,0.14 -0.151,0.162 -0.502,-0.08 -0.816,0.061 0.162,0.05 0.575,-0.01 0.543,0.131 0.232,0 0.202,-0.101 0.514,-0.081 0.211,-0.03 -0.181,-0.04 -0.101,-0.12 0.282,0.09 0.383,0.1 0.633,0.231 -0.16,-0.01 -0.27,0.009 -0.28,0.07l0.089 0.08c0.302,-0.1 0.323,0.02 0.666,-0.049 -0.192,0.069 -0.152,0.19 0.24,0.14 0.231,0.05 -0.373,0.041 -0.503,0.05 0.413,0.101 0.745,0.06 1.197,0.052 0,0.099 0.201,0.14 -0.121,0.16 0.413,0.03 0.765,-0.03 0.855,-0.212 0.211,0 0.604,0.132 0.674,0 0.091,-0.11 -0.261,-0.009 -0.241,-0.08 0.232,-0.12 0.321,0.171 0.634,0.191 0.091,0.01 0.23,-0.09 0.059,-0.09 0.111,-0.061 0.303,0.07 0.091,0.12 0.161,0.091 0.554,-0.12 0.464,0.101 0.189,-0.05 0.15,-0.162 0.189,-0.19 0.172,0 0.685,0.028 0.896,0.028 -0.12,0.102 -0.351,-0.02 -0.583,0.021 -0.02,0.06 0.029,0.1 0.16,0.091 -0.17,0.11 -0.28,0.02 -0.301,-0.02 -0.202,0 -0.181,0.07 -0.202,0.13 1.278,-0.03 3.25,0.232 4.628,0.081 -0.171,0.22 1.206,0.201 1.357,0.08 0.102,0.021 0.12,0.101 0.242,0.112 0.151,-0.132 0.271,0.028 0.512,-0.052 0.282,0.041 -0.301,0 -0.13,0.102 0.232,0.14 0.322,-0.122 0.594,-0.022l-0.142 0.061c0.231,0.071 0.845,0.081 0.805,-0.089 0.232,0.17 0.14,0.29 0.583,0.35 0.231,0.011 0.131,-0.09 0.363,-0.069 0.101,0.09 0.482,0.1 0.684,0.06 0.15,0.311 1.056,0.08 1.378,0.202 0.422,-0.122 1.73,-0.072 1.941,0.019 -0.131,0.1 -0.261,0.04 -0.384,-0.011 -0.169,0.031 0.173,0.122 -0.2,0.122 0.09,-0.04 0.08,-0.111 -0.02,-0.151 -0.06,0.101 -0.422,0.029 -0.674,0.029l-0.13 0.061c0.12,0.171 0.935,0.121 1.045,0.061 0.12,0.02 0.474,0.1 0.594,0.01 0.292,0.06 -0.261,0.07 -0.433,0.07l0.03 0.121c0.191,0 0.142,-0.101 0.352,-0.101 -0.292,0.151 0.192,0.101 0.534,0.071 0.009,0.13 -0.564,0.049 -0.806,0.09 0.132,0.101 0.092,0.08 0.253,0.141 -0.072,-0.16 1.317,-0.151 1.559,-0.05 0.543,-0.132 1.518,-0.011 1.911,-0.132 -0.122,-0.069 -0.273,-0.039 -0.453,-0.009 -0.091,-0.091 0.161,-0.06 0.281,-0.071 0.05,-0.1 -0.12,-0.09 -0.242,-0.12 -0.049,0.12 -0.321,0 -0.271,0.111 -0.11,-0.021 -0.16,-0.061 -0.18,-0.121 0.13,0 0.251,-0.01 0.372,-0.01 -0.031,-0.091 -0.413,0 -0.392,-0.111 0.835,0.04 0.684,0.081 1.639,0 -0.07,0.09 -0.272,0.09 -0.11,0.191 -0.273,0.051 -0.342,-0.01 -0.513,0.081 0.111,0.1 0.129,0.09 0.19,0.171 0.081,-0.011 0.03,-0.031 -0.011,-0.031 0.141,-0.111 0.646,0.061 0.654,-0.081 0.121,0.072 0.162,0.051 0.372,0.022 -0.089,0.07 0.151,0.09 0.151,0.11 0.353,-0.011 0.896,-0.06 1.349,-0.04 -0.915,0.2 1.579,0.131 2.022,0.02 0.442,0.111 1.569,-0.011 2.081,-0.011 0.081,0.081 0.343,0.081 0.532,0.1 0.222,-0.049 -0.371,-0.059 -0.089,-0.15 0.08,0.061 0.161,0.122 0.453,0.081l-0.061 0.091c0.242,-0.071 0.663,-0.081 0.824,0.03 0.765,-0.111 1.509,0.009 2.152,-0.041 -0.08,0.091 0.423,0.14 0.372,-0.039 0.141,0.06 0.262,0.039 0.172,0.15 0.473,-0.04 0.724,0.019 1.197,-0.02 -0.061,-0.07 -0.533,-0.112 -0.683,-0.03 -0.242,-0.091 0.532,-0.061 0.572,-0.141l0.009 0.091c0.303,-0.05 0.495,0 0.958,-0.102 0.631,0.132 1.066,0.242 1.718,0.061l-0.17 -0.141c-0.231,0.04 0.04,0.121 -0.352,0.132 0.321,-0.132 -0.565,-0.253 -0.453,-0.072 -0.282,-0.17 -0.934,-0.11 -1.347,-0.02l0.049 -0.12c-0.07,-0.071 -0.583,0.12 -0.532,-0.071 -0.141,0.01 -0.172,0.071 -0.353,0.071 0.041,-0.03 0.122,-0.05 0.203,-0.071 -0.152,-0.09 -0.314,-0.02 -0.674,-0.04 0.11,-0.041 0.28,-0.07 0.351,-0.131 0.342,0.071 0.784,0.021 0.885,-0.03 0.151,0 0.161,0.08 0.312,0.08 0.241,0 0.201,-0.1 0.352,-0.13 0.221,0.05 0.311,0.039 0.593,0.011 0.081,0.09 -0.242,0.049 -0.201,0.13 0,0.07 0.131,0.09 0.242,0.11 0.06,-0.02 0.12,-0.04 0.22,-0.04 0.03,-0.041 -0.301,-0.06 -0.09,-0.091 0.302,0.091 0.362,0.152 0.764,0.131 0.061,-0.01 0.071,-0.03 0.152,-0.04 0.07,-0.1 -0.253,-0.01 -0.182,-0.11 0.282,0.029 0.483,0.18 0.754,0.029 -0.08,-0.08 -0.221,0.051 -0.441,0.021 -0.182,-0.151 0.331,-0.06 0.352,-0.132 0.14,0.132 0.442,0.031 0.743,0 -0.09,0.111 -0.352,0.041 -0.352,0.132 0.192,0.019 0.604,-0.031 0.704,0.161 -0.111,-0.01 -0.512,-0.131 -0.523,0.019 -0.13,-0.019 -0.15,-0.1 -0.25,-0.14 -0.222,-0.01 -0.756,0.181 -0.665,0.02 -0.131,0.01 -0.161,0.061 -0.119,0.12l0.512 -0.009c0.171,0.039 -0.202,0.111 0.039,0.212 0.123,-0.101 0.151,-0.031 0.302,0.018 0.433,-0.009 -0.08,-0.169 0.342,-0.169l-0.12 0.16c0.12,0 0.25,-0.009 0.371,-0.009 0.092,-0.173 0.606,-0.052 0.956,-0.041 0.06,-0.132 -0.332,-0.051 -0.25,-0.201 -0.242,-0.011 -0.072,0.11 -0.363,0.08 0.04,-0.1 -0.15,-0.091 -0.11,-0.181l0.211 -0.1c0.572,0.01 0.975,0.1 1.438,0.16 0.301,-0.06 1.316,-0.09 1.689,0.071 -0.231,-0.071 -1.086,-0.101 -1.217,0.07 -0.423,-0.031 -0.732,-0.151 -1.056,-0.061 0.01,0.131 0.341,0.052 0.181,0.182 0.202,0.01 0.272,-0.02 0.211,-0.101 0.121,0 0.241,-0.01 0.373,-0.01l-0.06 0.121c0.533,-0.171 1.558,-0.09 2.374,-0.05 0.24,-0.031 0.089,-0.121 0.039,-0.181 0.142,0 0.16,-0.051 0.291,-0.041 -0.2,0.091 0.062,0.11 -0.029,0.211 0.231,-0.131 0.352,-0.06 0.804,-0.06 -0.201,0.111 0.283,0.091 0.262,0.201l0.13 -0.009 -1.006 1.298 -0.08 0c-0.341,-0.172 -1.035,0.019 -1.699,0.089l0.091 0.111c-0.383,0.02 -0.745,0.221 -1.138,0.321 -0.141,-0.01 0.162,-0.1 0.283,-0.1 -0.191,-0.151 -0.453,0.03 -0.655,0.05 0.031,-0.06 0.212,-0.07 0.051,-0.12 -0.302,0.04 -0.513,0.1 -0.553,0.231 -0.212,-0.03 -0.382,0 -0.584,0.05 0.393,0.181 1.178,-0.039 1.419,0.041 0.111,-0.051 0.452,-0.222 0.513,-0.051 0.101,-0.02 0.17,-0.05 0.2,-0.101 0.141,-0.01 -0.16,0.213 0.252,0.152 0.031,0.08 -0.171,0.089 -0.351,0.1 0.019,-0.111 -0.093,-0.151 -0.263,-0.171 -0.161,0.03 -0.161,0.211 0.04,0.211 0.071,0.061 -0.572,0.02 -0.28,0.072 -0.251,0.059 -0.795,-0.031 -0.865,0.15 0.633,0.181 1.347,0.11 1.949,0.081 0.212,0.02 0.093,0.05 0.093,0.119 0.27,-0.019 0.421,0.021 0.603,0.041 -0.152,0.03 -0.141,0.12 -0.343,0.141 0.091,0.06 0.464,-0.01 0.674,0 -0.09,0.13 0.593,0.151 0.643,0.311 0.272,-0.019 0.645,-0.009 1.006,-0.03l0.111 0.08c-0.301,0.011 -0.603,0.021 -0.875,0.011 -0.111,0.01 -0.06,0.071 -0.06,0.121 -0.151,-0.091 -0.443,-0.02 -0.594,-0.011 0.201,0.13 0.886,0.102 1.208,0.08 0.06,0.102 0.231,0.152 0.272,0.263 -0.152,-0.031 -0.354,-0.031 -0.394,-0.101 -0.804,0.231 -1.337,-0.162 -1.991,0.091 -0.101,0 -0.08,-0.07 -0.101,-0.121 -0.18,0.009 -0.221,0.06 -0.281,0.11 -0.08,0.011 -0.021,-0.151 -0.161,-0.059 -0.13,-0.042 0.041,-0.133 -0.241,-0.142 -0.101,0.009 -0.112,0.061 -0.211,0.07 0.04,0.041 0.13,0.062 0.231,0.081 -0.181,0.04 -0.765,-0.009 -0.765,-0.16 0.092,0 0.193,0 0.292,-0.01 -0.019,-0.061 -0.2,-0.061 -0.383,-0.05 0.051,-0.072 0.051,-0.082 -0.03,-0.152 -0.16,0.01 -0.22,0.04 -0.2,0.1 -0.112,-0.009 -0.151,-0.06 -0.171,-0.11 0.483,-0.03 1.167,0.01 1.549,-0.091 -0.071,-0.09 0.06,-0.111 0.04,-0.18 -0.192,-0.122 -0.765,-0.051 -1.066,-0.122 0.151,0.122 0.01,0.101 -0.141,0.04 -0.081,0.011 -0.231,0.142 -0.04,0.151 -0.182,0.042 -0.233,0.111 -0.342,0.172 -0.645,0.019 -0.332,-0.201 -0.924,-0.181l0.049 -0.101c-0.341,0.091 -0.352,0.06 -0.665,0 -0.15,0.031 0.073,0.152 0.102,0.201 0.392,-0.12 0.965,0.131 1.448,0.172 -0.372,0.049 -0.673,0.12 -0.855,0.24l-0.021 -0.15c-0.22,0 -0.21,0.071 -0.431,0.071l0.059 -0.091c-0.321,0.05 -0.251,0.01 -0.522,-0.01 -0.191,0 -0.231,0.05 -0.282,0.101 0.301,0.018 0.563,0.059 0.835,0.09 -0.071,0.019 -0.242,0.04 -0.362,0.07 -0.11,0.02 -0.182,0.05 -0.06,0.1 0.089,-0.009 0.05,-0.06 0.06,-0.1 0.422,0.1 0.935,0.12 1.177,-0.07 0.381,-0.011 -0.393,0.19 0.181,0.181 -0.342,0.151 -0.815,0.1 -1.388,0.14 0.231,0.052 -0.161,0.071 -0.011,0.091 -0.12,0 -0.441,-0.05 -0.402,0.1 -0.29,-0.009 -0.303,-0.009 -0.594,0.021 1.328,0.02 2.787,-0.101 4.024,0.02 0.141,-0.101 0.392,-0.07 0.594,-0.05 0.16,-0.01 0,-0.13 0.04,-0.192 0.191,0.021 0.261,-0.019 0.201,-0.09 0.17,0 0.352,0 0.322,0.111 -0.917,0.01 0.13,0.311 0.573,0.281 -0.151,0.051 0.19,0.141 -0.201,0.131 0.311,0.071 0.502,-0.009 0.663,-0.06l0.02 0.12c-0.402,-0.019 -0.925,0.02 -1.025,0.101 0.11,0.05 0.583,-0.02 0.733,-0.05 -0.029,0.081 0.323,0.14 0.624,0.161l-0.12 0.151c-0.101,-0.05 -0.141,-0.132 -0.322,-0.141 -0.06,0.171 -0.211,-0.031 -0.433,0.081 -0.161,-0.011 -0.17,-0.041 -0.1,-0.091 -0.332,-0.011 -0.402,0.07 -0.654,0.019 -0.191,0.021 0.101,0.051 0.021,0.121 -0.977,0 -1.328,-0.07 -2.021,-0.049 -0.112,-0.152 -0.213,-0.202 -0.847,-0.152 -0.01,0.08 0.292,0.011 0.241,0.111 0.192,0.03 0.354,-0.081 0.373,-0.01 0,0.13 -0.653,0.061 -0.814,0.061l0.06 -0.101c-0.403,0.04 -0.695,0.119 -0.905,-0.031 -0.684,-0.06 -0.383,0.161 -0.674,0.362 -0.01,0.151 0.262,-0.009 0.242,0.111l-0.06 0.06c-0.141,0 -0.152,-0.081 -0.382,-0.04 -0.081,0.011 -0.041,0.061 -0.142,0.061 0.07,0.05 0.201,0.06 0.383,0.05 0.1,0.111 -0.334,0.04 -0.272,0.13 -0.142,-0.019 -0.02,-0.049 -0.01,-0.09 -0.412,-0.04 -0.392,0.161 -0.664,0.081 0.252,-0.101 0.684,-0.14 0.603,-0.352 0.121,-0.011 0.14,0.019 0.233,0.019 0.018,-0.201 0.179,-0.191 0,-0.392 -0.193,0.01 -0.394,0.01 -0.584,0.02l0.089 0.122c-0.221,0.019 -0.17,-0.101 -0.251,-0.152 0.282,0.01 0.313,-0.06 0.594,-0.05l-0.091 -0.09c-0.363,0.06 -0.914,0.251 -1.328,0.111 0.131,-0.041 0.494,-0.031 0.363,-0.102 0.502,-0.059 0.886,-0.029 1.619,-0.059 -0.091,-0.191 -1.127,0.059 -1.217,-0.142 -0.371,0.152 -0.743,0.021 -1.398,0.111 0.05,0.041 0.111,0.061 0.242,0.05 0.059,0.081 -0.372,-0.05 -0.593,0.02l0.09 0.061c-0.09,0.04 -0.463,-0.061 -0.684,-0.07 -0.252,0.08 0.07,0.151 -0.433,0.11 0.452,0.161 1.107,0.07 1.709,0 -0.049,0.101 0.252,0.03 0.313,0.08 -0.303,0.102 -0.443,-0.05 -0.815,0.03 0.211,0.082 0.634,0.051 0.574,0.251 -0.121,-0.1 -0.555,-0.24 -0.865,-0.24 -0.082,0.01 -0.041,0.061 -0.142,0.061 -0.514,0.02 -0.844,-0.072 -1.187,-0.021 0.071,0.06 0.272,0.049 0.382,0.081 -0.352,0.06 -0.994,-0.121 -1.488,-0.011 0,0.102 0.312,0.05 0.393,0.111 -0.352,-0.07 -0.986,0.12 -1.258,0.071 -0.2,0.039 0.131,0.08 -0.049,0.13 -0.111,-0.05 -0.383,-0.02 -0.594,-0.01 -0.171,-0.12 0.08,-0.291 0.402,-0.231 -0.06,-0.192 -0.301,-0.071 -0.604,-0.071l0.02 0.121c-0.25,-0.071 -0.433,0.11 -0.743,0.02 -0.021,-0.06 0.26,-0.02 0.362,-0.039 -0.081,-0.112 -0.443,-0.052 -0.744,-0.031 -0.102,-0.01 -0.082,-0.071 -0.102,-0.12 -0.171,-0.041 -0.261,0.09 -0.291,0.01 -0.191,0.01 0.11,0.05 0.02,0.12 -0.312,-0.01 -0.563,-0.061 -0.976,-0.031 -0.019,-0.071 -0.151,-0.089 0.051,-0.12 -0.07,-0.04 -0.242,-0.04 -0.382,-0.051 0.413,0.182 -0.242,0.051 -0.493,0.141 -0.051,-0.03 -0.051,-0.08 -0.241,-0.11 -0.242,0.051 0.04,0.12 -0.203,0.131 -0.109,-0.011 0.021,-0.041 -0.009,-0.101 -0.392,-0.03 -0.15,0.141 -0.432,0.141 0.059,-0.191 -0.081,0.01 -0.061,0.06l0.382 0.05c-0.049,0.061 -0.452,0 -0.593,-0.009 0.052,-0.031 0.021,-0.08 0.13,-0.091 -0.04,-0.071 -0.211,-0.061 -0.311,-0.08 -0.272,0.03 0.181,0.161 -0.04,0.18 -0.332,0.03 0.091,-0.089 -0.242,-0.05 0.02,-0.08 0.211,-0.1 0.192,-0.19 0.23,-0.021 0.301,0.028 0.462,0.039 0.01,-0.141 -0.272,-0.111 -0.462,-0.07 0.241,-0.211 -0.363,-0.05 -0.463,-0.05 -0.393,0 -1.128,-0.141 -1.319,0.081 -0.019,0.049 0.063,0.049 0.152,0.049l-0.05 0.13c-0.232,0.032 -0.121,-0.1 -0.242,-0.119 -0.14,0.039 -0.372,-0.011 -0.432,0.11 -0.353,-0.131 -0.714,-0.01 -1.036,-0.03 -0.02,0.081 0.141,0.06 0.09,0.15 -0.292,-0.029 0.01,0.142 -0.282,0.101 0,-0.09 0.152,-0.13 0.112,-0.24l-0.152 0c-0.16,0 -0.009,0.11 -0.04,0.16 -0.171,-0.121 -0.523,0.05 -0.542,-0.111 -0.263,0.08 -0.322,0.04 -0.595,-0.01 0.04,0.08 0.122,0.14 0.253,0.181 -0.092,0.092 -0.273,-0.05 -0.241,-0.12 -0.494,0.019 -1.147,-0.091 -1.48,0.11 -0.21,-0.031 -0.383,-0.071 -0.543,-0.13 -0.211,0.049 0.13,0.11 -0.04,0.151 -0.292,0.029 -0.22,0.029 -0.522,0.02 -0.063,-0.091 0.12,-0.101 -0.031,-0.151 -0.181,0.019 -0.333,0.05 -0.422,0.11 0.39,0 0.13,0.11 0.241,0.08 0.171,0.03 -0.101,0.152 -0.353,0.131 0.312,-0.06 0.061,-0.131 -0.039,-0.242 0.07,0.141 -0.262,0.091 -0.332,0.222 -0.725,0.081 -1.067,-0.111 -1.78,0.07 0.119,0.081 0.391,-0.09 0.391,0.072 -0.29,0.009 -0.522,-0.011 -0.613,-0.101 -0.142,0.07 -0.061,0.06 -0.231,0.01 -0.211,0.06 0.231,0.08 0.121,0.21l-0.141 0.061c-0.525,-0.01 -1.126,0 -1.388,0.14 0.171,0.082 0.513,-0.09 0.523,0.041 0.19,0 0.231,-0.05 0.282,-0.1 0.22,0.02 -0.082,0.081 0.029,0.151l0.151 0c0.061,-0.332 0.956,0.02 1.509,0.1 -0.05,-0.11 -0.412,-0.07 -0.412,-0.201 0.15,0 0.291,-0.01 0.442,-0.01 0.072,-0.091 -0.372,-0.071 -0.021,-0.091 0.041,-0.091 -0.158,-0.059 -0.23,-0.091 0.181,-0.15 0.403,0.142 0.523,0.021 0.12,0.362 1.298,0.18 2.262,0.191 0,-0.08 -0.19,-0.08 -0.382,-0.08 0.303,-0.081 0.734,0.05 0.845,0.161 -0.181,0 -0.351,0 -0.442,0.039 0.131,0.092 0.322,-0.029 0.523,-0.019 0.08,-0.03 0.04,-0.09 -0.03,-0.181 0.201,0.01 0.141,0.151 0.392,0.14l-0.05 0.091c-0.292,0.041 -0.493,0.03 -0.966,0.07 -0.282,-0.201 -1.439,-0.12 -2.243,-0.05 0.141,0.071 0.402,-0.02 0.251,0.11 0.313,0.031 0.313,-0.05 0.504,-0.069 -0.252,0.15 0.915,0.13 0.483,0.191 0.181,0.101 0.361,-0.041 0.351,-0.101 0.111,0.01 0.202,0.04 0.313,0.05l-0.283 0.101c0.131,0.07 0.413,0.059 0.615,0.1 0.15,-0.01 -0.101,-0.1 -0.242,-0.08l0.15 -0.01c0.111,-0.01 -0.07,-0.051 0.061,-0.06 0.402,0.21 0.925,0.22 1.317,0.26 -0.281,-0.17 -0.753,-0.07 -0.926,-0.251 0.102,0.051 0.383,-0.009 0.373,0.092 0.323,-0.031 0.382,-0.072 0.585,-0.082 -0.032,-0.07 -0.213,-0.06 -0.313,-0.08 -0.282,-0.03 -0.201,0.08 -0.432,0.07l-0.03 -0.15c0.24,0.1 0.19,-0.01 0.441,-0.05 0.151,0.181 0.765,0.14 0.805,0.371 0.342,0.03 0.664,-0.12 0.675,0.04 -0.372,0.011 -0.423,-0.019 -0.735,0.021 0.03,-0.061 -0.341,-0.091 -0.171,-0.112 -0.071,-0.049 -0.24,-0.039 -0.382,-0.049 -0.08,0.14 0.261,0.07 0.252,0.171 -0.152,0.03 -0.192,0.09 -0.434,0.08 0.062,0.02 0.152,0.04 0.242,0.051l0.05 0.029 -0.341 0.011c-0.102,-0.04 -0.312,-0.081 -0.182,-0.141 -0.1,-0.04 -0.362,0 -0.381,-0.08 -0.111,0.05 -0.091,0.14 -0.353,0.13 -0.08,-0.141 -0.553,-0.05 -0.704,-0.222 0.03,0.111 -0.301,0.02 -0.533,-0.008 -0.13,0 -0.101,0.17 0.101,0.119 -0.172,0.061 -0.492,0.092 -0.785,0.182 -0.12,-0.02 -0.131,-0.1 -0.312,-0.081 -0.1,0.13 0.221,0.151 0.544,0.161 0.12,-0.1 0.322,-0.111 0.643,-0.17 -0.05,0.019 -0.131,0.17 0.03,0.18 0.031,0.051 -0.403,0.071 -0.301,-0.02l-0.142 0.03c0,0.091 0.332,0.081 -0.059,0.091 0.151,0.059 0.14,0.02 0.099,0.12 0.253,-0.141 0.414,0.011 0.483,-0.201 0.272,0.011 -0.169,0.162 0.173,0.121l-0.142 0.041c0.041,0.039 0.231,0.01 0.172,0.11 0.18,-0.1 0.372,-0.191 0.462,-0.322 0.251,0.02 0.04,0.061 0.1,0.151 0.182,-0.05 0.221,-0.07 0.121,-0.151 0.151,0 0.231,-0.019 0.212,-0.07 0.241,-0.03 0.342,0.01 0.524,0.01l-0.292 0.009c-0.102,0.011 -0.052,0.081 -0.063,0.122 0.303,-0.111 0.765,0.06 0.806,-0.09 0.16,-0.032 0.262,0.14 0.382,0.019 0.282,0.04 -0.171,0.05 -0.061,0.121 -0.07,-0.031 -0.27,0.01 -0.23,-0.081 -0.291,0.081 -0.856,0.061 -0.936,0.211 -0.251,0.061 -0.06,-0.1 -0.231,-0.08 -0.09,0.011 -0.04,0.03 0,0.03 -0.031,0.091 -0.161,-0.019 -0.301,0.011 0.381,0.18 0.854,0.039 1.195,-0.011 -0.13,0.08 0.283,0.111 0.334,0.201 0.099,-0.029 0.23,-0.05 0.199,-0.121 0.212,0.02 -0.089,0.082 0.092,0.111 -0.192,0.06 -0.151,0.212 -0.494,0.141 0.273,0.131 0.785,-0.051 1.127,0.05 -0.081,0.081 -0.391,0.081 -0.574,0.111 0.222,0 0.394,0.061 0.825,0.041 0.02,-0.122 -0.13,-0.162 -0.26,-0.212 0.1,-0.071 0.401,0.06 0.21,-0.091 0.342,0.011 0.162,0.07 0.172,0.172 0.1,0.081 0.431,0 0.443,-0.041 -0.032,-0.05 -0.223,0.031 -0.304,-0.05 0.071,-0.1 0.152,-0.061 0.423,-0.111 0.021,0.1 0.332,0.061 0.332,0.171 0.13,0 0.151,-0.04 0.292,-0.04 -0.069,0.1 -0.021,0.08 0.1,0.152 0.393,0.039 0.734,-0.203 0.402,-0.233 0.04,-0.039 0.152,-0.06 0.282,-0.07l-0.05 0.131c0.232,-0.011 0.423,-0.212 0.523,-0.02 -0.191,0 -0.241,-0.05 -0.373,0.009 0.042,0.061 0.344,-0.009 0.241,0.111 0.293,0.031 0.424,-0.05 0.606,0.041 0.22,-0.021 0.33,-0.071 0.341,-0.161 -0.08,-0.091 -0.09,0.07 -0.292,0.04 0.051,-0.051 0.252,-0.12 0.432,-0.101 -0.07,0.172 -0.201,0.201 -0.161,0.363 -0.341,-0.051 -0.442,-0.071 -0.894,-0.031 0.27,0.1 0.904,0.071 1.267,0.02 -0.111,0.131 -0.523,0.101 -0.734,0.061 -0.222,0.07 0.423,0.091 0.181,0.171 0.562,-0.08 0.904,0.009 1.338,0.02 0.221,-0.03 -0.081,-0.061 -0.021,-0.121 0.231,-0.03 0.303,0.051 0.443,-0.019l-0.222 -0.022c-0.169,-0.029 0.161,-0.11 0.353,-0.1l-0.373 0.01c-0.09,0.021 0.041,-0.171 -0.149,-0.06 -0.182,-0.02 0.179,-0.08 0.039,-0.181 0.05,0.08 0.422,0.02 0.462,0.101 0.262,-0.031 -0.01,-0.071 0.042,-0.181 0.1,0.07 0.29,0.11 0.613,0.07 -0.071,0.09 -0.383,0.1 -0.575,0.141 0.372,0.02 0.584,-0.061 0.978,0.03 0.099,-0.01 -0.011,-0.05 -0.092,-0.06 0.241,-0.131 0.333,0.08 0.603,0.041 0.171,0 -0.04,-0.081 -0.16,-0.052 -0.05,-0.11 0.403,-0.029 0.432,-0.11 0.241,0.04 -0.131,0.1 -0.121,0.162l0.082 0.059c0.31,0 0.28,-0.131 0.441,-0.02 -0.049,-0.231 0.966,-0.08 0.705,-0.242 0.23,-0.03 0.17,0.081 0.311,0.081l0.142 -0.03c-0.012,-0.04 -0.131,-0.02 -0.223,-0.02 0.343,-0.121 0.664,0.05 1.046,0.02l-0.009 -0.06c-0.151,-0.071 -0.382,0.06 -0.594,-0.01 0.282,-0.111 -0.121,-0.02 -0.382,-0.02 -0.101,-0.171 0.382,0.02 0.353,-0.131 0.432,0.08 0.874,0.131 1.015,0.271 0.101,-0.01 0.039,-0.081 0.05,-0.12 0.11,0.019 0.241,0.03 0.241,0.11 -0.1,0 -0.211,0 -0.211,0.04l0.353 -0.08c0.161,0.01 0.161,0.08 0.311,0.09 0.091,-0.08 0.252,-0.13 0.503,-0.141 0.161,0.131 -0.261,0.061 -0.271,0.131 0.18,0.031 0.572,0.072 0.664,-0.03 0.613,0.252 1.388,-0.16 1.87,0.03 0.221,-0.15 0.583,-0.111 0.855,-0.211 0.262,0.05 -0.21,0.08 -0.21,0.131 0.069,0.09 0.863,-0.07 0.612,0.071 0.341,-0.031 0.835,-0.152 1.106,-0.071 -0.211,0.061 -0.693,0.05 -0.572,0.141 -0.011,0.09 0.18,-0.061 0.22,0.011 0,-0.081 0.362,-0.062 0.393,0.059 0.1,-0.02 0.172,-0.05 0.282,-0.07 -0.464,-0.041 -0.151,-0.061 0.2,-0.101l0.102 0.151c0.683,-0.141 1.367,0.04 2.152,-0.07 -0.131,0.06 0.05,0.05 0.019,0.151 -0.09,0 -0.19,0 -0.291,0.01l0.211 -0.071c-0.301,-0.07 -0.473,0 -0.894,0 -0.162,0.02 0.03,0.162 -0.112,0.192 -0.04,-0.091 -0.11,-0.172 -0.412,-0.201 -0.331,0.11 -0.132,0.039 -0.503,0.11l-0.011 -0.09c-0.23,0.019 -0.279,-0.031 -0.451,-0.02 -0.231,0.02 -0.071,0.171 -0.343,0.171 0.092,-0.111 -0.029,-0.091 -0.18,-0.151 -0.242,0.1 -0.242,0.019 -0.585,0.019 -0.069,-0.08 0.131,-0.07 0.123,-0.13l-0.082 -0.05c-0.482,0.05 -0.1,0.23 -0.704,0.23 -0.03,0.082 0.594,0.091 0.514,-0.019 0.131,-0.081 0.039,0.091 0.03,0.12 0.191,0.02 0.261,-0.019 0.201,-0.09 0.261,0.14 0.724,0.029 0.925,0.151 0.211,-0.05 -0.171,-0.131 0.04,-0.191 0.151,0.02 0.212,0.079 0.242,0.15 0.342,-0.02 0.694,-0.03 0.794,-0.121 0.242,0.021 -0.01,0.101 -0.049,0.121 0.081,0.091 0.531,-0.039 0.531,0.01 0.071,-0.1 0.343,-0.11 0.806,-0.081l-0.141 0.062c0.433,0.05 1.106,0.161 1.408,-0.051 0.1,0.051 0.262,0.07 0.252,0.181 0.271,-0.019 0.502,-0.019 0.534,0.07l0.14 -0.039c-0.041,-0.142 -0.544,-0.061 -0.564,-0.223 0.794,0.101 1.407,0.192 2.333,0.101l-0.06 0.101c0.091,-0.04 0.674,-0.161 0.735,-0.029 -0.272,-0.081 -0.322,0.089 -0.584,0.019 0.05,0.061 0.13,0.111 0.382,0.081 0.04,0.241 -0.533,0.05 -0.603,-0.041 -0.454,0.03 -0.393,0.05 -0.664,0.05 0.13,0.111 0.452,0.122 0.634,0.192 0.049,-0.121 0.694,0 1.095,-0.131 0.202,0.08 -0.563,0.07 -0.482,0.202z"/>
  <path class="fil2" d="M55.466 41.301c0,0.654 -0.117,1.326 -0.35,2.004 -0.234,0.682 -0.547,1.35 -0.949,2.014 -0.402,0.658 -0.873,1.294 -1.411,1.906 -0.537,0.612 -1.107,1.177 -1.71,1.7 -0.602,0.519 -1.229,0.982 -1.878,1.388 -0.645,0.407 -1.275,0.729 -1.887,0.967 -0.099,-0.149 -0.225,-0.322 -0.379,-0.528 -0.149,-0.205 -0.308,-0.42 -0.486,-0.644 -0.173,-0.225 -0.346,-0.449 -0.523,-0.673 -0.182,-0.22 -0.351,-0.43 -0.514,-0.622 1.303,-0.509 2.476,-1.116 3.509,-1.817 1.037,-0.706 1.915,-1.444 2.644,-2.215 0.724,-0.771 1.28,-1.551 1.668,-2.34 0.388,-0.79 0.584,-1.524 0.584,-2.21 0,-0.089 -0.014,-0.187 -0.042,-0.285 -0.028,-0.103 -0.075,-0.187 -0.14,-0.262 -0.061,-0.075 -0.145,-0.126 -0.252,-0.159 -0.103,-0.028 -0.229,-0.028 -0.374,0.009 -0.43,0.089 -0.902,0.262 -1.416,0.505 -0.518,0.248 -1.06,0.556 -1.63,0.925 -0.57,0.369 -1.164,0.794 -1.78,1.28 -0.617,0.482 -1.239,1.005 -1.869,1.561 -0.337,1.056 -0.725,2.177 -1.164,3.359 -0.439,1.182 -0.911,2.36 -1.425,3.532 -0.509,1.173 -1.046,2.313 -1.607,3.416 -0.561,1.102 -1.131,2.116 -1.71,3.032 -0.579,0.916 -1.159,1.71 -1.738,2.383 -0.579,0.668 -1.14,1.149 -1.677,1.443 -0.136,0.07 -0.304,0.14 -0.5,0.206 -0.196,0.061 -0.439,0.107 -0.734,0.135 -0.107,0.01 -0.238,-0.037 -0.388,-0.135 -0.149,-0.103 -0.303,-0.229 -0.457,-0.383 -0.159,-0.159 -0.313,-0.332 -0.468,-0.524 -0.154,-0.191 -0.299,-0.373 -0.429,-0.546 -0.136,-0.173 -0.243,-0.327 -0.332,-0.463 -0.084,-0.14 -0.14,-0.229 -0.168,-0.275 -0.075,-0.136 -0.112,-0.299 -0.117,-0.486 -0.005,-0.187 0.014,-0.374 0.061,-0.556 0.182,-0.612 0.439,-1.28 0.766,-2.009 0.332,-0.734 0.715,-1.495 1.158,-2.294 0.44,-0.799 0.935,-1.622 1.477,-2.463 0.542,-0.845 1.126,-1.686 1.752,-2.518 0.626,-0.836 1.285,-1.658 1.972,-2.471 0.691,-0.813 1.397,-1.589 2.13,-2.327 0.463,-1.453 0.846,-2.827 1.149,-4.121 0.299,-1.294 0.477,-2.425 0.533,-3.383 0.364,0.145 0.71,0.332 1.042,0.561 0.327,0.229 0.621,0.467 0.888,0.715 0.266,0.243 0.495,0.49 0.696,0.738 0.201,0.248 0.364,0.463 0.481,0.654 -0.019,0.159 -0.042,0.313 -0.07,0.477 -0.028,0.159 -0.061,0.327 -0.107,0.509 0.92,-0.593 1.826,-1.056 2.714,-1.388 0.892,-0.331 1.757,-0.5 2.598,-0.5 0.173,0 0.36,0.056 0.565,0.164 0.206,0.112 0.416,0.252 0.622,0.434 0.21,0.178 0.415,0.374 0.612,0.594 0.196,0.219 0.369,0.439 0.528,0.663 0.154,0.225 0.28,0.435 0.373,0.631 0.098,0.196 0.15,0.355 0.159,0.486l0 0.206zm-19.819 17.202c0.21,0 0.49,-0.229 0.845,-0.696 0.36,-0.467 0.757,-1.098 1.201,-1.901 0.439,-0.804 0.911,-1.738 1.402,-2.808 0.495,-1.066 0.981,-2.201 1.467,-3.392 -0.724,0.855 -1.392,1.705 -2.009,2.546 -0.617,0.836 -1.149,1.635 -1.598,2.388 -0.453,0.752 -0.808,1.443 -1.061,2.079 -0.257,0.635 -0.387,1.177 -0.387,1.621 0,0.112 0.046,0.163 0.14,0.163zm21.557 -1.312c0,0.056 0.028,0.084 0.08,0.084 0.084,0 0.219,-0.061 0.411,-0.178 0.191,-0.121 0.411,-0.271 0.659,-0.453 0.247,-0.182 0.509,-0.388 0.784,-0.617 0.281,-0.229 0.547,-0.453 0.804,-0.668 0.252,-0.22 0.486,-0.42 0.692,-0.603 0.205,-0.182 0.359,-0.327 0.471,-0.425 0.08,0.08 0.183,0.192 0.309,0.327 0.121,0.136 0.233,0.262 0.332,0.369 -0.215,0.201 -0.482,0.449 -0.785,0.734 -0.309,0.29 -0.636,0.589 -0.986,0.897 -0.351,0.308 -0.715,0.617 -1.089,0.925 -0.374,0.304 -0.738,0.575 -1.093,0.813 -0.355,0.238 -0.696,0.43 -1.014,0.579 -0.318,0.154 -0.598,0.229 -0.836,0.229 -0.164,0 -0.341,-0.033 -0.538,-0.098 -0.196,-0.061 -0.378,-0.149 -0.542,-0.266 -0.163,-0.112 -0.303,-0.248 -0.411,-0.402 -0.112,-0.154 -0.163,-0.332 -0.163,-0.523 0,-0.07 -0.005,-0.159 -0.01,-0.267 -0.004,-0.102 0.005,-0.238 0.024,-0.411 0.018,-0.168 0.051,-0.374 0.107,-0.612 0.056,-0.243 0.136,-0.542 0.248,-0.897 -0.304,0.318 -0.654,0.65 -1.061,1 -0.406,0.346 -0.831,0.673 -1.28,0.986 -0.448,0.308 -0.897,0.588 -1.35,0.841 -0.449,0.247 -0.869,0.439 -1.252,0.565 -0.047,0.019 -0.08,0.028 -0.108,0.028 -0.028,0 -0.056,0 -0.084,0 -0.089,0 -0.21,-0.047 -0.36,-0.135 -0.154,-0.094 -0.299,-0.215 -0.448,-0.365 -0.145,-0.149 -0.271,-0.322 -0.374,-0.514 -0.107,-0.191 -0.159,-0.383 -0.159,-0.574 0,-0.052 0.028,-0.239 0.084,-0.547 0.052,-0.308 0.183,-0.705 0.388,-1.182 0.206,-0.481 0.509,-1.019 0.911,-1.617 0.402,-0.598 0.949,-1.21 1.645,-1.841 0.355,-0.317 0.738,-0.621 1.149,-0.901 0.346,-0.239 0.743,-0.481 1.192,-0.729 0.443,-0.243 0.915,-0.439 1.406,-0.589 0.019,0 0.037,-0.004 0.051,-0.014 0.01,-0.009 0.033,-0.004 0.061,0.014 0.107,0.038 0.238,0.094 0.388,0.173 0.149,0.08 0.304,0.159 0.453,0.248 0.15,0.084 0.28,0.173 0.397,0.257 0.112,0.088 0.187,0.159 0.224,0.215 0.01,0.018 0.01,0.032 0,0.037l-0.028 0.028c-0.411,0.22 -0.799,0.467 -1.163,0.734 -0.364,0.271 -0.687,0.523 -0.972,0.761 -0.327,0.28 -0.631,0.561 -0.916,0.832 -0.668,0.659 -1.126,1.229 -1.383,1.705 -0.256,0.481 -0.383,0.822 -0.383,1.033 0,0.159 0.066,0.233 0.192,0.233 0.126,0 0.29,-0.051 0.486,-0.154 0.196,-0.107 0.416,-0.248 0.663,-0.425 0.248,-0.178 0.519,-0.388 0.818,-0.631 0.294,-0.243 0.603,-0.495 0.92,-0.761 0.285,-0.229 0.556,-0.472 0.823,-0.739 0.229,-0.219 0.467,-0.467 0.71,-0.752 0.247,-0.285 0.458,-0.57 0.631,-0.864 0,-0.01 0.004,-0.019 0.014,-0.024 0.009,-0.009 0.023,-0.009 0.042,0 0.098,0.071 0.215,0.192 0.341,0.36 0.126,0.168 0.247,0.355 0.355,0.556 0.112,0.201 0.205,0.393 0.28,0.58 0.08,0.186 0.117,0.331 0.117,0.434 -0.21,0.425 -0.369,0.818 -0.486,1.168 -0.112,0.351 -0.201,0.659 -0.257,0.925 -0.061,0.267 -0.098,0.491 -0.112,0.678 -0.014,0.187 -0.019,0.331 -0.019,0.43zm10.078 -4.462c-0.121,0.355 -0.271,0.761 -0.449,1.219 -0.177,0.453 -0.345,0.902 -0.513,1.341 -0.164,0.439 -0.304,0.836 -0.416,1.191 -0.112,0.355 -0.173,0.612 -0.173,0.767 0,0.056 0.028,0.079 0.084,0.079 0.103,0 0.252,-0.056 0.453,-0.178 0.201,-0.116 0.43,-0.271 0.692,-0.462 0.257,-0.192 0.528,-0.402 0.813,-0.631 0.28,-0.229 0.556,-0.453 0.813,-0.677 0.261,-0.225 0.495,-0.425 0.705,-0.608 0.21,-0.182 0.369,-0.322 0.481,-0.411 0.08,0.08 0.178,0.187 0.295,0.313 0.112,0.126 0.219,0.248 0.317,0.355 -0.196,0.201 -0.448,0.449 -0.752,0.734 -0.299,0.29 -0.626,0.584 -0.976,0.883 -0.351,0.299 -0.715,0.603 -1.094,0.902 -0.383,0.303 -0.752,0.57 -1.112,0.808 -0.359,0.238 -0.696,0.43 -1.004,0.575 -0.308,0.149 -0.57,0.219 -0.78,0.219 -0.136,0 -0.313,-0.047 -0.519,-0.145 -0.21,-0.093 -0.411,-0.215 -0.603,-0.355 -0.191,-0.14 -0.359,-0.299 -0.495,-0.472 -0.135,-0.173 -0.205,-0.341 -0.205,-0.504 0.14,-0.612 0.275,-1.145 0.411,-1.603 0.135,-0.458 0.266,-0.845 0.383,-1.173 0.121,-0.322 0.224,-0.584 0.317,-0.784 0.089,-0.201 0.159,-0.351 0.206,-0.454 -0.112,-0.042 -0.215,-0.093 -0.318,-0.149 -0.098,-0.056 -0.201,-0.108 -0.299,-0.164 -0.149,0.154 -0.308,0.318 -0.486,0.491 -0.177,0.173 -0.359,0.35 -0.542,0.523 -0.182,0.173 -0.364,0.341 -0.546,0.505 -0.182,0.163 -0.346,0.317 -0.495,0.453l-0.655 -0.673c0.234,-0.229 0.519,-0.504 0.855,-0.827 0.332,-0.322 0.659,-0.649 0.977,-0.981 -0.229,-0.135 -0.435,-0.266 -0.617,-0.388 -0.182,-0.121 -0.336,-0.233 -0.462,-0.336 -0.155,-0.108 -0.295,-0.21 -0.412,-0.299 -0.056,-0.028 -0.084,-0.089 -0.084,-0.178 0,-0.102 0.042,-0.247 0.117,-0.434 0.08,-0.187 0.178,-0.388 0.295,-0.598 0.121,-0.215 0.247,-0.435 0.383,-0.659 0.14,-0.224 0.271,-0.425 0.397,-0.612 0.131,-0.182 0.243,-0.327 0.336,-0.444 0.098,-0.112 0.159,-0.168 0.187,-0.168 0.014,0 0.08,0.023 0.182,0.065 0.108,0.047 0.215,0.098 0.337,0.159 0.117,0.061 0.229,0.126 0.327,0.201 0.103,0.07 0.163,0.136 0.191,0.187 0.01,0.047 0.019,0.145 0.028,0.29 0.01,0.144 0.019,0.322 0.028,0.532 0.355,0.182 0.72,0.393 1.094,0.626 0.373,0.229 0.719,0.453 1.028,0.664 0.364,0.233 0.71,0.476 1.041,0.724 0.117,0.075 0.192,0.163 0.225,0.276 0.032,0.107 0.032,0.2 0.009,0.285zm3.635 6.681c-0.164,0 -0.35,-0.052 -0.561,-0.159 -0.21,-0.103 -0.425,-0.248 -0.644,-0.425 -0.215,-0.178 -0.43,-0.388 -0.636,-0.626 -0.205,-0.243 -0.374,-0.496 -0.514,-0.762 -0.051,-0.103 -0.089,-0.215 -0.107,-0.341 -0.019,-0.131 -0.028,-0.294 -0.028,-0.495 0,-0.519 0.079,-1.042 0.238,-1.565 0.164,-0.528 0.383,-1.028 0.663,-1.5 0.285,-0.477 0.627,-0.921 1.024,-1.336 0.397,-0.416 0.827,-0.771 1.294,-1.075 0.462,-0.299 0.962,-0.537 1.49,-0.71 0.528,-0.173 1.065,-0.262 1.617,-0.262 0.079,0 0.191,0.047 0.332,0.131 0.144,0.089 0.294,0.206 0.462,0.35 0.164,0.145 0.327,0.309 0.495,0.491 0.173,0.182 0.323,0.369 0.463,0.556 0.135,0.187 0.248,0.369 0.332,0.547 0.088,0.177 0.13,0.336 0.13,0.472 -0.046,0.172 -0.186,0.364 -0.425,0.57 -0.233,0.205 -0.514,0.397 -0.841,0.574 -0.322,0.178 -0.663,0.327 -1.018,0.444 -0.355,0.117 -0.668,0.178 -0.93,0.178 -0.154,0 -0.234,-0.047 -0.234,-0.136 0,-0.103 0.07,-0.247 0.206,-0.444 0.135,-0.196 0.29,-0.411 0.458,-0.644 0.168,-0.234 0.322,-0.468 0.458,-0.697 0.135,-0.233 0.205,-0.434 0.205,-0.598 0,-0.079 -0.018,-0.149 -0.061,-0.205 -0.042,-0.056 -0.098,-0.08 -0.172,-0.08 -0.201,0 -0.412,0.089 -0.626,0.271 -0.22,0.183 -0.44,0.425 -0.659,0.724 -0.22,0.304 -0.43,0.65 -0.631,1.038 -0.201,0.388 -0.374,0.785 -0.528,1.196 -0.149,0.411 -0.271,0.822 -0.36,1.233 -0.093,0.411 -0.14,0.785 -0.14,1.122 0,0.2 0.061,0.341 0.182,0.415 0.117,0.08 0.299,0.117 0.547,0.117 0.612,0 1.201,-0.103 1.771,-0.308 0.57,-0.206 1.116,-0.467 1.644,-0.794 0.524,-0.323 1.024,-0.687 1.496,-1.089 0.476,-0.402 0.925,-0.799 1.345,-1.201 0.098,0.117 0.22,0.234 0.369,0.346 0.145,0.117 0.253,0.215 0.327,0.294 -0.565,0.594 -1.168,1.159 -1.799,1.692 -0.635,0.532 -1.303,0.999 -2.004,1.397 -0.705,0.397 -1.444,0.71 -2.215,0.943 -0.77,0.234 -1.574,0.351 -2.415,0.351zm17.264 -4.383c-0.841,0.823 -1.636,1.514 -2.378,2.07 -0.743,0.556 -1.454,1 -2.126,1.341 -0.678,0.336 -1.323,0.579 -1.939,0.724 -0.617,0.145 -1.215,0.22 -1.799,0.22 -0.248,0 -0.519,-0.094 -0.822,-0.276 -0.299,-0.182 -0.58,-0.402 -0.841,-0.663 -0.262,-0.257 -0.477,-0.533 -0.65,-0.813 -0.173,-0.285 -0.261,-0.524 -0.261,-0.724 0,-0.753 0.102,-1.435 0.308,-2.061 0.206,-0.626 0.477,-1.191 0.813,-1.691 0.341,-0.505 0.724,-0.944 1.159,-1.327 0.434,-0.383 0.883,-0.706 1.355,-0.958 0.471,-0.257 0.939,-0.448 1.401,-0.575 0.467,-0.13 0.897,-0.191 1.29,-0.191 0.28,0 0.56,0.079 0.841,0.243 0.275,0.163 0.532,0.364 0.757,0.602 0.229,0.239 0.415,0.486 0.556,0.748 0.14,0.262 0.21,0.486 0.21,0.677 0,0.309 -0.126,0.627 -0.388,0.954 -0.262,0.322 -0.626,0.654 -1.103,0.99 -0.472,0.337 -1.046,0.682 -1.71,1.033 -0.668,0.35 -1.401,0.705 -2.205,1.06 -0.028,0.22 -0.042,0.435 -0.042,0.645 0,0.28 0.065,0.472 0.187,0.575 0.121,0.098 0.355,0.149 0.691,0.149 0.603,0 1.168,-0.098 1.706,-0.299 0.532,-0.201 1.046,-0.462 1.537,-0.78 0.495,-0.322 0.967,-0.687 1.425,-1.098 0.458,-0.411 0.906,-0.822 1.355,-1.243l0.673 0.668zm-4.822 -3.42c-0.182,0 -0.383,0.098 -0.603,0.295 -0.215,0.196 -0.434,0.453 -0.654,0.77 -0.219,0.323 -0.43,0.687 -0.631,1.103 -0.201,0.416 -0.373,0.846 -0.518,1.294 0.336,-0.219 0.668,-0.453 0.99,-0.696 0.323,-0.247 0.612,-0.504 0.869,-0.775 0.257,-0.267 0.463,-0.547 0.617,-0.827 0.154,-0.285 0.234,-0.566 0.234,-0.851 0,-0.079 -0.028,-0.154 -0.075,-0.219 -0.052,-0.061 -0.126,-0.094 -0.229,-0.094zm5.041 7.541c-0.14,0 -0.313,-0.047 -0.523,-0.145 -0.21,-0.093 -0.407,-0.215 -0.598,-0.355 -0.192,-0.14 -0.36,-0.299 -0.495,-0.472 -0.136,-0.173 -0.206,-0.341 -0.206,-0.504 0.094,-0.402 0.215,-0.865 0.369,-1.383 0.154,-0.523 0.323,-1.051 0.5,-1.589 0.178,-0.537 0.365,-1.065 0.561,-1.579 0.196,-0.519 0.374,-0.976 0.537,-1.378 0.159,-0.402 0.299,-0.724 0.416,-0.972 0.117,-0.248 0.196,-0.369 0.233,-0.369 0.052,0 0.192,0.061 0.412,0.177 0.215,0.117 0.448,0.262 0.691,0.43 0.238,0.173 0.458,0.351 0.65,0.538 0.191,0.186 0.285,0.345 0.285,0.485 0,0.028 -0.005,0.061 -0.014,0.103 -0.01,0.038 -0.024,0.094 -0.043,0.154 -0.07,0.229 -0.163,0.5 -0.28,0.809 -0.112,0.313 -0.233,0.63 -0.36,0.967 -0.13,0.332 -0.257,0.663 -0.383,1 -0.131,0.331 -0.243,0.644 -0.341,0.934 -0.103,0.294 -0.187,0.547 -0.247,0.766 -0.066,0.22 -0.099,0.379 -0.099,0.482 0,0.056 0.028,0.079 0.085,0.079 0.098,0 0.252,-0.056 0.448,-0.178 0.201,-0.116 0.435,-0.271 0.692,-0.462 0.261,-0.192 0.532,-0.402 0.817,-0.631 0.281,-0.229 0.552,-0.453 0.813,-0.677 0.262,-0.225 0.495,-0.425 0.706,-0.608 0.21,-0.182 0.369,-0.322 0.481,-0.411 0.079,0.08 0.177,0.187 0.29,0.313 0.116,0.126 0.224,0.248 0.322,0.355 -0.201,0.201 -0.449,0.449 -0.752,0.734 -0.299,0.29 -0.626,0.584 -0.977,0.883 -0.35,0.299 -0.719,0.603 -1.098,0.902 -0.378,0.303 -0.743,0.57 -1.098,0.808 -0.359,0.238 -0.691,0.43 -1,0.575 -0.313,0.149 -0.574,0.219 -0.794,0.219zm5.42 -12.918c-0.009,0.032 -0.042,0.121 -0.103,0.266 -0.061,0.14 -0.131,0.304 -0.21,0.491 -0.084,0.186 -0.178,0.383 -0.285,0.588 -0.103,0.206 -0.206,0.397 -0.304,0.57 -0.103,0.173 -0.196,0.313 -0.289,0.43 -0.094,0.112 -0.164,0.173 -0.22,0.173 -0.164,-0.009 -0.365,-0.061 -0.593,-0.154 -0.234,-0.089 -0.458,-0.192 -0.673,-0.309 -0.215,-0.112 -0.397,-0.224 -0.547,-0.331 -0.149,-0.112 -0.224,-0.187 -0.224,-0.234 0,-0.192 0.051,-0.439 0.163,-0.748 0.108,-0.303 0.239,-0.602 0.383,-0.887 0.145,-0.29 0.295,-0.538 0.444,-0.748 0.15,-0.21 0.267,-0.313 0.351,-0.313 0.163,0 0.364,0.052 0.602,0.154 0.234,0.108 0.468,0.229 0.692,0.365 0.22,0.135 0.411,0.271 0.575,0.402 0.159,0.135 0.238,0.229 0.238,0.285zm5.751 6.499c-0.121,0.355 -0.271,0.761 -0.448,1.219 -0.178,0.453 -0.346,0.902 -0.514,1.341 -0.164,0.439 -0.304,0.836 -0.416,1.191 -0.112,0.355 -0.173,0.612 -0.173,0.767 0,0.056 0.028,0.079 0.084,0.079 0.103,0 0.253,-0.056 0.453,-0.178 0.201,-0.116 0.43,-0.271 0.692,-0.462 0.257,-0.192 0.528,-0.402 0.813,-0.631 0.28,-0.229 0.556,-0.453 0.813,-0.677 0.262,-0.225 0.495,-0.425 0.705,-0.608 0.211,-0.182 0.37,-0.322 0.482,-0.411 0.079,0.08 0.177,0.187 0.294,0.313 0.112,0.126 0.22,0.248 0.318,0.355 -0.197,0.201 -0.449,0.449 -0.753,0.734 -0.299,0.29 -0.626,0.584 -0.976,0.883 -0.35,0.299 -0.715,0.603 -1.093,0.902 -0.383,0.303 -0.753,0.57 -1.112,0.808 -0.36,0.238 -0.696,0.43 -1.005,0.575 -0.308,0.149 -0.57,0.219 -0.78,0.219 -0.136,0 -0.313,-0.047 -0.519,-0.145 -0.21,-0.093 -0.411,-0.215 -0.602,-0.355 -0.192,-0.14 -0.36,-0.299 -0.496,-0.472 -0.135,-0.173 -0.205,-0.341 -0.205,-0.504 0.14,-0.612 0.276,-1.145 0.411,-1.603 0.136,-0.458 0.266,-0.845 0.383,-1.173 0.122,-0.322 0.224,-0.584 0.318,-0.784 0.089,-0.201 0.159,-0.351 0.205,-0.454 -0.112,-0.042 -0.215,-0.093 -0.317,-0.149 -0.098,-0.056 -0.201,-0.108 -0.299,-0.164 -0.15,0.154 -0.309,0.318 -0.486,0.491 -0.178,0.173 -0.36,0.35 -0.542,0.523 -0.182,0.173 -0.365,0.341 -0.547,0.505 -0.182,0.163 -0.346,0.317 -0.495,0.453l-0.654 -0.673c0.233,-0.229 0.518,-0.504 0.855,-0.827 0.332,-0.322 0.659,-0.649 0.976,-0.981 -0.229,-0.135 -0.434,-0.266 -0.616,-0.388 -0.183,-0.121 -0.337,-0.233 -0.463,-0.336 -0.154,-0.108 -0.294,-0.21 -0.411,-0.299 -0.056,-0.028 -0.084,-0.089 -0.084,-0.178 0,-0.102 0.042,-0.247 0.117,-0.434 0.079,-0.187 0.177,-0.388 0.294,-0.598 0.121,-0.215 0.248,-0.435 0.383,-0.659 0.14,-0.224 0.271,-0.425 0.397,-0.612 0.131,-0.182 0.243,-0.327 0.337,-0.444 0.098,-0.112 0.158,-0.168 0.186,-0.168 0.014,0 0.08,0.023 0.183,0.065 0.107,0.047 0.215,0.098 0.336,0.159 0.117,0.061 0.229,0.126 0.327,0.201 0.103,0.07 0.164,0.136 0.192,0.187 0.009,0.047 0.018,0.145 0.028,0.29 0.009,0.144 0.018,0.322 0.028,0.532 0.355,0.182 0.719,0.393 1.093,0.626 0.374,0.229 0.72,0.453 1.028,0.664 0.364,0.233 0.71,0.476 1.042,0.724 0.117,0.075 0.191,0.163 0.224,0.276 0.033,0.107 0.033,0.2 0.009,0.285zm4.117 4.27c0,0.276 0.098,0.411 0.299,0.411 0.21,0 0.49,-0.168 0.836,-0.5 0.346,-0.332 0.705,-0.752 1.079,-1.266 -0.014,-0.098 -0.028,-0.187 -0.033,-0.266 -0.004,-0.08 -0.004,-0.15 -0.004,-0.211 0,-0.182 0.018,-0.401 0.061,-0.654 0.042,-0.247 0.144,-0.532 0.308,-0.855 0.107,-0.243 0.238,-0.486 0.397,-0.724 0.126,-0.21 0.28,-0.434 0.463,-0.677 0.182,-0.243 0.383,-0.468 0.602,-0.678l0.084 -0.084c0.089,0.112 0.211,0.262 0.36,0.449 0.154,0.187 0.304,0.378 0.453,0.574 0.15,0.197 0.285,0.374 0.397,0.538 0.117,0.168 0.187,0.28 0.211,0.345 0,0.393 -0.07,0.785 -0.211,1.178 -0.14,0.392 -0.331,0.78 -0.57,1.163 0.552,-0.037 1.061,-0.177 1.528,-0.42 0.472,-0.243 0.963,-0.636 1.472,-1.182 0.084,0.079 0.192,0.191 0.322,0.336 0.131,0.14 0.239,0.262 0.323,0.36 -0.383,0.402 -0.762,0.733 -1.131,1 -0.369,0.266 -0.738,0.476 -1.107,0.63 -0.369,0.155 -0.748,0.267 -1.131,0.337 -0.383,0.065 -0.775,0.103 -1.177,0.103 -0.309,0.327 -0.645,0.626 -1,0.901 -0.355,0.276 -0.72,0.509 -1.089,0.71 -0.369,0.201 -0.733,0.36 -1.102,0.468 -0.365,0.107 -0.71,0.163 -1.038,0.163 -0.275,0 -0.556,-0.079 -0.85,-0.248 -0.29,-0.163 -0.556,-0.364 -0.794,-0.607 -0.234,-0.243 -0.43,-0.5 -0.589,-0.775 -0.154,-0.271 -0.233,-0.514 -0.233,-0.725 0,-0.691 0.098,-1.383 0.285,-2.065 0.186,-0.687 0.476,-1.327 0.873,-1.925 0.397,-0.598 0.902,-1.126 1.519,-1.579 0.616,-0.458 1.35,-0.803 2.196,-1.042 0.028,-0.018 0.079,-0.032 0.144,-0.042 0.07,-0.009 0.127,-0.014 0.173,-0.014 0.126,0 0.262,0.052 0.402,0.145 0.145,0.098 0.276,0.206 0.397,0.322 0.126,0.117 0.229,0.234 0.309,0.351 0.084,0.112 0.126,0.187 0.126,0.224 -0.019,0.047 -0.089,0.103 -0.206,0.173 -0.121,0.065 -0.28,0.182 -0.481,0.346 -0.201,0.168 -0.439,0.401 -0.71,0.705 -0.276,0.309 -0.575,0.71 -0.907,1.215 -0.49,0.738 -0.822,1.406 -0.999,2.004 -0.173,0.598 -0.257,1.061 -0.257,1.388z"/>
  <polygon class="fil0" points="76.436,6.499 76.506,6.395 73.622,4.464 75.625,1.477 73.417,0 71.416,2.988 68.428,0.988 66.95,3.194 69.938,5.195 67.939,8.182 70.144,9.66 72.146,6.672 75.134,8.672 76.61,6.465 76.506,6.395 76.436,6.499 76.332,6.43 75.066,8.323 72.076,6.322 70.075,9.311 68.288,8.113 70.287,5.125 67.298,3.125 68.498,1.337 71.484,3.337 73.486,0.349 75.275,1.546 73.274,4.534 76.366,6.604 76.436,6.499 76.332,6.43 "/>
  <path class="fil3" d="M35.774 25.988l-2.024 4.675 -1.068 0 -2.017 -4.675 1.169 0 1.422 3.339 1.443 -3.339 1.075 0zm3.312 3.673l-2.17 0 -0.414 1.002 -1.109 0 2.084 -4.675 1.068 0 2.09 4.675 -1.135 0 -0.414 -1.002zm-0.34 -0.822l-0.742 -1.789 -0.741 1.789 1.483 0zm6.664 -2.851l0 4.675 -0.888 0 -2.331 -2.839 0 2.839 -1.068 0 0 -4.675 0.895 0 2.324 2.838 0 -2.838 1.068 0zm2.077 0.881l-1.496 0 0 -0.881 4.074 0 0 0.881 -1.496 0 0 3.794 -1.082 0 0 -3.794zm6.004 2.792l-2.17 0 -0.415 1.002 -1.108 0 2.083 -4.675 1.069 0 2.09 4.675 -1.135 0 -0.414 -1.002zm-0.341 -0.822l-0.741 -1.789 -0.741 1.789 1.482 0zm5.47 -0.587l0.988 0 0 1.896c-0.254,0.192 -0.548,0.339 -0.881,0.441 -0.334,0.102 -0.67,0.154 -1.009,0.154 -0.485,0 -0.921,-0.104 -1.309,-0.311 -0.387,-0.207 -0.691,-0.494 -0.911,-0.861 -0.221,-0.368 -0.331,-0.783 -0.331,-1.246 0,-0.463 0.11,-0.878 0.331,-1.245 0.22,-0.368 0.526,-0.655 0.918,-0.862 0.392,-0.207 0.832,-0.31 1.322,-0.31 0.41,0 0.782,0.069 1.115,0.207 0.334,0.138 0.615,0.338 0.842,0.601l-0.695 0.641c-0.334,-0.352 -0.736,-0.528 -1.208,-0.528 -0.299,0 -0.564,0.063 -0.795,0.187 -0.232,0.125 -0.412,0.301 -0.541,0.528 -0.129,0.227 -0.194,0.487 -0.194,0.781 0,0.29 0.065,0.548 0.194,0.775 0.129,0.227 0.308,0.404 0.538,0.531 0.229,0.127 0.49,0.19 0.784,0.19 0.312,0 0.592,-0.067 0.842,-0.2l0 -1.369zm5.609 1.542l0 0.869 -3.619 0 0 -4.675 3.533 0 0 0.868 -2.458 0 0 1.015 2.17 0 0 0.841 -2.17 0 0 1.082 2.544 0zm5.149 -3.806l0 4.675 -0.888 0 -2.331 -2.839 0 2.839 -1.068 0 0 -4.675 0.895 0 2.324 2.838 0 -2.838 1.068 0zm2.645 4.755c-0.37,0 -0.727,-0.05 -1.072,-0.151 -0.345,-0.1 -0.622,-0.23 -0.832,-0.39l0.368 -0.815c0.2,0.147 0.438,0.265 0.714,0.354 0.276,0.089 0.552,0.134 0.828,0.134 0.308,0 0.535,-0.046 0.682,-0.137 0.146,-0.092 0.22,-0.213 0.22,-0.364 0,-0.112 -0.044,-0.204 -0.13,-0.277 -0.087,-0.074 -0.198,-0.133 -0.334,-0.177 -0.136,-0.045 -0.32,-0.094 -0.551,-0.147 -0.356,-0.085 -0.648,-0.17 -0.875,-0.254 -0.227,-0.085 -0.422,-0.221 -0.584,-0.407 -0.163,-0.188 -0.244,-0.437 -0.244,-0.748 0,-0.272 0.073,-0.518 0.22,-0.738 0.147,-0.221 0.369,-0.395 0.665,-0.525 0.296,-0.129 0.658,-0.193 1.085,-0.193 0.298,0 0.59,0.035 0.875,0.107 0.285,0.071 0.534,0.173 0.748,0.307l-0.334 0.821c-0.432,-0.245 -0.864,-0.367 -1.296,-0.367 -0.302,0 -0.526,0.049 -0.671,0.147 -0.145,0.098 -0.217,0.227 -0.217,0.387 0,0.16 0.084,0.28 0.25,0.357 0.167,0.078 0.422,0.155 0.765,0.231 0.356,0.084 0.648,0.169 0.875,0.254 0.227,0.084 0.422,0.218 0.584,0.4 0.163,0.183 0.244,0.43 0.244,0.742 0,0.267 -0.075,0.51 -0.224,0.731 -0.149,0.22 -0.373,0.395 -0.671,0.524 -0.298,0.129 -0.661,0.194 -1.088,0.194zm4.614 -4.755l2.124 0c0.507,0 0.956,0.097 1.346,0.29 0.389,0.194 0.692,0.467 0.908,0.818 0.216,0.352 0.324,0.762 0.324,1.229 0,0.468 -0.108,0.877 -0.324,1.229 -0.216,0.352 -0.519,0.624 -0.908,0.818 -0.39,0.194 -0.839,0.291 -1.346,0.291l-2.124 0 0 -4.675zm2.07 3.786c0.468,0 0.841,-0.13 1.119,-0.39 0.278,-0.261 0.417,-0.614 0.417,-1.059 0,-0.445 -0.139,-0.798 -0.417,-1.058 -0.278,-0.261 -0.651,-0.391 -1.119,-0.391l-0.988 0 0 2.898 0.988 0zm7.066 0.02l0 0.869 -3.62 0 0 -4.675 3.533 0 0 0.868 -2.457 0 0 1.015 2.17 0 0 0.841 -2.17 0 0 1.082 2.544 0zm4.287 0.949c-0.369,0 -0.727,-0.05 -1.071,-0.151 -0.346,-0.1 -0.623,-0.23 -0.832,-0.39l0.367 -0.815c0.201,0.147 0.439,0.265 0.715,0.354 0.276,0.089 0.552,0.134 0.828,0.134 0.307,0 0.534,-0.046 0.681,-0.137 0.147,-0.092 0.221,-0.213 0.221,-0.364 0,-0.112 -0.044,-0.204 -0.131,-0.277 -0.086,-0.074 -0.198,-0.133 -0.334,-0.177 -0.135,-0.045 -0.319,-0.094 -0.551,-0.147 -0.356,-0.085 -0.647,-0.17 -0.874,-0.254 -0.227,-0.085 -0.422,-0.221 -0.585,-0.407 -0.162,-0.188 -0.243,-0.437 -0.243,-0.748 0,-0.272 0.073,-0.518 0.22,-0.738 0.147,-0.221 0.368,-0.395 0.664,-0.525 0.296,-0.129 0.658,-0.193 1.086,-0.193 0.298,0 0.59,0.035 0.874,0.107 0.285,0.071 0.535,0.173 0.748,0.307l-0.334 0.821c-0.431,-0.245 -0.863,-0.367 -1.295,-0.367 -0.303,0 -0.527,0.049 -0.671,0.147 -0.145,0.098 -0.217,0.227 -0.217,0.387 0,0.16 0.083,0.28 0.25,0.357 0.167,0.078 0.422,0.155 0.765,0.231 0.356,0.084 0.648,0.169 0.875,0.254 0.227,0.084 0.422,0.218 0.584,0.4 0.162,0.183 0.244,0.43 0.244,0.742 0,0.267 -0.075,0.51 -0.224,0.731 -0.149,0.22 -0.373,0.395 -0.671,0.524 -0.298,0.129 -0.661,0.194 -1.089,0.194zm6.345 -0.949l0 0.869 -3.62 0 0 -4.675 3.533 0 0 0.868 -2.458 0 0 1.015 2.171 0 0 0.841 -2.171 0 0 1.082 2.545 0zm3.839 0.869l-0.901 -1.303 -0.054 0 -0.941 0 0 1.303 -1.082 0 0 -4.675 2.023 0c0.415,0 0.774,0.069 1.079,0.207 0.305,0.138 0.54,0.334 0.705,0.588 0.164,0.253 0.247,0.554 0.247,0.901 0,0.347 -0.084,0.647 -0.251,0.898 -0.167,0.252 -0.404,0.444 -0.711,0.578l1.048 1.503 -1.162 0zm-0.02 -2.979c0,-0.263 -0.084,-0.464 -0.253,-0.604 -0.17,-0.141 -0.417,-0.211 -0.742,-0.211l-0.881 0 0 1.63 0.881 0c0.325,0 0.572,-0.071 0.742,-0.214 0.169,-0.142 0.253,-0.343 0.253,-0.601zm5.917 3.059c-0.668,0 -1.187,-0.185 -1.559,-0.555 -0.372,-0.369 -0.558,-0.897 -0.558,-1.582l0 -2.618 1.082 0 0 2.578c0,0.837 0.347,1.255 1.042,1.255 0.338,0 0.596,-0.101 0.775,-0.304 0.178,-0.202 0.267,-0.52 0.267,-0.951l0 -2.578 1.068 0 0 2.618c0,0.685 -0.186,1.213 -0.557,1.582 -0.372,0.37 -0.892,0.555 -1.56,0.555zm7.44 -0.08l-0.007 -2.805 -1.376 2.31 -0.487 0 -1.369 -2.25 0 2.745 -1.015 0 0 -4.675 0.895 0 1.749 2.905 1.723 -2.905 0.888 0 0.014 4.675 -1.015 0z"/>
 </g>
</svg>
