<?xml version="1.0" encoding="UTF-8"?>
<!DOCTYPE svg PUBLIC "-//W3C//DTD SVG 1.1//EN" "http://www.w3.org/Graphics/SVG/1.1/DTD/svg11.dtd">
<!-- Creator: CorelDRAW 2021 (64-Bit) -->
<svg xmlns="http://www.w3.org/2000/svg" xml:space="preserve" width="499px" height="147px" version="1.1" style="shape-rendering:geometricPrecision; text-rendering:geometricPrecision; image-rendering:optimizeQuality; fill-rule:evenodd; clip-rule:evenodd"
viewBox="0 0 66.047 19.426"
 xmlns:xlink="http://www.w3.org/1999/xlink"
 xmlns:xodm="http://www.corel.com/coreldraw/odm/2003">
 <defs>
  <style type="text/css">
   <![CDATA[
    .fil1 {fill:#2E4562;fill-rule:nonzero}
    .fil0 {fill:url(#id0)}
   ]]>
  </style>
  <linearGradient id="id0" gradientUnits="userSpaceOnUse" x1="0.005" y1="9.921" x2="65.944" y2="9.921">
   <stop offset="0" style="stop-opacity:1; stop-color:#F58634"/>
   <stop offset="1" style="stop-opacity:1; stop-color:#FEBF2C"/>
  </linearGradient>
 </defs>
 <g id="Layer_x0020_1">
  <metadata id="CorelCorpID_0Corel-Layer"/>
  <g id="_2853531473808">
   <path class="fil0" d="M0.315 10.969c-0.006,0.055 -0.11,-0.049 -0.092,0.037 0.111,0.018 0.276,0.018 0.356,0.012 0.025,-0.086 -0.184,0 -0.214,-0.043 0.171,-0.087 0.51,0.043 0.638,-0.037 -0.092,0.043 0.203,0.055 0.258,0.104 0.081,-0.036 0,-0.024 0.013,-0.073 0.141,-0.013 0.042,0.061 0.22,0.043 -0.005,-0.043 -0.152,-0.043 -0.116,-0.099 -0.092,0 -0.16,0.007 -0.19,0.031 -0.092,-0.006 -0.08,-0.056 -0.124,-0.08 0.179,-0.08 0.511,0.019 0.634,0.024 -0.019,0.025 -0.117,0.013 -0.185,0.013 0.216,0.123 0.504,0.025 0.738,-0.049 0.122,0.006 0.042,0.086 0.209,0.08 0.005,-0.037 -0.117,-0.025 -0.074,-0.08 0.393,0.061 0.952,0.166 1.382,0.141 -0.018,0.062 -0.239,0.019 -0.239,0.086 0.129,-0.012 0.307,-0.012 0.331,-0.08 0.277,0.031 0.682,-0.123 1.002,0.019 -0.019,-0.043 0.147,-0.031 0.239,-0.068 0.118,0.019 0.061,0.086 0.173,0.025 0.11,0.012 -0.092,0.043 -0.062,0.092 0.154,0.006 0.087,-0.098 0.246,-0.086 0.068,0.012 0,0.018 -0.05,0.012 0.154,0.068 0.83,-0.086 0.947,0.055l0.055 -0.055c0.123,0.025 0.357,-0.012 0.548,-0.018 0.159,0.006 -0.106,0.055 0.036,0.055 0.202,-0.031 0.811,-0.092 0.842,0.105 0.166,-0.012 0.018,-0.044 0.067,-0.111l0.099 -0.031c0.097,0 0.006,0.062 0.03,0.092 0.283,0.019 0.498,0.056 0.603,0.172 -0.037,0.013 -0.086,0.025 -0.141,0.031 -0.063,-0.006 -0.025,-0.049 -0.032,-0.073 -0.08,0.049 -0.14,0.005 -0.233,0.024 -0.05,-0.024 -0.037,-0.043 0.055,-0.05 -0.079,-0.048 -0.16,-0.091 -0.307,-0.066 0.111,0.03 0.234,0.048 0.117,0.116 0.141,0 0.209,0.025 0.307,0.049 -0.012,0.043 -0.153,0.031 -0.277,0.024 0.191,0.05 -0.03,0.056 -0.061,0.112 -0.099,-0.062 -0.006,-0.05 -0.178,-0.025 0.018,-0.056 0.147,-0.062 0.239,-0.087l0.05 -0.017c-0.044,-0.031 -0.184,-0.025 -0.264,-0.043l-0.142 0.048 0.074 0.062c-0.086,0.037 -0.344,-0.006 -0.498,0l0.08 0.055c-0.209,-0.043 -0.356,0.018 -0.344,-0.086 -0.098,0.025 -0.147,0.068 -0.289,0.068 -0.068,-0.013 0.019,-0.025 0.006,-0.056 -0.104,0.031 -0.221,0.056 -0.289,0.099 -0.129,-0.032 -0.46,-0.154 -0.626,-0.056 -0.099,0 -0.141,-0.018 -0.123,-0.061 -0.136,0.037 -0.264,0.018 -0.553,0.018 -0.044,0.074 0.166,0.062 0.307,0.067 -0.067,0.069 -0.184,-0.011 -0.319,0.025 -0.056,0 -0.142,-0.055 -0.043,-0.055 -0.075,-0.049 -0.296,0 -0.277,0.062 -0.221,-0.007 -0.399,0.031 -0.541,-0.037 -0.006,-0.049 0.167,0.055 0.142,-0.031 -0.185,-0.037 -0.302,0.031 -0.504,0.019 -0.062,-0.007 0.024,-0.025 0.012,-0.056 -0.719,0.087 -1.388,-0.018 -2.052,0.043 0.092,0.019 0.167,0.062 0.265,0.025 -0.13,0.08 0.08,0.025 0.073,0.098 0.08,0 0.111,-0.03 0.104,-0.073 0.148,0.061 0.216,-0.044 0.412,-0.02 0.105,0.007 -0.055,0.044 -0.098,0.05 0.049,0.043 0.184,-0.018 0.215,0.043 0.375,-0.018 0.608,-0.073 0.952,0.037l0.013 -0.074c0.08,0.037 0.116,0.007 0.227,0.007 0.092,0.018 -0.123,0.061 -0.154,0.085 0.086,0.025 0.179,0.044 0.117,0.118 0.092,0.005 0.27,-0.099 0.276,-0.013 0.135,-0.018 0,-0.086 -0.024,-0.11 0.191,-0.044 0.258,0.012 0.344,0.104 0.068,0.006 0.172,0 0.178,0.024 0.148,-0.012 -0.037,-0.049 -0.129,-0.042 -0.178,-0.173 0.504,-0.154 0.597,-0.032 0.189,0 -0.068,-0.098 0.189,-0.067 0,-0.024 -0.073,-0.018 -0.129,-0.024 0.136,-0.068 0.24,0.073 0.363,0.012 0.068,0.018 -0.018,0.03 0.031,0.074 0.246,-0.044 0.301,0.037 0.504,-0.019 -0.019,0.08 0.183,0.019 0.3,0.104 0.099,-0.042 -0.005,-0.018 -0.036,-0.055 0.092,-0.043 0.338,0.007 0.307,0.068 0.197,-0.006 0.043,-0.055 0.197,-0.074 0.197,0.025 0.073,0.08 0.264,0.031 0.166,0.061 -0.105,0.08 -0.111,0.123 0.135,0.03 0.172,0.024 0.271,-0.007 0.036,0.049 0.227,0.037 0.258,0.086 -0.019,0.044 -0.074,-0.03 -0.178,-0.006 0.048,0.099 0.055,0.038 -0.068,0.105 0.271,-0.024 0.436,0 0.608,-0.086 0.179,0.08 0.425,0.111 0.664,0.129 -0.098,-0.105 -0.566,-0.037 -0.479,-0.142 0.153,-0.042 0.356,-0.061 0.393,-0.153 -0.203,0 -0.32,0.092 -0.651,0.086 0.073,-0.049 0.288,-0.037 0.375,-0.079 -0.204,-0.037 -0.653,0.06 -0.953,-0.013 0.062,-0.031 0.258,-0.093 0.117,-0.147 0.141,-0.062 0.356,-0.007 0.639,0.005l-0.062 0.074c0.123,-0.006 0.154,-0.037 0.13,0.037 0.067,-0.03 0.159,-0.043 0.282,-0.043 0.061,0 0.043,0.019 0,0.031 0.282,-0.018 0.584,-0.025 1.002,-0.018 0.043,0.006 0.024,0.037 0.079,0.042 -0.043,0.025 -0.123,0.037 -0.233,0.032 0.215,0.03 0.067,0.079 -0.105,0.085 -0.055,-0.037 0.05,-0.085 -0.117,-0.117 -0.091,0.025 0.038,0.086 -0.067,0.129 -0.147,-0.018 -0.067,-0.085 -0.123,-0.097 -0.252,0.048 -0.037,0.178 -0.386,0.134 -0.056,0.068 0.178,0.031 0.263,0.049l0.061 -0.074c0.419,-0.024 0.307,0.197 -0.116,0.13 0.024,0.018 0.049,0.031 -0.006,0.037 0.012,0.012 0.374,0.03 0.368,-0.025 0.123,0.019 -0.092,0.062 0.031,0.092 -0.338,-0.037 -0.437,0.049 -0.774,0.012 0.019,-0.036 -0.215,-0.073 -0.123,-0.079 -0.24,0 -0.51,0.018 -0.774,0.012 0.153,0.031 0.203,0.055 0.068,0.111 0.141,0.012 0.221,-0.013 0.146,-0.049 0.112,0.03 0.278,0.024 0.185,-0.031 0.154,-0.013 0.056,0.061 0.172,0.061 -0.018,0.049 -0.307,-0.025 -0.319,0.024 -0.055,0.069 0.19,0.025 0.214,0.069l-0.147 0.049c0.062,-0.049 -0.227,-0.087 -0.399,-0.049 0.191,-0.062 0.074,-0.056 -0.122,-0.099 0.091,0.123 -0.566,0.08 -0.628,-0.024 -0.184,-0.025 -0.184,0.036 -0.325,0.024l0.129 0.061c-0.056,0.056 -0.111,-0.024 -0.227,-0.006 -0.068,-0.006 -0.007,-0.055 -0.086,-0.062 0.092,-0.012 0.171,-0.036 0.283,-0.042 -0.008,-0.043 -0.057,-0.074 -0.019,-0.13 0.031,-0.023 0.099,-0.03 0.184,-0.03 -0.191,0.086 0.252,0.018 0.307,0.056 0,-0.068 0.24,-0.049 0.375,-0.056 0.031,0.056 -0.073,0.049 -0.061,0.092 0.19,-0.018 0.079,-0.062 0.159,-0.123 -0.116,-0.006 -0.239,-0.012 -0.363,-0.012 0.013,-0.037 0.044,-0.062 0.105,-0.074l-0.172 -0.061c-0.129,0.018 0.135,0.043 0.074,0.098l-0.037 -0.043c-0.024,0.043 -0.301,0.067 -0.22,-0.025 -0.124,-0.005 -0.124,0.037 -0.149,0.074 -0.183,-0.006 -0.312,-0.061 -0.411,0 -0.068,-0.006 0.018,-0.018 0.006,-0.055 -0.239,0.068 -0.713,0.037 -0.946,-0.031 -0.307,0.019 -0.437,0 -0.922,0.043l0.061 -0.074c-0.092,0.074 -0.257,-0.006 -0.332,0.08 -0.036,-0.012 -0.073,-0.018 -0.134,-0.018 -0.037,-0.006 -0.117,-0.062 -0.049,-0.062 -0.111,-0.036 -0.093,0.074 -0.136,0.093 0.074,0.006 0.326,0.055 0.369,-0.025 0.104,0.037 0.338,0.031 0.442,0.067 0.074,0 0.111,-0.024 0.105,-0.067 0.313,0.062 0.669,0.018 0.842,0.123 -0.136,0.018 -0.4,0 -0.683,-0.006 0.026,0.068 0.382,0.024 0.486,0.074 -0.055,0.024 -0.289,0 -0.147,0.067 -0.173,-0.012 -0.16,-0.024 -0.277,0.006 0.289,-0.012 0.529,0.154 0.147,0.172 -0.159,-0.018 0.037,-0.049 -0.073,-0.092 -0.074,0 -0.105,0.031 -0.099,0.068 -0.141,-0.074 -0.258,0.031 -0.313,-0.043 -0.184,0.012 -0.006,0.074 -0.067,0.141 0.024,-0.037 0.184,-0.135 0.282,-0.061 0,0 -0.228,0.067 0.031,0.055 -0.037,0.043 -0.259,0 -0.234,0.068 0.154,0.018 0.197,-0.031 0.27,0.012 0.006,0.03 -0.042,0.03 -0.098,0.03 0,0.019 0.246,0.014 0.265,0.068 0.085,-0.031 -0.043,-0.054 0.06,-0.092 0.086,0.043 0.265,0.024 0.277,-0.031 0.081,0.006 0.099,0.037 0.081,0.08 0.189,-0.043 0.343,0.012 0.504,-0.037 0.011,-0.043 -0.161,-0.018 -0.223,-0.03 0.068,-0.154 0.333,0.061 0.456,0l-0.129 -0.043c0.049,-0.031 0.16,-0.031 0.233,-0.049 0.068,0.005 0.006,0.055 0.08,0.061l-0.093 -0.006c-0.184,0.037 0.129,0.03 0.129,0.061 0.019,-0.012 0.093,-0.086 -0.03,-0.074 0,-0.055 0.111,-0.055 0.111,-0.11 0.141,0 0.154,0.043 0.313,0.031 -0.043,0.067 -0.135,-0.012 -0.233,0.03 0.012,0.025 0.111,0.019 0.178,0.025 0.111,-0.006 -0.043,0.08 0.122,0.061 0,-0.037 -0.018,-0.067 -0.072,-0.079 0.042,-0.074 0.3,-0.044 0.502,-0.037 0.038,0.037 0.093,0.086 -0.024,0.147 0.111,-0.006 0.203,-0.068 0.111,-0.11 0.086,-0.049 0.239,0.018 0.314,0.03 -0.135,0.012 -0.044,0.062 -0.106,0.074 0.106,0.037 0.031,-0.074 0.24,-0.068 0.179,0.037 -0.067,0.135 0.203,0.154l-0.227 -0.025c-0.099,0.006 -0.099,0.025 -0.05,0.055 -0.086,0 -0.086,-0.018 -0.092,-0.042 -0.092,0.006 -0.098,0.024 -0.049,0.055 -0.313,0.037 -0.504,0.025 -0.786,0.049 -0.043,0.049 0.055,0.049 0.031,0.092 0.24,-0.073 0.399,0.031 0.595,-0.019 -0.171,0.173 -0.786,0.204 -1.173,0.204 -0.043,-0.044 -0.007,-0.056 -0.067,-0.112 -0.056,0 -0.124,0.026 -0.056,0.032 -0.061,0.061 -0.117,-0.006 -0.19,0.049 0.006,0.031 0.11,0.024 0.178,0.024 -0.215,0.007 -0.535,0.123 -0.597,0.019 -0.073,0.031 0.056,0.067 0.025,0.11 -0.491,-0.037 -0.467,-0.03 -1.038,-0.03 0.141,0.03 0.141,0.092 -0.056,0.049 -0.074,0.086 0.228,0.037 0.259,0.086l-0.357 -0.049c-0.068,0.025 -0.159,0.043 -0.197,0.086 -0.061,-0.031 -0.233,-0.024 -0.214,-0.08 -0.179,0.031 -0.246,0 -0.412,0.019 0.006,0.042 0.111,0.116 -0.104,0.091 0.012,0.037 0.116,0.037 0.073,0.099 0.129,-0.03 0.393,-0.05 0.449,0.031 0.382,-0.123 0.491,-0.111 1.051,-0.038l-0.08 -0.061 0.049 -0.018c0.098,0.006 0.086,0.056 0.073,0.098 0.093,0 0.056,-0.067 0.148,-0.067 0.129,0.018 0.049,0.03 0.037,0.073 0.185,-0.104 0.356,0.024 0.467,-0.092 0.228,-0.006 0.283,0.049 0.442,0.067 0.05,-0.023 0.056,-0.067 0.148,-0.067 0.067,0.049 -0.117,0.092 -0.025,0.148 0.086,0 0.068,-0.05 0.191,-0.032 -0.093,-0.037 -0.105,-0.104 0.104,-0.092 -0.092,0.062 -0.122,0.105 0.067,0.136 -0.085,-0.116 0.24,-0.068 0.326,-0.044 0.074,0 -0.037,-0.079 0.148,-0.072 0.111,0.085 -0.216,0.153 -0.424,0.098 0.123,0.085 0.338,0.024 0.448,0.055 0.025,-0.025 0.043,-0.148 0.209,-0.16 0.111,0.012 0.191,0.042 0.16,0.117 -0.142,-0.019 -0.08,-0.068 -0.173,-0.062 -0.238,0.074 0.253,0.092 -0.018,0.111 0.037,0.043 0.277,0.012 0.4,0.031 -0.006,-0.037 -0.302,-0.043 -0.111,-0.136 0.16,0 0.234,0.025 0.265,0.068 0.03,-0.05 0.356,-0.037 0.307,0.043 0.227,0.012 0.51,0 0.485,0.092 0.055,0 0.03,-0.049 0.085,-0.049 -0.263,-0.068 -0.049,-0.141 0.057,-0.222 0.171,0.037 0.061,0.068 0.104,0.148 0.123,-0.03 0.338,-0.024 0.424,-0.073 0.368,0.073 0.713,0 0.983,0.086 0.006,0.049 -0.178,0.012 -0.147,0.073l0.135 0c0.054,0 0.043,-0.03 0.054,-0.055 0.21,0.012 0.253,0.08 0.444,0.092l-0.081 -0.055c0.805,0.037 1.187,0 1.997,0.012 -0.165,0.025 -0.3,0.037 -0.417,0.037 0.264,0.153 0.736,-0.031 1.031,0.074 -0.092,0.037 -0.165,0.025 -0.104,0.092 0.43,-0.006 0.799,-0.092 0.94,0.067 -0.276,0.012 -0.578,-0.03 -0.571,0.148 0.061,0.006 0.123,0.006 0.185,0.006 -0.007,0.086 -0.117,0.116 -0.253,0.141 -0.147,0 0.123,-0.049 -0.037,-0.055 -0.147,0.173 -0.866,0.215 -1.093,0 -0.167,0.067 0.166,0.111 0.294,0.141 -0.061,0.074 -0.3,0.068 -0.392,0.136 -0.08,-0.056 -0.203,-0.031 -0.209,-0.087 -0.105,0.007 -0.019,0.099 -0.111,0.111 -0.104,-0.012 -0.073,-0.068 -0.216,-0.061 -0.091,0.105 -0.318,0.012 -0.496,-0.019 -0.29,0.086 -0.744,0.019 -0.928,0.099 -0.142,-0.025 -0.191,-0.074 -0.351,-0.087 -0.018,0.044 -0.16,0.031 -0.147,0.087 -0.394,-0.013 -0.492,-0.031 -0.903,-0.05 0,0.05 0.141,0.043 0.263,0.05 -0.183,0.025 -0.288,0.086 -0.472,0.11l-0.086 -0.055c-0.08,0.019 -0.179,0.031 -0.197,0.086 0.062,0.055 0.27,-0.031 0.221,0.043 0.265,-0.025 0.677,0.006 0.658,0.135 0.043,0.049 0.061,-0.031 0.024,-0.049 0.165,0.037 0.191,-0.043 0.443,-0.013 0.086,0.013 0.025,0.074 0.171,0.062l-0.061 0.074c0.197,0 0.602,-0.013 0.671,0.079 0.251,-0.036 0.589,0.031 0.828,-0.067 0.148,0.135 0.645,-0.018 0.756,0.104 0.08,-0.018 0.062,-0.079 0.111,-0.11 0.012,0.068 0.105,0.08 0.135,0.006 0.4,0.049 1.051,-0.061 1.309,0.062 0.128,-0.074 0.552,-0.068 0.731,-0.013l-0.055 0.055c0.534,0.105 0.963,-0.011 1.234,0.191 -0.147,0.062 -0.159,-0.068 -0.35,-0.049 0.356,0.221 1.358,0.03 1.826,0.197 0.349,-0.136 0.608,0.134 0.779,-0.013 0.081,0.006 0.148,0.019 0.172,0.043 0.086,-0.018 0.16,-0.043 0.24,-0.067 0.049,0.006 0.11,0.037 0.037,0.037 0.123,0.036 0.221,0.018 0.325,-0.025 0.547,0.031 0.916,0.092 1.445,0.049 0.344,0.11 0.988,0.043 1.407,0.031 0.921,0.11 1.861,-0.013 2.524,0.123 -0.012,-0.044 0.087,-0.037 0.063,-0.087 0.141,-0.006 0.134,0.043 0.116,0.092 0.16,-0.018 0.092,-0.049 0.153,-0.085 0.062,0.08 0.105,0.043 0.271,0.024 0.043,0.087 -0.221,0.019 -0.197,0.092 0.167,-0.036 0.559,-0.049 0.516,-0.116 0.154,-0.013 0.148,0.031 0.124,0.08 0.546,0.005 0.657,-0.117 1.234,-0.013 -0.055,-0.024 -0.012,-0.031 0.006,-0.055 0.166,-0.006 0.234,0.024 0.264,0.062 0.136,0.018 0.13,-0.043 0.235,-0.043 0.226,0.005 0.177,0.11 0.435,0.104 -0.128,-0.099 0.326,-0.024 0.425,-0.08 0.141,0.019 0.147,0.08 0.3,0.086l-0.122 -0.061c0.478,-0.006 0.614,0.036 1.087,0.019 0.214,-0.007 0.504,0.036 0.633,0.024 0.147,-0.012 0.203,-0.074 0.332,-0.08 0.233,-0.019 0.651,0.073 0.73,-0.012 0.431,0.054 0.867,0.036 1.451,0.049 0.025,0.079 0.522,0.019 0.633,0 0.129,0.024 0.043,0.031 0.03,0.079 0.141,-0.018 0.215,-0.06 0.418,-0.043 0.142,0.019 0.049,0.05 0.025,0.092 0.098,0.013 0.098,-0.024 0.104,-0.049 0.455,-0.055 0.891,0.136 1.315,0.025 0.153,0.068 0.639,-0.043 0.756,0.098 0.068,-0.018 0.203,-0.006 0.19,-0.067 0.129,0 0.105,0.055 0.172,0.08 0.019,-0.129 0.505,0.006 0.726,0.006 0.184,0.006 0.398,-0.093 0.54,0.019 0.228,-0.124 0.535,-0.007 0.909,0.011l0.031 0.062c0.535,-0.056 0.866,0.037 1.217,0.08 0.159,0 0.234,-0.037 0.289,-0.086 0.227,-0.012 0.233,0.055 0.393,0.068 -0.013,-0.086 0.381,0.024 0.381,-0.062 0.147,0.068 0.405,0.049 0.595,0.043 0,-0.012 0.271,-0.049 0.358,-0.043 0.14,0 0.22,0.037 0.356,0.049 0.147,0.007 0.313,-0.055 0.466,-0.061 0.228,-0.006 0.67,-0.025 1.039,0.018 0.074,-0.043 0.104,-0.03 0.061,-0.092 0.326,0.148 0.565,0 0.904,0.03 -0.031,0.05 -0.197,0.044 -0.197,0.105 0.166,-0.141 0.817,-0.012 1.186,-0.03 -0.032,0.079 -0.406,0 -0.381,0.116 -0.166,-0.116 -0.455,-0.018 -0.719,-0.062 0.682,0.136 1.696,0.154 2.236,0.203 -0.239,0.16 -1.106,-0.073 -1.334,0.105 -0.287,-0.056 -0.337,-0.043 -0.533,-0.092 0.043,0.049 0.018,0.085 -0.111,0.11 -0.252,-0.153 -0.891,0 -1.02,-0.147 -0.117,0.092 -0.332,0 -0.455,0.018l0.129 0.043c-0.042,0.099 -0.645,0.007 -0.583,-0.037 -0.234,0.093 -0.541,0 -0.86,-0.049 -0.204,0.062 -1.033,0.105 -1.224,-0.024 -0.079,0.006 -0.104,0.03 -0.097,0.073 -0.486,-0.03 -0.769,-0.067 -1.279,-0.006 0.419,0.062 0.781,-0.012 1.026,0.104l-0.097 0.056c-0.173,-0.018 -0.186,-0.025 -0.321,0.006 -0.147,-0.049 -0.423,-0.098 -0.583,-0.037 -0.117,-0.092 -0.363,-0.061 -0.529,-0.135 0.111,0.061 -0.141,0.043 -0.276,0.049 0.725,0.147 1.53,0.123 2.101,0.203 0.099,-0.012 0.295,-0.098 0.363,-0.006 0.129,-0.012 0.167,-0.068 0.289,-0.08 -0.062,0.03 0.049,0.03 0.171,0.08 0.08,0 0.038,-0.062 0.142,-0.055 0.191,-0.007 0.074,0.098 0.258,0.086 -0.007,-0.031 0.043,-0.031 0.098,-0.031 0.369,0.141 1.199,0.019 1.53,0.086 0.375,-0.08 0.769,0.061 1.316,0.006 0.208,0.055 0.552,0.099 0.638,0.025 0.086,0.012 0.135,0.043 0.215,0.061l-0.103 0.056c0.085,-0.069 0.202,-0.006 0.325,-0.006 0.528,0 1.29,0.012 1.904,0.006 0.006,-0.069 -0.055,-0.05 -0.172,-0.043l-0.043 -0.037 0.093 0c0.128,-0.013 -0.057,-0.049 0.061,-0.068 0.258,0.178 0.768,0.024 1.173,0.037l-0.073 0.018c0.448,0.105 1.088,0.148 1.334,0.061 0.134,0 0.017,0.081 0.14,0.087l0.025 -0.006c-0.13,-0.062 0.178,-0.031 0.153,-0.105 0.104,0.036 0.234,0.036 0.326,-0.006 -0.142,-0.043 0.092,-0.074 0.154,-0.092 0.104,0.074 0.264,0.08 0.437,0.092 -0.007,-0.043 -0.118,-0.049 -0.179,-0.025 -0.025,-0.055 -0.074,-0.073 0.024,-0.147 0.092,0.08 0.148,-0.03 0.314,0.031l0.055 -0.037c-0.092,-0.08 -0.098,-0.16 -0.246,-0.179l0.062 -0.067c0.079,0 0.092,0.025 0.178,0.025 -0.006,-0.05 0.068,-0.062 0.19,-0.05 -0.129,-0.049 -0.067,-0.11 0.024,-0.147 -0.067,0.012 -0.116,0.012 -0.184,-0.013 0.117,-0.042 0.031,-0.123 -0.104,-0.146 0.049,-0.056 0.11,0.023 0.228,0.006l0.018 -0.13c-0.184,0.019 -0.172,-0.049 -0.406,-0.012 -0.049,-0.043 -0.098,-0.085 -0.159,-0.123 -0.093,0.031 -0.111,0 -0.227,-0.006 -0.019,0.056 -0.313,0.044 -0.37,0.025 0.049,-0.025 0.081,-0.056 0.197,-0.049 -0.122,-0.093 0.031,-0.117 0.252,-0.142 0.055,0.025 0.08,0.055 0.117,0.08 0.098,-0.135 0.472,-0.037 0.614,-0.128 0.117,0.042 0.295,0.171 0.062,0.171 0.011,0.062 0.27,0.024 0.362,0.012 0.049,-0.061 -0.141,-0.031 -0.172,-0.061 0.012,-0.049 0.252,-0.061 0.061,-0.092 0.087,-0.012 0.136,-0.043 0.24,-0.049 -0.03,-0.019 -0.049,-0.031 0.006,-0.038 -0.055,-0.024 -0.307,-0.073 -0.209,-0.098 -0.197,-0.048 -0.386,0 -0.632,-0.043 0.043,-0.054 0.178,-0.018 0.276,-0.005 -0.03,-0.075 0.141,-0.049 0.111,-0.13 -0.032,-0.018 -0.4,-0.006 -0.259,-0.061 -0.153,0.018 -0.239,0.03 -0.503,0.018 -0.08,-0.147 -0.437,-0.104 -0.652,-0.191 0.191,-0.042 0.215,0.05 0.455,0.019 0.025,-0.068 -0.165,0 -0.165,-0.074 -0.044,0.043 -0.104,0.019 -0.037,-0.067 -0.087,0.012 -0.185,0.037 -0.106,0.073 -0.177,-0.012 -0.238,-0.024 -0.301,-0.104 -0.22,0.05 -0.343,-0.056 -0.527,-0.074 0.117,-0.061 0.559,-0.172 0.651,-0.11 0.147,-0.03 -0.099,-0.08 -0.061,-0.129 0.085,-0.049 0.122,-0.129 0.295,-0.141l-0.007 0.018c0.031,0.055 0.123,-0.018 0.227,0.012 0.099,-0.006 -0.018,0.049 -0.055,0.049l0.375 -0.043c0.252,0.086 0.977,0.098 1.057,0.191 0.049,0.037 0.184,-0.049 0.24,-0.068l0.085 0.019c0.068,0.055 -0.209,0.03 -0.055,0.055 0.037,0.012 0.068,0.024 0.129,0.024 0.043,-0.153 0.812,-0.006 1.045,0.031 0.147,-0.048 0.43,-0.086 0.546,0 0.172,0.012 0.019,-0.012 0.056,-0.048 0.122,0.042 0.11,0.03 0.307,0.048 -0.221,0.043 -0.16,0.099 -0.307,0.173 -0.087,-0.044 -0.129,0.006 -0.271,-0.007 0.179,0.056 0.455,0.074 0.762,0.08 0.037,-0.043 0.154,-0.086 0.067,-0.129 0.13,0 0.155,0.099 0.032,0.092 0.024,0.068 0.405,-0.036 0.184,-0.024 0.049,-0.056 0.135,0.024 0.27,0.006 0.073,-0.105 0.221,-0.179 0.541,-0.203 -0.08,-0.08 -0.682,0.024 -0.774,0.006 0.142,-0.037 0.233,-0.098 0.467,-0.092 -0.013,-0.068 -0.221,-0.073 -0.35,-0.068 0.049,-0.079 0.258,-0.025 0.423,-0.079 -0.073,-0.043 -0.43,-0.05 -0.411,0.024 -0.234,-0.018 -0.117,-0.135 -0.393,-0.092 0.117,-0.037 0.208,-0.08 0.381,-0.099 -0.025,-0.018 -0.049,-0.037 0.005,-0.037l-0.171 -0.061c0.042,-0.067 0.191,-0.08 0.252,-0.141 0.349,0.043 0.707,0 1.136,0.025 -0.092,-0.044 0.067,-0.068 0.154,-0.093 -0.142,0.068 0.006,0.031 -0.025,0.136 0.05,-0.081 0.21,-0.062 0.326,-0.068 0.067,-0.043 -0.116,-0.08 0.018,-0.092l-0.128 -0.043c-0.063,-0.074 0.196,0.006 0.189,-0.049 0.014,-0.056 -0.177,-0.031 -0.22,-0.025 -0.172,-0.018 0.049,-0.178 -0.197,-0.172l-0.012 0.073c-0.24,-0.018 0.03,-0.104 -0.16,-0.134 0.049,-0.055 0.062,0.042 0.178,0.025 0.037,-0.092 -0.307,-0.044 -0.295,-0.124 0.068,-0.037 0.166,-0.055 0.283,-0.067 -0.012,-0.08 0.123,-0.326 0.541,-0.203 -0.074,0.019 -0.124,0.049 -0.24,0.049 0.086,0.042 0.338,0 0.455,-0.007 -0.154,-0.048 0.049,-0.146 -0.056,-0.208 -0.092,0.019 -0.184,0.037 -0.277,0.049 -0.14,-0.006 -0.226,-0.024 -0.263,-0.061 0.159,-0.031 0.35,-0.018 0.503,-0.007 -0.134,-0.104 -0.337,-0.018 -0.589,-0.036l0.055 -0.036c0.049,-0.044 -0.233,0.067 -0.332,0.085 -0.165,-0.049 -0.043,-0.141 -0.252,-0.141 0.092,-0.037 0.191,-0.074 0.375,-0.062 -0.055,-0.061 -0.197,0.006 -0.313,-0.012 -0.073,-0.031 -0.068,-0.092 -0.161,-0.117l0.05 -0.037c0.123,0.031 0.553,0.111 0.627,0.123l-0.013 -0.006 0.056 -0.055c0.153,0.012 0.19,0.061 0.405,0.049 0.037,-0.056 -0.067,-0.056 -0.03,-0.111 0.092,-0.006 0.104,0.037 0.055,0.037 0.117,0.018 0.442,-0.031 0.528,0.018 -0.055,0.025 -0.055,0.086 -0.197,0.068 -0.11,-0.006 0.075,-0.024 0.014,-0.074 -0.211,-0.012 -0.087,0.068 -0.063,0.111 0.063,0 0.13,0 0.136,0.025 0.08,0 0.037,-0.062 0.141,-0.049 0.056,0.03 0.061,0.061 0.067,0.128 0.062,0 0.05,-0.043 0.062,-0.067 0.074,0 0.147,0 0.227,0.006 0.117,0.018 0.099,0.148 0.301,0.086l-0.129 -0.043c0.117,-0.012 0.16,-0.055 0.283,-0.068 -0.178,-0.03 -0.055,-0.024 -0.307,-0.067 -0.031,-0.086 0.099,-0.098 0.288,-0.08 -0.104,0.074 0.05,0.056 0.093,0 0.202,0.012 0.227,0.086 0.486,0.074 0.024,-0.037 -0.057,-0.037 -0.129,-0.043l0.097 -0.049c0.302,0.086 0.725,0.055 0.935,0.141 0.074,-0.025 0.098,-0.067 0.276,-0.043 -0.007,-0.049 -0.135,-0.093 -0.216,-0.062 -0.018,-0.049 0.031,-0.068 0.148,-0.055 0.147,-0.013 -0.117,-0.025 -0.178,-0.025 0.19,-0.134 0.824,0.019 0.516,0.148 0.05,0.006 0.092,0.006 0.142,0.006 -0.038,0.018 -0.087,0.025 -0.148,0.031 0.05,0.104 0.307,0.067 0.485,0.092 -0.116,-0.061 0.124,-0.074 0.246,-0.086 0.117,0.006 0.061,0.074 0.117,0.098 0.142,-0.037 0.196,-0.024 0.32,0.012 0.061,-0.085 0.049,-0.134 0.245,-0.122 -0.03,-0.049 0,-0.117 -0.154,-0.117 0.339,-0.006 0.689,-0.098 0.768,-0.271 0.124,-0.049 0.259,-0.024 0.363,0.013 -0.111,-0.129 -0.516,-0.037 -0.369,-0.233 0.124,-0.007 0.025,0.067 0.173,0.061 -0.068,-0.135 0.27,0.049 -0.098,0.03 0.085,0.099 0.411,-0.079 0.208,-0.123 0.037,-0.054 0.123,-0.018 0.228,-0.012 -0.031,-0.042 -0.209,-0.079 -0.308,-0.049 0.037,-0.012 0.031,-0.049 0.099,-0.049 -0.142,-0.055 -0.209,0.031 -0.461,0.019l0.147 -0.05c-0.073,-0.061 -0.344,0.019 -0.233,0.05 -0.061,-0.019 -0.166,-0.025 -0.221,-0.043l0.061 -0.074c-0.129,0.031 -0.111,0.043 -0.239,0.049 0.03,0.074 0.018,0.11 -0.203,0.105l0.085 0.054c-0.018,0.025 -0.122,0.013 -0.189,0.013 -0.118,0 0.061,-0.098 -0.118,-0.08 0.074,0.055 -0.03,0.055 0.019,0.117 0.178,-0.006 0.221,-0.018 0.32,0.03 -0.105,0.05 -0.271,-0.048 -0.326,0.026 -0.123,-0.007 -0.301,-0.087 -0.117,-0.099 -0.295,0.006 -0.578,-0.043 -1.038,-0.037 -0.068,-0.019 0.012,-0.024 -0.037,-0.074 -0.141,-0.006 -0.302,0.031 -0.406,-0.012 0.191,-0.043 -0.079,-0.154 0.153,-0.111 0.075,-0.043 -0.153,-0.018 -0.264,-0.043 0.037,-0.061 0.228,-0.025 0.32,-0.012 -0.007,-0.03 0.012,-0.049 0.068,-0.049 -0.11,-0.012 -0.228,-0.037 -0.264,-0.105l0.049 -0.036c0.135,0.031 0.251,0.068 0.393,0.092 0.068,-0.092 0.596,-0.172 0.596,-0.019 0.153,-0.03 0.246,-0.085 0.344,-0.141 0.117,0.092 0.357,0.024 0.553,0.061 -0.159,-0.086 0.154,-0.215 -0.196,-0.27 0.104,-0.067 -0.013,-0.11 0.037,-0.202 -0.234,-0.026 -0.364,0.006 -0.461,0.042 -0.056,-0.005 -0.038,-0.036 -0.038,-0.062 -0.233,0.007 -0.46,0.026 -0.565,0.093 -0.073,-0.043 -0.111,-0.099 -0.344,-0.086 -0.049,-0.049 0.148,-0.074 0.013,-0.092 0.11,-0.03 0.19,-0.049 0.423,-0.055 -0.227,-0.056 0.025,-0.074 -0.012,-0.191 0.203,0.08 0.307,0.031 0.626,0.043 -0.147,-0.08 -0.479,0.018 -0.528,-0.092 -0.08,0.025 -0.264,0 -0.411,0 -0.486,-0.221 0.559,-0.215 0.75,-0.363 0.036,0.013 0.098,0.025 0.177,0.025l0.05 -0.036c0.067,-0.056 -0.141,-0.019 -0.074,-0.081 0.129,0.006 0.092,-0.024 0.147,-0.086 0.356,0.056 0.682,0.062 0.836,-0.061 0.038,0.012 0.099,0.025 0.178,0.025 0,-0.08 0.191,-0.068 0.247,-0.124 0.03,-0.202 -0.346,-0.264 -0.425,-0.423 0.425,-0.056 0.553,0.067 1.032,0.073 -0.073,0.074 -0.185,0.111 -0.252,0.135 0.08,0.025 0.16,-0.049 0.185,0.013 0.123,-0.074 0.313,-0.123 0.65,-0.092 0.093,-0.044 -0.012,-0.056 0.063,-0.111 0.644,0.037 1.197,-0.031 1.67,-0.166 0.596,0.006 0.966,-0.221 0.966,-0.442 0.005,-0.111 -0.093,-0.216 -0.29,-0.295 -0.042,0.036 -0.104,0.068 -0.11,0.123 -0.233,-0.012 -0.326,0.037 -0.51,0.043 -0.411,-0.13 -0.879,-0.031 -1.352,-0.087l0.043 0.038c-0.399,0.018 -0.682,-0.044 -0.866,0.006 -0.08,-0.019 -0.123,-0.05 -0.215,-0.061 -0.128,-0.007 -0.123,0.049 -0.197,0.067 -0.14,-0.067 -0.793,0.037 -0.707,-0.117 -0.14,0.043 -0.202,0.018 -0.411,0.006 0.061,0.105 0.227,0.061 0.387,0.123 0.442,0.172 0.142,0.387 -0.233,0.553 -0.203,-0.006 -0.344,0.019 -0.511,0.037 -0.086,-0.018 -0.122,-0.061 -0.11,-0.116 0.4,0.146 0.688,-0.105 0.498,-0.24 -0.112,-0.013 -0.105,0.024 -0.228,0.006 -0.061,-0.006 -0.068,-0.031 -0.136,-0.044 0.124,-0.042 0.087,-0.061 0.167,-0.141 -0.092,0.007 -0.117,-0.018 -0.178,-0.024 0.491,-0.099 -0.099,-0.215 -0.172,-0.32 -0.067,0.025 -0.24,0.006 -0.215,-0.049 0.073,-0.049 0.172,0.031 0.313,0.013l-0.03 -0.074c-0.074,0.024 -0.234,0.006 -0.363,0.006 0,-0.055 0.147,-0.049 0.111,-0.129 -0.037,-0.012 -0.099,-0.025 -0.179,-0.025 0.068,-0.055 0.05,-0.068 -0.024,-0.11 0.043,-0.049 0.196,-0.044 0.283,-0.068 0.024,-0.153 -0.038,-0.184 0.055,-0.313 -0.049,-0.019 -0.16,-0.025 -0.215,-0.044 0.012,-0.03 0.085,-0.036 0.184,-0.03 0.025,-0.049 -0.172,-0.018 -0.117,-0.08 -0.122,0.013 -0.214,0.019 -0.27,-0.024 0.16,0.055 0.294,-0.222 -0.055,-0.191 -0.019,0.074 0.129,0.111 -0.037,0.184 -0.135,-0.073 -0.246,-0.097 -0.289,-0.177 0.246,-0.019 0.326,-0.154 -0.012,-0.166 0.037,-0.056 0.147,-0.074 0.202,-0.123l-0.129 -0.025c-0.018,-0.043 0.068,-0.031 0.142,-0.031 0.019,-0.055 -0.129,-0.049 -0.123,-0.098 0.134,-0.05 0.11,0.049 0.264,0.043 -0.185,-0.086 -0.148,-0.258 -0.246,-0.375 -0.11,-0.006 -0.128,-0.037 -0.27,-0.031 -0.012,-0.061 0.067,-0.073 0.153,-0.085 -0.14,-0.068 0.013,-0.154 -0.19,-0.216 -0.129,0.019 0,0.08 -0.018,0.111 -0.149,0.007 -0.185,-0.031 -0.216,-0.061 -0.141,0.068 0.173,0.122 0.24,0.178 -0.215,0.024 -0.319,0.19 -0.233,0.288 -0.117,0.031 -0.313,0.025 -0.461,0.037l0.092 -0.012c0,-0.073 -0.153,-0.086 -0.153,-0.154 -0.074,-0.012 -0.08,0.013 -0.136,0.013 -0.123,-0.025 0.012,-0.099 0.018,-0.129 -0.043,0.024 -0.221,0.098 -0.177,-0.006 -0.369,-0.049 -0.597,0.085 -0.818,-0.013 0.08,0.074 -0.019,0.142 -0.196,0.086 0.086,0.062 0.055,0.062 -0.024,0.117 0.178,0.025 0.325,-0.049 0.362,0.025 -0.037,0.055 -0.362,-0.037 -0.29,0.067 -0.178,-0.006 -0.226,-0.055 -0.393,-0.067 0.026,-0.062 0.124,-0.093 0.204,-0.123 -0.031,-0.037 -0.302,0.049 -0.412,-0.019 0.055,-0.061 0.092,-0.006 0.234,-0.006 0.073,-0.031 -0.02,-0.074 0.11,-0.111 -0.092,-0.068 -0.123,0.062 -0.197,0.068 -0.122,0.012 0.049,-0.086 -0.073,-0.073 0.122,-0.068 0.165,-0.049 0.288,-0.105 -0.123,-0.019 -0.16,-0.141 -0.258,-0.068 -0.148,-0.018 -0.018,-0.03 -0.03,-0.092 0.073,0 0.154,0.007 0.227,0.007 -0.123,-0.118 -0.301,0.049 -0.504,0.024 -0.012,-0.061 0.049,-0.086 0.19,-0.068 -0.073,-0.037 0.068,-0.055 -0.025,-0.098 -0.079,0.006 0.031,0.061 -0.104,0.074 -0.171,0.012 -0.061,-0.074 -0.215,-0.068 -0.036,0.044 -0.142,0.061 -0.067,0.092 -0.289,-0.024 -0.251,0.111 -0.553,0.074 0.067,-0.067 0.196,-0.117 0.302,-0.172 0.06,0.006 0.029,0.043 0.029,0.074 0.074,-0.007 0.124,-0.024 0.191,-0.031 -0.006,-0.037 -0.203,-0.012 -0.172,-0.061 0.111,0.018 0.08,-0.099 0.246,-0.105 -0.068,-0.067 -0.061,-0.074 -0.012,-0.166 -0.068,0.037 -0.203,0.037 -0.282,0.061 0,0.05 0.159,0.038 0.159,0.081 -0.105,0.024 -0.197,0.037 -0.056,0.073 -0.049,0.037 -0.356,-0.006 -0.19,0.068 -0.16,-0.012 -0.258,0 -0.369,0.006 0.031,0.098 0.018,0.239 -0.233,0.288 0.184,0.014 0.363,0.025 0.344,0.105l-0.135 0.019 0.024 0.092c0.172,-0.025 0.221,0.012 0.369,-0.006 0.037,-0.049 -0.086,-0.043 -0.08,-0.074 0.184,-0.092 0.473,0.037 0.621,0.074 -0.148,0.018 -0.246,0.067 -0.511,0.073 -0.03,0.081 0.062,0 0.178,0.025 0.007,0.068 -0.146,0.056 -0.196,0.086 -0.153,-0.018 0,-0.037 -0.08,-0.074 -0.202,0.037 -0.338,0.105 -0.399,0.209 -0.142,-0.031 -0.197,-0.012 -0.363,-0.012 0.13,0.056 -0.03,0.111 -0.036,0.202 -0.123,-0.012 -0.099,-0.079 -0.259,-0.079 0.062,-0.074 -0.122,-0.154 0.074,-0.166 -0.025,-0.031 -0.092,-0.037 -0.172,-0.043 0,0.067 -0.067,0.098 -0.117,0.142 -0.141,-0.032 -0.331,-0.063 -0.498,-0.032 -0.042,-0.08 0.118,-0.055 0.24,-0.049 -0.073,-0.018 -0.116,-0.074 -0.03,-0.092 -0.16,0.006 -0.399,-0.068 -0.504,0.018 -0.049,0.007 0.012,-0.104 0.068,-0.11 -0.093,-0.043 -0.259,-0.062 -0.394,-0.092 0.006,-0.037 0.123,-0.019 0.098,-0.068 -0.178,0.019 -0.227,-0.018 -0.362,0.006 -0.197,-0.067 0.159,-0.091 0.172,-0.184 0.111,0.018 0.135,0.012 0.264,0.049 0.172,-0.037 -0.202,-0.061 -0.031,-0.092 -0.068,-0.024 -0.104,-0.061 -0.215,-0.061 0.08,-0.019 0.087,-0.068 0.234,-0.049 0.037,-0.068 0.006,-0.105 -0.111,-0.118 0.258,-0.079 0.142,0.056 0.345,0.087 0,0.006 0.171,-0.129 -0.031,-0.136 0.196,0 0.448,-0.012 0.596,0.044 0,-0.087 0.105,-0.074 0.246,-0.123 -0.166,0 -0.179,0.018 -0.319,-0.013l-0.008 0.056c-0.258,-0.007 -0.201,-0.056 -0.404,-0.012 0.097,-0.068 0.362,-0.075 0.644,-0.049l0.056 -0.038 0.006 -0.037c-0.074,-0.012 -0.087,0.012 -0.141,0.012l0.146 -0.067c-0.017,-0.03 -0.061,-0.049 -0.121,-0.061 -0.154,0.043 -0.259,-0.006 -0.419,0.043 -0.036,0.055 0.202,0.018 0.215,0.061 -0.116,0.037 -0.319,-0.036 -0.497,-0.036l0.018 -0.093c0.037,-0.012 0.277,-0.061 0.062,-0.074 0.067,-0.067 0.091,0.013 0.227,0.013 0.061,-0.025 0.031,-0.074 -0.031,-0.099 0.166,-0.086 0.442,0.043 0.381,0.148 0.118,-0.055 0.073,-0.043 0.239,-0.049 0.056,-0.062 -0.135,-0.037 -0.22,-0.043 0.049,-0.031 0.018,-0.105 0.153,-0.093 -0.122,-0.091 -0.122,-0.196 0.007,-0.294 -0.087,0.03 -0.154,0.074 -0.246,0.104 -0.209,-0.025 -0.062,-0.061 -0.025,-0.117 -0.154,-0.006 -0.221,0.031 -0.325,0.05 -0.056,0.061 0.19,0.024 0.215,0.061l-0.099 0.049c-0.116,-0.018 -0.135,-0.08 -0.209,-0.117 -0.135,0.025 0.049,0.086 -0.025,0.148 -0.141,0.012 -0.079,-0.049 -0.221,-0.043 0.049,0.092 -0.239,0.154 -0.442,0.19 0.012,0.037 0.172,0.018 0.123,0.08 -0.037,0.074 -0.221,0.081 -0.344,0.117 0,0.074 0.178,-0.019 0.221,0.043 0,-0.031 0.08,-0.079 0.282,-0.062 -0.252,0.056 -0.435,0.154 -0.632,0.24 0.012,0.086 0.227,0.105 0.485,0.105 0.043,0.005 0.019,0.042 0.086,0.042l-0.227 -0.024c-0.074,0.067 -0.209,0.08 -0.332,0.08 0.012,0.025 0.049,0.037 0.129,0.042 -0.037,0.013 -0.086,0.025 -0.141,0.032 -0.129,-0.025 0.073,-0.049 -0.031,-0.074 -0.239,0.074 -0.455,0.012 -0.725,-0.025 0.086,0.037 0,0.099 -0.11,0.104 -0.259,0.007 -0.455,-0.159 -0.541,-0.017 0.104,0.079 0.804,0.042 0.651,0.153 0.074,0.031 0.337,-0.019 0.399,0.068 -0.024,0.037 -0.178,0.012 -0.153,0.073 -0.172,-0.012 -0.191,-0.073 -0.393,-0.073 0.141,0.049 0.043,0.135 -0.203,0.104 0.031,0.018 0.079,0.031 0.129,0.043 -0.086,0.031 -0.135,0.08 -0.246,0.105 -0.184,-0.056 -0.362,-0.117 -0.418,-0.222 -0.08,0 -0.036,0.062 -0.098,0.074 -0.381,0.006 -0.314,-0.148 -0.608,-0.172 0.012,-0.019 0.085,-0.013 0.135,-0.013 -0.148,-0.073 -0.283,-0.184 -0.179,-0.245 -0.22,-0.013 -0.073,0.154 -0.301,0.135 0.014,0.025 0.111,0.019 0.178,0.025 0.013,0.067 -0.055,0.091 -0.154,0.105 0.007,0.03 0.112,0.024 0.179,0.024 -0.179,0.098 -0.135,0.018 -0.073,0.147 -0.123,0.025 -0.283,0.031 -0.246,0.123 -0.246,0.043 -0.4,0.006 -0.688,0.012 -0.025,-0.049 0.073,-0.043 0.061,-0.086 -0.221,0.025 -0.074,0.105 -0.258,0.16 -0.08,-0.006 -0.012,-0.067 -0.073,-0.08 -0.068,0.013 -0.105,0.043 -0.112,0.086 -0.092,-0.006 0.007,-0.08 -0.073,-0.092 -0.172,0.006 -0.154,-0.006 -0.27,0.006 -0.283,-0.074 -0.375,-0.258 -0.43,-0.387 -0.111,0.006 -0.222,0.043 -0.179,-0.043 -0.11,0 -0.35,-0.025 -0.227,0.031 -0.153,-0.019 0,-0.044 -0.08,-0.074 -0.092,0.018 -0.104,0.08 -0.239,0.08 -0.111,-0.006 -0.012,-0.055 0.042,-0.055 -0.079,-0.019 -0.172,-0.019 -0.356,-0.007 0.184,-0.042 -0.03,-0.049 -0.086,-0.005 -0.049,-0.025 -0.074,-0.056 -0.221,-0.044 0.092,-0.055 0.178,-0.012 0.369,-0.006 -0.105,-0.049 0.061,-0.055 0.147,-0.068l-0.129 -0.061c-0.098,0.087 -0.104,-0.025 -0.234,0.043 -0.036,-0.08 -0.091,-0.019 -0.16,-0.116l0.05 -0.031c0.214,0.086 0.455,0.067 0.669,0.092l-0.042 -0.037c0.289,-0.006 0.35,0.061 0.62,0.098 0.012,-0.061 0.142,-0.067 0.282,-0.067 0.069,-0.055 -0.14,-0.019 -0.073,-0.074 -0.147,-0.018 -0.147,0.031 -0.227,-0.012 0.061,-0.044 0.233,0.012 0.313,0.012 0,-0.025 0.007,-0.049 0.062,-0.056 -0.221,0.012 -0.27,-0.116 -0.234,-0.245 -0.129,-0.025 -0.196,-0.062 -0.111,-0.117 -0.178,-0.025 -0.233,-0.03 -0.368,0.006 -0.055,-0.074 -0.522,-0.049 -0.325,-0.196 -0.05,-0.025 -0.16,-0.025 -0.271,-0.031 0.007,0.025 0.08,0.018 0.135,0.025 0,0.043 -0.049,0.055 -0.147,0.048 0.019,0.056 0.226,0.038 0.208,0.105 -0.129,0.031 -0.491,0.067 -0.552,0.018 -0.056,0.049 -0.129,0.062 -0.277,0.025 0,0.031 -0.037,0.049 -0.098,0.055 0.061,0.068 0.073,-0.043 0.184,-0.012 0.055,0.018 -0.129,0.099 -0.288,0.08l0.029 0.08c-0.256,-0.043 -0.416,0.074 -0.736,0.062 -0.154,-0.013 0.128,-0.068 -0.08,-0.056 -0.105,0.012 0.012,0.086 -0.332,0.061 0.019,0.068 -0.11,0.068 -0.11,0.13 -0.13,-0.007 -0.216,-0.031 -0.166,-0.099 -0.124,-0.031 -0.264,-0.012 -0.289,0.061 0.123,0.007 0.068,-0.073 0.239,-0.049 0.013,0.061 -0.27,0.087 -0.325,0.049 -0.012,0.019 0.005,0.05 0.123,0.062 -0.24,0.11 -0.726,-0.018 -0.848,0.154 -0.105,-0.074 -0.123,-0.025 -0.264,-0.049l0.098 -0.031c-0.11,-0.025 -0.338,0 -0.584,-0.037l0.013 -0.073c0.097,-0.007 0.085,0.03 0.079,0.054 0.117,0.013 0.179,-0.098 0.283,-0.024 -0.013,-0.006 -0.031,-0.153 0.024,-0.148 0.147,-0.055 0.627,0.08 0.805,0.062 -0.202,-0.062 -0.595,-0.148 -0.927,-0.141 -0.055,-0.019 0.061,-0.062 0.055,-0.074 0.018,-0.025 -0.258,-0.031 -0.08,-0.056 -0.024,-0.061 -0.142,0.007 -0.221,-0.012 0.117,-0.061 0.405,-0.055 0.386,-0.135 0.186,0.025 0.222,-0.024 0.37,-0.024 0.079,0.085 -0.486,0.073 -0.443,0.171 0.13,0.007 0.117,-0.049 0.24,-0.049 0.092,0.031 -0.116,0.08 -0.116,0.13 0.208,-0.025 0.301,-0.099 0.392,-0.172 0.105,0.024 0.087,0 0.227,0.024 -0.068,-0.031 -0.036,-0.086 0.098,-0.074 -0.073,-0.012 0.025,-0.086 -0.073,-0.092 0.13,0.024 0.086,-0.123 0.215,-0.16 0.21,0.074 0.351,0.05 0.584,0.037 0.099,0.05 -0.074,0.031 -0.061,0.092 0.086,-0.024 0.202,-0.037 0.202,-0.104 -0.16,-0.049 -0.393,-0.123 -0.577,-0.117 0.018,-0.037 0.123,-0.031 0.233,-0.025 -0.104,-0.054 -0.338,-0.006 -0.326,0.062 -0.203,-0.055 -0.301,-0.019 -0.491,-0.055 0.049,-0.05 0.067,-0.019 0.185,-0.013l-0.124 -0.08c-0.067,0.025 -0.11,0.093 -0.067,0.111l-0.093 0c-0.135,0 0.13,-0.049 -0.029,-0.055 -0.025,-0.043 -0.02,0.037 -0.106,0.067 -0.104,-0.037 -0.246,-0.11 -0.405,-0.012 0.129,0.006 0.294,0 0.357,0.031 -0.24,-0.013 -0.523,0.098 -0.744,0.086 0.055,-0.043 0.19,-0.043 0.239,-0.086 -0.104,-0.093 -0.516,-0.056 -0.792,-0.123l0.055 -0.074c-0.209,-0.012 -0.215,-0.018 -0.405,-0.012 0.043,-0.043 0.22,-0.025 0.246,-0.086 -0.142,0.006 -0.399,0.086 -0.456,0.006 0.038,-0.055 0.093,0.019 0.178,0.006 -0.128,-0.086 -0.17,-0.08 -0.349,-0.086 0.19,0.043 0.061,0.068 -0.025,0.13 -0.141,0.005 -0.073,-0.056 -0.215,-0.044 -0.117,0.056 -0.381,0.044 -0.479,0.111 0.332,-0.067 0.903,-0.062 1.266,0.043 -0.099,-0.013 -0.387,0.019 -0.627,-0.037 0.006,0.049 -0.178,0.006 -0.147,0.067 -0.437,-0.03 -0.713,0.006 -0.947,-0.067 -0.049,0 -0.043,0.031 -0.055,0.056 -0.202,-0.062 -0.381,0.011 -0.529,-0.074 -0.055,-0.074 0.197,0 0.148,-0.074 -0.111,-0.056 -0.142,0.019 -0.276,0.012 -0.13,-0.024 0.067,-0.049 0.018,-0.092 -0.184,-0.031 -0.258,-0.006 -0.368,0.043 -0.529,-0.062 -0.689,-0.111 -0.418,-0.239 0.153,0.011 0.189,0.061 0.258,0.104 -0.05,0.049 -0.142,-0.019 -0.228,-0.012 0.062,0.061 0.135,0.036 0.216,0.067 0.017,-0.031 0.055,-0.037 0.189,-0.049 -0.006,-0.031 -0.11,-0.018 -0.177,-0.025l-0.037 -0.042c0.08,-0.05 0.288,-0.038 0.313,0.03 0.043,-0.05 0.338,-0.043 0.313,0.031 0.092,-0.093 0.27,-0.104 0.467,-0.061 -0.024,0.036 -0.178,0.011 -0.154,0.073 0.247,0.043 0.455,0.012 0.646,-0.018 -0.062,-0.252 1.1,-0.167 1.536,-0.191 -0.061,-0.037 -0.185,-0.049 -0.215,-0.098 0.191,0.068 0.307,0.08 0.578,0.092l0.011 -0.074c-0.171,0.062 -0.411,0.013 -0.441,-0.068 0.177,-0.024 0.264,0.014 0.147,-0.092 0.209,-0.018 0.117,0.068 0.123,0.118 0.16,-0.032 0.24,-0.026 0.356,0.03 0.141,-0.012 0.068,-0.123 0.167,-0.16 -0.019,-0.061 -0.099,-0.104 -0.303,-0.104l0.02 -0.111c-0.124,-0.019 -0.118,0.018 -0.228,0.013 0.19,-0.068 0.025,-0.154 -0.196,-0.178 -0.043,0.049 0.079,0.042 0.079,0.079 -0.842,-0.086 -1.591,0.031 -2.157,0.092 -0.104,-0.03 -0.184,-0.073 -0.398,-0.067 0,0.03 -0.038,0.049 -0.099,0.049l0.129 0.025c-0.252,0.116 -0.381,0.085 -0.872,0.067 -0.025,-0.067 0.19,-0.019 0.153,-0.092 -0.117,0.025 -0.092,0.037 -0.233,0.012l0.037 0.056c-0.209,-0.062 -0.289,0.08 -0.498,0 -0.178,0.011 0.135,0.073 -0.013,0.073 0.013,0.043 0.222,0.019 0.307,0.031 -0.018,0.11 -0.307,0.012 -0.411,0.043 0.228,0.055 -0.147,0.055 -0.025,0.11 -0.282,-0.006 -0.282,-0.073 -0.454,0.006 -0.111,-0.006 -0.135,-0.036 -0.172,-0.067 -0.013,-0.025 0.147,-0.043 0.209,-0.025 -0.136,-0.085 -0.455,0.092 -0.811,0.099 0.189,0.135 0.62,-0.019 0.989,0.092 0.215,-0.085 0.264,0.061 0.492,0.019 -0.019,-0.05 -0.16,-0.05 -0.259,-0.068 0.16,-0.074 0.394,0.013 0.64,-0.012 -0.173,0.061 -0.37,0.116 -0.579,0.166 -0.141,0.005 -0.073,-0.056 -0.22,-0.05l-0.007 0.055c-0.184,0.013 -0.147,-0.061 -0.356,-0.049 0.178,0.049 -0.031,0.056 -0.025,0.135 -0.263,0 -0.079,-0.054 -0.166,-0.098 -0.337,-0.03 -0.577,0.019 -0.86,0.007 -0.061,-0.013 -0.03,-0.05 -0.03,-0.081 0.116,0.037 0.338,0.074 0.449,0.019 -0.056,0.018 -0.523,-0.067 -0.253,-0.104 -0.148,-0.024 -0.172,-0.024 -0.35,-0.105l0.03 0.074c-0.067,0.007 -0.074,-0.019 -0.128,-0.019l0.018 -0.061c-0.344,0.129 -0.743,0.258 -1.21,0.363 -1.309,0.301 -2.894,0.153 -3.656,0.049 -0.375,0.012 -0.768,-0.044 -1.143,0.073 -0.055,-0.012 0.074,-0.073 -0.074,-0.092 0.013,0.105 -0.38,0.062 -0.541,0 0.216,0.129 -0.46,0.068 -0.656,0.105l0.08 0.043c-0.136,0.024 -0.271,0.006 -0.351,-0.05 -0.105,-0.006 -0.031,0.062 -0.068,0.092 -0.418,-0.036 -0.731,0.099 -1.186,0.031 0.025,0.056 -0.086,0.05 -0.061,0.111 -0.123,-0.006 -0.264,-0.019 -0.283,0.024 -0.055,0.006 -0.146,-0.055 -0.03,-0.055 -0.038,-0.049 -0.098,0.049 -0.234,0.012 -0.086,0.032 0.031,0.037 -0.055,0.074 -0.166,-0.067 -0.473,0.006 -0.534,-0.074 -0.068,0.123 -0.246,0.086 -0.473,0.111 0.024,0.043 0.252,0.018 0.356,0.031 0.037,0.068 -0.123,0.092 -0.247,0.086 0.093,0.098 0.308,-0.049 0.499,0.037 -0.099,0.03 -0.351,-0.006 -0.332,0.08 -0.141,0 -0.123,-0.062 -0.314,-0.05 -0.129,-0.018 0.111,-0.024 0.062,-0.073 -0.172,0.055 -0.234,0.061 -0.387,0.141 0.098,-0.006 0.165,0.006 0.171,0.043l-0.054 0.049c-0.185,-0.061 -0.197,0.012 -0.407,-0.03 0.118,0.042 0.093,0.116 -0.146,0.085 -0.142,0.031 0.227,0.025 0.307,0.031 -0.252,0.062 -0.455,0.037 -0.732,0.031 0,0.061 -0.122,0.086 0.075,0.099 -0.252,0.018 -0.468,-0.019 -0.523,-0.13 -0.129,0 -0.369,0.08 -0.412,0 -0.055,-0.067 0.16,-0.006 0.148,-0.049 -0.142,-0.073 -0.196,0.104 -0.387,0.117 -0.056,0.006 -0.141,-0.055 -0.037,-0.055 -0.067,-0.037 -0.185,0.042 -0.055,0.073 -0.099,0.056 -0.339,-0.073 -0.284,0.062 -0.115,-0.031 -0.091,-0.099 -0.115,-0.117 -0.105,0 -0.419,0.018 -0.547,0.018 0.073,0.062 0.214,-0.012 0.355,0.013 0.013,0.037 -0.017,0.061 -0.097,0.055 0.104,0.068 0.171,0.013 0.184,-0.012 0.123,0 0.11,0.043 0.123,0.08 -0.781,-0.019 -1.985,0.141 -2.827,0.049 0.104,0.134 -0.737,0.122 -0.829,0.049 -0.063,0.012 -0.073,0.061 -0.148,0.068 -0.092,-0.08 -0.165,0.017 -0.313,-0.032 -0.172,0.025 0.184,0 0.08,0.063 -0.142,0.085 -0.197,-0.075 -0.363,-0.014l0.086 0.038c-0.14,0.043 -0.516,0.049 -0.491,-0.055 -0.142,0.104 -0.086,0.177 -0.356,0.214 -0.142,0.007 -0.08,-0.055 -0.222,-0.042 -0.061,0.055 -0.294,0.061 -0.418,0.036 -0.092,0.191 -0.645,0.049 -0.842,0.124 -0.257,-0.075 -1.056,-0.044 -1.185,0.012 0.08,0.061 0.159,0.024 0.234,-0.007 0.104,0.019 -0.105,0.074 0.122,0.074 -0.054,-0.024 -0.048,-0.067 0.013,-0.092 0.036,0.062 0.257,0.018 0.411,0.018l0.08 0.037c-0.074,0.104 -0.572,0.074 -0.639,0.037 -0.073,0.013 -0.289,0.061 -0.363,0.006 -0.178,0.037 0.16,0.043 0.265,0.043l-0.018 0.074c-0.117,0 -0.087,-0.062 -0.215,-0.062 0.178,0.093 -0.118,0.062 -0.326,0.044 -0.006,0.079 0.344,0.03 0.492,0.055 -0.081,0.061 -0.056,0.049 -0.155,0.086 0.044,-0.098 -0.804,-0.092 -0.952,-0.031 -0.332,-0.08 -0.927,-0.006 -1.167,-0.08 0.074,-0.043 0.166,-0.024 0.276,-0.005 0.056,-0.056 -0.098,-0.038 -0.172,-0.044 -0.03,-0.061 0.074,-0.055 0.148,-0.073 0.03,0.073 0.196,0 0.166,0.068 0.067,-0.014 0.098,-0.038 0.11,-0.075 -0.08,0 -0.154,-0.006 -0.227,-0.006 0.019,-0.055 0.252,0 0.239,-0.067 -0.51,0.024 -0.418,0.049 -1.001,0 0.043,0.055 0.166,0.055 0.067,0.116 0.167,0.032 0.209,-0.006 0.313,0.049 -0.067,0.062 -0.079,0.056 -0.116,0.105 -0.049,-0.006 -0.018,-0.019 0.007,-0.019 -0.086,-0.068 -0.395,0.037 -0.399,-0.049 -0.075,0.044 -0.099,0.031 -0.228,0.013 0.055,0.043 -0.092,0.055 -0.092,0.067 -0.216,-0.006 -0.547,-0.036 -0.824,-0.024 0.559,0.122 -0.965,0.08 -1.235,0.012 -0.27,0.068 -0.959,-0.006 -1.272,-0.006 -0.049,0.049 -0.209,0.049 -0.325,0.061 -0.135,-0.03 0.227,-0.037 0.055,-0.092 -0.049,0.037 -0.098,0.074 -0.277,0.049l0.037 0.056c-0.148,-0.043 -0.405,-0.05 -0.503,0.018 -0.468,-0.068 -0.922,0.006 -1.315,-0.025 0.049,0.056 -0.258,0.086 -0.227,-0.024 -0.086,0.037 -0.16,0.024 -0.105,0.092 -0.289,-0.025 -0.442,0.012 -0.731,-0.012 0.037,-0.043 0.325,-0.068 0.417,-0.019 0.148,-0.055 -0.325,-0.037 -0.35,-0.086l-0.005 0.056c-0.185,-0.031 -0.302,0 -0.585,-0.062 -0.386,0.08 -0.651,0.148 -1.05,0.037l0.104 -0.086c0.141,0.024 -0.024,0.074 0.215,0.08 -0.196,-0.08 0.345,-0.154 0.277,-0.043 0.172,-0.105 0.57,-0.067 0.823,-0.013l-0.03 -0.073c0.042,-0.044 0.356,0.073 0.325,-0.044 0.086,0.007 0.105,0.044 0.215,0.044 -0.025,-0.019 -0.074,-0.03 -0.123,-0.044 0.092,-0.054 0.191,-0.012 0.411,-0.024 -0.067,-0.025 -0.171,-0.043 -0.214,-0.08 -0.209,0.043 -0.479,0.013 -0.541,-0.018 -0.092,0 -0.098,0.049 -0.19,0.049 -0.148,0 -0.123,-0.061 -0.215,-0.08 -0.136,0.031 -0.191,0.024 -0.363,0.007 -0.049,0.055 0.148,0.03 0.123,0.079 0,0.043 -0.08,0.055 -0.148,0.067 -0.037,-0.012 -0.073,-0.024 -0.134,-0.024 -0.019,-0.025 0.184,-0.037 0.055,-0.055 -0.185,0.055 -0.222,0.093 -0.467,0.079 -0.037,-0.006 -0.043,-0.018 -0.093,-0.024 -0.042,-0.061 0.155,-0.006 0.111,-0.067 -0.172,0.018 -0.295,0.11 -0.461,0.018 0.05,-0.049 0.136,0.031 0.27,0.012 0.111,-0.092 -0.202,-0.036 -0.215,-0.08 -0.086,0.08 -0.27,0.019 -0.454,0 0.055,0.068 0.215,0.025 0.215,0.08 -0.117,0.012 -0.369,-0.018 -0.43,0.099 0.068,-0.007 0.313,-0.08 0.319,0.011 0.08,-0.011 0.093,-0.061 0.154,-0.085 0.135,-0.006 0.461,0.111 0.406,0.012 0.08,0.006 0.098,0.038 0.073,0.073l-0.314 -0.005c-0.104,0.024 0.124,0.068 -0.024,0.129 -0.074,-0.061 -0.092,-0.019 -0.184,0.012 -0.264,-0.006 0.049,-0.104 -0.209,-0.104l0.074 0.098c-0.074,0 -0.153,-0.006 -0.227,-0.006 -0.056,-0.105 -0.37,-0.031 -0.584,-0.025 -0.037,-0.08 0.203,-0.031 0.153,-0.123 0.147,-0.006 0.044,0.068 0.222,0.05 -0.025,-0.061 0.091,-0.056 0.067,-0.111l-0.129 -0.061c-0.35,0.006 -0.596,0.061 -0.879,0.097 -0.184,-0.036 -0.804,-0.054 -1.031,0.044 0.14,-0.044 0.663,-0.062 0.743,0.043 0.258,-0.019 0.447,-0.093 0.645,-0.038 -0.006,0.081 -0.209,0.032 -0.11,0.112 -0.124,0.006 -0.167,-0.013 -0.13,-0.062 -0.073,0 -0.147,-0.006 -0.227,-0.006l0.037 0.074c-0.326,-0.104 -0.952,-0.055 -1.451,-0.031 -0.147,-0.019 -0.055,-0.073 -0.023,-0.111 -0.088,0 -0.099,-0.031 -0.179,-0.025 0.122,0.056 -0.037,0.068 0.018,0.13 -0.141,-0.081 -0.215,-0.037 -0.491,-0.037 0.123,0.068 -0.173,0.055 -0.16,0.123l-0.08 -0.006 0.615 0.793 0.049 0c0.209,-0.105 0.632,0.011 1.038,0.054l-0.055 0.068c0.234,0.013 0.454,0.135 0.694,0.196 0.087,-0.006 -0.098,-0.061 -0.172,-0.061 0.116,-0.092 0.276,0.018 0.4,0.031 -0.019,-0.037 -0.13,-0.043 -0.031,-0.074 0.184,0.025 0.313,0.061 0.337,0.142 0.13,-0.019 0.234,0 0.357,0.03 -0.24,0.111 -0.719,-0.024 -0.866,0.025 -0.068,-0.031 -0.277,-0.136 -0.314,-0.031 -0.062,-0.012 -0.104,-0.03 -0.122,-0.062 -0.087,-0.006 0.098,0.13 -0.154,0.093 -0.019,0.049 0.105,0.055 0.214,0.061 -0.011,-0.067 0.057,-0.092 0.161,-0.104 0.098,0.018 0.098,0.129 -0.024,0.129 -0.044,0.037 0.349,0.012 0.171,0.043 0.153,0.037 0.485,-0.018 0.528,0.092 -0.387,0.111 -0.823,0.067 -1.191,0.05 -0.129,0.012 -0.057,0.03 -0.057,0.073 -0.164,-0.012 -0.257,0.012 -0.368,0.024 0.093,0.019 0.086,0.074 0.21,0.087 -0.056,0.037 -0.284,-0.006 -0.412,0 0.055,0.079 -0.362,0.092 -0.393,0.19 -0.166,-0.012 -0.394,-0.006 -0.615,-0.019l-0.067 0.049c0.184,0.007 0.368,0.013 0.534,0.007 0.068,0.006 0.037,0.043 0.037,0.074 0.092,-0.056 0.27,-0.012 0.363,-0.007 -0.123,0.08 -0.541,0.062 -0.738,0.049 -0.036,0.062 -0.141,0.093 -0.166,0.161 0.092,-0.019 0.216,-0.019 0.24,-0.062 0.492,0.141 0.817,-0.099 1.217,0.055 0.061,0 0.049,-0.042 0.061,-0.074 0.111,0.006 0.136,0.038 0.172,0.068 0.049,0.006 0.013,-0.092 0.098,-0.036 0.08,-0.026 -0.024,-0.081 0.148,-0.087 0.061,0.006 0.068,0.037 0.129,0.043 -0.025,0.025 -0.08,0.037 -0.141,0.05 0.11,0.024 0.467,-0.006 0.467,-0.099 -0.056,0 -0.118,0 -0.178,-0.006 0.011,-0.037 0.122,-0.037 0.233,-0.03 -0.031,-0.044 -0.031,-0.05 0.019,-0.093 0.097,0.006 0.134,0.025 0.122,0.061 0.068,-0.005 0.092,-0.036 0.105,-0.067 -0.295,-0.018 -0.713,0.006 -0.947,-0.056 0.043,-0.055 -0.037,-0.067 -0.024,-0.11 0.117,-0.074 0.467,-0.031 0.651,-0.074 -0.092,0.074 -0.006,0.062 0.086,0.025 0.049,0.006 0.141,0.086 0.024,0.092 0.111,0.025 0.142,0.067 0.21,0.105 0.393,0.011 0.202,-0.123 0.564,-0.111l-0.03 -0.061c0.208,0.055 0.215,0.036 0.406,0 0.092,0.018 -0.044,0.092 -0.062,0.122 -0.24,-0.073 -0.59,0.08 -0.885,0.105 0.227,0.03 0.411,0.074 0.523,0.147l0.012 -0.092c0.135,0 0.129,0.043 0.264,0.043l-0.036 -0.055c0.196,0.031 0.153,0.006 0.319,-0.006 0.116,0 0.141,0.03 0.172,0.061 -0.184,0.012 -0.344,0.037 -0.511,0.055 0.044,0.012 0.148,0.025 0.222,0.044 0.067,0.011 0.111,0.03 0.037,0.061 -0.055,-0.006 -0.031,-0.037 -0.037,-0.061 -0.258,0.061 -0.571,0.073 -0.719,-0.044 -0.233,-0.006 0.24,0.117 -0.111,0.111 0.209,0.092 0.498,0.061 0.848,0.086 -0.141,0.031 0.099,0.043 0.007,0.055 0.073,0 0.27,-0.03 0.245,0.061 0.178,-0.005 0.185,-0.005 0.363,0.013 -0.811,0.012 -1.702,-0.062 -2.458,0.012 -0.086,-0.062 -0.24,-0.043 -0.363,-0.03 -0.098,-0.007 0,-0.08 -0.024,-0.117 -0.117,0.012 -0.16,-0.012 -0.123,-0.055 -0.104,0 -0.215,0 -0.197,0.067 0.56,0.006 -0.079,0.191 -0.35,0.172 0.092,0.031 -0.116,0.086 0.123,0.08 -0.19,0.043 -0.307,-0.006 -0.405,-0.037l-0.012 0.074c0.245,-0.012 0.565,0.012 0.626,0.061 -0.067,0.031 -0.356,-0.012 -0.448,-0.03 0.018,0.049 -0.197,0.086 -0.381,0.098l0.073 0.092c0.062,-0.03 0.086,-0.08 0.197,-0.086 0.037,0.105 0.129,-0.018 0.264,0.05 0.099,-0.007 0.105,-0.025 0.061,-0.056 0.203,-0.006 0.246,0.043 0.4,0.012 0.117,0.013 -0.062,0.031 -0.013,0.074 0.597,0 0.812,-0.043 1.235,-0.03 0.068,-0.093 0.13,-0.124 0.517,-0.093 0.006,0.049 -0.178,0.007 -0.147,0.068 -0.117,0.018 -0.216,-0.05 -0.228,-0.006 0,0.079 0.399,0.037 0.497,0.037l-0.036 -0.062c0.246,0.025 0.424,0.073 0.553,-0.019 0.418,-0.036 0.233,0.099 0.412,0.221 0.006,0.093 -0.161,-0.005 -0.148,0.068l0.037 0.037c0.086,0 0.092,-0.049 0.233,-0.024 0.049,0.006 0.024,0.037 0.086,0.037 -0.042,0.03 -0.123,0.036 -0.233,0.03 -0.061,0.068 0.203,0.025 0.165,0.08 0.087,-0.012 0.013,-0.031 0.006,-0.055 0.252,-0.025 0.24,0.098 0.406,0.049 -0.154,-0.062 -0.417,-0.086 -0.368,-0.215 -0.074,-0.007 -0.085,0.012 -0.142,0.012 -0.011,-0.123 -0.11,-0.117 0,-0.24 0.118,0.007 0.24,0.007 0.356,0.013l-0.054 0.074c0.135,0.012 0.104,-0.062 0.153,-0.093 -0.172,0.006 -0.191,-0.036 -0.362,-0.03l0.055 -0.056c0.222,0.037 0.559,0.154 0.811,0.069 -0.08,-0.026 -0.301,-0.019 -0.221,-0.063 -0.307,-0.036 -0.541,-0.018 -0.989,-0.036 0.055,-0.117 0.688,0.036 0.743,-0.086 0.227,0.092 0.454,0.012 0.854,0.067 -0.031,0.025 -0.068,0.037 -0.148,0.031 -0.036,0.049 0.227,-0.031 0.362,0.012l-0.054 0.037c0.054,0.025 0.282,-0.037 0.417,-0.043 0.154,0.049 -0.042,0.093 0.265,0.068 -0.276,0.098 -0.676,0.043 -1.044,0 0.03,0.061 -0.154,0.018 -0.191,0.049 0.185,0.062 0.27,-0.031 0.498,0.018 -0.129,0.05 -0.388,0.031 -0.351,0.153 0.074,-0.061 0.339,-0.146 0.529,-0.146 0.049,0.006 0.024,0.037 0.086,0.037 0.314,0.012 0.516,-0.044 0.725,-0.013 -0.043,0.037 -0.166,0.03 -0.233,0.049 0.215,0.037 0.607,-0.073 0.909,-0.006 0,0.062 -0.191,0.03 -0.24,0.067 0.215,-0.042 0.602,0.074 0.768,0.044 0.123,0.024 -0.08,0.049 0.03,0.079 0.068,-0.03 0.234,-0.012 0.363,-0.006 0.104,-0.073 -0.049,-0.178 -0.246,-0.141 0.037,-0.117 0.185,-0.043 0.37,-0.043l-0.013 0.074c0.153,-0.044 0.265,0.067 0.454,0.012 0.013,-0.037 -0.159,-0.012 -0.221,-0.024 0.05,-0.068 0.27,-0.032 0.455,-0.019 0.062,-0.006 0.049,-0.043 0.062,-0.073 0.104,-0.025 0.159,0.055 0.178,0.006 0.116,0.006 -0.068,0.03 -0.013,0.073 0.191,-0.006 0.344,-0.037 0.596,-0.019 0.012,-0.043 0.093,-0.054 -0.031,-0.073 0.043,-0.024 0.148,-0.024 0.234,-0.031 -0.252,0.111 0.148,0.031 0.301,0.086 0.031,-0.018 0.031,-0.049 0.147,-0.067 0.148,0.031 -0.024,0.073 0.124,0.08 0.067,-0.007 -0.013,-0.025 0.006,-0.062 0.239,-0.018 0.092,0.086 0.263,0.086 -0.036,-0.116 0.05,0.006 0.038,0.037l-0.233 0.03c0.03,0.038 0.276,0 0.362,-0.005 -0.032,-0.019 -0.013,-0.049 -0.08,-0.056 0.025,-0.043 0.129,-0.037 0.19,-0.049 0.166,0.019 -0.11,0.099 0.025,0.11 0.203,0.019 -0.056,-0.054 0.148,-0.03 -0.013,-0.049 -0.129,-0.061 -0.118,-0.116 -0.14,-0.013 -0.184,0.017 -0.282,0.024 -0.006,-0.086 0.166,-0.068 0.282,-0.043 -0.147,-0.129 0.222,-0.031 0.283,-0.031 0.24,0 0.689,-0.086 0.806,0.05 0.011,0.03 -0.038,0.03 -0.093,0.03l0.031 0.079c0.141,0.019 0.073,-0.061 0.147,-0.073 0.086,0.024 0.228,-0.006 0.264,0.068 0.216,-0.08 0.437,-0.007 0.633,-0.019 0.013,0.05 -0.086,0.037 -0.055,0.092 0.178,-0.018 -0.006,0.087 0.173,0.062 0,-0.055 -0.093,-0.08 -0.069,-0.147l0.093 0c0.098,0 0.005,0.067 0.024,0.098 0.105,-0.074 0.32,0.03 0.332,-0.068 0.16,0.049 0.197,0.024 0.363,-0.006 -0.025,0.049 -0.074,0.086 -0.154,0.111 0.056,0.055 0.166,-0.031 0.147,-0.074 0.301,0.012 0.701,-0.056 0.904,0.067 0.128,-0.018 0.234,-0.043 0.332,-0.079 0.129,0.03 -0.08,0.067 0.024,0.092 0.179,0.018 0.135,0.018 0.319,0.012 0.038,-0.055 -0.073,-0.061 0.019,-0.092 0.11,0.012 0.203,0.031 0.258,0.067 -0.239,0 -0.08,0.068 -0.148,0.049 -0.104,0.019 0.062,0.093 0.216,0.08 -0.191,-0.036 -0.037,-0.08 0.024,-0.147 -0.043,0.086 0.16,0.055 0.203,0.135 0.442,0.049 0.651,-0.068 1.087,0.043 -0.073,0.049 -0.239,-0.055 -0.239,0.043 0.178,0.006 0.319,-0.006 0.374,-0.061 0.087,0.043 0.038,0.036 0.142,0.006 0.129,0.037 -0.142,0.049 -0.074,0.129l0.086 0.037c0.32,-0.006 0.688,0 0.848,0.085 -0.105,0.05 -0.313,-0.055 -0.32,0.025 -0.116,0 -0.14,-0.03 -0.172,-0.061 -0.134,0.012 0.05,0.049 -0.018,0.093l-0.092 0c-0.037,-0.203 -0.584,0.012 -0.922,0.061 0.031,-0.068 0.252,-0.043 0.252,-0.123 -0.092,0 -0.178,-0.007 -0.27,-0.007 -0.044,-0.055 0.227,-0.043 0.013,-0.055 -0.025,-0.055 0.096,-0.036 0.14,-0.055 -0.111,-0.092 -0.246,0.086 -0.319,0.012 -0.074,0.222 -0.793,0.11 -1.382,0.117 0,-0.049 0.116,-0.049 0.233,-0.049 -0.185,-0.049 -0.448,0.03 -0.516,0.099 0.111,0 0.215,0 0.27,0.023 -0.08,0.056 -0.197,-0.017 -0.319,-0.011 -0.049,-0.019 -0.025,-0.056 0.018,-0.111 -0.123,0.006 -0.086,0.092 -0.239,0.086l0.03 0.055c0.178,0.025 0.301,0.019 0.59,0.043 0.172,-0.123 0.879,-0.073 1.37,-0.03 -0.086,0.043 -0.245,-0.013 -0.153,0.067 -0.191,0.018 -0.191,-0.031 -0.308,-0.043 0.154,0.092 -0.559,0.08 -0.295,0.117 -0.11,0.062 -0.22,-0.025 -0.214,-0.062 -0.068,0.006 -0.124,0.025 -0.192,0.031l0.173 0.062c-0.08,0.042 -0.252,0.036 -0.375,0.061 -0.092,-0.006 0.062,-0.061 0.148,-0.049l-0.092 -0.006c-0.068,-0.006 0.043,-0.031 -0.038,-0.037 -0.245,0.129 -0.565,0.135 -0.804,0.159 0.172,-0.104 0.46,-0.043 0.566,-0.153 -0.063,0.031 -0.234,-0.006 -0.228,0.056 -0.197,-0.019 -0.233,-0.044 -0.357,-0.05 0.019,-0.043 0.13,-0.037 0.191,-0.049 0.172,-0.019 0.123,0.049 0.264,0.043l0.018 -0.092c-0.147,0.061 -0.116,-0.006 -0.27,-0.031 -0.092,0.111 -0.467,0.086 -0.491,0.227 -0.209,0.019 -0.406,-0.073 -0.412,0.025 0.227,0.006 0.258,-0.012 0.448,0.012 -0.018,-0.037 0.209,-0.055 0.105,-0.068 0.043,-0.03 0.147,-0.024 0.233,-0.03 0.049,0.086 -0.159,0.043 -0.154,0.105 0.093,0.018 0.117,0.054 0.265,0.048 -0.037,0.013 -0.092,0.025 -0.148,0.031l-0.03 0.018 0.208 0.007c0.062,-0.025 0.191,-0.05 0.112,-0.086 0.061,-0.025 0.221,0 0.232,-0.049 0.068,0.031 0.056,0.085 0.216,0.079 0.049,-0.086 0.338,-0.03 0.43,-0.135 -0.018,0.068 0.184,0.012 0.325,-0.005 0.08,0 0.063,0.104 -0.061,0.073 0.105,0.037 0.301,0.056 0.479,0.11 0.074,-0.012 0.08,-0.061 0.191,-0.049 0.061,0.08 -0.135,0.092 -0.332,0.098 -0.074,-0.061 -0.197,-0.067 -0.393,-0.103 0.031,0.011 0.08,0.103 -0.018,0.109 -0.019,0.032 0.246,0.044 0.183,-0.012l0.087 0.019c0,0.055 -0.203,0.049 0.036,0.055 -0.092,0.037 -0.085,0.013 -0.06,0.074 -0.155,-0.087 -0.253,0.006 -0.295,-0.123 -0.166,0.006 0.103,0.099 -0.106,0.074l0.087 0.025c-0.025,0.024 -0.141,0.006 -0.105,0.067 -0.11,-0.061 -0.228,-0.117 -0.282,-0.196 -0.154,0.011 -0.025,0.036 -0.062,0.092 -0.111,-0.031 -0.135,-0.043 -0.074,-0.092 -0.092,0 -0.141,-0.013 -0.129,-0.044 -0.147,-0.018 -0.209,0.006 -0.32,0.006l0.178 0.006c0.063,0.007 0.032,0.049 0.039,0.074 -0.185,-0.067 -0.468,0.037 -0.492,-0.055 -0.099,-0.019 -0.161,0.086 -0.234,0.013 -0.172,0.024 0.105,0.03 0.037,0.073 0.043,-0.018 0.166,0.006 0.141,-0.049 0.178,0.049 0.523,0.037 0.572,0.129 0.153,0.037 0.036,-0.061 0.141,-0.049 0.055,0.006 0.024,0.018 0,0.018 0.018,0.056 0.098,-0.012 0.184,0.007 -0.233,0.11 -0.522,0.024 -0.731,-0.007 0.08,0.049 -0.172,0.068 -0.203,0.123 -0.061,-0.018 -0.141,-0.031 -0.122,-0.074 -0.13,0.012 0.054,0.05 -0.056,0.068 0.117,0.037 0.092,0.129 0.302,0.086 -0.167,0.08 -0.48,-0.031 -0.689,0.031 0.049,0.049 0.239,0.049 0.351,0.067 -0.136,0 -0.241,0.037 -0.505,0.025 -0.011,-0.074 0.08,-0.098 0.16,-0.129 -0.061,-0.043 -0.245,0.037 -0.129,-0.056 -0.209,0.007 -0.099,0.043 -0.105,0.105 -0.061,0.05 -0.263,0 -0.27,-0.025 0.019,-0.03 0.136,0.019 0.185,-0.03 -0.043,-0.062 -0.093,-0.037 -0.258,-0.068 -0.013,0.061 -0.203,0.037 -0.203,0.105 -0.079,0 -0.092,-0.025 -0.178,-0.025 0.042,0.061 0.013,0.049 -0.062,0.093 -0.24,0.024 -0.448,-0.124 -0.245,-0.142 -0.025,-0.025 -0.093,-0.037 -0.172,-0.043l0.03 0.08c-0.141,-0.007 -0.258,-0.13 -0.319,-0.012 0.116,0 0.147,-0.031 0.227,0.005 -0.025,0.037 -0.21,-0.005 -0.147,0.068 -0.179,0.019 -0.258,-0.031 -0.37,0.025 -0.134,-0.013 -0.201,-0.043 -0.208,-0.098 0.049,-0.056 0.055,0.042 0.178,0.024 -0.031,-0.031 -0.154,-0.074 -0.264,-0.062 0.043,0.105 0.123,0.123 0.099,0.222 0.208,-0.031 0.27,-0.043 0.546,-0.019 -0.165,0.061 -0.552,0.043 -0.774,0.012 0.068,0.081 0.319,0.062 0.448,0.037 0.136,0.044 -0.258,0.056 -0.11,0.105 -0.344,-0.049 -0.553,0.006 -0.818,0.012 -0.135,-0.018 0.05,-0.037 0.013,-0.073 -0.141,-0.019 -0.185,0.031 -0.27,-0.012l0.135 -0.014c0.103,-0.018 -0.098,-0.067 -0.216,-0.061l0.228 0.006c0.055,0.013 -0.025,-0.104 0.091,-0.036 0.112,-0.013 -0.109,-0.049 -0.023,-0.111 -0.031,0.049 -0.259,0.012 -0.283,0.062 -0.16,-0.019 0.007,-0.043 -0.025,-0.111 -0.061,0.043 -0.177,0.068 -0.375,0.043 0.044,0.055 0.234,0.061 0.351,0.086 -0.227,0.012 -0.356,-0.037 -0.597,0.018 -0.06,-0.006 0.007,-0.03 0.056,-0.036 -0.147,-0.08 -0.203,0.049 -0.368,0.025 -0.105,0 0.024,-0.05 0.098,-0.032 0.03,-0.067 -0.247,-0.018 -0.264,-0.067 -0.148,0.024 0.08,0.061 0.073,0.099l-0.049 0.036c-0.19,0 -0.172,-0.08 -0.27,-0.012 0.03,-0.141 -0.59,-0.049 -0.431,-0.148 -0.14,-0.018 -0.103,0.049 -0.189,0.049l-0.087 -0.018c0.007,-0.024 0.08,-0.012 0.136,-0.012 -0.21,-0.074 -0.406,0.03 -0.639,0.012l0.005 -0.037c0.093,-0.043 0.234,0.037 0.363,-0.006 -0.172,-0.068 0.074,-0.012 0.234,-0.012 0.061,-0.105 -0.234,0.012 -0.216,-0.08 -0.264,0.049 -0.534,0.08 -0.62,0.166 -0.062,-0.006 -0.024,-0.05 -0.031,-0.074 -0.067,0.012 -0.147,0.019 -0.147,0.068 0.061,0 0.129,0 0.129,0.024l-0.216 -0.049c-0.098,0.006 -0.098,0.049 -0.189,0.055 -0.056,-0.049 -0.155,-0.079 -0.308,-0.086 -0.098,0.08 0.16,0.037 0.166,0.08 -0.11,0.019 -0.35,0.044 -0.406,-0.018 -0.374,0.153 -0.848,-0.098 -1.142,0.018 -0.136,-0.092 -0.356,-0.068 -0.523,-0.129 -0.16,0.031 0.129,0.049 0.129,0.08 -0.043,0.055 -0.527,-0.043 -0.374,0.043 -0.209,-0.018 -0.51,-0.092 -0.676,-0.043 0.129,0.037 0.424,0.031 0.35,0.086 0.006,0.055 -0.11,-0.037 -0.135,0.007 0,-0.05 -0.221,-0.038 -0.24,0.036 -0.061,-0.012 -0.105,-0.031 -0.172,-0.043 0.283,-0.025 0.092,-0.037 -0.122,-0.061l-0.063 0.092c-0.417,-0.086 -0.835,0.024 -1.314,-0.043 0.08,0.036 -0.031,0.03 -0.012,0.092 0.055,0 0.116,0 0.178,0.006l-0.129 -0.043c0.184,-0.043 0.289,0 0.546,0 0.099,0.012 -0.018,0.099 0.068,0.117 0.025,-0.056 0.067,-0.105 0.252,-0.123 0.202,0.067 0.081,0.024 0.307,0.067l0.007 -0.055c0.141,0.012 0.171,-0.018 0.275,-0.012 0.142,0.012 0.044,0.105 0.21,0.105 -0.056,-0.068 0.018,-0.056 0.11,-0.093 0.148,0.062 0.148,0.012 0.357,0.012 0.043,-0.049 -0.08,-0.043 -0.074,-0.079l0.049 -0.031c0.295,0.031 0.061,0.141 0.431,0.141 0.018,0.05 -0.363,0.056 -0.315,-0.012 -0.079,-0.049 -0.024,0.056 -0.017,0.074 -0.117,0.012 -0.16,-0.012 -0.123,-0.056 -0.16,0.086 -0.443,0.018 -0.566,0.093 -0.129,-0.031 0.105,-0.08 -0.024,-0.117 -0.093,0.012 -0.13,0.048 -0.148,0.092 -0.209,-0.012 -0.424,-0.018 -0.485,-0.074 -0.147,0.012 0.006,0.062 0.03,0.074 -0.049,0.055 -0.324,-0.024 -0.324,0.006 -0.044,-0.061 -0.21,-0.068 -0.493,-0.05l0.086 0.038c-0.264,0.031 -0.675,0.098 -0.86,-0.031 -0.061,0.031 -0.16,0.043 -0.154,0.111 -0.165,-0.012 -0.307,-0.012 -0.326,0.042l-0.085 -0.024c0.025,-0.086 0.332,-0.037 0.344,-0.136 -0.485,0.062 -0.86,0.118 -1.425,0.062l0.037 0.062c-0.056,-0.025 -0.412,-0.098 -0.449,-0.018 0.166,-0.049 0.196,0.054 0.356,0.012 -0.03,0.037 -0.079,0.067 -0.233,0.049 -0.024,0.147 0.326,0.03 0.368,-0.025 0.277,0.018 0.24,0.031 0.406,0.031 -0.08,0.067 -0.276,0.074 -0.387,0.117 -0.03,-0.074 -0.424,0 -0.669,-0.08 -0.124,0.049 0.344,0.042 0.294,0.123z"/>
   <g>
    <path class="fil1" d="M20.859 3.02c0,0.399 -0.071,0.81 -0.214,1.224 -0.143,0.417 -0.334,0.825 -0.579,1.23 -0.246,0.403 -0.534,0.791 -0.862,1.165 -0.329,0.374 -0.677,0.719 -1.045,1.039 -0.368,0.317 -0.751,0.599 -1.147,0.848 -0.394,0.248 -0.78,0.445 -1.153,0.59 -0.06,-0.091 -0.137,-0.197 -0.232,-0.322 -0.091,-0.126 -0.188,-0.257 -0.297,-0.394 -0.105,-0.137 -0.211,-0.274 -0.319,-0.411 -0.111,-0.134 -0.214,-0.263 -0.314,-0.38 0.796,-0.311 1.513,-0.682 2.143,-1.11 0.634,-0.431 1.171,-0.882 1.616,-1.353 0.442,-0.471 0.782,-0.947 1.019,-1.43 0.237,-0.482 0.357,-0.93 0.357,-1.35 0,-0.054 -0.009,-0.114 -0.026,-0.174 -0.017,-0.063 -0.046,-0.114 -0.086,-0.16 -0.037,-0.045 -0.088,-0.077 -0.154,-0.097 -0.063,-0.017 -0.14,-0.017 -0.228,0.006 -0.263,0.054 -0.551,0.16 -0.865,0.308 -0.317,0.151 -0.648,0.34 -0.996,0.565 -0.348,0.226 -0.711,0.485 -1.088,0.782 -0.376,0.294 -0.756,0.614 -1.141,0.954 -0.206,0.645 -0.443,1.33 -0.711,2.052 -0.268,0.722 -0.557,1.441 -0.871,2.158 -0.311,0.716 -0.639,1.412 -0.981,2.086 -0.343,0.674 -0.691,1.293 -1.045,1.852 -0.354,0.56 -0.708,1.045 -1.062,1.456 -0.354,0.408 -0.696,0.702 -1.024,0.882 -0.083,0.043 -0.186,0.086 -0.306,0.126 -0.12,0.037 -0.268,0.065 -0.448,0.082 -0.066,0.006 -0.146,-0.022 -0.237,-0.082 -0.091,-0.063 -0.185,-0.14 -0.28,-0.234 -0.097,-0.098 -0.191,-0.203 -0.285,-0.32 -0.094,-0.117 -0.183,-0.229 -0.263,-0.334 -0.082,-0.106 -0.148,-0.2 -0.202,-0.283 -0.052,-0.085 -0.086,-0.14 -0.103,-0.168 -0.046,-0.083 -0.068,-0.183 -0.071,-0.297 -0.003,-0.114 0.008,-0.228 0.037,-0.34 0.111,-0.373 0.268,-0.782 0.468,-1.227 0.203,-0.448 0.437,-0.913 0.708,-1.401 0.268,-0.488 0.571,-0.991 0.902,-1.504 0.331,-0.517 0.688,-1.031 1.07,-1.539 0.382,-0.511 0.785,-1.013 1.204,-1.51 0.423,-0.496 0.854,-0.97 1.302,-1.421 0.283,-0.888 0.517,-1.727 0.702,-2.518 0.183,-0.79 0.291,-1.481 0.326,-2.066 0.222,0.088 0.433,0.203 0.636,0.343 0.2,0.139 0.38,0.285 0.542,0.436 0.163,0.149 0.303,0.3 0.426,0.451 0.122,0.151 0.222,0.283 0.294,0.4 -0.012,0.097 -0.026,0.191 -0.043,0.291 -0.017,0.097 -0.037,0.2 -0.066,0.311 0.562,-0.362 1.116,-0.645 1.658,-0.848 0.546,-0.202 1.074,-0.305 1.587,-0.305 0.106,0 0.22,0.034 0.346,0.1 0.125,0.068 0.254,0.154 0.379,0.265 0.129,0.109 0.254,0.229 0.374,0.363 0.12,0.134 0.226,0.268 0.323,0.405 0.094,0.137 0.171,0.265 0.228,0.385 0.06,0.12 0.091,0.217 0.097,0.297l0 0.126zm-12.107 10.509c0.128,0 0.299,-0.14 0.516,-0.425 0.22,-0.286 0.463,-0.671 0.734,-1.162 0.268,-0.491 0.556,-1.062 0.856,-1.715 0.303,-0.651 0.599,-1.345 0.896,-2.073 -0.442,0.523 -0.85,1.042 -1.227,1.556 -0.377,0.511 -0.702,0.999 -0.976,1.459 -0.277,0.459 -0.494,0.881 -0.648,1.27 -0.157,0.388 -0.237,0.719 -0.237,0.99 0,0.069 0.028,0.1 0.086,0.1zm13.169 -0.802c0,0.034 0.017,0.051 0.048,0.051 0.052,0 0.135,-0.037 0.252,-0.108 0.117,-0.074 0.251,-0.166 0.402,-0.277 0.151,-0.111 0.311,-0.237 0.479,-0.377 0.172,-0.14 0.334,-0.277 0.491,-0.408 0.155,-0.134 0.297,-0.257 0.423,-0.368 0.125,-0.111 0.22,-0.2 0.288,-0.26 0.049,0.049 0.111,0.117 0.189,0.2 0.074,0.083 0.142,0.16 0.202,0.225 -0.131,0.123 -0.294,0.274 -0.479,0.449 -0.189,0.177 -0.389,0.359 -0.603,0.548 -0.214,0.188 -0.436,0.376 -0.665,0.565 -0.228,0.185 -0.451,0.351 -0.668,0.496 -0.216,0.146 -0.425,0.263 -0.619,0.354 -0.194,0.094 -0.365,0.14 -0.511,0.14 -0.1,0 -0.208,-0.02 -0.328,-0.06 -0.12,-0.037 -0.231,-0.091 -0.331,-0.163 -0.1,-0.068 -0.186,-0.151 -0.251,-0.245 -0.069,-0.094 -0.1,-0.203 -0.1,-0.32 0,-0.042 -0.003,-0.097 -0.006,-0.162 -0.003,-0.063 0.003,-0.146 0.014,-0.252 0.012,-0.102 0.032,-0.228 0.066,-0.373 0.034,-0.149 0.083,-0.332 0.151,-0.548 -0.185,0.194 -0.399,0.396 -0.648,0.61 -0.248,0.212 -0.508,0.411 -0.782,0.603 -0.274,0.188 -0.548,0.359 -0.824,0.513 -0.274,0.152 -0.531,0.269 -0.765,0.346 -0.029,0.011 -0.049,0.017 -0.066,0.017 -0.017,0 -0.034,0 -0.051,0 -0.055,0 -0.129,-0.029 -0.22,-0.083 -0.094,-0.057 -0.183,-0.131 -0.274,-0.223 -0.089,-0.091 -0.166,-0.196 -0.229,-0.314 -0.065,-0.117 -0.097,-0.234 -0.097,-0.351 0,-0.031 0.018,-0.145 0.052,-0.334 0.031,-0.188 0.111,-0.431 0.237,-0.722 0.125,-0.294 0.311,-0.622 0.556,-0.987 0.246,-0.366 0.58,-0.739 1.005,-1.125 0.217,-0.194 0.451,-0.379 0.702,-0.551 0.211,-0.145 0.454,-0.294 0.728,-0.445 0.271,-0.148 0.559,-0.268 0.859,-0.36 0.011,0 0.023,-0.002 0.031,-0.008 0.006,-0.006 0.02,-0.003 0.037,0.008 0.066,0.023 0.146,0.058 0.237,0.106 0.092,0.049 0.186,0.097 0.277,0.151 0.092,0.052 0.172,0.106 0.243,0.157 0.068,0.055 0.114,0.097 0.137,0.132 0.006,0.011 0.006,0.02 0,0.022l-0.017 0.018c-0.251,0.134 -0.488,0.285 -0.711,0.448 -0.223,0.165 -0.42,0.319 -0.594,0.465 -0.199,0.171 -0.385,0.342 -0.559,0.508 -0.408,0.402 -0.688,0.751 -0.845,1.042 -0.157,0.294 -0.234,0.502 -0.234,0.631 0,0.097 0.04,0.142 0.117,0.142 0.077,0 0.177,-0.031 0.297,-0.094 0.12,-0.066 0.254,-0.151 0.405,-0.26 0.151,-0.108 0.317,-0.237 0.5,-0.385 0.18,-0.148 0.368,-0.303 0.562,-0.465 0.174,-0.14 0.34,-0.288 0.502,-0.451 0.14,-0.134 0.286,-0.286 0.434,-0.46 0.151,-0.174 0.28,-0.348 0.385,-0.528 0,-0.005 0.003,-0.011 0.009,-0.014 0.006,-0.006 0.014,-0.006 0.026,0 0.06,0.043 0.131,0.117 0.208,0.22 0.077,0.103 0.151,0.217 0.217,0.339 0.068,0.123 0.126,0.24 0.171,0.354 0.049,0.115 0.072,0.203 0.072,0.266 -0.129,0.26 -0.226,0.499 -0.297,0.713 -0.069,0.214 -0.123,0.403 -0.157,0.565 -0.037,0.163 -0.06,0.3 -0.069,0.414 -0.008,0.115 -0.011,0.203 -0.011,0.263zm6.156 -2.726c-0.074,0.217 -0.165,0.465 -0.274,0.745 -0.108,0.277 -0.211,0.551 -0.314,0.819 -0.099,0.269 -0.185,0.511 -0.254,0.728 -0.068,0.217 -0.105,0.374 -0.105,0.468 0,0.034 0.017,0.049 0.051,0.049 0.063,0 0.154,-0.035 0.277,-0.109 0.123,-0.071 0.263,-0.165 0.422,-0.282 0.157,-0.117 0.323,-0.246 0.497,-0.386 0.171,-0.14 0.34,-0.276 0.497,-0.414 0.16,-0.136 0.302,-0.259 0.431,-0.371 0.128,-0.111 0.225,-0.196 0.294,-0.251 0.048,0.049 0.108,0.114 0.179,0.191 0.069,0.078 0.135,0.152 0.195,0.217 -0.12,0.123 -0.274,0.274 -0.46,0.449 -0.183,0.177 -0.382,0.356 -0.596,0.539 -0.215,0.183 -0.437,0.368 -0.668,0.551 -0.234,0.185 -0.46,0.348 -0.68,0.494 -0.219,0.145 -0.425,0.262 -0.613,0.351 -0.189,0.091 -0.349,0.134 -0.477,0.134 -0.083,0 -0.191,-0.029 -0.317,-0.089 -0.128,-0.057 -0.251,-0.131 -0.368,-0.217 -0.117,-0.085 -0.22,-0.182 -0.303,-0.288 -0.082,-0.105 -0.125,-0.208 -0.125,-0.308 0.086,-0.374 0.168,-0.699 0.251,-0.979 0.083,-0.28 0.163,-0.517 0.234,-0.716 0.074,-0.197 0.137,-0.357 0.194,-0.48 0.054,-0.123 0.097,-0.214 0.126,-0.277 -0.069,-0.026 -0.132,-0.057 -0.194,-0.091 -0.06,-0.034 -0.123,-0.066 -0.183,-0.1 -0.091,0.094 -0.188,0.194 -0.297,0.3 -0.108,0.105 -0.22,0.214 -0.331,0.319 -0.111,0.106 -0.223,0.209 -0.334,0.309 -0.111,0.099 -0.211,0.194 -0.302,0.276l-0.4 -0.411c0.143,-0.139 0.317,-0.308 0.522,-0.505 0.203,-0.197 0.403,-0.397 0.597,-0.599 -0.14,-0.083 -0.266,-0.163 -0.377,-0.237 -0.111,-0.074 -0.205,-0.143 -0.282,-0.206 -0.095,-0.065 -0.18,-0.128 -0.252,-0.182 -0.034,-0.017 -0.051,-0.054 -0.051,-0.109 0,-0.062 0.026,-0.151 0.071,-0.265 0.049,-0.114 0.109,-0.237 0.18,-0.366 0.074,-0.131 0.151,-0.265 0.234,-0.402 0.086,-0.137 0.166,-0.26 0.243,-0.374 0.08,-0.111 0.148,-0.2 0.205,-0.271 0.06,-0.069 0.097,-0.103 0.114,-0.103 0.009,0 0.049,0.015 0.112,0.04 0.065,0.029 0.131,0.06 0.205,0.097 0.072,0.037 0.14,0.077 0.2,0.123 0.063,0.043 0.1,0.083 0.117,0.114 0.006,0.029 0.012,0.089 0.017,0.177 0.006,0.089 0.012,0.197 0.017,0.325 0.217,0.112 0.44,0.24 0.668,0.383 0.229,0.14 0.44,0.277 0.628,0.405 0.223,0.143 0.434,0.291 0.637,0.443 0.071,0.045 0.117,0.1 0.137,0.168 0.02,0.066 0.02,0.123 0.005,0.174zm2.321 3.922c-0.094,0 -0.217,-0.043 -0.371,-0.129 -0.154,-0.088 -0.303,-0.194 -0.448,-0.319 -0.143,-0.126 -0.269,-0.254 -0.377,-0.388 -0.106,-0.135 -0.157,-0.249 -0.157,-0.343 0,-0.168 0.046,-0.431 0.137,-0.793 0.091,-0.363 0.214,-0.777 0.365,-1.242 0.149,-0.465 0.32,-0.965 0.514,-1.493 0.191,-0.531 0.385,-1.05 0.579,-1.555l-1.178 0 -0.009 0c-0.006,0 -0.008,-0.006 -0.008,-0.017 0,-0.035 0.014,-0.083 0.039,-0.146 0.023,-0.066 0.055,-0.131 0.092,-0.203 0.037,-0.068 0.077,-0.134 0.125,-0.191 0.046,-0.06 0.095,-0.097 0.137,-0.114l1.088 -0.049c0.157,-0.379 0.305,-0.73 0.448,-1.05 0.143,-0.32 0.268,-0.594 0.38,-0.822 0.028,-0.063 0.057,-0.128 0.088,-0.197 0.031,-0.071 0.074,-0.14 0.134,-0.208 0.057,-0.072 0.137,-0.143 0.234,-0.22 0.097,-0.074 0.229,-0.151 0.397,-0.228 0.123,-0.063 0.271,-0.129 0.448,-0.203 0.174,-0.071 0.348,-0.137 0.517,-0.2 0.171,-0.06 0.325,-0.111 0.465,-0.154 0.14,-0.043 0.24,-0.063 0.3,-0.063 0.057,0 0.085,0.012 0.085,0.035l0 0.014c0,0.006 -0.005,0.02 -0.017,0.043 -0.034,0.057 -0.094,0.177 -0.185,0.365 -0.089,0.185 -0.2,0.42 -0.329,0.702 -0.131,0.28 -0.276,0.602 -0.436,0.962 -0.157,0.36 -0.323,0.739 -0.488,1.139l2.006 -0.074c0.057,0 0.071,0.034 0.052,0.099 -0.023,0.069 -0.066,0.146 -0.126,0.235 -0.063,0.091 -0.134,0.182 -0.214,0.276 -0.08,0.095 -0.149,0.169 -0.206,0.217 -0.011,0.012 -0.034,0.023 -0.065,0.035 -0.035,0.011 -0.077,0.017 -0.126,0.017l-1.655 0c-0.203,0.485 -0.394,0.976 -0.577,1.47 -0.185,0.496 -0.351,0.967 -0.494,1.415 -0.145,0.446 -0.262,0.854 -0.348,1.228 -0.085,0.374 -0.128,0.679 -0.128,0.919 0,0.034 0.017,0.051 0.048,0.051 0.063,0 0.154,-0.034 0.277,-0.106 0.123,-0.068 0.26,-0.159 0.414,-0.271 0.154,-0.111 0.317,-0.234 0.488,-0.368 0.174,-0.134 0.34,-0.265 0.494,-0.397 0.157,-0.131 0.297,-0.251 0.422,-0.359 0.126,-0.109 0.223,-0.191 0.288,-0.246 0.052,0.049 0.112,0.114 0.18,0.191 0.072,0.078 0.137,0.152 0.197,0.217 -0.122,0.123 -0.277,0.274 -0.459,0.449 -0.186,0.177 -0.383,0.356 -0.6,0.539 -0.214,0.183 -0.436,0.368 -0.668,0.551 -0.231,0.185 -0.456,0.348 -0.676,0.494 -0.22,0.145 -0.425,0.262 -0.617,0.351 -0.188,0.091 -0.348,0.134 -0.476,0.134zm3.648 0c-0.086,0 -0.192,-0.029 -0.32,-0.089 -0.129,-0.057 -0.248,-0.131 -0.366,-0.217 -0.117,-0.085 -0.219,-0.182 -0.302,-0.288 -0.083,-0.105 -0.126,-0.208 -0.126,-0.308 0.057,-0.246 0.132,-0.528 0.226,-0.845 0.094,-0.32 0.197,-0.642 0.305,-0.97 0.109,-0.329 0.223,-0.651 0.343,-0.965 0.12,-0.317 0.228,-0.597 0.328,-0.842 0.097,-0.246 0.183,-0.442 0.254,-0.594 0.071,-0.151 0.12,-0.225 0.143,-0.225 0.031,0 0.117,0.037 0.251,0.108 0.131,0.072 0.274,0.16 0.422,0.263 0.146,0.105 0.28,0.214 0.397,0.328 0.117,0.114 0.174,0.211 0.174,0.297 0,0.017 -0.003,0.037 -0.008,0.063 -0.006,0.023 -0.015,0.057 -0.026,0.094 -0.043,0.14 -0.1,0.305 -0.171,0.494 -0.069,0.191 -0.143,0.385 -0.22,0.59 -0.08,0.203 -0.157,0.406 -0.234,0.611 -0.08,0.203 -0.149,0.394 -0.209,0.571 -0.062,0.18 -0.114,0.334 -0.151,0.468 -0.04,0.134 -0.06,0.231 -0.06,0.294 0,0.034 0.017,0.049 0.052,0.049 0.06,0 0.154,-0.035 0.274,-0.109 0.122,-0.071 0.265,-0.165 0.422,-0.282 0.16,-0.117 0.325,-0.246 0.5,-0.386 0.171,-0.14 0.336,-0.276 0.496,-0.414 0.16,-0.136 0.303,-0.259 0.431,-0.371 0.129,-0.111 0.226,-0.196 0.294,-0.251 0.049,0.049 0.109,0.114 0.177,0.191 0.071,0.078 0.137,0.152 0.197,0.217 -0.123,0.123 -0.274,0.274 -0.459,0.449 -0.183,0.177 -0.383,0.356 -0.597,0.539 -0.214,0.183 -0.44,0.368 -0.671,0.551 -0.231,0.185 -0.454,0.348 -0.67,0.494 -0.22,0.145 -0.423,0.262 -0.611,0.351 -0.192,0.091 -0.351,0.134 -0.485,0.134zm3.31 -7.892c-0.005,0.02 -0.025,0.074 -0.062,0.163 -0.038,0.085 -0.08,0.185 -0.129,0.299 -0.051,0.114 -0.108,0.234 -0.174,0.36 -0.063,0.126 -0.126,0.243 -0.185,0.348 -0.063,0.106 -0.12,0.191 -0.177,0.263 -0.058,0.068 -0.1,0.105 -0.135,0.105 -0.1,-0.005 -0.222,-0.037 -0.362,-0.094 -0.143,-0.054 -0.28,-0.117 -0.411,-0.188 -0.131,-0.069 -0.243,-0.137 -0.334,-0.203 -0.091,-0.068 -0.137,-0.114 -0.137,-0.143 0,-0.117 0.031,-0.268 0.1,-0.456 0.066,-0.186 0.145,-0.368 0.234,-0.543 0.088,-0.176 0.18,-0.328 0.271,-0.456 0.091,-0.129 0.163,-0.191 0.214,-0.191 0.1,0 0.223,0.031 0.368,0.094 0.143,0.065 0.286,0.14 0.423,0.222 0.134,0.083 0.251,0.166 0.351,0.246 0.097,0.083 0.145,0.14 0.145,0.174zm0.443 8.052c-0.1,0 -0.214,-0.032 -0.343,-0.097 -0.128,-0.063 -0.259,-0.152 -0.394,-0.26 -0.131,-0.109 -0.262,-0.237 -0.388,-0.383 -0.125,-0.148 -0.228,-0.302 -0.314,-0.465 -0.031,-0.063 -0.054,-0.131 -0.065,-0.208 -0.012,-0.08 -0.018,-0.18 -0.018,-0.303 0,-0.317 0.049,-0.636 0.146,-0.956 0.1,-0.322 0.234,-0.628 0.405,-0.916 0.174,-0.291 0.383,-0.562 0.625,-0.816 0.243,-0.254 0.506,-0.471 0.791,-0.657 0.283,-0.182 0.588,-0.328 0.911,-0.434 0.322,-0.105 0.65,-0.16 0.987,-0.16 0.049,0 0.117,0.029 0.203,0.08 0.088,0.055 0.18,0.126 0.282,0.214 0.1,0.089 0.2,0.189 0.303,0.3 0.105,0.111 0.197,0.226 0.282,0.34 0.083,0.114 0.152,0.225 0.203,0.334 0.054,0.108 0.08,0.205 0.08,0.288 -0.029,0.106 -0.114,0.223 -0.26,0.348 -0.142,0.126 -0.314,0.243 -0.513,0.351 -0.197,0.109 -0.406,0.2 -0.623,0.271 -0.217,0.072 -0.408,0.109 -0.568,0.109 -0.094,0 -0.142,-0.029 -0.142,-0.083 0,-0.063 0.042,-0.151 0.125,-0.271 0.083,-0.12 0.177,-0.251 0.28,-0.394 0.103,-0.143 0.197,-0.285 0.28,-0.425 0.082,-0.143 0.125,-0.266 0.125,-0.366 0,-0.048 -0.011,-0.091 -0.037,-0.125 -0.026,-0.034 -0.06,-0.049 -0.106,-0.049 -0.122,0 -0.251,0.055 -0.382,0.166 -0.134,0.111 -0.268,0.26 -0.402,0.442 -0.135,0.186 -0.263,0.397 -0.386,0.634 -0.122,0.237 -0.228,0.479 -0.322,0.731 -0.092,0.251 -0.166,0.502 -0.22,0.753 -0.057,0.251 -0.086,0.48 -0.086,0.685 0,0.123 0.037,0.209 0.112,0.254 0.071,0.049 0.182,0.072 0.334,0.072 0.373,0 0.733,-0.063 1.081,-0.189 0.349,-0.125 0.682,-0.285 1.005,-0.485 0.32,-0.197 0.625,-0.42 0.913,-0.665 0.291,-0.246 0.565,-0.488 0.822,-0.734 0.06,0.072 0.135,0.143 0.226,0.212 0.088,0.071 0.154,0.131 0.2,0.179 -0.346,0.363 -0.714,0.708 -1.099,1.034 -0.388,0.325 -0.797,0.61 -1.225,0.853 -0.431,0.243 -0.882,0.434 -1.353,0.577 -0.471,0.142 -0.961,0.214 -1.475,0.214zm5.286 -0.16c-0.086,0 -0.191,-0.029 -0.32,-0.089 -0.128,-0.057 -0.248,-0.131 -0.365,-0.217 -0.117,-0.085 -0.22,-0.182 -0.303,-0.288 -0.083,-0.105 -0.125,-0.208 -0.125,-0.308 0.057,-0.246 0.131,-0.528 0.225,-0.845 0.094,-0.32 0.197,-0.642 0.306,-0.97 0.108,-0.329 0.222,-0.651 0.342,-0.965 0.12,-0.317 0.228,-0.597 0.328,-0.842 0.097,-0.246 0.183,-0.442 0.254,-0.594 0.072,-0.151 0.12,-0.225 0.143,-0.225 0.031,0 0.117,0.037 0.251,0.108 0.131,0.072 0.274,0.16 0.423,0.263 0.145,0.105 0.279,0.214 0.396,0.328 0.117,0.114 0.174,0.211 0.174,0.297 0,0.017 -0.002,0.037 -0.008,0.063 -0.006,0.023 -0.014,0.057 -0.026,0.094 -0.043,0.14 -0.1,0.305 -0.171,0.494 -0.069,0.191 -0.143,0.385 -0.22,0.59 -0.08,0.203 -0.157,0.406 -0.234,0.611 -0.08,0.203 -0.148,0.394 -0.208,0.571 -0.063,0.18 -0.114,0.334 -0.151,0.468 -0.04,0.134 -0.06,0.231 -0.06,0.294 0,0.034 0.017,0.049 0.051,0.049 0.06,0 0.154,-0.035 0.274,-0.109 0.123,-0.071 0.265,-0.165 0.422,-0.282 0.16,-0.117 0.326,-0.246 0.5,-0.386 0.171,-0.14 0.337,-0.276 0.496,-0.414 0.16,-0.136 0.303,-0.259 0.431,-0.371 0.129,-0.111 0.226,-0.196 0.294,-0.251 0.049,0.049 0.109,0.114 0.177,0.191 0.072,0.078 0.137,0.152 0.197,0.217 -0.122,0.123 -0.274,0.274 -0.459,0.449 -0.183,0.177 -0.383,0.356 -0.597,0.539 -0.214,0.183 -0.439,0.368 -0.67,0.551 -0.232,0.185 -0.454,0.348 -0.671,0.494 -0.22,0.145 -0.423,0.262 -0.611,0.351 -0.191,0.091 -0.351,0.134 -0.485,0.134zm3.311 -7.892c-0.006,0.02 -0.026,0.074 -0.063,0.163 -0.037,0.085 -0.08,0.185 -0.129,0.299 -0.051,0.114 -0.108,0.234 -0.174,0.36 -0.062,0.126 -0.125,0.243 -0.185,0.348 -0.063,0.106 -0.12,0.191 -0.177,0.263 -0.057,0.068 -0.1,0.105 -0.134,0.105 -0.1,-0.005 -0.223,-0.037 -0.363,-0.094 -0.142,-0.054 -0.28,-0.117 -0.411,-0.188 -0.131,-0.069 -0.242,-0.137 -0.334,-0.203 -0.091,-0.068 -0.137,-0.114 -0.137,-0.143 0,-0.117 0.032,-0.268 0.1,-0.456 0.066,-0.186 0.146,-0.368 0.234,-0.543 0.089,-0.176 0.18,-0.328 0.271,-0.456 0.092,-0.129 0.163,-0.191 0.214,-0.191 0.1,0 0.223,0.031 0.369,0.094 0.142,0.065 0.285,0.14 0.422,0.222 0.134,0.083 0.251,0.166 0.351,0.246 0.097,0.083 0.146,0.14 0.146,0.174zm1.564 4.347c0.3,-0.374 0.576,-0.682 0.828,-0.925 0.251,-0.242 0.47,-0.434 0.665,-0.576 0.191,-0.143 0.353,-0.24 0.488,-0.297 0.134,-0.057 0.234,-0.083 0.302,-0.083 0.089,0 0.186,0.031 0.291,0.1 0.106,0.066 0.212,0.148 0.314,0.243 0.103,0.094 0.2,0.191 0.289,0.291 0.088,0.102 0.165,0.182 0.225,0.242 0.063,0.063 0.1,0.129 0.114,0.197 0.014,0.072 0.02,0.143 0.02,0.214 0,0.263 -0.046,0.548 -0.134,0.856 -0.088,0.312 -0.205,0.617 -0.351,0.92 -0.146,0.305 -0.308,0.593 -0.494,0.867 -0.183,0.271 -0.371,0.503 -0.559,0.694 0.162,-0.069 0.328,-0.149 0.496,-0.249 0.172,-0.097 0.34,-0.199 0.508,-0.311 0.166,-0.111 0.332,-0.228 0.491,-0.348 0.163,-0.12 0.317,-0.24 0.463,-0.357 0.339,-0.265 0.668,-0.553 0.984,-0.859l0.377 0.408c-0.182,0.175 -0.388,0.357 -0.613,0.554 -0.226,0.194 -0.463,0.385 -0.708,0.577 -0.246,0.188 -0.494,0.371 -0.748,0.542 -0.254,0.174 -0.497,0.325 -0.731,0.46 -0.234,0.134 -0.454,0.239 -0.653,0.319 -0.2,0.077 -0.374,0.117 -0.517,0.117 -0.103,0 -0.228,-0.031 -0.377,-0.088 -0.151,-0.06 -0.297,-0.129 -0.439,-0.214 -0.143,-0.083 -0.266,-0.174 -0.369,-0.272 -0.102,-0.097 -0.154,-0.185 -0.154,-0.262 0,-0.046 0.029,-0.086 0.089,-0.123 0.057,-0.034 0.143,-0.1 0.254,-0.197 0.111,-0.094 0.245,-0.237 0.402,-0.425 0.154,-0.188 0.331,-0.465 0.525,-0.828 0.106,-0.2 0.206,-0.408 0.303,-0.622 0.094,-0.217 0.177,-0.417 0.248,-0.602 0.075,-0.189 0.132,-0.348 0.172,-0.485 0.042,-0.137 0.062,-0.232 0.062,-0.28 0,-0.052 -0.005,-0.086 -0.02,-0.106 -0.014,-0.02 -0.025,-0.034 -0.037,-0.045 -0.023,-0.006 -0.042,-0.006 -0.057,0 -0.08,0.022 -0.237,0.145 -0.474,0.371 -0.236,0.225 -0.513,0.551 -0.833,0.97 -0.317,0.422 -0.654,0.933 -1.01,1.539 -0.357,0.605 -0.694,1.295 -1.014,2.069 -0.259,0.748 -0.522,1.504 -0.785,2.266 -0.262,0.765 -0.519,1.524 -0.767,2.283l-2.127 0.503c0.326,-0.919 0.66,-1.833 1.008,-2.74 0.351,-0.905 0.696,-1.81 1.039,-2.717 0.342,-0.905 0.679,-1.813 1.01,-2.721 0.331,-0.91 0.648,-1.821 0.951,-2.734 0.017,-0.063 0.031,-0.105 0.045,-0.131 0.015,-0.026 0.043,-0.037 0.089,-0.037 0.088,0.028 0.197,0.08 0.325,0.154 0.129,0.077 0.254,0.163 0.38,0.26 0.125,0.097 0.24,0.197 0.339,0.296 0.1,0.1 0.169,0.186 0.209,0.26 0.011,0.017 0.008,0.046 -0.003,0.089 -0.014,0.04 -0.031,0.085 -0.049,0.137l-0.282 0.836z"/>
    <path class="fil1" d="M58.689 11.405c-0.514,0.503 -0.999,0.925 -1.453,1.265 -0.454,0.339 -0.888,0.611 -1.299,0.819 -0.414,0.206 -0.807,0.354 -1.184,0.442 -0.377,0.089 -0.742,0.135 -1.099,0.135 -0.151,0 -0.317,-0.058 -0.502,-0.169 -0.183,-0.111 -0.354,-0.245 -0.514,-0.405 -0.16,-0.157 -0.291,-0.326 -0.397,-0.497 -0.105,-0.174 -0.16,-0.319 -0.16,-0.442 0,-0.46 0.063,-0.876 0.189,-1.259 0.125,-0.382 0.291,-0.728 0.496,-1.033 0.209,-0.308 0.443,-0.577 0.708,-0.811 0.266,-0.234 0.54,-0.431 0.828,-0.585 0.288,-0.157 0.574,-0.274 0.856,-0.351 0.286,-0.08 0.548,-0.117 0.788,-0.117 0.171,0 0.342,0.049 0.514,0.148 0.168,0.1 0.325,0.223 0.462,0.369 0.14,0.145 0.254,0.297 0.34,0.456 0.085,0.16 0.128,0.297 0.128,0.414 0,0.189 -0.077,0.383 -0.237,0.582 -0.16,0.197 -0.382,0.4 -0.673,0.606 -0.289,0.205 -0.64,0.416 -1.045,0.63 -0.408,0.214 -0.856,0.431 -1.347,0.648 -0.017,0.134 -0.026,0.266 -0.026,0.394 0,0.171 0.04,0.288 0.114,0.351 0.074,0.06 0.217,0.092 0.423,0.092 0.368,0 0.713,-0.06 1.041,-0.183 0.326,-0.123 0.64,-0.283 0.939,-0.477 0.303,-0.197 0.591,-0.419 0.871,-0.67 0.28,-0.252 0.554,-0.503 0.828,-0.76l0.411 0.408zm-2.946 -2.089c-0.111,0 -0.234,0.06 -0.368,0.18 -0.131,0.12 -0.265,0.277 -0.4,0.471 -0.134,0.197 -0.262,0.419 -0.385,0.673 -0.123,0.255 -0.228,0.517 -0.317,0.791 0.206,-0.134 0.408,-0.277 0.605,-0.425 0.197,-0.151 0.374,-0.308 0.531,-0.474 0.157,-0.163 0.283,-0.334 0.377,-0.505 0.094,-0.174 0.143,-0.346 0.143,-0.52 0,-0.048 -0.017,-0.094 -0.046,-0.134 -0.031,-0.037 -0.077,-0.057 -0.14,-0.057z"/>
   </g>
  </g>
 </g>
</svg>
